%TF.GenerationSoftware,KiCad,Pcbnew,8.0.8*%
%TF.CreationDate,2025-01-30T21:03:49+01:00*%
%TF.ProjectId,HAMS_hub,48414d53-5f68-4756-922e-6b696361645f,rev?*%
%TF.SameCoordinates,Original*%
%TF.FileFunction,Drillmap*%
%TF.FilePolarity,Positive*%
%FSLAX45Y45*%
G04 Gerber Fmt 4.5, Leading zero omitted, Abs format (unit mm)*
G04 Created by KiCad (PCBNEW 8.0.8) date 2025-01-30 21:03:49*
%MOMM*%
%LPD*%
G01*
G04 APERTURE LIST*
%ADD10C,0.050000*%
%ADD11C,0.200000*%
%ADD12C,0.220000*%
G04 APERTURE END LIST*
D10*
X8345500Y-5870000D02*
X13345500Y-5870000D01*
X13345500Y-13370000D01*
X8345500Y-13370000D01*
X8345500Y-5870000D01*
D11*
D12*
X8450000Y-5980000D02*
X8670000Y-6200000D01*
X8670000Y-5980000D02*
X8450000Y-6200000D01*
X8450000Y-13040000D02*
X8670000Y-13260000D01*
X8670000Y-13040000D02*
X8450000Y-13260000D01*
X13020000Y-5980000D02*
X13240000Y-6200000D01*
X13240000Y-5980000D02*
X13020000Y-6200000D01*
X13020000Y-13040000D02*
X13240000Y-13260000D01*
X13240000Y-13040000D02*
X13020000Y-13260000D01*
D11*
X8603777Y-13683984D02*
X8603777Y-13483984D01*
X8603777Y-13483984D02*
X8651396Y-13483984D01*
X8651396Y-13483984D02*
X8679967Y-13493508D01*
X8679967Y-13493508D02*
X8699015Y-13512555D01*
X8699015Y-13512555D02*
X8708539Y-13531603D01*
X8708539Y-13531603D02*
X8718063Y-13569698D01*
X8718063Y-13569698D02*
X8718063Y-13598269D01*
X8718063Y-13598269D02*
X8708539Y-13636365D01*
X8708539Y-13636365D02*
X8699015Y-13655412D01*
X8699015Y-13655412D02*
X8679967Y-13674460D01*
X8679967Y-13674460D02*
X8651396Y-13683984D01*
X8651396Y-13683984D02*
X8603777Y-13683984D01*
X8803777Y-13683984D02*
X8803777Y-13550650D01*
X8803777Y-13588746D02*
X8813301Y-13569698D01*
X8813301Y-13569698D02*
X8822824Y-13560174D01*
X8822824Y-13560174D02*
X8841872Y-13550650D01*
X8841872Y-13550650D02*
X8860920Y-13550650D01*
X8927586Y-13683984D02*
X8927586Y-13550650D01*
X8927586Y-13483984D02*
X8918063Y-13493508D01*
X8918063Y-13493508D02*
X8927586Y-13503031D01*
X8927586Y-13503031D02*
X8937110Y-13493508D01*
X8937110Y-13493508D02*
X8927586Y-13483984D01*
X8927586Y-13483984D02*
X8927586Y-13503031D01*
X9051396Y-13683984D02*
X9032348Y-13674460D01*
X9032348Y-13674460D02*
X9022824Y-13655412D01*
X9022824Y-13655412D02*
X9022824Y-13483984D01*
X9156158Y-13683984D02*
X9137110Y-13674460D01*
X9137110Y-13674460D02*
X9127586Y-13655412D01*
X9127586Y-13655412D02*
X9127586Y-13483984D01*
X9384729Y-13683984D02*
X9384729Y-13483984D01*
X9384729Y-13483984D02*
X9451396Y-13626841D01*
X9451396Y-13626841D02*
X9518063Y-13483984D01*
X9518063Y-13483984D02*
X9518063Y-13683984D01*
X9699015Y-13683984D02*
X9699015Y-13579222D01*
X9699015Y-13579222D02*
X9689491Y-13560174D01*
X9689491Y-13560174D02*
X9670444Y-13550650D01*
X9670444Y-13550650D02*
X9632348Y-13550650D01*
X9632348Y-13550650D02*
X9613301Y-13560174D01*
X9699015Y-13674460D02*
X9679967Y-13683984D01*
X9679967Y-13683984D02*
X9632348Y-13683984D01*
X9632348Y-13683984D02*
X9613301Y-13674460D01*
X9613301Y-13674460D02*
X9603777Y-13655412D01*
X9603777Y-13655412D02*
X9603777Y-13636365D01*
X9603777Y-13636365D02*
X9613301Y-13617317D01*
X9613301Y-13617317D02*
X9632348Y-13607793D01*
X9632348Y-13607793D02*
X9679967Y-13607793D01*
X9679967Y-13607793D02*
X9699015Y-13598269D01*
X9794253Y-13550650D02*
X9794253Y-13750650D01*
X9794253Y-13560174D02*
X9813301Y-13550650D01*
X9813301Y-13550650D02*
X9851396Y-13550650D01*
X9851396Y-13550650D02*
X9870444Y-13560174D01*
X9870444Y-13560174D02*
X9879967Y-13569698D01*
X9879967Y-13569698D02*
X9889491Y-13588746D01*
X9889491Y-13588746D02*
X9889491Y-13645888D01*
X9889491Y-13645888D02*
X9879967Y-13664936D01*
X9879967Y-13664936D02*
X9870444Y-13674460D01*
X9870444Y-13674460D02*
X9851396Y-13683984D01*
X9851396Y-13683984D02*
X9813301Y-13683984D01*
X9813301Y-13683984D02*
X9794253Y-13674460D01*
X9975205Y-13664936D02*
X9984729Y-13674460D01*
X9984729Y-13674460D02*
X9975205Y-13683984D01*
X9975205Y-13683984D02*
X9965682Y-13674460D01*
X9965682Y-13674460D02*
X9975205Y-13664936D01*
X9975205Y-13664936D02*
X9975205Y-13683984D01*
X9975205Y-13560174D02*
X9984729Y-13569698D01*
X9984729Y-13569698D02*
X9975205Y-13579222D01*
X9975205Y-13579222D02*
X9965682Y-13569698D01*
X9965682Y-13569698D02*
X9975205Y-13560174D01*
X9975205Y-13560174D02*
X9975205Y-13579222D01*
X8143000Y-13912500D02*
X8343000Y-14112500D01*
X8343000Y-13912500D02*
X8143000Y-14112500D01*
X8594253Y-13923031D02*
X8603777Y-13913508D01*
X8603777Y-13913508D02*
X8622824Y-13903984D01*
X8622824Y-13903984D02*
X8670444Y-13903984D01*
X8670444Y-13903984D02*
X8689491Y-13913508D01*
X8689491Y-13913508D02*
X8699015Y-13923031D01*
X8699015Y-13923031D02*
X8708539Y-13942079D01*
X8708539Y-13942079D02*
X8708539Y-13961127D01*
X8708539Y-13961127D02*
X8699015Y-13989698D01*
X8699015Y-13989698D02*
X8584729Y-14103984D01*
X8584729Y-14103984D02*
X8708539Y-14103984D01*
X8794253Y-14084936D02*
X8803777Y-14094460D01*
X8803777Y-14094460D02*
X8794253Y-14103984D01*
X8794253Y-14103984D02*
X8784729Y-14094460D01*
X8784729Y-14094460D02*
X8794253Y-14084936D01*
X8794253Y-14084936D02*
X8794253Y-14103984D01*
X8879967Y-13923031D02*
X8889491Y-13913508D01*
X8889491Y-13913508D02*
X8908539Y-13903984D01*
X8908539Y-13903984D02*
X8956158Y-13903984D01*
X8956158Y-13903984D02*
X8975205Y-13913508D01*
X8975205Y-13913508D02*
X8984729Y-13923031D01*
X8984729Y-13923031D02*
X8994253Y-13942079D01*
X8994253Y-13942079D02*
X8994253Y-13961127D01*
X8994253Y-13961127D02*
X8984729Y-13989698D01*
X8984729Y-13989698D02*
X8870444Y-14103984D01*
X8870444Y-14103984D02*
X8994253Y-14103984D01*
X9118063Y-13903984D02*
X9137110Y-13903984D01*
X9137110Y-13903984D02*
X9156158Y-13913508D01*
X9156158Y-13913508D02*
X9165682Y-13923031D01*
X9165682Y-13923031D02*
X9175205Y-13942079D01*
X9175205Y-13942079D02*
X9184729Y-13980174D01*
X9184729Y-13980174D02*
X9184729Y-14027793D01*
X9184729Y-14027793D02*
X9175205Y-14065888D01*
X9175205Y-14065888D02*
X9165682Y-14084936D01*
X9165682Y-14084936D02*
X9156158Y-14094460D01*
X9156158Y-14094460D02*
X9137110Y-14103984D01*
X9137110Y-14103984D02*
X9118063Y-14103984D01*
X9118063Y-14103984D02*
X9099015Y-14094460D01*
X9099015Y-14094460D02*
X9089491Y-14084936D01*
X9089491Y-14084936D02*
X9079967Y-14065888D01*
X9079967Y-14065888D02*
X9070444Y-14027793D01*
X9070444Y-14027793D02*
X9070444Y-13980174D01*
X9070444Y-13980174D02*
X9079967Y-13942079D01*
X9079967Y-13942079D02*
X9089491Y-13923031D01*
X9089491Y-13923031D02*
X9099015Y-13913508D01*
X9099015Y-13913508D02*
X9118063Y-13903984D01*
X9308539Y-13903984D02*
X9327586Y-13903984D01*
X9327586Y-13903984D02*
X9346634Y-13913508D01*
X9346634Y-13913508D02*
X9356158Y-13923031D01*
X9356158Y-13923031D02*
X9365682Y-13942079D01*
X9365682Y-13942079D02*
X9375205Y-13980174D01*
X9375205Y-13980174D02*
X9375205Y-14027793D01*
X9375205Y-14027793D02*
X9365682Y-14065888D01*
X9365682Y-14065888D02*
X9356158Y-14084936D01*
X9356158Y-14084936D02*
X9346634Y-14094460D01*
X9346634Y-14094460D02*
X9327586Y-14103984D01*
X9327586Y-14103984D02*
X9308539Y-14103984D01*
X9308539Y-14103984D02*
X9289491Y-14094460D01*
X9289491Y-14094460D02*
X9279967Y-14084936D01*
X9279967Y-14084936D02*
X9270444Y-14065888D01*
X9270444Y-14065888D02*
X9260920Y-14027793D01*
X9260920Y-14027793D02*
X9260920Y-13980174D01*
X9260920Y-13980174D02*
X9270444Y-13942079D01*
X9270444Y-13942079D02*
X9279967Y-13923031D01*
X9279967Y-13923031D02*
X9289491Y-13913508D01*
X9289491Y-13913508D02*
X9308539Y-13903984D01*
X9460920Y-14103984D02*
X9460920Y-13970650D01*
X9460920Y-13989698D02*
X9470444Y-13980174D01*
X9470444Y-13980174D02*
X9489491Y-13970650D01*
X9489491Y-13970650D02*
X9518063Y-13970650D01*
X9518063Y-13970650D02*
X9537110Y-13980174D01*
X9537110Y-13980174D02*
X9546634Y-13999222D01*
X9546634Y-13999222D02*
X9546634Y-14103984D01*
X9546634Y-13999222D02*
X9556158Y-13980174D01*
X9556158Y-13980174D02*
X9575205Y-13970650D01*
X9575205Y-13970650D02*
X9603777Y-13970650D01*
X9603777Y-13970650D02*
X9622825Y-13980174D01*
X9622825Y-13980174D02*
X9632348Y-13999222D01*
X9632348Y-13999222D02*
X9632348Y-14103984D01*
X9727586Y-14103984D02*
X9727586Y-13970650D01*
X9727586Y-13989698D02*
X9737110Y-13980174D01*
X9737110Y-13980174D02*
X9756158Y-13970650D01*
X9756158Y-13970650D02*
X9784729Y-13970650D01*
X9784729Y-13970650D02*
X9803777Y-13980174D01*
X9803777Y-13980174D02*
X9813301Y-13999222D01*
X9813301Y-13999222D02*
X9813301Y-14103984D01*
X9813301Y-13999222D02*
X9822825Y-13980174D01*
X9822825Y-13980174D02*
X9841872Y-13970650D01*
X9841872Y-13970650D02*
X9870444Y-13970650D01*
X9870444Y-13970650D02*
X9889491Y-13980174D01*
X9889491Y-13980174D02*
X9899015Y-13999222D01*
X9899015Y-13999222D02*
X9899015Y-14103984D01*
X10289491Y-13894460D02*
X10118063Y-14151603D01*
X10546634Y-13903984D02*
X10565682Y-13903984D01*
X10565682Y-13903984D02*
X10584729Y-13913508D01*
X10584729Y-13913508D02*
X10594253Y-13923031D01*
X10594253Y-13923031D02*
X10603777Y-13942079D01*
X10603777Y-13942079D02*
X10613301Y-13980174D01*
X10613301Y-13980174D02*
X10613301Y-14027793D01*
X10613301Y-14027793D02*
X10603777Y-14065888D01*
X10603777Y-14065888D02*
X10594253Y-14084936D01*
X10594253Y-14084936D02*
X10584729Y-14094460D01*
X10584729Y-14094460D02*
X10565682Y-14103984D01*
X10565682Y-14103984D02*
X10546634Y-14103984D01*
X10546634Y-14103984D02*
X10527587Y-14094460D01*
X10527587Y-14094460D02*
X10518063Y-14084936D01*
X10518063Y-14084936D02*
X10508539Y-14065888D01*
X10508539Y-14065888D02*
X10499015Y-14027793D01*
X10499015Y-14027793D02*
X10499015Y-13980174D01*
X10499015Y-13980174D02*
X10508539Y-13942079D01*
X10508539Y-13942079D02*
X10518063Y-13923031D01*
X10518063Y-13923031D02*
X10527587Y-13913508D01*
X10527587Y-13913508D02*
X10546634Y-13903984D01*
X10699015Y-14084936D02*
X10708539Y-14094460D01*
X10708539Y-14094460D02*
X10699015Y-14103984D01*
X10699015Y-14103984D02*
X10689491Y-14094460D01*
X10689491Y-14094460D02*
X10699015Y-14084936D01*
X10699015Y-14084936D02*
X10699015Y-14103984D01*
X10832348Y-13903984D02*
X10851396Y-13903984D01*
X10851396Y-13903984D02*
X10870444Y-13913508D01*
X10870444Y-13913508D02*
X10879968Y-13923031D01*
X10879968Y-13923031D02*
X10889491Y-13942079D01*
X10889491Y-13942079D02*
X10899015Y-13980174D01*
X10899015Y-13980174D02*
X10899015Y-14027793D01*
X10899015Y-14027793D02*
X10889491Y-14065888D01*
X10889491Y-14065888D02*
X10879968Y-14084936D01*
X10879968Y-14084936D02*
X10870444Y-14094460D01*
X10870444Y-14094460D02*
X10851396Y-14103984D01*
X10851396Y-14103984D02*
X10832348Y-14103984D01*
X10832348Y-14103984D02*
X10813301Y-14094460D01*
X10813301Y-14094460D02*
X10803777Y-14084936D01*
X10803777Y-14084936D02*
X10794253Y-14065888D01*
X10794253Y-14065888D02*
X10784729Y-14027793D01*
X10784729Y-14027793D02*
X10784729Y-13980174D01*
X10784729Y-13980174D02*
X10794253Y-13942079D01*
X10794253Y-13942079D02*
X10803777Y-13923031D01*
X10803777Y-13923031D02*
X10813301Y-13913508D01*
X10813301Y-13913508D02*
X10832348Y-13903984D01*
X11013301Y-13989698D02*
X10994253Y-13980174D01*
X10994253Y-13980174D02*
X10984729Y-13970650D01*
X10984729Y-13970650D02*
X10975206Y-13951603D01*
X10975206Y-13951603D02*
X10975206Y-13942079D01*
X10975206Y-13942079D02*
X10984729Y-13923031D01*
X10984729Y-13923031D02*
X10994253Y-13913508D01*
X10994253Y-13913508D02*
X11013301Y-13903984D01*
X11013301Y-13903984D02*
X11051396Y-13903984D01*
X11051396Y-13903984D02*
X11070444Y-13913508D01*
X11070444Y-13913508D02*
X11079968Y-13923031D01*
X11079968Y-13923031D02*
X11089491Y-13942079D01*
X11089491Y-13942079D02*
X11089491Y-13951603D01*
X11089491Y-13951603D02*
X11079968Y-13970650D01*
X11079968Y-13970650D02*
X11070444Y-13980174D01*
X11070444Y-13980174D02*
X11051396Y-13989698D01*
X11051396Y-13989698D02*
X11013301Y-13989698D01*
X11013301Y-13989698D02*
X10994253Y-13999222D01*
X10994253Y-13999222D02*
X10984729Y-14008746D01*
X10984729Y-14008746D02*
X10975206Y-14027793D01*
X10975206Y-14027793D02*
X10975206Y-14065888D01*
X10975206Y-14065888D02*
X10984729Y-14084936D01*
X10984729Y-14084936D02*
X10994253Y-14094460D01*
X10994253Y-14094460D02*
X11013301Y-14103984D01*
X11013301Y-14103984D02*
X11051396Y-14103984D01*
X11051396Y-14103984D02*
X11070444Y-14094460D01*
X11070444Y-14094460D02*
X11079968Y-14084936D01*
X11079968Y-14084936D02*
X11089491Y-14065888D01*
X11089491Y-14065888D02*
X11089491Y-14027793D01*
X11089491Y-14027793D02*
X11079968Y-14008746D01*
X11079968Y-14008746D02*
X11070444Y-13999222D01*
X11070444Y-13999222D02*
X11051396Y-13989698D01*
X11260920Y-13903984D02*
X11222825Y-13903984D01*
X11222825Y-13903984D02*
X11203777Y-13913508D01*
X11203777Y-13913508D02*
X11194253Y-13923031D01*
X11194253Y-13923031D02*
X11175206Y-13951603D01*
X11175206Y-13951603D02*
X11165682Y-13989698D01*
X11165682Y-13989698D02*
X11165682Y-14065888D01*
X11165682Y-14065888D02*
X11175206Y-14084936D01*
X11175206Y-14084936D02*
X11184729Y-14094460D01*
X11184729Y-14094460D02*
X11203777Y-14103984D01*
X11203777Y-14103984D02*
X11241872Y-14103984D01*
X11241872Y-14103984D02*
X11260920Y-14094460D01*
X11260920Y-14094460D02*
X11270444Y-14084936D01*
X11270444Y-14084936D02*
X11279967Y-14065888D01*
X11279967Y-14065888D02*
X11279967Y-14018269D01*
X11279967Y-14018269D02*
X11270444Y-13999222D01*
X11270444Y-13999222D02*
X11260920Y-13989698D01*
X11260920Y-13989698D02*
X11241872Y-13980174D01*
X11241872Y-13980174D02*
X11203777Y-13980174D01*
X11203777Y-13980174D02*
X11184729Y-13989698D01*
X11184729Y-13989698D02*
X11175206Y-13999222D01*
X11175206Y-13999222D02*
X11165682Y-14018269D01*
X11451396Y-13903984D02*
X11413301Y-13903984D01*
X11413301Y-13903984D02*
X11394253Y-13913508D01*
X11394253Y-13913508D02*
X11384729Y-13923031D01*
X11384729Y-13923031D02*
X11365682Y-13951603D01*
X11365682Y-13951603D02*
X11356158Y-13989698D01*
X11356158Y-13989698D02*
X11356158Y-14065888D01*
X11356158Y-14065888D02*
X11365682Y-14084936D01*
X11365682Y-14084936D02*
X11375206Y-14094460D01*
X11375206Y-14094460D02*
X11394253Y-14103984D01*
X11394253Y-14103984D02*
X11432348Y-14103984D01*
X11432348Y-14103984D02*
X11451396Y-14094460D01*
X11451396Y-14094460D02*
X11460920Y-14084936D01*
X11460920Y-14084936D02*
X11470444Y-14065888D01*
X11470444Y-14065888D02*
X11470444Y-14018269D01*
X11470444Y-14018269D02*
X11460920Y-13999222D01*
X11460920Y-13999222D02*
X11451396Y-13989698D01*
X11451396Y-13989698D02*
X11432348Y-13980174D01*
X11432348Y-13980174D02*
X11394253Y-13980174D01*
X11394253Y-13980174D02*
X11375206Y-13989698D01*
X11375206Y-13989698D02*
X11365682Y-13999222D01*
X11365682Y-13999222D02*
X11356158Y-14018269D01*
X11546634Y-13903984D02*
X11546634Y-13942079D01*
X11622825Y-13903984D02*
X11622825Y-13942079D01*
X11918063Y-14180174D02*
X11908539Y-14170650D01*
X11908539Y-14170650D02*
X11889491Y-14142079D01*
X11889491Y-14142079D02*
X11879968Y-14123031D01*
X11879968Y-14123031D02*
X11870444Y-14094460D01*
X11870444Y-14094460D02*
X11860920Y-14046841D01*
X11860920Y-14046841D02*
X11860920Y-14008746D01*
X11860920Y-14008746D02*
X11870444Y-13961127D01*
X11870444Y-13961127D02*
X11879968Y-13932555D01*
X11879968Y-13932555D02*
X11889491Y-13913508D01*
X11889491Y-13913508D02*
X11908539Y-13884936D01*
X11908539Y-13884936D02*
X11918063Y-13875412D01*
X12079968Y-13970650D02*
X12079968Y-14103984D01*
X12032348Y-13894460D02*
X11984729Y-14037317D01*
X11984729Y-14037317D02*
X12108539Y-14037317D01*
X12337110Y-14103984D02*
X12337110Y-13903984D01*
X12422825Y-14103984D02*
X12422825Y-13999222D01*
X12422825Y-13999222D02*
X12413301Y-13980174D01*
X12413301Y-13980174D02*
X12394253Y-13970650D01*
X12394253Y-13970650D02*
X12365682Y-13970650D01*
X12365682Y-13970650D02*
X12346634Y-13980174D01*
X12346634Y-13980174D02*
X12337110Y-13989698D01*
X12546634Y-14103984D02*
X12527587Y-14094460D01*
X12527587Y-14094460D02*
X12518063Y-14084936D01*
X12518063Y-14084936D02*
X12508539Y-14065888D01*
X12508539Y-14065888D02*
X12508539Y-14008746D01*
X12508539Y-14008746D02*
X12518063Y-13989698D01*
X12518063Y-13989698D02*
X12527587Y-13980174D01*
X12527587Y-13980174D02*
X12546634Y-13970650D01*
X12546634Y-13970650D02*
X12575206Y-13970650D01*
X12575206Y-13970650D02*
X12594253Y-13980174D01*
X12594253Y-13980174D02*
X12603777Y-13989698D01*
X12603777Y-13989698D02*
X12613301Y-14008746D01*
X12613301Y-14008746D02*
X12613301Y-14065888D01*
X12613301Y-14065888D02*
X12603777Y-14084936D01*
X12603777Y-14084936D02*
X12594253Y-14094460D01*
X12594253Y-14094460D02*
X12575206Y-14103984D01*
X12575206Y-14103984D02*
X12546634Y-14103984D01*
X12727587Y-14103984D02*
X12708539Y-14094460D01*
X12708539Y-14094460D02*
X12699015Y-14075412D01*
X12699015Y-14075412D02*
X12699015Y-13903984D01*
X12879968Y-14094460D02*
X12860920Y-14103984D01*
X12860920Y-14103984D02*
X12822825Y-14103984D01*
X12822825Y-14103984D02*
X12803777Y-14094460D01*
X12803777Y-14094460D02*
X12794253Y-14075412D01*
X12794253Y-14075412D02*
X12794253Y-13999222D01*
X12794253Y-13999222D02*
X12803777Y-13980174D01*
X12803777Y-13980174D02*
X12822825Y-13970650D01*
X12822825Y-13970650D02*
X12860920Y-13970650D01*
X12860920Y-13970650D02*
X12879968Y-13980174D01*
X12879968Y-13980174D02*
X12889491Y-13999222D01*
X12889491Y-13999222D02*
X12889491Y-14018269D01*
X12889491Y-14018269D02*
X12794253Y-14037317D01*
X12965682Y-14094460D02*
X12984730Y-14103984D01*
X12984730Y-14103984D02*
X13022825Y-14103984D01*
X13022825Y-14103984D02*
X13041872Y-14094460D01*
X13041872Y-14094460D02*
X13051396Y-14075412D01*
X13051396Y-14075412D02*
X13051396Y-14065888D01*
X13051396Y-14065888D02*
X13041872Y-14046841D01*
X13041872Y-14046841D02*
X13022825Y-14037317D01*
X13022825Y-14037317D02*
X12994253Y-14037317D01*
X12994253Y-14037317D02*
X12975206Y-14027793D01*
X12975206Y-14027793D02*
X12965682Y-14008746D01*
X12965682Y-14008746D02*
X12965682Y-13999222D01*
X12965682Y-13999222D02*
X12975206Y-13980174D01*
X12975206Y-13980174D02*
X12994253Y-13970650D01*
X12994253Y-13970650D02*
X13022825Y-13970650D01*
X13022825Y-13970650D02*
X13041872Y-13980174D01*
X13118063Y-14180174D02*
X13127587Y-14170650D01*
X13127587Y-14170650D02*
X13146634Y-14142079D01*
X13146634Y-14142079D02*
X13156158Y-14123031D01*
X13156158Y-14123031D02*
X13165682Y-14094460D01*
X13165682Y-14094460D02*
X13175206Y-14046841D01*
X13175206Y-14046841D02*
X13175206Y-14008746D01*
X13175206Y-14008746D02*
X13165682Y-13961127D01*
X13165682Y-13961127D02*
X13156158Y-13932555D01*
X13156158Y-13932555D02*
X13146634Y-13913508D01*
X13146634Y-13913508D02*
X13127587Y-13884936D01*
X13127587Y-13884936D02*
X13118063Y-13875412D01*
X13479968Y-14180174D02*
X13470444Y-14170650D01*
X13470444Y-14170650D02*
X13451396Y-14142079D01*
X13451396Y-14142079D02*
X13441872Y-14123031D01*
X13441872Y-14123031D02*
X13432349Y-14094460D01*
X13432349Y-14094460D02*
X13422825Y-14046841D01*
X13422825Y-14046841D02*
X13422825Y-14008746D01*
X13422825Y-14008746D02*
X13432349Y-13961127D01*
X13432349Y-13961127D02*
X13441872Y-13932555D01*
X13441872Y-13932555D02*
X13451396Y-13913508D01*
X13451396Y-13913508D02*
X13470444Y-13884936D01*
X13470444Y-13884936D02*
X13479968Y-13875412D01*
X13556158Y-13970650D02*
X13556158Y-14103984D01*
X13556158Y-13989698D02*
X13565682Y-13980174D01*
X13565682Y-13980174D02*
X13584730Y-13970650D01*
X13584730Y-13970650D02*
X13613301Y-13970650D01*
X13613301Y-13970650D02*
X13632349Y-13980174D01*
X13632349Y-13980174D02*
X13641872Y-13999222D01*
X13641872Y-13999222D02*
X13641872Y-14103984D01*
X13765682Y-14103984D02*
X13746634Y-14094460D01*
X13746634Y-14094460D02*
X13737111Y-14084936D01*
X13737111Y-14084936D02*
X13727587Y-14065888D01*
X13727587Y-14065888D02*
X13727587Y-14008746D01*
X13727587Y-14008746D02*
X13737111Y-13989698D01*
X13737111Y-13989698D02*
X13746634Y-13980174D01*
X13746634Y-13980174D02*
X13765682Y-13970650D01*
X13765682Y-13970650D02*
X13794253Y-13970650D01*
X13794253Y-13970650D02*
X13813301Y-13980174D01*
X13813301Y-13980174D02*
X13822825Y-13989698D01*
X13822825Y-13989698D02*
X13832349Y-14008746D01*
X13832349Y-14008746D02*
X13832349Y-14065888D01*
X13832349Y-14065888D02*
X13822825Y-14084936D01*
X13822825Y-14084936D02*
X13813301Y-14094460D01*
X13813301Y-14094460D02*
X13794253Y-14103984D01*
X13794253Y-14103984D02*
X13765682Y-14103984D01*
X13889492Y-13970650D02*
X13965682Y-13970650D01*
X13918063Y-13903984D02*
X13918063Y-14075412D01*
X13918063Y-14075412D02*
X13927587Y-14094460D01*
X13927587Y-14094460D02*
X13946634Y-14103984D01*
X13946634Y-14103984D02*
X13965682Y-14103984D01*
X14184730Y-13970650D02*
X14184730Y-14170650D01*
X14184730Y-13980174D02*
X14203777Y-13970650D01*
X14203777Y-13970650D02*
X14241873Y-13970650D01*
X14241873Y-13970650D02*
X14260920Y-13980174D01*
X14260920Y-13980174D02*
X14270444Y-13989698D01*
X14270444Y-13989698D02*
X14279968Y-14008746D01*
X14279968Y-14008746D02*
X14279968Y-14065888D01*
X14279968Y-14065888D02*
X14270444Y-14084936D01*
X14270444Y-14084936D02*
X14260920Y-14094460D01*
X14260920Y-14094460D02*
X14241873Y-14103984D01*
X14241873Y-14103984D02*
X14203777Y-14103984D01*
X14203777Y-14103984D02*
X14184730Y-14094460D01*
X14394253Y-14103984D02*
X14375206Y-14094460D01*
X14375206Y-14094460D02*
X14365682Y-14075412D01*
X14365682Y-14075412D02*
X14365682Y-13903984D01*
X14556158Y-14103984D02*
X14556158Y-13999222D01*
X14556158Y-13999222D02*
X14546634Y-13980174D01*
X14546634Y-13980174D02*
X14527587Y-13970650D01*
X14527587Y-13970650D02*
X14489492Y-13970650D01*
X14489492Y-13970650D02*
X14470444Y-13980174D01*
X14556158Y-14094460D02*
X14537111Y-14103984D01*
X14537111Y-14103984D02*
X14489492Y-14103984D01*
X14489492Y-14103984D02*
X14470444Y-14094460D01*
X14470444Y-14094460D02*
X14460920Y-14075412D01*
X14460920Y-14075412D02*
X14460920Y-14056365D01*
X14460920Y-14056365D02*
X14470444Y-14037317D01*
X14470444Y-14037317D02*
X14489492Y-14027793D01*
X14489492Y-14027793D02*
X14537111Y-14027793D01*
X14537111Y-14027793D02*
X14556158Y-14018269D01*
X14622825Y-13970650D02*
X14699015Y-13970650D01*
X14651396Y-13903984D02*
X14651396Y-14075412D01*
X14651396Y-14075412D02*
X14660920Y-14094460D01*
X14660920Y-14094460D02*
X14679968Y-14103984D01*
X14679968Y-14103984D02*
X14699015Y-14103984D01*
X14841873Y-14094460D02*
X14822825Y-14103984D01*
X14822825Y-14103984D02*
X14784730Y-14103984D01*
X14784730Y-14103984D02*
X14765682Y-14094460D01*
X14765682Y-14094460D02*
X14756158Y-14075412D01*
X14756158Y-14075412D02*
X14756158Y-13999222D01*
X14756158Y-13999222D02*
X14765682Y-13980174D01*
X14765682Y-13980174D02*
X14784730Y-13970650D01*
X14784730Y-13970650D02*
X14822825Y-13970650D01*
X14822825Y-13970650D02*
X14841873Y-13980174D01*
X14841873Y-13980174D02*
X14851396Y-13999222D01*
X14851396Y-13999222D02*
X14851396Y-14018269D01*
X14851396Y-14018269D02*
X14756158Y-14037317D01*
X15022825Y-14103984D02*
X15022825Y-13903984D01*
X15022825Y-14094460D02*
X15003777Y-14103984D01*
X15003777Y-14103984D02*
X14965682Y-14103984D01*
X14965682Y-14103984D02*
X14946634Y-14094460D01*
X14946634Y-14094460D02*
X14937111Y-14084936D01*
X14937111Y-14084936D02*
X14927587Y-14065888D01*
X14927587Y-14065888D02*
X14927587Y-14008746D01*
X14927587Y-14008746D02*
X14937111Y-13989698D01*
X14937111Y-13989698D02*
X14946634Y-13980174D01*
X14946634Y-13980174D02*
X14965682Y-13970650D01*
X14965682Y-13970650D02*
X15003777Y-13970650D01*
X15003777Y-13970650D02*
X15022825Y-13980174D01*
X15099015Y-14180174D02*
X15108539Y-14170650D01*
X15108539Y-14170650D02*
X15127587Y-14142079D01*
X15127587Y-14142079D02*
X15137111Y-14123031D01*
X15137111Y-14123031D02*
X15146634Y-14094460D01*
X15146634Y-14094460D02*
X15156158Y-14046841D01*
X15156158Y-14046841D02*
X15156158Y-14008746D01*
X15156158Y-14008746D02*
X15146634Y-13961127D01*
X15146634Y-13961127D02*
X15137111Y-13932555D01*
X15137111Y-13932555D02*
X15127587Y-13913508D01*
X15127587Y-13913508D02*
X15108539Y-13884936D01*
X15108539Y-13884936D02*
X15099015Y-13875412D01*
M02*
