G04 #@! TF.GenerationSoftware,KiCad,Pcbnew,8.0.8*
G04 #@! TF.CreationDate,2025-01-30T21:03:47+01:00*
G04 #@! TF.ProjectId,HAMS_hub,48414d53-5f68-4756-922e-6b696361645f,rev?*
G04 #@! TF.SameCoordinates,Original*
G04 #@! TF.FileFunction,Legend,Bot*
G04 #@! TF.FilePolarity,Positive*
%FSLAX46Y46*%
G04 Gerber Fmt 4.6, Leading zero omitted, Abs format (unit mm)*
G04 Created by KiCad (PCBNEW 8.0.8) date 2025-01-30 21:03:47*
%MOMM*%
%LPD*%
G01*
G04 APERTURE LIST*
%ADD10C,0.150000*%
%ADD11C,1.950000*%
%ADD12C,1.500000*%
%ADD13R,1.500000X1.500000*%
%ADD14R,1.700000X1.700000*%
%ADD15O,1.700000X1.700000*%
%ADD16C,2.200000*%
%ADD17C,1.700000*%
G04 APERTURE END LIST*
D10*
X112852506Y-60719819D02*
X112852506Y-61434104D01*
X112852506Y-61434104D02*
X112900125Y-61576961D01*
X112900125Y-61576961D02*
X112995363Y-61672200D01*
X112995363Y-61672200D02*
X113138220Y-61719819D01*
X113138220Y-61719819D02*
X113233458Y-61719819D01*
X111900125Y-61719819D02*
X112376315Y-61719819D01*
X112376315Y-61719819D02*
X112376315Y-60719819D01*
X110995363Y-61624580D02*
X111042982Y-61672200D01*
X111042982Y-61672200D02*
X111185839Y-61719819D01*
X111185839Y-61719819D02*
X111281077Y-61719819D01*
X111281077Y-61719819D02*
X111423934Y-61672200D01*
X111423934Y-61672200D02*
X111519172Y-61576961D01*
X111519172Y-61576961D02*
X111566791Y-61481723D01*
X111566791Y-61481723D02*
X111614410Y-61291247D01*
X111614410Y-61291247D02*
X111614410Y-61148390D01*
X111614410Y-61148390D02*
X111566791Y-60957914D01*
X111566791Y-60957914D02*
X111519172Y-60862676D01*
X111519172Y-60862676D02*
X111423934Y-60767438D01*
X111423934Y-60767438D02*
X111281077Y-60719819D01*
X111281077Y-60719819D02*
X111185839Y-60719819D01*
X111185839Y-60719819D02*
X111042982Y-60767438D01*
X111042982Y-60767438D02*
X110995363Y-60815057D01*
X110281077Y-60719819D02*
X110281077Y-61434104D01*
X110281077Y-61434104D02*
X110328696Y-61576961D01*
X110328696Y-61576961D02*
X110423934Y-61672200D01*
X110423934Y-61672200D02*
X110566791Y-61719819D01*
X110566791Y-61719819D02*
X110662029Y-61719819D01*
X109328696Y-61719819D02*
X109804886Y-61719819D01*
X109804886Y-61719819D02*
X109804886Y-60719819D01*
X108423934Y-61624580D02*
X108471553Y-61672200D01*
X108471553Y-61672200D02*
X108614410Y-61719819D01*
X108614410Y-61719819D02*
X108709648Y-61719819D01*
X108709648Y-61719819D02*
X108852505Y-61672200D01*
X108852505Y-61672200D02*
X108947743Y-61576961D01*
X108947743Y-61576961D02*
X108995362Y-61481723D01*
X108995362Y-61481723D02*
X109042981Y-61291247D01*
X109042981Y-61291247D02*
X109042981Y-61148390D01*
X109042981Y-61148390D02*
X108995362Y-60957914D01*
X108995362Y-60957914D02*
X108947743Y-60862676D01*
X108947743Y-60862676D02*
X108852505Y-60767438D01*
X108852505Y-60767438D02*
X108709648Y-60719819D01*
X108709648Y-60719819D02*
X108614410Y-60719819D01*
X108614410Y-60719819D02*
X108471553Y-60767438D01*
X108471553Y-60767438D02*
X108423934Y-60815057D01*
X107709648Y-60719819D02*
X107709648Y-61434104D01*
X107709648Y-61434104D02*
X107757267Y-61576961D01*
X107757267Y-61576961D02*
X107852505Y-61672200D01*
X107852505Y-61672200D02*
X107995362Y-61719819D01*
X107995362Y-61719819D02*
X108090600Y-61719819D01*
X106757267Y-61719819D02*
X107233457Y-61719819D01*
X107233457Y-61719819D02*
X107233457Y-60719819D01*
X105852505Y-61624580D02*
X105900124Y-61672200D01*
X105900124Y-61672200D02*
X106042981Y-61719819D01*
X106042981Y-61719819D02*
X106138219Y-61719819D01*
X106138219Y-61719819D02*
X106281076Y-61672200D01*
X106281076Y-61672200D02*
X106376314Y-61576961D01*
X106376314Y-61576961D02*
X106423933Y-61481723D01*
X106423933Y-61481723D02*
X106471552Y-61291247D01*
X106471552Y-61291247D02*
X106471552Y-61148390D01*
X106471552Y-61148390D02*
X106423933Y-60957914D01*
X106423933Y-60957914D02*
X106376314Y-60862676D01*
X106376314Y-60862676D02*
X106281076Y-60767438D01*
X106281076Y-60767438D02*
X106138219Y-60719819D01*
X106138219Y-60719819D02*
X106042981Y-60719819D01*
X106042981Y-60719819D02*
X105900124Y-60767438D01*
X105900124Y-60767438D02*
X105852505Y-60815057D01*
X105138219Y-60719819D02*
X105138219Y-61434104D01*
X105138219Y-61434104D02*
X105185838Y-61576961D01*
X105185838Y-61576961D02*
X105281076Y-61672200D01*
X105281076Y-61672200D02*
X105423933Y-61719819D01*
X105423933Y-61719819D02*
X105519171Y-61719819D01*
X104185838Y-61719819D02*
X104662028Y-61719819D01*
X104662028Y-61719819D02*
X104662028Y-60719819D01*
X103281076Y-61624580D02*
X103328695Y-61672200D01*
X103328695Y-61672200D02*
X103471552Y-61719819D01*
X103471552Y-61719819D02*
X103566790Y-61719819D01*
X103566790Y-61719819D02*
X103709647Y-61672200D01*
X103709647Y-61672200D02*
X103804885Y-61576961D01*
X103804885Y-61576961D02*
X103852504Y-61481723D01*
X103852504Y-61481723D02*
X103900123Y-61291247D01*
X103900123Y-61291247D02*
X103900123Y-61148390D01*
X103900123Y-61148390D02*
X103852504Y-60957914D01*
X103852504Y-60957914D02*
X103804885Y-60862676D01*
X103804885Y-60862676D02*
X103709647Y-60767438D01*
X103709647Y-60767438D02*
X103566790Y-60719819D01*
X103566790Y-60719819D02*
X103471552Y-60719819D01*
X103471552Y-60719819D02*
X103328695Y-60767438D01*
X103328695Y-60767438D02*
X103281076Y-60815057D01*
%LPC*%
D11*
X100600000Y-128500000D03*
X107600000Y-128500000D03*
D12*
X101850000Y-131000000D03*
D13*
X106350000Y-131000000D03*
D14*
X130490000Y-64700000D03*
D15*
X127950000Y-64700000D03*
X130490000Y-67240000D03*
X127950000Y-67240000D03*
X130490000Y-69780000D03*
X127950000Y-69780000D03*
X130490000Y-72320000D03*
X127950000Y-72320000D03*
X130490000Y-74860000D03*
X127950000Y-74860000D03*
X130490000Y-77400000D03*
X127950000Y-77400000D03*
X130490000Y-79940000D03*
X127950000Y-79940000D03*
D11*
X89575000Y-128500000D03*
X96575000Y-128500000D03*
D12*
X90825000Y-131000000D03*
D13*
X95325000Y-131000000D03*
D16*
X85600000Y-60900000D03*
D14*
X124775000Y-87075000D03*
D15*
X122235000Y-87075000D03*
X119695000Y-87075000D03*
X117155000Y-87075000D03*
D14*
X86925000Y-69465000D03*
D15*
X86925000Y-66925000D03*
D14*
X130490000Y-111085000D03*
D15*
X127950000Y-111085000D03*
X130490000Y-113625000D03*
X127950000Y-113625000D03*
X130490000Y-116165000D03*
X127950000Y-116165000D03*
X130490000Y-118705000D03*
X127950000Y-118705000D03*
X130490000Y-121245000D03*
X127950000Y-121245000D03*
X130490000Y-123785000D03*
X127950000Y-123785000D03*
X130490000Y-126325000D03*
X127950000Y-126325000D03*
D16*
X85600000Y-131500000D03*
X131300000Y-60900000D03*
D14*
X123115000Y-105810000D03*
D17*
X123115000Y-108350000D03*
X120575000Y-105810000D03*
X120575000Y-108350000D03*
X118035000Y-105810000D03*
X118035000Y-108350000D03*
X115495000Y-105810000D03*
X115495000Y-108350000D03*
D14*
X92175000Y-87050000D03*
D15*
X94715000Y-87050000D03*
X97255000Y-87050000D03*
X99795000Y-87050000D03*
D14*
X92170000Y-120075000D03*
D15*
X94710000Y-120075000D03*
X97250000Y-120075000D03*
X99790000Y-120075000D03*
D14*
X124775000Y-98100000D03*
D15*
X122235000Y-98100000D03*
X119695000Y-98100000D03*
X117155000Y-98100000D03*
D14*
X87100000Y-77075000D03*
D15*
X89640000Y-77075000D03*
X92180000Y-77075000D03*
X94720000Y-77075000D03*
X97260000Y-77075000D03*
X99800000Y-77075000D03*
X102340000Y-77075000D03*
D14*
X92170000Y-109080000D03*
D15*
X94710000Y-109080000D03*
X97250000Y-109080000D03*
X99790000Y-109080000D03*
D16*
X131300000Y-131500000D03*
D14*
X92175000Y-98050000D03*
D15*
X94715000Y-98050000D03*
X97255000Y-98050000D03*
X99795000Y-98050000D03*
%LPD*%
M02*
