G04 #@! TF.GenerationSoftware,KiCad,Pcbnew,8.0.8*
G04 #@! TF.CreationDate,2025-01-30T21:03:47+01:00*
G04 #@! TF.ProjectId,HAMS_hub,48414d53-5f68-4756-922e-6b696361645f,rev?*
G04 #@! TF.SameCoordinates,Original*
G04 #@! TF.FileFunction,Paste,Top*
G04 #@! TF.FilePolarity,Positive*
%FSLAX46Y46*%
G04 Gerber Fmt 4.6, Leading zero omitted, Abs format (unit mm)*
G04 Created by KiCad (PCBNEW 8.0.8) date 2025-01-30 21:03:47*
%MOMM*%
%LPD*%
G01*
G04 APERTURE LIST*
G04 Aperture macros list*
%AMRoundRect*
0 Rectangle with rounded corners*
0 $1 Rounding radius*
0 $2 $3 $4 $5 $6 $7 $8 $9 X,Y pos of 4 corners*
0 Add a 4 corners polygon primitive as box body*
4,1,4,$2,$3,$4,$5,$6,$7,$8,$9,$2,$3,0*
0 Add four circle primitives for the rounded corners*
1,1,$1+$1,$2,$3*
1,1,$1+$1,$4,$5*
1,1,$1+$1,$6,$7*
1,1,$1+$1,$8,$9*
0 Add four rect primitives between the rounded corners*
20,1,$1+$1,$2,$3,$4,$5,0*
20,1,$1+$1,$4,$5,$6,$7,0*
20,1,$1+$1,$6,$7,$8,$9,0*
20,1,$1+$1,$8,$9,$2,$3,0*%
G04 Aperture macros list end*
%ADD10RoundRect,0.200000X0.250000X0.200000X-0.250000X0.200000X-0.250000X-0.200000X0.250000X-0.200000X0*%
%ADD11RoundRect,0.250000X0.350000X0.450000X-0.350000X0.450000X-0.350000X-0.450000X0.350000X-0.450000X0*%
%ADD12RoundRect,0.250000X-0.475000X0.337500X-0.475000X-0.337500X0.475000X-0.337500X0.475000X0.337500X0*%
%ADD13RoundRect,0.250000X0.475000X-0.337500X0.475000X0.337500X-0.475000X0.337500X-0.475000X-0.337500X0*%
%ADD14R,1.600000X0.300000*%
%ADD15RoundRect,0.250000X0.650000X-1.500000X0.650000X1.500000X-0.650000X1.500000X-0.650000X-1.500000X0*%
%ADD16RoundRect,0.250000X-0.337500X-0.475000X0.337500X-0.475000X0.337500X0.475000X-0.337500X0.475000X0*%
%ADD17RoundRect,0.250000X-0.350000X0.850000X-0.350000X-0.850000X0.350000X-0.850000X0.350000X0.850000X0*%
%ADD18RoundRect,0.250000X-1.125000X1.275000X-1.125000X-1.275000X1.125000X-1.275000X1.125000X1.275000X0*%
G04 APERTURE END LIST*
D10*
X96150000Y-65925000D03*
X96150000Y-64025000D03*
X94150000Y-64975000D03*
D11*
X96200000Y-68550000D03*
X94200000Y-68550000D03*
X96225000Y-71100000D03*
X94225000Y-71100000D03*
D12*
X119042500Y-62312500D03*
X119042500Y-64387500D03*
D13*
X108700000Y-75962500D03*
X108700000Y-73887500D03*
D12*
X121592500Y-62312500D03*
X121592500Y-64387500D03*
D14*
X112925000Y-74575000D03*
X112925000Y-75225000D03*
X112925000Y-75875000D03*
X112925000Y-76525000D03*
X116325000Y-76525000D03*
X116325000Y-75875000D03*
X116325000Y-75225000D03*
X116325000Y-74575000D03*
D15*
X91025000Y-70150000D03*
X91025000Y-65150000D03*
D16*
X96775000Y-123975000D03*
X94700000Y-123975000D03*
D13*
X127525000Y-106987500D03*
X127525000Y-104912500D03*
D11*
X90175000Y-123975000D03*
X92175000Y-123975000D03*
D12*
X120125000Y-74512500D03*
X120125000Y-76587500D03*
X109042500Y-62275000D03*
X109042500Y-64350000D03*
D17*
X116250000Y-62300000D03*
D18*
X115495000Y-66925000D03*
X112445000Y-66925000D03*
X115495000Y-70275000D03*
X112445000Y-70275000D03*
D17*
X111690000Y-62300000D03*
D11*
X115625000Y-78700000D03*
X113625000Y-78700000D03*
M02*
