G04 #@! TF.GenerationSoftware,KiCad,Pcbnew,8.0.8*
G04 #@! TF.CreationDate,2025-01-30T21:03:47+01:00*
G04 #@! TF.ProjectId,HAMS_hub,48414d53-5f68-4756-922e-6b696361645f,rev?*
G04 #@! TF.SameCoordinates,Original*
G04 #@! TF.FileFunction,Copper,L1,Top*
G04 #@! TF.FilePolarity,Positive*
%FSLAX46Y46*%
G04 Gerber Fmt 4.6, Leading zero omitted, Abs format (unit mm)*
G04 Created by KiCad (PCBNEW 8.0.8) date 2025-01-30 21:03:47*
%MOMM*%
%LPD*%
G01*
G04 APERTURE LIST*
G04 Aperture macros list*
%AMRoundRect*
0 Rectangle with rounded corners*
0 $1 Rounding radius*
0 $2 $3 $4 $5 $6 $7 $8 $9 X,Y pos of 4 corners*
0 Add a 4 corners polygon primitive as box body*
4,1,4,$2,$3,$4,$5,$6,$7,$8,$9,$2,$3,0*
0 Add four circle primitives for the rounded corners*
1,1,$1+$1,$2,$3*
1,1,$1+$1,$4,$5*
1,1,$1+$1,$6,$7*
1,1,$1+$1,$8,$9*
0 Add four rect primitives between the rounded corners*
20,1,$1+$1,$2,$3,$4,$5,0*
20,1,$1+$1,$4,$5,$6,$7,0*
20,1,$1+$1,$6,$7,$8,$9,0*
20,1,$1+$1,$8,$9,$2,$3,0*%
G04 Aperture macros list end*
G04 #@! TA.AperFunction,ComponentPad*
%ADD10C,1.950000*%
G04 #@! TD*
G04 #@! TA.AperFunction,ComponentPad*
%ADD11C,1.500000*%
G04 #@! TD*
G04 #@! TA.AperFunction,ComponentPad*
%ADD12R,1.500000X1.500000*%
G04 #@! TD*
G04 #@! TA.AperFunction,ComponentPad*
%ADD13R,1.700000X1.700000*%
G04 #@! TD*
G04 #@! TA.AperFunction,ComponentPad*
%ADD14O,1.700000X1.700000*%
G04 #@! TD*
G04 #@! TA.AperFunction,SMDPad,CuDef*
%ADD15RoundRect,0.200000X0.250000X0.200000X-0.250000X0.200000X-0.250000X-0.200000X0.250000X-0.200000X0*%
G04 #@! TD*
G04 #@! TA.AperFunction,SMDPad,CuDef*
%ADD16RoundRect,0.250000X0.350000X0.450000X-0.350000X0.450000X-0.350000X-0.450000X0.350000X-0.450000X0*%
G04 #@! TD*
G04 #@! TA.AperFunction,SMDPad,CuDef*
%ADD17RoundRect,0.250000X-0.475000X0.337500X-0.475000X-0.337500X0.475000X-0.337500X0.475000X0.337500X0*%
G04 #@! TD*
G04 #@! TA.AperFunction,SMDPad,CuDef*
%ADD18RoundRect,0.250000X0.475000X-0.337500X0.475000X0.337500X-0.475000X0.337500X-0.475000X-0.337500X0*%
G04 #@! TD*
G04 #@! TA.AperFunction,ComponentPad*
%ADD19C,1.700000*%
G04 #@! TD*
G04 #@! TA.AperFunction,SMDPad,CuDef*
%ADD20R,1.600000X0.300000*%
G04 #@! TD*
G04 #@! TA.AperFunction,SMDPad,CuDef*
%ADD21RoundRect,0.250000X0.650000X-1.500000X0.650000X1.500000X-0.650000X1.500000X-0.650000X-1.500000X0*%
G04 #@! TD*
G04 #@! TA.AperFunction,SMDPad,CuDef*
%ADD22RoundRect,0.250000X-0.337500X-0.475000X0.337500X-0.475000X0.337500X0.475000X-0.337500X0.475000X0*%
G04 #@! TD*
G04 #@! TA.AperFunction,SMDPad,CuDef*
%ADD23RoundRect,0.250000X-0.350000X0.850000X-0.350000X-0.850000X0.350000X-0.850000X0.350000X0.850000X0*%
G04 #@! TD*
G04 #@! TA.AperFunction,SMDPad,CuDef*
%ADD24RoundRect,0.250000X-1.125000X1.275000X-1.125000X-1.275000X1.125000X-1.275000X1.125000X1.275000X0*%
G04 #@! TD*
G04 #@! TA.AperFunction,SMDPad,CuDef*
%ADD25RoundRect,0.249997X-2.650003X2.950003X-2.650003X-2.950003X2.650003X-2.950003X2.650003X2.950003X0*%
G04 #@! TD*
G04 #@! TA.AperFunction,ViaPad*
%ADD26C,0.600000*%
G04 #@! TD*
G04 #@! TA.AperFunction,Conductor*
%ADD27C,0.200000*%
G04 #@! TD*
G04 APERTURE END LIST*
D10*
X100600000Y-128500000D03*
X107600000Y-128500000D03*
D11*
X101850000Y-131000000D03*
D12*
X106350000Y-131000000D03*
D13*
X130490000Y-64700000D03*
D14*
X127950000Y-64700000D03*
X130490000Y-67240000D03*
X127950000Y-67240000D03*
X130490000Y-69780000D03*
X127950000Y-69780000D03*
X130490000Y-72320000D03*
X127950000Y-72320000D03*
X130490000Y-74860000D03*
X127950000Y-74860000D03*
X130490000Y-77400000D03*
X127950000Y-77400000D03*
X130490000Y-79940000D03*
X127950000Y-79940000D03*
D15*
X96150000Y-65925000D03*
X96150000Y-64025000D03*
X94150000Y-64975000D03*
D10*
X89575000Y-128500000D03*
X96575000Y-128500000D03*
D11*
X90825000Y-131000000D03*
D12*
X95325000Y-131000000D03*
D16*
X96200000Y-68550000D03*
X94200000Y-68550000D03*
D13*
X124775000Y-87075000D03*
D14*
X122235000Y-87075000D03*
X119695000Y-87075000D03*
X117155000Y-87075000D03*
D13*
X86925000Y-69465000D03*
D14*
X86925000Y-66925000D03*
D13*
X130490000Y-111085000D03*
D14*
X127950000Y-111085000D03*
X130490000Y-113625000D03*
X127950000Y-113625000D03*
X130490000Y-116165000D03*
X127950000Y-116165000D03*
X130490000Y-118705000D03*
X127950000Y-118705000D03*
X130490000Y-121245000D03*
X127950000Y-121245000D03*
X130490000Y-123785000D03*
X127950000Y-123785000D03*
X130490000Y-126325000D03*
X127950000Y-126325000D03*
D16*
X96225000Y-71100000D03*
X94225000Y-71100000D03*
D17*
X119042500Y-62312500D03*
X119042500Y-64387500D03*
D18*
X108700000Y-75962500D03*
X108700000Y-73887500D03*
D17*
X121592500Y-62312500D03*
X121592500Y-64387500D03*
D13*
X123115000Y-105810000D03*
D19*
X123115000Y-108350000D03*
X120575000Y-105810000D03*
X120575000Y-108350000D03*
X118035000Y-105810000D03*
X118035000Y-108350000D03*
X115495000Y-105810000D03*
X115495000Y-108350000D03*
D20*
X112925000Y-74575000D03*
X112925000Y-75225000D03*
X112925000Y-75875000D03*
X112925000Y-76525000D03*
X116325000Y-76525000D03*
X116325000Y-75875000D03*
X116325000Y-75225000D03*
X116325000Y-74575000D03*
D13*
X92175000Y-87050000D03*
D14*
X94715000Y-87050000D03*
X97255000Y-87050000D03*
X99795000Y-87050000D03*
D21*
X91025000Y-70150000D03*
X91025000Y-65150000D03*
D13*
X92170000Y-120075000D03*
D14*
X94710000Y-120075000D03*
X97250000Y-120075000D03*
X99790000Y-120075000D03*
D13*
X124775000Y-98100000D03*
D14*
X122235000Y-98100000D03*
X119695000Y-98100000D03*
X117155000Y-98100000D03*
D13*
X87100000Y-77075000D03*
D14*
X89640000Y-77075000D03*
X92180000Y-77075000D03*
X94720000Y-77075000D03*
X97260000Y-77075000D03*
X99800000Y-77075000D03*
X102340000Y-77075000D03*
D22*
X96775000Y-123975000D03*
X94700000Y-123975000D03*
D18*
X127525000Y-106987500D03*
X127525000Y-104912500D03*
D16*
X90175000Y-123975000D03*
X92175000Y-123975000D03*
D17*
X120125000Y-74512500D03*
X120125000Y-76587500D03*
X109042500Y-62275000D03*
X109042500Y-64350000D03*
D23*
X116250000Y-62300000D03*
D24*
X115495000Y-66925000D03*
X112445000Y-66925000D03*
D25*
X113970000Y-68600000D03*
D24*
X115495000Y-70275000D03*
X112445000Y-70275000D03*
D23*
X111690000Y-62300000D03*
D13*
X92170000Y-109080000D03*
D14*
X94710000Y-109080000D03*
X97250000Y-109080000D03*
X99790000Y-109080000D03*
D16*
X115625000Y-78700000D03*
X113625000Y-78700000D03*
D13*
X92175000Y-98050000D03*
D14*
X94715000Y-98050000D03*
X97255000Y-98050000D03*
X99795000Y-98050000D03*
D26*
X117057500Y-78482500D03*
X118175000Y-72975000D03*
X111075000Y-73475000D03*
X124685000Y-80485000D03*
X125512500Y-81212500D03*
X119695000Y-82200000D03*
X111837500Y-86737500D03*
X112550000Y-87350000D03*
X111075000Y-80400000D03*
X102137500Y-83237500D03*
X95800000Y-112775000D03*
X102600000Y-69825000D03*
X113600000Y-62300000D03*
X102400000Y-62275000D03*
X94200000Y-62275000D03*
X123250000Y-72650000D03*
X122050000Y-81500000D03*
X125800000Y-105775000D03*
X121275000Y-68525000D03*
X117950000Y-81250000D03*
X112700000Y-85875000D03*
X123875000Y-81300000D03*
X103775000Y-101400000D03*
X121275000Y-71400000D03*
X114000000Y-63925000D03*
X89600000Y-74350000D03*
X104700000Y-64000000D03*
X86225000Y-91875000D03*
X121825000Y-75625000D03*
X131375000Y-82900000D03*
X103650000Y-114775000D03*
X122200000Y-92550000D03*
X124830000Y-78090000D03*
X94375000Y-63550000D03*
X94700000Y-99950000D03*
X126125000Y-68100000D03*
X129800000Y-105800000D03*
X92425000Y-81800000D03*
X111025000Y-110275000D03*
X121000000Y-80275000D03*
X122250000Y-89000000D03*
X126125000Y-83700000D03*
X126450000Y-131825000D03*
X101375000Y-66100000D03*
X103775000Y-93575000D03*
X125775000Y-124975000D03*
X95075000Y-60400000D03*
X94725000Y-103600000D03*
X104775000Y-79250000D03*
X109850000Y-81300000D03*
X131700000Y-104575000D03*
X124600000Y-64525000D03*
X114150000Y-90550000D03*
X122500000Y-101425000D03*
X115525000Y-118075000D03*
X108875000Y-66650000D03*
X86325000Y-97875000D03*
X86700000Y-108300000D03*
X97975000Y-82975000D03*
X114625000Y-75225000D03*
X111125000Y-118250000D03*
X86525000Y-128050000D03*
X118430000Y-76300000D03*
X108475000Y-85025000D03*
X111425000Y-83875000D03*
X126250000Y-101325000D03*
X94650000Y-114900000D03*
X95850000Y-79600000D03*
X112600000Y-73100000D03*
X101150000Y-82225000D03*
X131600000Y-108100000D03*
X122200000Y-95075000D03*
X111150000Y-114600000D03*
X106625000Y-60300000D03*
X131200000Y-93275000D03*
X127750000Y-129700000D03*
X86600000Y-86800000D03*
X111875000Y-94875000D03*
X86325000Y-102300000D03*
X86225000Y-113650000D03*
X132425000Y-125050000D03*
X109550000Y-71425000D03*
X107400000Y-81250000D03*
X103900000Y-120150000D03*
X94675000Y-92600000D03*
X111675000Y-60000000D03*
X109325000Y-79550000D03*
X95925000Y-84675000D03*
X94650000Y-94975000D03*
X108875000Y-68525000D03*
X94650000Y-106375000D03*
X119650000Y-101300000D03*
X85200000Y-74300000D03*
X101025000Y-79675000D03*
X111875000Y-101025000D03*
X89375000Y-84025000D03*
X85200000Y-79850000D03*
X118725000Y-71425000D03*
X104800000Y-68175000D03*
X104650000Y-85050000D03*
X98425000Y-79600000D03*
X131500000Y-99850000D03*
X126400000Y-61075000D03*
X102850000Y-60300000D03*
X116300000Y-73100000D03*
X93425000Y-122225000D03*
X90900000Y-60375000D03*
X124600000Y-72925000D03*
X94200000Y-73125000D03*
X99200000Y-60350000D03*
X118825000Y-66800000D03*
X94700000Y-117350000D03*
X118800000Y-68525000D03*
X104950000Y-74525000D03*
X115850000Y-81925000D03*
X100275000Y-123925000D03*
X86500000Y-120325000D03*
X107825000Y-71475000D03*
X97875000Y-64000000D03*
X86500000Y-124825000D03*
X103950000Y-88025000D03*
X125325000Y-70800000D03*
X131250000Y-87025000D03*
X116450000Y-59950000D03*
X128200000Y-92575000D03*
X103525000Y-110275000D03*
X98450000Y-74525000D03*
X94700000Y-88875000D03*
X94625000Y-111075000D03*
X103400000Y-62275000D03*
X93250000Y-62275000D03*
X122425000Y-73475000D03*
X114475000Y-62300000D03*
X123000000Y-80475000D03*
X93300000Y-112775000D03*
X124725000Y-82000000D03*
X113375000Y-86525000D03*
X117825000Y-77885000D03*
X103275000Y-82100000D03*
X103700000Y-69825000D03*
X111075000Y-74575000D03*
X111075000Y-79300000D03*
X119695000Y-81075000D03*
X118175000Y-73975000D03*
D27*
X124474500Y-108375500D02*
X122650000Y-108375500D01*
X125862500Y-106987500D02*
X124474500Y-108375500D01*
X127525000Y-106987500D02*
X125862500Y-106987500D01*
X117655000Y-77885000D02*
X117825000Y-77885000D01*
X117057500Y-78482500D02*
X117655000Y-77885000D01*
X118175000Y-73975000D02*
X118175000Y-72975000D01*
X111075000Y-74575000D02*
X111075000Y-73475000D01*
X124685000Y-80485000D02*
X127770000Y-77400000D01*
X125512500Y-81212500D02*
X126785000Y-79940000D01*
X119695000Y-82200000D02*
X119695000Y-87075000D01*
X111837500Y-86737500D02*
X106200000Y-92375000D01*
X112550000Y-87350000D02*
X106850000Y-93050000D01*
X111075000Y-80400000D02*
X111075000Y-80995000D01*
X102137500Y-83237500D02*
X100175000Y-85200000D01*
X95800000Y-112775000D02*
X93300000Y-112775000D01*
X102600000Y-69825000D02*
X96225000Y-69825000D01*
X114475000Y-62300000D02*
X113600000Y-62300000D01*
X102400000Y-62275000D02*
X103400000Y-62275000D01*
X94200000Y-62275000D02*
X102400000Y-62275000D01*
X123250000Y-72650000D02*
X123725000Y-72175000D01*
X122050000Y-81500000D02*
X122050000Y-84350000D01*
X92175000Y-129650000D02*
X90825000Y-131000000D01*
X92175000Y-123975000D02*
X92175000Y-129650000D01*
X105775000Y-126225000D02*
X92175000Y-126225000D01*
X106200000Y-92375000D02*
X106200000Y-125800000D01*
X106200000Y-125800000D02*
X105775000Y-126225000D01*
X112700000Y-85875000D02*
X111837500Y-86737500D01*
X106850000Y-93050000D02*
X106850000Y-126000000D01*
X106850000Y-126000000D02*
X101850000Y-131000000D01*
X113375000Y-86525000D02*
X112550000Y-87350000D01*
X118035000Y-108685000D02*
X118035000Y-108350000D01*
X127950000Y-118600000D02*
X118035000Y-108685000D01*
X127950000Y-118705000D02*
X127950000Y-118600000D01*
X126380000Y-116180000D02*
X119275000Y-109075000D01*
X119275000Y-109075000D02*
X119275000Y-107050000D01*
X119275000Y-107050000D02*
X118035000Y-105810000D01*
X127935000Y-116180000D02*
X126380000Y-116180000D01*
X127950000Y-116165000D02*
X127935000Y-116180000D01*
X120575000Y-109500000D02*
X120575000Y-108350000D01*
X127935000Y-113640000D02*
X124715000Y-113640000D01*
X124715000Y-113640000D02*
X120575000Y-109500000D01*
X127950000Y-113625000D02*
X127935000Y-113640000D01*
X125800000Y-121635000D02*
X127950000Y-123785000D01*
X115495000Y-108620000D02*
X125800000Y-118925000D01*
X115495000Y-108350000D02*
X115495000Y-108620000D01*
X125800000Y-118925000D02*
X125800000Y-121635000D01*
X116750000Y-107065000D02*
X115495000Y-105810000D01*
X116750000Y-109050000D02*
X116750000Y-107065000D01*
X126400000Y-119695000D02*
X126400000Y-118700000D01*
X127950000Y-121245000D02*
X126400000Y-119695000D01*
X126400000Y-118700000D02*
X116750000Y-109050000D01*
X117545500Y-108350000D02*
X117545000Y-108350500D01*
X121825000Y-107060000D02*
X120575000Y-105810000D01*
X123000000Y-111100000D02*
X121825000Y-109925000D01*
X121825000Y-109925000D02*
X121825000Y-107060000D01*
X127935000Y-111100000D02*
X123000000Y-111100000D01*
X127950000Y-111085000D02*
X127935000Y-111100000D01*
X95525000Y-65950000D02*
X95925000Y-65950000D01*
X94200000Y-67275000D02*
X95525000Y-65950000D01*
X94200000Y-68550000D02*
X94200000Y-67275000D01*
X127770000Y-77400000D02*
X130490000Y-77400000D01*
X123875000Y-81300000D02*
X123875000Y-81295000D01*
X123875000Y-81295000D02*
X124685000Y-80485000D01*
X125515000Y-73660000D02*
X126610000Y-73660000D01*
X126610000Y-73660000D02*
X127970000Y-72300000D01*
X127970000Y-72300000D02*
X130470000Y-72300000D01*
X121290000Y-77885000D02*
X125515000Y-73660000D01*
X130470000Y-72300000D02*
X130490000Y-72320000D01*
X117825000Y-77885000D02*
X121290000Y-77885000D01*
X127950000Y-64700000D02*
X130490000Y-64700000D01*
X127950000Y-69780000D02*
X130490000Y-69780000D01*
X118170000Y-78530000D02*
X121670000Y-78530000D01*
X116475000Y-80225000D02*
X118170000Y-78530000D01*
X121670000Y-78530000D02*
X125340000Y-74860000D01*
X112450000Y-80225000D02*
X116475000Y-80225000D01*
X112175000Y-79950000D02*
X112450000Y-80225000D01*
X112175000Y-78825000D02*
X112175000Y-79950000D01*
X125340000Y-74860000D02*
X130490000Y-74860000D01*
X110829872Y-77479872D02*
X112175000Y-78825000D01*
X130490000Y-79940000D02*
X130500000Y-79930000D01*
X127950000Y-79940000D02*
X130490000Y-79940000D01*
X126785000Y-79940000D02*
X127950000Y-79940000D01*
X124725000Y-82000000D02*
X125512500Y-81212500D01*
X122050000Y-84350000D02*
X124775000Y-87075000D01*
X122050000Y-81425000D02*
X122050000Y-81500000D01*
X123000000Y-80475000D02*
X122050000Y-81425000D01*
X94700000Y-123975000D02*
X92175000Y-123975000D01*
X90175000Y-122070000D02*
X90175000Y-123975000D01*
X92170000Y-120075000D02*
X90175000Y-122070000D01*
X92170000Y-112770000D02*
X92170000Y-120075000D01*
X119695000Y-81075000D02*
X119695000Y-82200000D01*
X123725000Y-68745000D02*
X127960000Y-64510000D01*
X122425000Y-73475000D02*
X123250000Y-72650000D01*
X123725000Y-72175000D02*
X123725000Y-68745000D01*
X125762500Y-62312500D02*
X121592500Y-62312500D01*
X127960000Y-64510000D02*
X125762500Y-62312500D01*
X110037500Y-75225000D02*
X108700000Y-73887500D01*
X112925000Y-75225000D02*
X114625000Y-75225000D01*
X112925000Y-75225000D02*
X110037500Y-75225000D01*
X118150000Y-75225000D02*
X118862500Y-74512500D01*
X86830000Y-77725000D02*
X86830000Y-69960000D01*
X114475000Y-62300000D02*
X116250000Y-62300000D01*
X124850000Y-87150000D02*
X124775000Y-87075000D01*
X121387500Y-74512500D02*
X120125000Y-74512500D01*
X122425000Y-73475000D02*
X121387500Y-74512500D01*
X121592500Y-62312500D02*
X119042500Y-62312500D01*
X91025000Y-70150000D02*
X90340000Y-69465000D01*
X116262500Y-62312500D02*
X116250000Y-62300000D01*
X119042500Y-62312500D02*
X116262500Y-62312500D01*
X93250000Y-62275000D02*
X94200000Y-62275000D01*
X118862500Y-74512500D02*
X120125000Y-74512500D01*
X90340000Y-69465000D02*
X87360000Y-69465000D01*
X116325000Y-75225000D02*
X118150000Y-75225000D01*
X130460000Y-66620000D02*
X130490000Y-66590000D01*
X124775000Y-87075000D02*
X124775000Y-98100000D01*
X112925000Y-75875000D02*
X113925000Y-75875000D01*
X106375000Y-75875000D02*
X112925000Y-75875000D01*
X92175000Y-85625000D02*
X92175000Y-87050000D01*
X109042500Y-62275000D02*
X107825000Y-62275000D01*
X93300000Y-112775000D02*
X92175000Y-112775000D01*
X113625000Y-77725000D02*
X113625000Y-78650000D01*
X106375000Y-63725000D02*
X106375000Y-79500000D01*
X113625000Y-78650000D02*
X113675000Y-78700000D01*
X106375000Y-79500000D02*
X104775000Y-81100000D01*
X92170000Y-109080000D02*
X92170000Y-112770000D01*
X92095000Y-109255000D02*
X92325000Y-109025000D01*
X92175000Y-98185000D02*
X92170000Y-98190000D01*
X92325000Y-97520000D02*
X92470000Y-97375000D01*
X96700000Y-81100000D02*
X92175000Y-85625000D01*
X114325000Y-77025000D02*
X113625000Y-77725000D01*
X109042500Y-62275000D02*
X111665000Y-62275000D01*
X92175000Y-98050000D02*
X92175000Y-98185000D01*
X113925000Y-75875000D02*
X114325000Y-76275000D01*
X114325000Y-76275000D02*
X114325000Y-77025000D01*
X104775000Y-81100000D02*
X96700000Y-81100000D01*
X92175000Y-112775000D02*
X92170000Y-112770000D01*
X92175000Y-87050000D02*
X92175000Y-98050000D01*
X107825000Y-62275000D02*
X106375000Y-63725000D01*
X92170000Y-98190000D02*
X92170000Y-109080000D01*
X111665000Y-62275000D02*
X111690000Y-62300000D01*
X127690000Y-79290000D02*
X127950000Y-79290000D01*
X91025000Y-65150000D02*
X88700000Y-65150000D01*
X93925000Y-65000000D02*
X91175000Y-65000000D01*
X88700000Y-65150000D02*
X86925000Y-66925000D01*
X91175000Y-65000000D02*
X91025000Y-65150000D01*
X127950000Y-123785000D02*
X130230000Y-123785000D01*
X127690000Y-118705000D02*
X130230000Y-118705000D01*
X111750000Y-76525000D02*
X112925000Y-76525000D01*
X99795000Y-109075000D02*
X99745000Y-109125000D01*
X99795000Y-87050000D02*
X99795000Y-98050000D01*
X99795000Y-98050000D02*
X99795000Y-109075000D01*
X99745000Y-109125000D02*
X99745000Y-120120000D01*
X110820128Y-77479872D02*
X110820128Y-77454872D01*
X99745000Y-120120000D02*
X99715000Y-120150000D01*
X109390128Y-77454872D02*
X99795000Y-87050000D01*
X110820128Y-77454872D02*
X111750000Y-76525000D01*
X100315000Y-120000000D02*
X99715000Y-120600000D01*
X110820128Y-77454872D02*
X109390128Y-77454872D01*
X97175000Y-120150000D02*
X97175000Y-109155000D01*
X97255000Y-98050000D02*
X97255000Y-87050000D01*
X97175000Y-109155000D02*
X97205000Y-109125000D01*
X103275000Y-82100000D02*
X102137500Y-83237500D01*
X97550000Y-120225000D02*
X97175000Y-120600000D01*
X117825000Y-77035000D02*
X117315000Y-76525000D01*
X97255000Y-85970000D02*
X97255000Y-87050000D01*
X97205000Y-109125000D02*
X97205000Y-98100000D01*
X117315000Y-76525000D02*
X116325000Y-76525000D01*
X117825000Y-77885000D02*
X117825000Y-77035000D01*
X98025000Y-85200000D02*
X97255000Y-85970000D01*
X100175000Y-85200000D02*
X98025000Y-85200000D01*
X97205000Y-98100000D02*
X97255000Y-98050000D01*
X127690000Y-116165000D02*
X130230000Y-116165000D01*
X127690000Y-121245000D02*
X130230000Y-121245000D01*
X103700000Y-69825000D02*
X102600000Y-69825000D01*
X96200000Y-69800000D02*
X96200000Y-71075000D01*
X96200000Y-71075000D02*
X96225000Y-71100000D01*
X96200000Y-68550000D02*
X96200000Y-69800000D01*
X96225000Y-69825000D02*
X96200000Y-69800000D01*
X95900000Y-71075000D02*
X95950000Y-71125000D01*
X127690000Y-113625000D02*
X130230000Y-113625000D01*
X130230000Y-111085000D02*
X127690000Y-111085000D01*
X117155000Y-87075000D02*
X117155000Y-98100000D01*
X111075000Y-80995000D02*
X117155000Y-87075000D01*
X112925000Y-74575000D02*
X111075000Y-74575000D01*
X117230000Y-87150000D02*
X117155000Y-87075000D01*
X111075000Y-79300000D02*
X111075000Y-80400000D01*
X117575000Y-74575000D02*
X116325000Y-74575000D01*
X119695000Y-98100000D02*
X119695000Y-87075000D01*
X119695000Y-98000000D02*
X119770000Y-98075000D01*
X118175000Y-73975000D02*
X117575000Y-74575000D01*
X114900000Y-76975000D02*
X115675000Y-77750000D01*
X116325000Y-75875000D02*
X115325000Y-75875000D01*
X115675000Y-77750000D02*
X115675000Y-78700000D01*
X115325000Y-75875000D02*
X114900000Y-76300000D01*
X114900000Y-76300000D02*
X114900000Y-76975000D01*
G04 #@! TA.AperFunction,Conductor*
G36*
X104942942Y-126845185D02*
G01*
X104988697Y-126897989D01*
X104998641Y-126967147D01*
X104969616Y-127030703D01*
X104963584Y-127037181D01*
X102251881Y-129748882D01*
X102190558Y-129782367D01*
X102132108Y-129780976D01*
X102067984Y-129763795D01*
X102067986Y-129763795D01*
X102067977Y-129763793D01*
X102067973Y-129763792D01*
X102067970Y-129763792D01*
X101850002Y-129744723D01*
X101849998Y-129744723D01*
X101716516Y-129756401D01*
X101632023Y-129763793D01*
X101619648Y-129767108D01*
X101605125Y-129771000D01*
X101535275Y-129769335D01*
X101485353Y-129738905D01*
X100847488Y-129101041D01*
X100907890Y-129076022D01*
X101014351Y-129004888D01*
X101104888Y-128914351D01*
X101176022Y-128807890D01*
X101201041Y-128747488D01*
X101805372Y-129351820D01*
X101901669Y-129204429D01*
X101999861Y-128980573D01*
X102059869Y-128743605D01*
X102080055Y-128500005D01*
X102080055Y-128499994D01*
X102059869Y-128256394D01*
X101999861Y-128019426D01*
X101901671Y-127795575D01*
X101805372Y-127648178D01*
X101201041Y-128252510D01*
X101176022Y-128192110D01*
X101104888Y-128085649D01*
X101014351Y-127995112D01*
X100907890Y-127923978D01*
X100847487Y-127898957D01*
X101452240Y-127294205D01*
X101452240Y-127294204D01*
X101409514Y-127260949D01*
X101409514Y-127260948D01*
X101194531Y-127144605D01*
X101194523Y-127144602D01*
X100967840Y-127066781D01*
X100910825Y-127026395D01*
X100884694Y-126961596D01*
X100897746Y-126892956D01*
X100945834Y-126842268D01*
X101008103Y-126825500D01*
X104875903Y-126825500D01*
X104942942Y-126845185D01*
G37*
G04 #@! TD.AperFunction*
G04 #@! TA.AperFunction,Conductor*
G36*
X96493834Y-113315758D02*
G01*
X96549767Y-113357630D01*
X96574184Y-113423094D01*
X96574500Y-113431940D01*
X96574500Y-118834783D01*
X96554815Y-118901822D01*
X96521624Y-118936358D01*
X96378594Y-119036508D01*
X96211508Y-119203594D01*
X96081269Y-119389595D01*
X96026692Y-119433219D01*
X95957193Y-119440412D01*
X95894839Y-119408890D01*
X95878119Y-119389594D01*
X95748113Y-119203926D01*
X95748108Y-119203920D01*
X95581082Y-119036894D01*
X95387578Y-118901399D01*
X95173492Y-118801570D01*
X95173486Y-118801567D01*
X94960000Y-118744364D01*
X94960000Y-119641988D01*
X94902993Y-119609075D01*
X94775826Y-119575000D01*
X94644174Y-119575000D01*
X94517007Y-119609075D01*
X94460000Y-119641988D01*
X94460000Y-118744364D01*
X94459999Y-118744364D01*
X94246513Y-118801567D01*
X94246507Y-118801570D01*
X94032422Y-118901399D01*
X94032420Y-118901400D01*
X93838926Y-119036886D01*
X93716865Y-119158947D01*
X93655542Y-119192431D01*
X93585850Y-119187447D01*
X93529917Y-119145575D01*
X93513002Y-119114598D01*
X93463797Y-118982671D01*
X93463793Y-118982664D01*
X93377547Y-118867455D01*
X93377544Y-118867452D01*
X93262335Y-118781206D01*
X93262328Y-118781202D01*
X93127482Y-118730908D01*
X93127483Y-118730908D01*
X93067883Y-118724501D01*
X93067881Y-118724500D01*
X93067873Y-118724500D01*
X93067865Y-118724500D01*
X92894500Y-118724500D01*
X92827461Y-118704815D01*
X92781706Y-118652011D01*
X92770500Y-118600500D01*
X92770500Y-113611461D01*
X92790185Y-113544422D01*
X92842989Y-113498667D01*
X92912147Y-113488723D01*
X92948309Y-113499744D01*
X92950471Y-113500784D01*
X92950478Y-113500789D01*
X93075174Y-113544422D01*
X93120745Y-113560368D01*
X93120750Y-113560369D01*
X93299996Y-113580565D01*
X93300000Y-113580565D01*
X93300004Y-113580565D01*
X93479249Y-113560369D01*
X93479252Y-113560368D01*
X93479255Y-113560368D01*
X93649522Y-113500789D01*
X93802262Y-113404816D01*
X93802267Y-113404810D01*
X93805097Y-113402555D01*
X93807275Y-113401665D01*
X93808158Y-113401111D01*
X93808255Y-113401265D01*
X93869783Y-113376145D01*
X93882412Y-113375500D01*
X95217588Y-113375500D01*
X95284627Y-113395185D01*
X95294903Y-113402555D01*
X95297736Y-113404814D01*
X95297738Y-113404816D01*
X95340906Y-113431940D01*
X95447100Y-113498667D01*
X95450478Y-113500789D01*
X95575174Y-113544422D01*
X95620745Y-113560368D01*
X95620750Y-113560369D01*
X95799996Y-113580565D01*
X95800000Y-113580565D01*
X95800004Y-113580565D01*
X95979249Y-113560369D01*
X95979252Y-113560368D01*
X95979255Y-113560368D01*
X96149522Y-113500789D01*
X96302262Y-113404816D01*
X96362819Y-113344259D01*
X96424142Y-113310774D01*
X96493834Y-113315758D01*
G37*
G04 #@! TD.AperFunction*
G04 #@! TA.AperFunction,Conductor*
G36*
X94960000Y-110410633D02*
G01*
X95173483Y-110353433D01*
X95173492Y-110353429D01*
X95387578Y-110253600D01*
X95581082Y-110118105D01*
X95748105Y-109951082D01*
X95878119Y-109765405D01*
X95932696Y-109721781D01*
X96002195Y-109714588D01*
X96064549Y-109746110D01*
X96081269Y-109765405D01*
X96211505Y-109951401D01*
X96378599Y-110118495D01*
X96521624Y-110218642D01*
X96565248Y-110273218D01*
X96574500Y-110320216D01*
X96574500Y-112118060D01*
X96554815Y-112185099D01*
X96502011Y-112230854D01*
X96432853Y-112240798D01*
X96369297Y-112211773D01*
X96362819Y-112205741D01*
X96302262Y-112145184D01*
X96149523Y-112049211D01*
X95979254Y-111989631D01*
X95979249Y-111989630D01*
X95800004Y-111969435D01*
X95799996Y-111969435D01*
X95620750Y-111989630D01*
X95620745Y-111989631D01*
X95450476Y-112049211D01*
X95297736Y-112145185D01*
X95294903Y-112147445D01*
X95292724Y-112148334D01*
X95291842Y-112148889D01*
X95291744Y-112148734D01*
X95230217Y-112173855D01*
X95217588Y-112174500D01*
X93882412Y-112174500D01*
X93815373Y-112154815D01*
X93805097Y-112147445D01*
X93802263Y-112145185D01*
X93802262Y-112145184D01*
X93745496Y-112109515D01*
X93649523Y-112049211D01*
X93479254Y-111989631D01*
X93479249Y-111989630D01*
X93300004Y-111969435D01*
X93299996Y-111969435D01*
X93120750Y-111989630D01*
X93120745Y-111989631D01*
X92950472Y-112049213D01*
X92948298Y-112050260D01*
X92946753Y-112050514D01*
X92943905Y-112051511D01*
X92943730Y-112051011D01*
X92879357Y-112061610D01*
X92815223Y-112033886D01*
X92776259Y-111975889D01*
X92770500Y-111938538D01*
X92770500Y-110554499D01*
X92790185Y-110487460D01*
X92842989Y-110441705D01*
X92894500Y-110430499D01*
X93067871Y-110430499D01*
X93067872Y-110430499D01*
X93127483Y-110424091D01*
X93262331Y-110373796D01*
X93377546Y-110287546D01*
X93463796Y-110172331D01*
X93513002Y-110040401D01*
X93554872Y-109984468D01*
X93620337Y-109960050D01*
X93688610Y-109974901D01*
X93716865Y-109996053D01*
X93838917Y-110118105D01*
X94032421Y-110253600D01*
X94246507Y-110353429D01*
X94246516Y-110353433D01*
X94460000Y-110410634D01*
X94460000Y-109513012D01*
X94517007Y-109545925D01*
X94644174Y-109580000D01*
X94775826Y-109580000D01*
X94902993Y-109545925D01*
X94960000Y-109513012D01*
X94960000Y-110410633D01*
G37*
G04 #@! TD.AperFunction*
G04 #@! TA.AperFunction,Conductor*
G36*
X94965000Y-99380633D02*
G01*
X95178483Y-99323433D01*
X95178492Y-99323429D01*
X95392578Y-99223600D01*
X95586082Y-99088105D01*
X95753105Y-98921082D01*
X95883119Y-98735405D01*
X95937696Y-98691781D01*
X96007195Y-98684588D01*
X96069549Y-98716110D01*
X96086269Y-98735405D01*
X96216505Y-98921401D01*
X96216506Y-98921402D01*
X96383597Y-99088493D01*
X96383603Y-99088498D01*
X96551623Y-99206147D01*
X96595248Y-99260724D01*
X96604500Y-99307722D01*
X96604500Y-107818777D01*
X96584815Y-107885816D01*
X96551623Y-107920352D01*
X96378597Y-108041505D01*
X96211508Y-108208594D01*
X96081269Y-108394595D01*
X96026692Y-108438219D01*
X95957193Y-108445412D01*
X95894839Y-108413890D01*
X95878119Y-108394594D01*
X95748113Y-108208926D01*
X95748108Y-108208920D01*
X95581082Y-108041894D01*
X95387578Y-107906399D01*
X95173492Y-107806570D01*
X95173486Y-107806567D01*
X94960000Y-107749364D01*
X94960000Y-108646988D01*
X94902993Y-108614075D01*
X94775826Y-108580000D01*
X94644174Y-108580000D01*
X94517007Y-108614075D01*
X94460000Y-108646988D01*
X94460000Y-107749364D01*
X94459999Y-107749364D01*
X94246513Y-107806567D01*
X94246507Y-107806570D01*
X94032422Y-107906399D01*
X94032420Y-107906400D01*
X93838926Y-108041886D01*
X93716865Y-108163947D01*
X93655542Y-108197431D01*
X93585850Y-108192447D01*
X93529917Y-108150575D01*
X93513002Y-108119598D01*
X93511136Y-108114596D01*
X93463796Y-107987669D01*
X93463795Y-107987668D01*
X93463793Y-107987664D01*
X93377547Y-107872455D01*
X93377544Y-107872452D01*
X93262335Y-107786206D01*
X93262328Y-107786202D01*
X93127482Y-107735908D01*
X93127483Y-107735908D01*
X93067883Y-107729501D01*
X93067881Y-107729500D01*
X93067873Y-107729500D01*
X93067865Y-107729500D01*
X92894500Y-107729500D01*
X92827461Y-107709815D01*
X92781706Y-107657011D01*
X92770500Y-107605500D01*
X92770500Y-99524499D01*
X92790185Y-99457460D01*
X92842989Y-99411705D01*
X92894500Y-99400499D01*
X93072871Y-99400499D01*
X93072872Y-99400499D01*
X93132483Y-99394091D01*
X93267331Y-99343796D01*
X93382546Y-99257546D01*
X93468796Y-99142331D01*
X93468797Y-99142327D01*
X93468800Y-99142323D01*
X93510908Y-99029423D01*
X93518002Y-99010401D01*
X93559872Y-98954468D01*
X93625337Y-98930050D01*
X93693610Y-98944901D01*
X93721865Y-98966053D01*
X93843917Y-99088105D01*
X94037421Y-99223600D01*
X94251507Y-99323429D01*
X94251516Y-99323433D01*
X94465000Y-99380634D01*
X94465000Y-98483012D01*
X94522007Y-98515925D01*
X94649174Y-98550000D01*
X94780826Y-98550000D01*
X94907993Y-98515925D01*
X94965000Y-98483012D01*
X94965000Y-99380633D01*
G37*
G04 #@! TD.AperFunction*
G04 #@! TA.AperFunction,Conductor*
G36*
X122485000Y-88405633D02*
G01*
X122698483Y-88348433D01*
X122698492Y-88348429D01*
X122912578Y-88248600D01*
X123106078Y-88113108D01*
X123228133Y-87991053D01*
X123289456Y-87957568D01*
X123359148Y-87962552D01*
X123415082Y-88004423D01*
X123431997Y-88035401D01*
X123481202Y-88167328D01*
X123481206Y-88167335D01*
X123567452Y-88282544D01*
X123567455Y-88282547D01*
X123682664Y-88368793D01*
X123682671Y-88368797D01*
X123714408Y-88380634D01*
X123817517Y-88419091D01*
X123877127Y-88425500D01*
X124050500Y-88425499D01*
X124117539Y-88445183D01*
X124163294Y-88497987D01*
X124174500Y-88549499D01*
X124174500Y-96625500D01*
X124154815Y-96692539D01*
X124102011Y-96738294D01*
X124050501Y-96749500D01*
X123877130Y-96749500D01*
X123877123Y-96749501D01*
X123817516Y-96755908D01*
X123682671Y-96806202D01*
X123682664Y-96806206D01*
X123567455Y-96892452D01*
X123567452Y-96892455D01*
X123481206Y-97007664D01*
X123481202Y-97007671D01*
X123431997Y-97139598D01*
X123390126Y-97195532D01*
X123324661Y-97219949D01*
X123256388Y-97205097D01*
X123228134Y-97183946D01*
X123106082Y-97061894D01*
X122912578Y-96926399D01*
X122698492Y-96826570D01*
X122698486Y-96826567D01*
X122485000Y-96769364D01*
X122485000Y-97666988D01*
X122427993Y-97634075D01*
X122300826Y-97600000D01*
X122169174Y-97600000D01*
X122042007Y-97634075D01*
X121985000Y-97666988D01*
X121985000Y-96769364D01*
X121984999Y-96769364D01*
X121771513Y-96826567D01*
X121771507Y-96826570D01*
X121557422Y-96926399D01*
X121557420Y-96926400D01*
X121363926Y-97061886D01*
X121363920Y-97061891D01*
X121196891Y-97228920D01*
X121196890Y-97228922D01*
X121066880Y-97414595D01*
X121012303Y-97458219D01*
X120942804Y-97465412D01*
X120880450Y-97433890D01*
X120863730Y-97414594D01*
X120733494Y-97228597D01*
X120566402Y-97061506D01*
X120566395Y-97061501D01*
X120372831Y-96925965D01*
X120372826Y-96925962D01*
X120367091Y-96923288D01*
X120314653Y-96877113D01*
X120295500Y-96810908D01*
X120295500Y-88364090D01*
X120315185Y-88297051D01*
X120367101Y-88251706D01*
X120372830Y-88249035D01*
X120566401Y-88113495D01*
X120733495Y-87946401D01*
X120863730Y-87760405D01*
X120918307Y-87716781D01*
X120987805Y-87709587D01*
X121050160Y-87741110D01*
X121066879Y-87760405D01*
X121196890Y-87946078D01*
X121363917Y-88113105D01*
X121557421Y-88248600D01*
X121771507Y-88348429D01*
X121771516Y-88348433D01*
X121985000Y-88405634D01*
X121985000Y-87508012D01*
X122042007Y-87540925D01*
X122169174Y-87575000D01*
X122300826Y-87575000D01*
X122427993Y-87540925D01*
X122485000Y-87508012D01*
X122485000Y-88405633D01*
G37*
G04 #@! TD.AperFunction*
G04 #@! TA.AperFunction,Conductor*
G36*
X94965000Y-88380633D02*
G01*
X95178483Y-88323433D01*
X95178492Y-88323429D01*
X95392578Y-88223600D01*
X95586082Y-88088105D01*
X95753105Y-87921082D01*
X95883119Y-87735405D01*
X95937696Y-87691781D01*
X96007195Y-87684588D01*
X96069549Y-87716110D01*
X96086269Y-87735405D01*
X96216505Y-87921401D01*
X96383599Y-88088495D01*
X96464525Y-88145160D01*
X96577165Y-88224032D01*
X96577167Y-88224033D01*
X96577170Y-88224035D01*
X96582898Y-88226706D01*
X96635339Y-88272872D01*
X96654500Y-88339090D01*
X96654500Y-96760908D01*
X96634815Y-96827947D01*
X96582914Y-96873286D01*
X96577173Y-96875963D01*
X96577169Y-96875965D01*
X96383597Y-97011505D01*
X96216508Y-97178594D01*
X96086269Y-97364595D01*
X96031692Y-97408219D01*
X95962193Y-97415412D01*
X95899839Y-97383890D01*
X95883119Y-97364594D01*
X95753113Y-97178926D01*
X95753108Y-97178920D01*
X95586082Y-97011894D01*
X95392578Y-96876399D01*
X95178492Y-96776570D01*
X95178486Y-96776567D01*
X94965000Y-96719364D01*
X94965000Y-97616988D01*
X94907993Y-97584075D01*
X94780826Y-97550000D01*
X94649174Y-97550000D01*
X94522007Y-97584075D01*
X94465000Y-97616988D01*
X94465000Y-96719364D01*
X94464999Y-96719364D01*
X94251513Y-96776567D01*
X94251507Y-96776570D01*
X94037422Y-96876399D01*
X94037420Y-96876400D01*
X93843926Y-97011886D01*
X93721865Y-97133947D01*
X93660542Y-97167431D01*
X93590850Y-97162447D01*
X93534917Y-97120575D01*
X93518002Y-97089598D01*
X93507524Y-97061506D01*
X93468796Y-96957669D01*
X93468795Y-96957668D01*
X93468793Y-96957664D01*
X93382547Y-96842455D01*
X93382544Y-96842452D01*
X93267335Y-96756206D01*
X93267328Y-96756202D01*
X93132482Y-96705908D01*
X93132483Y-96705908D01*
X93072883Y-96699501D01*
X93072881Y-96699500D01*
X93072873Y-96699500D01*
X93072865Y-96699500D01*
X92899500Y-96699500D01*
X92832461Y-96679815D01*
X92786706Y-96627011D01*
X92775500Y-96575500D01*
X92775500Y-88524499D01*
X92795185Y-88457460D01*
X92847989Y-88411705D01*
X92899500Y-88400499D01*
X93072871Y-88400499D01*
X93072872Y-88400499D01*
X93132483Y-88394091D01*
X93267331Y-88343796D01*
X93382546Y-88257546D01*
X93468796Y-88142331D01*
X93471394Y-88135367D01*
X93488874Y-88088498D01*
X93518002Y-88010401D01*
X93559872Y-87954468D01*
X93625337Y-87930050D01*
X93693610Y-87944901D01*
X93721865Y-87966053D01*
X93843917Y-88088105D01*
X94037421Y-88223600D01*
X94251507Y-88323429D01*
X94251516Y-88323433D01*
X94465000Y-88380634D01*
X94465000Y-87483012D01*
X94522007Y-87515925D01*
X94649174Y-87550000D01*
X94780826Y-87550000D01*
X94907993Y-87515925D01*
X94965000Y-87483012D01*
X94965000Y-88380633D01*
G37*
G04 #@! TD.AperFunction*
G04 #@! TA.AperFunction,Conductor*
G36*
X126727948Y-75480185D02*
G01*
X126773292Y-75532097D01*
X126775965Y-75537830D01*
X126911501Y-75731396D01*
X126911506Y-75731402D01*
X127078597Y-75898493D01*
X127078603Y-75898498D01*
X127264158Y-76028425D01*
X127307783Y-76083002D01*
X127314977Y-76152500D01*
X127283454Y-76214855D01*
X127264158Y-76231575D01*
X127078597Y-76361505D01*
X126911505Y-76528597D01*
X126775965Y-76722169D01*
X126775964Y-76722171D01*
X126676098Y-76936335D01*
X126676094Y-76936344D01*
X126614938Y-77164586D01*
X126614936Y-77164596D01*
X126597401Y-77365026D01*
X126594341Y-77400000D01*
X126608322Y-77559805D01*
X126615409Y-77640801D01*
X126613255Y-77640989D01*
X126606524Y-77701177D01*
X126579848Y-77740915D01*
X124666465Y-79654298D01*
X124605142Y-79687783D01*
X124592668Y-79689837D01*
X124505750Y-79699630D01*
X124335478Y-79759210D01*
X124182737Y-79855184D01*
X124055184Y-79982737D01*
X123959207Y-80135483D01*
X123956188Y-80141753D01*
X123953482Y-80140449D01*
X123920485Y-80186373D01*
X123855510Y-80212065D01*
X123786960Y-80198550D01*
X123736599Y-80150119D01*
X123727206Y-80129526D01*
X123725790Y-80125479D01*
X123636099Y-79982738D01*
X123629816Y-79972738D01*
X123502262Y-79845184D01*
X123480608Y-79831578D01*
X123349523Y-79749211D01*
X123179254Y-79689631D01*
X123179249Y-79689630D01*
X123000004Y-79669435D01*
X122999996Y-79669435D01*
X122820750Y-79689630D01*
X122820745Y-79689631D01*
X122650476Y-79749211D01*
X122497737Y-79845184D01*
X122370184Y-79972737D01*
X122274210Y-80125478D01*
X122214630Y-80295750D01*
X122204837Y-80382668D01*
X122177770Y-80447082D01*
X122169298Y-80456465D01*
X121946941Y-80678822D01*
X121885618Y-80712307D01*
X121873155Y-80714360D01*
X121870752Y-80714630D01*
X121870744Y-80714632D01*
X121700478Y-80774210D01*
X121547737Y-80870184D01*
X121420184Y-80997737D01*
X121324211Y-81150476D01*
X121264631Y-81320745D01*
X121264630Y-81320750D01*
X121244435Y-81499996D01*
X121244435Y-81500003D01*
X121264630Y-81679249D01*
X121264631Y-81679254D01*
X121324211Y-81849523D01*
X121334222Y-81865455D01*
X121417422Y-81997867D01*
X121420185Y-82002263D01*
X121422445Y-82005097D01*
X121423334Y-82007275D01*
X121423889Y-82008158D01*
X121423734Y-82008255D01*
X121448855Y-82069783D01*
X121449500Y-82082412D01*
X121449500Y-84263330D01*
X121449499Y-84263348D01*
X121449499Y-84429054D01*
X121449498Y-84429054D01*
X121449499Y-84429057D01*
X121490423Y-84581785D01*
X121499015Y-84596666D01*
X121500651Y-84599500D01*
X121569477Y-84718712D01*
X121569481Y-84718717D01*
X121688349Y-84837585D01*
X121688355Y-84837590D01*
X122448681Y-85597916D01*
X122482166Y-85659239D01*
X122485000Y-85685597D01*
X122485000Y-86641988D01*
X122427993Y-86609075D01*
X122300826Y-86575000D01*
X122169174Y-86575000D01*
X122042007Y-86609075D01*
X121985000Y-86641988D01*
X121985000Y-85744364D01*
X121984999Y-85744364D01*
X121771513Y-85801567D01*
X121771507Y-85801570D01*
X121557422Y-85901399D01*
X121557420Y-85901400D01*
X121363926Y-86036886D01*
X121363920Y-86036891D01*
X121196891Y-86203920D01*
X121196890Y-86203922D01*
X121066880Y-86389595D01*
X121012303Y-86433219D01*
X120942804Y-86440412D01*
X120880450Y-86408890D01*
X120863730Y-86389594D01*
X120733494Y-86203597D01*
X120566402Y-86036506D01*
X120566395Y-86036501D01*
X120530991Y-86011711D01*
X120489518Y-85982671D01*
X120372831Y-85900965D01*
X120372826Y-85900962D01*
X120367091Y-85898288D01*
X120314653Y-85852113D01*
X120295500Y-85785908D01*
X120295500Y-82782412D01*
X120315185Y-82715373D01*
X120322555Y-82705097D01*
X120324810Y-82702267D01*
X120324816Y-82702262D01*
X120420789Y-82549522D01*
X120480368Y-82379255D01*
X120483718Y-82349522D01*
X120500565Y-82200003D01*
X120500565Y-82199996D01*
X120480369Y-82020750D01*
X120480368Y-82020745D01*
X120420788Y-81850475D01*
X120338920Y-81720185D01*
X120328418Y-81703471D01*
X120309418Y-81636236D01*
X120328418Y-81571528D01*
X120420789Y-81424522D01*
X120480368Y-81254255D01*
X120481927Y-81240418D01*
X120500565Y-81075003D01*
X120500565Y-81074996D01*
X120480369Y-80895750D01*
X120480368Y-80895745D01*
X120458335Y-80832778D01*
X120420789Y-80725478D01*
X120401895Y-80695409D01*
X120358183Y-80625842D01*
X120324816Y-80572738D01*
X120197262Y-80445184D01*
X120166387Y-80425784D01*
X120044523Y-80349211D01*
X119874254Y-80289631D01*
X119874249Y-80289630D01*
X119695004Y-80269435D01*
X119694996Y-80269435D01*
X119515750Y-80289630D01*
X119515745Y-80289631D01*
X119345476Y-80349211D01*
X119192737Y-80445184D01*
X119065184Y-80572737D01*
X118969211Y-80725476D01*
X118909631Y-80895745D01*
X118909630Y-80895750D01*
X118889435Y-81074996D01*
X118889435Y-81075003D01*
X118909630Y-81254249D01*
X118909631Y-81254254D01*
X118969211Y-81424523D01*
X119061581Y-81571528D01*
X119080581Y-81638765D01*
X119061581Y-81703472D01*
X118969211Y-81850476D01*
X118909631Y-82020745D01*
X118909630Y-82020750D01*
X118889435Y-82199996D01*
X118889435Y-82200003D01*
X118909630Y-82379249D01*
X118909631Y-82379254D01*
X118969211Y-82549523D01*
X119065185Y-82702263D01*
X119067445Y-82705097D01*
X119068334Y-82707275D01*
X119068889Y-82708158D01*
X119068734Y-82708255D01*
X119093855Y-82769783D01*
X119094500Y-82782412D01*
X119094500Y-85785908D01*
X119074815Y-85852947D01*
X119022914Y-85898286D01*
X119017173Y-85900963D01*
X119017169Y-85900965D01*
X118823597Y-86036505D01*
X118656505Y-86203597D01*
X118526575Y-86389158D01*
X118471998Y-86432783D01*
X118402500Y-86439977D01*
X118340145Y-86408454D01*
X118323425Y-86389158D01*
X118193494Y-86203597D01*
X118026402Y-86036506D01*
X118026395Y-86036501D01*
X117832834Y-85900967D01*
X117832830Y-85900965D01*
X117772835Y-85872989D01*
X117618663Y-85801097D01*
X117618659Y-85801096D01*
X117618655Y-85801094D01*
X117390413Y-85739938D01*
X117390403Y-85739936D01*
X117155001Y-85719341D01*
X117154999Y-85719341D01*
X116919596Y-85739936D01*
X116919583Y-85739939D01*
X116791241Y-85774327D01*
X116721392Y-85772664D01*
X116671468Y-85742233D01*
X111823336Y-80894101D01*
X111789851Y-80832778D01*
X111794835Y-80763086D01*
X111799300Y-80752612D01*
X111800782Y-80749532D01*
X111800789Y-80749522D01*
X111819724Y-80695406D01*
X111860445Y-80638633D01*
X111925397Y-80612885D01*
X111993959Y-80626341D01*
X112024446Y-80648682D01*
X112081284Y-80705520D01*
X112081286Y-80705521D01*
X112081290Y-80705524D01*
X112200261Y-80774211D01*
X112218216Y-80784577D01*
X112370943Y-80825501D01*
X112370945Y-80825501D01*
X112536654Y-80825501D01*
X112536670Y-80825500D01*
X116388331Y-80825500D01*
X116388347Y-80825501D01*
X116395943Y-80825501D01*
X116554054Y-80825501D01*
X116554057Y-80825501D01*
X116706785Y-80784577D01*
X116756904Y-80755639D01*
X116843716Y-80705520D01*
X116955520Y-80593716D01*
X116955520Y-80593714D01*
X116965728Y-80583507D01*
X116965729Y-80583504D01*
X118382416Y-79166819D01*
X118443739Y-79133334D01*
X118470097Y-79130500D01*
X121583331Y-79130500D01*
X121583347Y-79130501D01*
X121590943Y-79130501D01*
X121749054Y-79130501D01*
X121749057Y-79130501D01*
X121901785Y-79089577D01*
X121984057Y-79042077D01*
X122038716Y-79010520D01*
X122150520Y-78898716D01*
X122150520Y-78898714D01*
X122160724Y-78888511D01*
X122160727Y-78888506D01*
X125552417Y-75496819D01*
X125613740Y-75463334D01*
X125640098Y-75460500D01*
X126660909Y-75460500D01*
X126727948Y-75480185D01*
G37*
G04 #@! TD.AperFunction*
G04 #@! TA.AperFunction,Conductor*
G36*
X102458977Y-81720185D02*
G01*
X102504732Y-81772989D01*
X102514676Y-81842147D01*
X102508979Y-81865455D01*
X102489630Y-81920748D01*
X102479837Y-82007668D01*
X102452770Y-82072082D01*
X102444298Y-82081465D01*
X102118965Y-82406798D01*
X102057642Y-82440283D01*
X102045168Y-82442337D01*
X101958250Y-82452130D01*
X101787978Y-82511710D01*
X101635237Y-82607684D01*
X101507684Y-82735237D01*
X101411710Y-82887978D01*
X101352130Y-83058250D01*
X101342337Y-83145168D01*
X101315270Y-83209582D01*
X101306798Y-83218965D01*
X99962584Y-84563181D01*
X99901261Y-84596666D01*
X99874903Y-84599500D01*
X97945940Y-84599500D01*
X97905019Y-84610464D01*
X97905019Y-84610465D01*
X97867751Y-84620451D01*
X97793214Y-84640423D01*
X97793209Y-84640426D01*
X97656290Y-84719475D01*
X97656282Y-84719481D01*
X96774481Y-85601282D01*
X96774480Y-85601284D01*
X96725803Y-85685597D01*
X96724361Y-85688094D01*
X96724359Y-85688096D01*
X96695425Y-85738209D01*
X96695422Y-85738215D01*
X96685091Y-85776769D01*
X96648724Y-85836429D01*
X96617725Y-85857053D01*
X96577169Y-85875965D01*
X96383597Y-86011505D01*
X96216508Y-86178594D01*
X96086269Y-86364595D01*
X96031692Y-86408219D01*
X95962193Y-86415412D01*
X95899839Y-86383890D01*
X95883119Y-86364594D01*
X95753113Y-86178926D01*
X95753108Y-86178920D01*
X95586082Y-86011894D01*
X95392578Y-85876399D01*
X95178492Y-85776570D01*
X95178486Y-85776567D01*
X94965000Y-85719364D01*
X94965000Y-86616988D01*
X94907993Y-86584075D01*
X94780826Y-86550000D01*
X94649174Y-86550000D01*
X94522007Y-86584075D01*
X94465000Y-86616988D01*
X94465000Y-85719364D01*
X94464999Y-85719364D01*
X94251513Y-85776567D01*
X94251507Y-85776570D01*
X94037422Y-85876399D01*
X94037420Y-85876400D01*
X93843926Y-86011886D01*
X93721865Y-86133947D01*
X93660542Y-86167431D01*
X93590850Y-86162447D01*
X93534917Y-86120575D01*
X93518002Y-86089598D01*
X93468797Y-85957671D01*
X93468793Y-85957664D01*
X93382547Y-85842455D01*
X93382544Y-85842452D01*
X93267335Y-85756206D01*
X93267330Y-85756203D01*
X93175493Y-85721950D01*
X93119560Y-85680078D01*
X93095143Y-85614614D01*
X93109995Y-85546341D01*
X93131142Y-85518091D01*
X96912416Y-81736819D01*
X96973739Y-81703334D01*
X97000097Y-81700500D01*
X102391938Y-81700500D01*
X102458977Y-81720185D01*
G37*
G04 #@! TD.AperFunction*
G04 #@! TA.AperFunction,Conductor*
G36*
X126529343Y-66892404D02*
G01*
X126585276Y-66934276D01*
X126593476Y-66956262D01*
X126619364Y-66990000D01*
X127516988Y-66990000D01*
X127484075Y-67047007D01*
X127450000Y-67174174D01*
X127450000Y-67305826D01*
X127484075Y-67432993D01*
X127516988Y-67490000D01*
X126619364Y-67490000D01*
X126676567Y-67703486D01*
X126676570Y-67703492D01*
X126776399Y-67917578D01*
X126911894Y-68111082D01*
X127078917Y-68278105D01*
X127264595Y-68408119D01*
X127308219Y-68462696D01*
X127315412Y-68532195D01*
X127283890Y-68594549D01*
X127264595Y-68611269D01*
X127078594Y-68741508D01*
X126911505Y-68908597D01*
X126775965Y-69102169D01*
X126775964Y-69102171D01*
X126676098Y-69316335D01*
X126676094Y-69316344D01*
X126614938Y-69544586D01*
X126614936Y-69544596D01*
X126594341Y-69779999D01*
X126594341Y-69780000D01*
X126614936Y-70015403D01*
X126614938Y-70015413D01*
X126676094Y-70243655D01*
X126676096Y-70243659D01*
X126676097Y-70243663D01*
X126756004Y-70415023D01*
X126775965Y-70457830D01*
X126775967Y-70457834D01*
X126875497Y-70599977D01*
X126911501Y-70651396D01*
X126911506Y-70651402D01*
X127078597Y-70818493D01*
X127078603Y-70818498D01*
X127264158Y-70948425D01*
X127307783Y-71003002D01*
X127314977Y-71072500D01*
X127283454Y-71134855D01*
X127264158Y-71151575D01*
X127078597Y-71281505D01*
X126911505Y-71448597D01*
X126775965Y-71642169D01*
X126775964Y-71642171D01*
X126676098Y-71856335D01*
X126676094Y-71856344D01*
X126614938Y-72084586D01*
X126614936Y-72084596D01*
X126594341Y-72319999D01*
X126594341Y-72320000D01*
X126614936Y-72555403D01*
X126614938Y-72555413D01*
X126649327Y-72683756D01*
X126647664Y-72753606D01*
X126617233Y-72803530D01*
X126397582Y-73023182D01*
X126336262Y-73056666D01*
X126309903Y-73059500D01*
X125435942Y-73059500D01*
X125283215Y-73100423D01*
X125273060Y-73106286D01*
X125273059Y-73106285D01*
X125146287Y-73179477D01*
X125146282Y-73179481D01*
X121506813Y-76818951D01*
X121445490Y-76852436D01*
X121375798Y-76847452D01*
X121360313Y-76837500D01*
X118900001Y-76837500D01*
X118900001Y-76974986D01*
X118910493Y-77077695D01*
X118925008Y-77121495D01*
X118927410Y-77191324D01*
X118891679Y-77251366D01*
X118829159Y-77282559D01*
X118807302Y-77284500D01*
X118549500Y-77284500D01*
X118482461Y-77264815D01*
X118436706Y-77212011D01*
X118425500Y-77160500D01*
X118425500Y-77124059D01*
X118425501Y-77124046D01*
X118425501Y-76955945D01*
X118425501Y-76955943D01*
X118384577Y-76803215D01*
X118338191Y-76722873D01*
X118305520Y-76666284D01*
X118193716Y-76554480D01*
X118193715Y-76554479D01*
X118189385Y-76550149D01*
X118189374Y-76550139D01*
X117802590Y-76163355D01*
X117802588Y-76163352D01*
X117677969Y-76038733D01*
X117679987Y-76036714D01*
X117646933Y-75991431D01*
X117642788Y-75921684D01*
X117677009Y-75860769D01*
X117738731Y-75828025D01*
X117763628Y-75825500D01*
X118063331Y-75825500D01*
X118063347Y-75825501D01*
X118070943Y-75825501D01*
X118229054Y-75825501D01*
X118229057Y-75825501D01*
X118381785Y-75784577D01*
X118447507Y-75746632D01*
X118518716Y-75705520D01*
X118630520Y-75593716D01*
X118630520Y-75593714D01*
X118640724Y-75583511D01*
X118640728Y-75583506D01*
X118893752Y-75330482D01*
X118955075Y-75296997D01*
X119024767Y-75301981D01*
X119069114Y-75330482D01*
X119181344Y-75442712D01*
X119184628Y-75444737D01*
X119184653Y-75444753D01*
X119186445Y-75446746D01*
X119187011Y-75447193D01*
X119186934Y-75447289D01*
X119231379Y-75496699D01*
X119242603Y-75565661D01*
X119214761Y-75629744D01*
X119184665Y-75655826D01*
X119181660Y-75657679D01*
X119181655Y-75657683D01*
X119057684Y-75781654D01*
X118965643Y-75930875D01*
X118965641Y-75930880D01*
X118910494Y-76097302D01*
X118910493Y-76097309D01*
X118900000Y-76200013D01*
X118900000Y-76337500D01*
X121349999Y-76337500D01*
X121349999Y-76200028D01*
X121349998Y-76200013D01*
X121339505Y-76097302D01*
X121284358Y-75930880D01*
X121284356Y-75930875D01*
X121192315Y-75781654D01*
X121068344Y-75657683D01*
X121068341Y-75657681D01*
X121065339Y-75655829D01*
X121063713Y-75654021D01*
X121062677Y-75653202D01*
X121062817Y-75653024D01*
X121018617Y-75603880D01*
X121007397Y-75534917D01*
X121035243Y-75470836D01*
X121065344Y-75444754D01*
X121068656Y-75442712D01*
X121192712Y-75318656D01*
X121283228Y-75171904D01*
X121335176Y-75125180D01*
X121388767Y-75113001D01*
X121466554Y-75113001D01*
X121466557Y-75113001D01*
X121619285Y-75072077D01*
X121688201Y-75032288D01*
X121756216Y-74993020D01*
X121868020Y-74881216D01*
X121868020Y-74881214D01*
X121878224Y-74871011D01*
X121878228Y-74871006D01*
X122443535Y-74305698D01*
X122504856Y-74272215D01*
X122517311Y-74270163D01*
X122604255Y-74260368D01*
X122774522Y-74200789D01*
X122927262Y-74104816D01*
X123054816Y-73977262D01*
X123150789Y-73824522D01*
X123210368Y-73654255D01*
X123220161Y-73567329D01*
X123247226Y-73502918D01*
X123255690Y-73493543D01*
X123268535Y-73480698D01*
X123329856Y-73447215D01*
X123342311Y-73445163D01*
X123429255Y-73435368D01*
X123599522Y-73375789D01*
X123752262Y-73279816D01*
X123879816Y-73152262D01*
X123975789Y-72999522D01*
X124035368Y-72829255D01*
X124045161Y-72742329D01*
X124072226Y-72677918D01*
X124080690Y-72668543D01*
X124083506Y-72665728D01*
X124083511Y-72665724D01*
X124093714Y-72655520D01*
X124093716Y-72655520D01*
X124205520Y-72543716D01*
X124284577Y-72406784D01*
X124325500Y-72254057D01*
X124325500Y-69045096D01*
X124345185Y-68978057D01*
X124361814Y-68957420D01*
X126398330Y-66920903D01*
X126459651Y-66887420D01*
X126529343Y-66892404D01*
G37*
G04 #@! TD.AperFunction*
G04 #@! TA.AperFunction,Conductor*
G36*
X112995701Y-62828226D02*
G01*
X113002180Y-62834258D01*
X113097738Y-62929816D01*
X113162499Y-62970508D01*
X113233555Y-63015156D01*
X113250478Y-63025789D01*
X113308101Y-63045952D01*
X113420745Y-63085368D01*
X113420750Y-63085369D01*
X113599996Y-63105565D01*
X113600000Y-63105565D01*
X113600004Y-63105565D01*
X113779249Y-63085369D01*
X113779252Y-63085368D01*
X113779255Y-63085368D01*
X113949522Y-63025789D01*
X113971529Y-63011960D01*
X114038762Y-62992960D01*
X114103470Y-63011960D01*
X114125478Y-63025789D01*
X114282019Y-63080565D01*
X114295745Y-63085368D01*
X114295750Y-63085369D01*
X114474996Y-63105565D01*
X114475000Y-63105565D01*
X114475004Y-63105565D01*
X114654249Y-63085369D01*
X114654252Y-63085368D01*
X114654255Y-63085368D01*
X114824522Y-63025789D01*
X114959530Y-62940957D01*
X115026765Y-62921958D01*
X115093601Y-62942326D01*
X115138815Y-62995593D01*
X115149501Y-63045952D01*
X115149501Y-63200018D01*
X115160000Y-63302796D01*
X115160001Y-63302799D01*
X115215185Y-63469331D01*
X115215187Y-63469336D01*
X115229916Y-63493215D01*
X115307288Y-63618656D01*
X115431344Y-63742712D01*
X115580666Y-63834814D01*
X115747203Y-63889999D01*
X115849991Y-63900500D01*
X116650008Y-63900499D01*
X116650016Y-63900498D01*
X116650019Y-63900498D01*
X116706302Y-63894748D01*
X116752797Y-63889999D01*
X116919334Y-63834814D01*
X117068656Y-63742712D01*
X117192712Y-63618656D01*
X117284814Y-63469334D01*
X117339999Y-63302797D01*
X117350500Y-63200009D01*
X117350500Y-63037000D01*
X117370185Y-62969961D01*
X117422989Y-62924206D01*
X117474500Y-62913000D01*
X117778732Y-62913000D01*
X117845771Y-62932685D01*
X117884269Y-62971901D01*
X117974788Y-63118656D01*
X118098844Y-63242712D01*
X118102128Y-63244737D01*
X118102153Y-63244753D01*
X118103945Y-63246746D01*
X118104511Y-63247193D01*
X118104434Y-63247289D01*
X118148879Y-63296699D01*
X118160103Y-63365661D01*
X118132261Y-63429744D01*
X118102165Y-63455826D01*
X118099160Y-63457679D01*
X118099155Y-63457683D01*
X117975184Y-63581654D01*
X117883143Y-63730875D01*
X117883141Y-63730880D01*
X117827994Y-63897302D01*
X117827993Y-63897309D01*
X117817500Y-64000013D01*
X117817500Y-64137500D01*
X122817499Y-64137500D01*
X122817499Y-64000028D01*
X122817498Y-64000013D01*
X122807005Y-63897302D01*
X122751858Y-63730880D01*
X122751856Y-63730875D01*
X122659815Y-63581654D01*
X122535844Y-63457683D01*
X122535841Y-63457681D01*
X122532839Y-63455829D01*
X122531213Y-63454021D01*
X122530177Y-63453202D01*
X122530317Y-63453024D01*
X122486117Y-63403880D01*
X122474897Y-63334917D01*
X122502743Y-63270836D01*
X122532844Y-63244754D01*
X122536156Y-63242712D01*
X122660212Y-63118656D01*
X122750729Y-62971902D01*
X122802677Y-62925179D01*
X122856268Y-62913000D01*
X125462403Y-62913000D01*
X125529442Y-62932685D01*
X125550084Y-62949319D01*
X126665903Y-64065138D01*
X126699388Y-64126461D01*
X126694404Y-64196153D01*
X126690606Y-64205220D01*
X126676098Y-64236334D01*
X126676094Y-64236344D01*
X126614938Y-64464586D01*
X126614936Y-64464596D01*
X126594341Y-64699999D01*
X126594341Y-64700000D01*
X126615409Y-64940801D01*
X126613255Y-64940989D01*
X126606524Y-65001177D01*
X126579848Y-65040915D01*
X123356286Y-68264478D01*
X123244481Y-68376282D01*
X123244479Y-68376285D01*
X123216736Y-68424339D01*
X123216735Y-68424341D01*
X123165423Y-68513214D01*
X123165423Y-68513215D01*
X123124499Y-68665943D01*
X123124499Y-68665945D01*
X123124499Y-68834046D01*
X123124500Y-68834059D01*
X123124500Y-71757839D01*
X123104815Y-71824878D01*
X123052011Y-71870633D01*
X123041455Y-71874881D01*
X122900476Y-71924211D01*
X122747737Y-72020184D01*
X122620184Y-72147737D01*
X122524210Y-72300478D01*
X122464630Y-72470750D01*
X122454837Y-72557668D01*
X122427770Y-72622082D01*
X122419298Y-72631465D01*
X122406465Y-72644298D01*
X122345142Y-72677783D01*
X122332668Y-72679837D01*
X122245750Y-72689630D01*
X122075478Y-72749210D01*
X121922737Y-72845184D01*
X121795184Y-72972737D01*
X121699210Y-73125478D01*
X121639630Y-73295750D01*
X121629837Y-73382668D01*
X121602770Y-73447082D01*
X121594298Y-73456465D01*
X121356247Y-73694517D01*
X121294924Y-73728002D01*
X121225233Y-73723018D01*
X121180885Y-73694517D01*
X121068657Y-73582289D01*
X121068656Y-73582288D01*
X120935266Y-73500013D01*
X120919336Y-73490187D01*
X120919331Y-73490185D01*
X120877326Y-73476266D01*
X120752797Y-73435001D01*
X120752795Y-73435000D01*
X120650010Y-73424500D01*
X119599998Y-73424500D01*
X119599980Y-73424501D01*
X119497203Y-73435000D01*
X119497200Y-73435001D01*
X119330668Y-73490185D01*
X119330663Y-73490187D01*
X119181345Y-73582287D01*
X119101518Y-73662114D01*
X119040194Y-73695598D01*
X118970503Y-73690614D01*
X118914569Y-73648742D01*
X118902119Y-73628237D01*
X118900792Y-73625482D01*
X118847691Y-73540973D01*
X118828690Y-73473736D01*
X118847691Y-73409027D01*
X118900788Y-73324524D01*
X118900789Y-73324522D01*
X118960368Y-73154255D01*
X118960593Y-73152262D01*
X118980565Y-72975003D01*
X118980565Y-72974996D01*
X118960369Y-72795750D01*
X118960368Y-72795745D01*
X118919810Y-72679837D01*
X118900789Y-72625478D01*
X118804816Y-72472738D01*
X118677262Y-72345184D01*
X118637182Y-72320000D01*
X118524523Y-72249211D01*
X118354254Y-72189631D01*
X118354249Y-72189630D01*
X118175004Y-72169435D01*
X118174996Y-72169435D01*
X117995750Y-72189630D01*
X117995745Y-72189631D01*
X117825476Y-72249211D01*
X117672737Y-72345184D01*
X117545184Y-72472737D01*
X117449211Y-72625476D01*
X117389631Y-72795745D01*
X117389630Y-72795750D01*
X117369435Y-72974996D01*
X117369435Y-72975003D01*
X117389630Y-73154249D01*
X117389633Y-73154262D01*
X117449209Y-73324520D01*
X117502309Y-73409029D01*
X117521309Y-73476266D01*
X117502309Y-73540971D01*
X117449211Y-73625476D01*
X117389630Y-73795750D01*
X117386377Y-73824626D01*
X117359310Y-73889040D01*
X117301715Y-73928595D01*
X117240255Y-73931183D01*
X117240196Y-73931738D01*
X117236508Y-73931341D01*
X117234647Y-73931420D01*
X117232482Y-73930908D01*
X117172883Y-73924501D01*
X117172881Y-73924500D01*
X117172873Y-73924500D01*
X117172864Y-73924500D01*
X115477129Y-73924500D01*
X115477123Y-73924501D01*
X115417516Y-73930908D01*
X115282671Y-73981202D01*
X115282664Y-73981206D01*
X115167455Y-74067452D01*
X115167452Y-74067455D01*
X115081206Y-74182664D01*
X115081202Y-74182671D01*
X115035316Y-74305700D01*
X115030909Y-74317517D01*
X115024500Y-74377127D01*
X115024500Y-74377134D01*
X115024500Y-74377135D01*
X115024500Y-74772870D01*
X115024501Y-74772876D01*
X115030909Y-74832484D01*
X115039929Y-74856670D01*
X115044911Y-74926361D01*
X115039929Y-74943330D01*
X115030909Y-74967515D01*
X115030908Y-74967516D01*
X115024501Y-75027116D01*
X115024500Y-75027135D01*
X115024500Y-75283504D01*
X115004815Y-75350543D01*
X114962501Y-75390890D01*
X114956290Y-75394475D01*
X114956281Y-75394482D01*
X114712680Y-75638083D01*
X114651357Y-75671568D01*
X114581665Y-75666584D01*
X114537318Y-75638083D01*
X114412590Y-75513355D01*
X114412588Y-75513352D01*
X114293717Y-75394481D01*
X114293709Y-75394475D01*
X114188813Y-75333914D01*
X114156788Y-75315424D01*
X114152292Y-75313562D01*
X114097888Y-75269722D01*
X114075822Y-75203428D01*
X114093100Y-75135728D01*
X114144237Y-75088117D01*
X114199743Y-75075000D01*
X114225000Y-75075000D01*
X114225000Y-75027172D01*
X114224999Y-75027155D01*
X114218598Y-74967627D01*
X114218597Y-74967623D01*
X114209804Y-74944047D01*
X114204820Y-74874355D01*
X114209802Y-74857387D01*
X114219091Y-74832483D01*
X114225500Y-74772873D01*
X114225499Y-74377128D01*
X114219091Y-74317517D01*
X114203240Y-74275019D01*
X114168797Y-74182671D01*
X114168793Y-74182664D01*
X114082547Y-74067455D01*
X114082544Y-74067452D01*
X113967335Y-73981206D01*
X113967328Y-73981202D01*
X113832482Y-73930908D01*
X113832483Y-73930908D01*
X113772883Y-73924501D01*
X113772881Y-73924500D01*
X113772873Y-73924500D01*
X113772864Y-73924500D01*
X112077129Y-73924500D01*
X112077123Y-73924501D01*
X112017515Y-73930909D01*
X111973128Y-73947464D01*
X111903436Y-73952448D01*
X111842114Y-73918962D01*
X111808629Y-73857639D01*
X111812755Y-73790327D01*
X111860366Y-73654262D01*
X111860369Y-73654249D01*
X111880565Y-73475003D01*
X111880565Y-73474996D01*
X111860369Y-73295750D01*
X111860368Y-73295745D01*
X111810861Y-73154262D01*
X111800789Y-73125478D01*
X111704816Y-72972738D01*
X111577262Y-72845184D01*
X111551911Y-72829255D01*
X111424523Y-72749211D01*
X111254254Y-72689631D01*
X111254249Y-72689630D01*
X111075004Y-72669435D01*
X111074996Y-72669435D01*
X110895750Y-72689630D01*
X110895745Y-72689631D01*
X110725476Y-72749211D01*
X110572737Y-72845184D01*
X110445184Y-72972737D01*
X110349211Y-73125476D01*
X110289631Y-73295745D01*
X110289630Y-73295750D01*
X110269435Y-73474996D01*
X110269435Y-73475003D01*
X110289630Y-73654249D01*
X110289631Y-73654254D01*
X110349211Y-73824523D01*
X110433727Y-73959028D01*
X110452727Y-74026264D01*
X110433727Y-74090972D01*
X110349211Y-74225476D01*
X110289631Y-74395745D01*
X110289630Y-74395750D01*
X110269435Y-74574996D01*
X110269435Y-74575003D01*
X110289630Y-74754249D01*
X110289631Y-74754254D01*
X110349211Y-74924523D01*
X110448889Y-75083158D01*
X110446590Y-75084602D01*
X110468341Y-75137849D01*
X110455599Y-75206547D01*
X110407739Y-75257450D01*
X110344988Y-75274500D01*
X109909798Y-75274500D01*
X109842759Y-75254815D01*
X109804259Y-75215597D01*
X109798677Y-75206547D01*
X109767712Y-75156344D01*
X109643656Y-75032288D01*
X109640342Y-75030243D01*
X109638546Y-75028248D01*
X109637989Y-75027807D01*
X109638064Y-75027711D01*
X109593618Y-74978297D01*
X109582397Y-74909334D01*
X109610240Y-74845252D01*
X109640348Y-74819165D01*
X109643342Y-74817318D01*
X109767315Y-74693345D01*
X109859356Y-74544124D01*
X109859358Y-74544119D01*
X109914505Y-74377697D01*
X109914506Y-74377690D01*
X109924999Y-74274986D01*
X109925000Y-74274973D01*
X109925000Y-74137500D01*
X107475001Y-74137500D01*
X107475001Y-74274986D01*
X107485494Y-74377697D01*
X107540641Y-74544119D01*
X107540643Y-74544124D01*
X107632684Y-74693345D01*
X107756655Y-74817316D01*
X107756659Y-74817319D01*
X107759656Y-74819168D01*
X107761279Y-74820972D01*
X107762323Y-74821798D01*
X107762181Y-74821976D01*
X107806381Y-74871116D01*
X107817602Y-74940079D01*
X107789759Y-75004161D01*
X107759661Y-75030241D01*
X107756349Y-75032283D01*
X107756343Y-75032288D01*
X107632289Y-75156342D01*
X107624276Y-75169334D01*
X107602391Y-75204816D01*
X107595741Y-75215597D01*
X107543793Y-75262321D01*
X107490202Y-75274500D01*
X107099500Y-75274500D01*
X107032461Y-75254815D01*
X106986706Y-75202011D01*
X106975500Y-75150500D01*
X106975500Y-73500013D01*
X107475000Y-73500013D01*
X107475000Y-73637500D01*
X108450000Y-73637500D01*
X108950000Y-73637500D01*
X109924999Y-73637500D01*
X109924999Y-73500028D01*
X109924998Y-73500013D01*
X109914505Y-73397302D01*
X109859358Y-73230880D01*
X109859356Y-73230875D01*
X109767315Y-73081654D01*
X109643345Y-72957684D01*
X109494124Y-72865643D01*
X109494119Y-72865641D01*
X109327697Y-72810494D01*
X109327690Y-72810493D01*
X109224986Y-72800000D01*
X108950000Y-72800000D01*
X108950000Y-73637500D01*
X108450000Y-73637500D01*
X108450000Y-72800000D01*
X108175029Y-72800000D01*
X108175012Y-72800001D01*
X108072302Y-72810494D01*
X107905880Y-72865641D01*
X107905875Y-72865643D01*
X107756654Y-72957684D01*
X107632684Y-73081654D01*
X107540643Y-73230875D01*
X107540641Y-73230880D01*
X107485494Y-73397302D01*
X107485493Y-73397309D01*
X107475000Y-73500013D01*
X106975500Y-73500013D01*
X106975500Y-71599988D01*
X110570001Y-71599988D01*
X110580494Y-71702699D01*
X110635640Y-71869120D01*
X110635642Y-71869125D01*
X110727683Y-72018346D01*
X110851653Y-72142316D01*
X111000874Y-72234357D01*
X111000879Y-72234359D01*
X111167302Y-72289506D01*
X111167300Y-72289506D01*
X111226134Y-72295516D01*
X111237124Y-72300000D01*
X111263701Y-72300000D01*
X111276304Y-72300642D01*
X111283461Y-72301373D01*
X111291419Y-72300000D01*
X111321375Y-72300000D01*
X111321384Y-72299999D01*
X112195000Y-72299999D01*
X112695000Y-72299999D01*
X113720000Y-72299999D01*
X114220000Y-72299999D01*
X115244999Y-72299999D01*
X115745000Y-72299999D01*
X116669974Y-72299999D01*
X116669988Y-72299998D01*
X116772699Y-72289505D01*
X116939120Y-72234359D01*
X116939125Y-72234357D01*
X117088346Y-72142316D01*
X117212316Y-72018346D01*
X117304357Y-71869125D01*
X117304359Y-71869120D01*
X117359505Y-71702698D01*
X117369999Y-71599988D01*
X117370000Y-71599975D01*
X117370000Y-70525000D01*
X115745000Y-70525000D01*
X115745000Y-72299999D01*
X115244999Y-72299999D01*
X115245000Y-72299998D01*
X115245000Y-70525000D01*
X114220000Y-70525000D01*
X114220000Y-72299999D01*
X113720000Y-72299999D01*
X113720000Y-70525000D01*
X112695000Y-70525000D01*
X112695000Y-72299999D01*
X112195000Y-72299999D01*
X112195000Y-70525000D01*
X110570001Y-70525000D01*
X110570001Y-71599988D01*
X106975500Y-71599988D01*
X106975500Y-70024999D01*
X110570000Y-70024999D01*
X110570002Y-70025000D01*
X112195000Y-70025000D01*
X112695000Y-70025000D01*
X113720000Y-70025000D01*
X114220000Y-70025000D01*
X115245000Y-70025000D01*
X115745000Y-70025000D01*
X117369999Y-70025000D01*
X117369999Y-68850000D01*
X115745000Y-68850000D01*
X115745000Y-70025000D01*
X115245000Y-70025000D01*
X115245000Y-68850000D01*
X114220000Y-68850000D01*
X114220000Y-70025000D01*
X113720000Y-70025000D01*
X113720000Y-68850000D01*
X112695000Y-68850000D01*
X112695000Y-70025000D01*
X112195000Y-70025000D01*
X112195000Y-68850000D01*
X110570000Y-68850000D01*
X110570000Y-70024999D01*
X106975500Y-70024999D01*
X106975500Y-68350000D01*
X110570000Y-68350000D01*
X112195000Y-68350000D01*
X112695000Y-68350000D01*
X113720000Y-68350000D01*
X114220000Y-68350000D01*
X115245000Y-68350000D01*
X115745000Y-68350000D01*
X117369999Y-68350000D01*
X117369999Y-68256113D01*
X117370000Y-68256092D01*
X117370000Y-67175000D01*
X115745000Y-67175000D01*
X115745000Y-68350000D01*
X115245000Y-68350000D01*
X115245000Y-67175000D01*
X114220000Y-67175000D01*
X114220000Y-68350000D01*
X113720000Y-68350000D01*
X113720000Y-67175000D01*
X112695000Y-67175000D01*
X112695000Y-68350000D01*
X112195000Y-68350000D01*
X112195000Y-67175000D01*
X110570000Y-67175000D01*
X110570000Y-68350000D01*
X106975500Y-68350000D01*
X106975500Y-65600011D01*
X110570000Y-65600011D01*
X110570000Y-66675000D01*
X112195000Y-66675000D01*
X112695000Y-66675000D01*
X113720000Y-66675000D01*
X114220000Y-66675000D01*
X115245000Y-66675000D01*
X115745000Y-66675000D01*
X117369999Y-66675000D01*
X117369999Y-65600028D01*
X117369998Y-65600013D01*
X117360148Y-65503589D01*
X117359976Y-65500219D01*
X117359505Y-65497300D01*
X117304359Y-65330879D01*
X117304357Y-65330874D01*
X117212316Y-65181653D01*
X117088346Y-65057683D01*
X116939125Y-64965642D01*
X116939120Y-64965640D01*
X116772698Y-64910494D01*
X116669988Y-64900000D01*
X115745000Y-64900000D01*
X115745000Y-66675000D01*
X115245000Y-66675000D01*
X115245000Y-64900000D01*
X114220000Y-64900000D01*
X114220000Y-66675000D01*
X113720000Y-66675000D01*
X113720000Y-64900000D01*
X112695000Y-64900000D01*
X112695000Y-66675000D01*
X112195000Y-66675000D01*
X112195000Y-64900000D01*
X111269197Y-64900000D01*
X111266364Y-64900374D01*
X111167300Y-64910494D01*
X111000879Y-64965640D01*
X111000874Y-64965642D01*
X110851653Y-65057683D01*
X110727683Y-65181653D01*
X110635642Y-65330874D01*
X110635640Y-65330879D01*
X110580494Y-65497301D01*
X110570000Y-65600011D01*
X106975500Y-65600011D01*
X106975500Y-64737486D01*
X107817501Y-64737486D01*
X107827994Y-64840197D01*
X107883141Y-65006619D01*
X107883143Y-65006624D01*
X107975184Y-65155845D01*
X108099154Y-65279815D01*
X108248375Y-65371856D01*
X108248380Y-65371858D01*
X108414802Y-65427005D01*
X108414809Y-65427006D01*
X108517519Y-65437499D01*
X108792499Y-65437499D01*
X109292500Y-65437499D01*
X109567472Y-65437499D01*
X109567486Y-65437498D01*
X109670197Y-65427005D01*
X109836619Y-65371858D01*
X109836624Y-65371856D01*
X109985845Y-65279815D01*
X110109815Y-65155845D01*
X110201856Y-65006624D01*
X110201858Y-65006619D01*
X110257005Y-64840197D01*
X110257006Y-64840190D01*
X110263668Y-64774986D01*
X117817501Y-64774986D01*
X117827994Y-64877697D01*
X117883141Y-65044119D01*
X117883143Y-65044124D01*
X117975184Y-65193345D01*
X118099154Y-65317315D01*
X118248375Y-65409356D01*
X118248380Y-65409358D01*
X118414802Y-65464505D01*
X118414809Y-65464506D01*
X118517519Y-65474999D01*
X118792499Y-65474999D01*
X119292500Y-65474999D01*
X119567472Y-65474999D01*
X119567486Y-65474998D01*
X119670197Y-65464505D01*
X119836619Y-65409358D01*
X119836624Y-65409356D01*
X119985845Y-65317315D01*
X120109815Y-65193345D01*
X120201856Y-65044124D01*
X120204908Y-65037579D01*
X120207755Y-65038906D01*
X120239414Y-64993027D01*
X120303887Y-64966102D01*
X120372682Y-64978309D01*
X120423957Y-65025771D01*
X120429497Y-65037856D01*
X120430092Y-65037579D01*
X120433143Y-65044124D01*
X120525184Y-65193345D01*
X120649154Y-65317315D01*
X120798375Y-65409356D01*
X120798380Y-65409358D01*
X120964802Y-65464505D01*
X120964809Y-65464506D01*
X121067519Y-65474999D01*
X121342499Y-65474999D01*
X121842500Y-65474999D01*
X122117472Y-65474999D01*
X122117486Y-65474998D01*
X122220197Y-65464505D01*
X122386619Y-65409358D01*
X122386624Y-65409356D01*
X122535845Y-65317315D01*
X122659815Y-65193345D01*
X122751856Y-65044124D01*
X122751858Y-65044119D01*
X122807005Y-64877697D01*
X122807006Y-64877690D01*
X122817499Y-64774986D01*
X122817500Y-64774973D01*
X122817500Y-64637500D01*
X121842500Y-64637500D01*
X121842500Y-65474999D01*
X121342499Y-65474999D01*
X121342500Y-65474998D01*
X121342500Y-64637500D01*
X119292500Y-64637500D01*
X119292500Y-65474999D01*
X118792499Y-65474999D01*
X118792500Y-65474998D01*
X118792500Y-64637500D01*
X117817501Y-64637500D01*
X117817501Y-64774986D01*
X110263668Y-64774986D01*
X110267499Y-64737486D01*
X110267500Y-64737473D01*
X110267500Y-64600000D01*
X109292500Y-64600000D01*
X109292500Y-65437499D01*
X108792499Y-65437499D01*
X108792500Y-65437498D01*
X108792500Y-64600000D01*
X107817501Y-64600000D01*
X107817501Y-64737486D01*
X106975500Y-64737486D01*
X106975500Y-64025097D01*
X106995185Y-63958058D01*
X107011819Y-63937416D01*
X107413632Y-63535603D01*
X107833754Y-63115480D01*
X107895075Y-63081997D01*
X107964766Y-63086981D01*
X108009114Y-63115482D01*
X108098844Y-63205212D01*
X108102128Y-63207237D01*
X108102153Y-63207253D01*
X108103945Y-63209246D01*
X108104511Y-63209693D01*
X108104434Y-63209789D01*
X108148879Y-63259199D01*
X108160103Y-63328161D01*
X108132261Y-63392244D01*
X108102165Y-63418326D01*
X108099160Y-63420179D01*
X108099155Y-63420183D01*
X107975184Y-63544154D01*
X107883143Y-63693375D01*
X107883141Y-63693380D01*
X107827994Y-63859802D01*
X107827993Y-63859809D01*
X107817500Y-63962513D01*
X107817500Y-64100000D01*
X110267499Y-64100000D01*
X110267499Y-63962528D01*
X110267498Y-63962513D01*
X110257005Y-63859802D01*
X110201858Y-63693380D01*
X110201856Y-63693375D01*
X110109815Y-63544154D01*
X109985844Y-63420183D01*
X109985841Y-63420181D01*
X109982839Y-63418329D01*
X109981213Y-63416521D01*
X109980177Y-63415702D01*
X109980317Y-63415524D01*
X109936117Y-63366380D01*
X109924897Y-63297417D01*
X109952743Y-63233336D01*
X109982844Y-63207254D01*
X109986156Y-63205212D01*
X110110212Y-63081156D01*
X110200729Y-62934402D01*
X110252677Y-62887679D01*
X110306268Y-62875500D01*
X110465501Y-62875500D01*
X110532540Y-62895185D01*
X110578295Y-62947989D01*
X110589501Y-62999500D01*
X110589501Y-63200018D01*
X110600000Y-63302796D01*
X110600001Y-63302799D01*
X110655185Y-63469331D01*
X110655187Y-63469336D01*
X110669916Y-63493215D01*
X110747288Y-63618656D01*
X110871344Y-63742712D01*
X111020666Y-63834814D01*
X111187203Y-63889999D01*
X111289991Y-63900500D01*
X112090008Y-63900499D01*
X112090016Y-63900498D01*
X112090019Y-63900498D01*
X112146302Y-63894748D01*
X112192797Y-63889999D01*
X112359334Y-63834814D01*
X112508656Y-63742712D01*
X112632712Y-63618656D01*
X112724814Y-63469334D01*
X112779999Y-63302797D01*
X112790500Y-63200009D01*
X112790499Y-62921936D01*
X112810183Y-62854900D01*
X112862987Y-62809145D01*
X112932146Y-62799201D01*
X112995701Y-62828226D01*
G37*
G04 #@! TD.AperFunction*
G04 #@! TA.AperFunction,Conductor*
G36*
X130024075Y-67047007D02*
G01*
X129990000Y-67174174D01*
X129990000Y-67305826D01*
X130024075Y-67432993D01*
X130056988Y-67490000D01*
X128383012Y-67490000D01*
X128415925Y-67432993D01*
X128450000Y-67305826D01*
X128450000Y-67174174D01*
X128415925Y-67047007D01*
X128383012Y-66990000D01*
X130056988Y-66990000D01*
X130024075Y-67047007D01*
G37*
G04 #@! TD.AperFunction*
G04 #@! TA.AperFunction,Conductor*
G36*
X132897539Y-59220185D02*
G01*
X132943294Y-59272989D01*
X132954500Y-59324500D01*
X132954500Y-133075500D01*
X132934815Y-133142539D01*
X132882011Y-133188294D01*
X132830500Y-133199500D01*
X125497829Y-133199500D01*
X125430790Y-133179815D01*
X125385035Y-133127011D01*
X125373829Y-133075742D01*
X125373196Y-132751555D01*
X125370544Y-131393713D01*
X129949500Y-131393713D01*
X129949500Y-131606286D01*
X129981270Y-131806877D01*
X129982754Y-131816243D01*
X130039891Y-131992093D01*
X130048444Y-132018414D01*
X130144951Y-132207820D01*
X130269890Y-132379786D01*
X130420213Y-132530109D01*
X130592179Y-132655048D01*
X130592181Y-132655049D01*
X130592184Y-132655051D01*
X130781588Y-132751557D01*
X130983757Y-132817246D01*
X131193713Y-132850500D01*
X131193714Y-132850500D01*
X131406286Y-132850500D01*
X131406287Y-132850500D01*
X131616243Y-132817246D01*
X131818412Y-132751557D01*
X132007816Y-132655051D01*
X132029789Y-132639086D01*
X132179786Y-132530109D01*
X132179788Y-132530106D01*
X132179792Y-132530104D01*
X132330104Y-132379792D01*
X132330106Y-132379788D01*
X132330109Y-132379786D01*
X132455048Y-132207820D01*
X132455047Y-132207820D01*
X132455051Y-132207816D01*
X132551557Y-132018412D01*
X132617246Y-131816243D01*
X132650500Y-131606287D01*
X132650500Y-131393713D01*
X132617246Y-131183757D01*
X132551557Y-130981588D01*
X132455051Y-130792184D01*
X132455049Y-130792181D01*
X132455048Y-130792179D01*
X132330109Y-130620213D01*
X132179786Y-130469890D01*
X132007820Y-130344951D01*
X131818414Y-130248444D01*
X131818413Y-130248443D01*
X131818412Y-130248443D01*
X131616243Y-130182754D01*
X131616241Y-130182753D01*
X131616240Y-130182753D01*
X131454957Y-130157208D01*
X131406287Y-130149500D01*
X131193713Y-130149500D01*
X131145042Y-130157208D01*
X130983760Y-130182753D01*
X130781585Y-130248444D01*
X130592179Y-130344951D01*
X130420213Y-130469890D01*
X130269890Y-130620213D01*
X130144951Y-130792179D01*
X130048444Y-130981585D01*
X129982753Y-131183760D01*
X129949500Y-131393713D01*
X125370544Y-131393713D01*
X125352854Y-122336691D01*
X125372408Y-122269615D01*
X125425122Y-122223757D01*
X125494261Y-122213679D01*
X125557874Y-122242580D01*
X125564535Y-122248770D01*
X126617233Y-123301468D01*
X126650718Y-123362791D01*
X126649327Y-123421241D01*
X126614939Y-123549583D01*
X126614936Y-123549596D01*
X126594341Y-123784999D01*
X126594341Y-123785000D01*
X126614936Y-124020403D01*
X126614938Y-124020413D01*
X126676094Y-124248655D01*
X126676096Y-124248659D01*
X126676097Y-124248663D01*
X126756004Y-124420023D01*
X126775965Y-124462830D01*
X126775967Y-124462834D01*
X126854857Y-124575500D01*
X126911501Y-124656396D01*
X126911506Y-124656402D01*
X127078597Y-124823493D01*
X127078603Y-124823498D01*
X127264594Y-124953730D01*
X127308219Y-125008307D01*
X127315413Y-125077805D01*
X127283890Y-125140160D01*
X127264595Y-125156880D01*
X127078922Y-125286890D01*
X127078920Y-125286891D01*
X126911891Y-125453920D01*
X126911886Y-125453926D01*
X126776400Y-125647420D01*
X126776399Y-125647422D01*
X126676570Y-125861507D01*
X126676567Y-125861513D01*
X126619364Y-126074999D01*
X126619364Y-126075000D01*
X127516988Y-126075000D01*
X127484075Y-126132007D01*
X127450000Y-126259174D01*
X127450000Y-126390826D01*
X127484075Y-126517993D01*
X127516988Y-126575000D01*
X126619364Y-126575000D01*
X126676567Y-126788486D01*
X126676570Y-126788492D01*
X126776399Y-127002578D01*
X126911894Y-127196082D01*
X127078917Y-127363105D01*
X127272421Y-127498600D01*
X127486507Y-127598429D01*
X127486516Y-127598433D01*
X127700000Y-127655634D01*
X127700000Y-126758012D01*
X127757007Y-126790925D01*
X127884174Y-126825000D01*
X128015826Y-126825000D01*
X128142993Y-126790925D01*
X128200000Y-126758012D01*
X128200000Y-127655633D01*
X128413483Y-127598433D01*
X128413492Y-127598429D01*
X128627578Y-127498600D01*
X128821082Y-127363105D01*
X128988105Y-127196082D01*
X129118425Y-127009968D01*
X129173002Y-126966344D01*
X129242501Y-126959151D01*
X129304855Y-126990673D01*
X129321575Y-127009968D01*
X129451894Y-127196082D01*
X129618917Y-127363105D01*
X129812421Y-127498600D01*
X130026507Y-127598429D01*
X130026516Y-127598433D01*
X130240000Y-127655634D01*
X130240000Y-126758012D01*
X130297007Y-126790925D01*
X130424174Y-126825000D01*
X130555826Y-126825000D01*
X130682993Y-126790925D01*
X130740000Y-126758012D01*
X130740000Y-127655633D01*
X130953483Y-127598433D01*
X130953492Y-127598429D01*
X131167578Y-127498600D01*
X131361082Y-127363105D01*
X131528105Y-127196082D01*
X131663600Y-127002578D01*
X131763429Y-126788492D01*
X131763432Y-126788486D01*
X131820636Y-126575000D01*
X130923012Y-126575000D01*
X130955925Y-126517993D01*
X130990000Y-126390826D01*
X130990000Y-126259174D01*
X130955925Y-126132007D01*
X130923012Y-126075000D01*
X131820636Y-126075000D01*
X131820635Y-126074999D01*
X131763432Y-125861513D01*
X131763429Y-125861507D01*
X131663600Y-125647422D01*
X131663599Y-125647420D01*
X131528113Y-125453926D01*
X131528108Y-125453920D01*
X131361078Y-125286890D01*
X131175405Y-125156879D01*
X131131780Y-125102302D01*
X131124588Y-125032804D01*
X131156110Y-124970449D01*
X131175406Y-124953730D01*
X131217795Y-124924049D01*
X131361401Y-124823495D01*
X131528495Y-124656401D01*
X131664035Y-124462830D01*
X131763903Y-124248663D01*
X131825063Y-124020408D01*
X131845659Y-123785000D01*
X131825063Y-123549592D01*
X131763903Y-123321337D01*
X131664035Y-123107171D01*
X131628445Y-123056342D01*
X131528494Y-122913597D01*
X131361402Y-122746506D01*
X131361396Y-122746501D01*
X131175842Y-122616575D01*
X131132217Y-122561998D01*
X131125023Y-122492500D01*
X131156546Y-122430145D01*
X131175842Y-122413425D01*
X131311073Y-122318735D01*
X131361401Y-122283495D01*
X131528495Y-122116401D01*
X131664035Y-121922830D01*
X131763903Y-121708663D01*
X131825063Y-121480408D01*
X131845659Y-121245000D01*
X131825063Y-121009592D01*
X131763903Y-120781337D01*
X131664035Y-120567171D01*
X131648326Y-120544735D01*
X131528494Y-120373597D01*
X131361402Y-120206506D01*
X131361396Y-120206501D01*
X131175842Y-120076575D01*
X131132217Y-120021998D01*
X131125023Y-119952500D01*
X131156546Y-119890145D01*
X131175842Y-119873425D01*
X131326414Y-119767993D01*
X131361401Y-119743495D01*
X131528495Y-119576401D01*
X131664035Y-119382830D01*
X131763903Y-119168663D01*
X131825063Y-118940408D01*
X131845659Y-118705000D01*
X131825063Y-118469592D01*
X131763903Y-118241337D01*
X131664035Y-118027171D01*
X131528495Y-117833599D01*
X131528494Y-117833597D01*
X131361402Y-117666506D01*
X131361396Y-117666501D01*
X131175842Y-117536575D01*
X131132217Y-117481998D01*
X131125023Y-117412500D01*
X131156546Y-117350145D01*
X131175842Y-117333425D01*
X131198026Y-117317891D01*
X131361401Y-117203495D01*
X131528495Y-117036401D01*
X131664035Y-116842830D01*
X131763903Y-116628663D01*
X131825063Y-116400408D01*
X131845659Y-116165000D01*
X131825063Y-115929592D01*
X131763903Y-115701337D01*
X131664035Y-115487171D01*
X131528495Y-115293599D01*
X131528494Y-115293597D01*
X131361402Y-115126506D01*
X131361396Y-115126501D01*
X131175842Y-114996575D01*
X131132217Y-114941998D01*
X131125023Y-114872500D01*
X131156546Y-114810145D01*
X131175842Y-114793425D01*
X131198026Y-114777891D01*
X131361401Y-114663495D01*
X131528495Y-114496401D01*
X131664035Y-114302830D01*
X131763903Y-114088663D01*
X131825063Y-113860408D01*
X131845659Y-113625000D01*
X131844474Y-113611461D01*
X131834792Y-113500789D01*
X131825063Y-113389592D01*
X131763903Y-113161337D01*
X131664035Y-112947171D01*
X131602329Y-112859046D01*
X131528496Y-112753600D01*
X131528493Y-112753597D01*
X131406567Y-112631671D01*
X131373084Y-112570351D01*
X131378068Y-112500659D01*
X131419939Y-112444725D01*
X131450915Y-112427810D01*
X131582331Y-112378796D01*
X131697546Y-112292546D01*
X131783796Y-112177331D01*
X131834091Y-112042483D01*
X131840500Y-111982873D01*
X131840499Y-110187128D01*
X131834091Y-110127517D01*
X131832810Y-110124083D01*
X131783797Y-109992671D01*
X131783793Y-109992664D01*
X131697547Y-109877455D01*
X131697544Y-109877452D01*
X131582335Y-109791206D01*
X131582328Y-109791202D01*
X131447482Y-109740908D01*
X131447483Y-109740908D01*
X131387883Y-109734501D01*
X131387881Y-109734500D01*
X131387873Y-109734500D01*
X131387864Y-109734500D01*
X129592129Y-109734500D01*
X129592123Y-109734501D01*
X129532516Y-109740908D01*
X129397671Y-109791202D01*
X129397664Y-109791206D01*
X129282455Y-109877452D01*
X129282452Y-109877455D01*
X129196206Y-109992664D01*
X129196203Y-109992669D01*
X129147189Y-110124083D01*
X129105317Y-110180016D01*
X129039853Y-110204433D01*
X128971580Y-110189581D01*
X128943326Y-110168430D01*
X128821402Y-110046506D01*
X128821395Y-110046501D01*
X128627834Y-109910967D01*
X128627830Y-109910965D01*
X128627828Y-109910964D01*
X128413663Y-109811097D01*
X128413659Y-109811096D01*
X128413655Y-109811094D01*
X128185413Y-109749938D01*
X128185403Y-109749936D01*
X127950001Y-109729341D01*
X127949999Y-109729341D01*
X127714596Y-109749936D01*
X127714586Y-109749938D01*
X127486344Y-109811094D01*
X127486335Y-109811098D01*
X127272171Y-109910964D01*
X127272169Y-109910965D01*
X127078597Y-110046505D01*
X126911505Y-110213597D01*
X126775965Y-110407169D01*
X126775961Y-110407176D01*
X126766295Y-110427906D01*
X126720122Y-110480345D01*
X126653914Y-110499500D01*
X123300097Y-110499500D01*
X123233058Y-110479815D01*
X123212416Y-110463181D01*
X122598540Y-109849305D01*
X122565055Y-109787982D01*
X122570039Y-109718290D01*
X122611911Y-109662357D01*
X122677375Y-109637940D01*
X122718312Y-109641848D01*
X122879592Y-109685063D01*
X123067918Y-109701539D01*
X123114999Y-109705659D01*
X123115000Y-109705659D01*
X123115001Y-109705659D01*
X123154234Y-109702226D01*
X123350408Y-109685063D01*
X123578663Y-109623903D01*
X123792830Y-109524035D01*
X123986401Y-109388495D01*
X124153495Y-109221401D01*
X124288301Y-109028877D01*
X124342878Y-108985253D01*
X124389876Y-108976001D01*
X124553554Y-108976001D01*
X124553557Y-108976001D01*
X124706285Y-108935077D01*
X124778790Y-108893216D01*
X124843216Y-108856020D01*
X124955020Y-108744216D01*
X124955020Y-108744214D01*
X124965224Y-108734011D01*
X124965227Y-108734006D01*
X126074916Y-107624319D01*
X126136239Y-107590834D01*
X126162597Y-107588000D01*
X126261232Y-107588000D01*
X126328271Y-107607685D01*
X126366769Y-107646901D01*
X126457288Y-107793656D01*
X126581344Y-107917712D01*
X126730666Y-108009814D01*
X126897203Y-108064999D01*
X126999991Y-108075500D01*
X128050008Y-108075499D01*
X128050016Y-108075498D01*
X128050019Y-108075498D01*
X128106302Y-108069748D01*
X128152797Y-108064999D01*
X128319334Y-108009814D01*
X128468656Y-107917712D01*
X128592712Y-107793656D01*
X128684814Y-107644334D01*
X128739999Y-107477797D01*
X128750500Y-107375009D01*
X128750499Y-106599992D01*
X128748403Y-106579478D01*
X128739999Y-106497203D01*
X128739998Y-106497200D01*
X128717042Y-106427923D01*
X128684814Y-106330666D01*
X128592712Y-106181344D01*
X128468656Y-106057288D01*
X128465342Y-106055243D01*
X128463546Y-106053248D01*
X128462989Y-106052807D01*
X128463064Y-106052711D01*
X128418618Y-106003297D01*
X128407397Y-105934334D01*
X128435240Y-105870252D01*
X128465348Y-105844165D01*
X128468342Y-105842318D01*
X128592315Y-105718345D01*
X128684356Y-105569124D01*
X128684358Y-105569119D01*
X128739505Y-105402697D01*
X128739506Y-105402690D01*
X128749999Y-105299986D01*
X128750000Y-105299973D01*
X128750000Y-105162500D01*
X126300001Y-105162500D01*
X126300001Y-105299986D01*
X126310494Y-105402697D01*
X126365641Y-105569119D01*
X126365643Y-105569124D01*
X126457684Y-105718345D01*
X126581655Y-105842316D01*
X126581659Y-105842319D01*
X126584656Y-105844168D01*
X126586279Y-105845972D01*
X126587323Y-105846798D01*
X126587181Y-105846976D01*
X126631381Y-105896116D01*
X126642602Y-105965079D01*
X126614759Y-106029161D01*
X126584661Y-106055241D01*
X126581349Y-106057283D01*
X126581343Y-106057288D01*
X126457289Y-106181342D01*
X126457288Y-106181344D01*
X126398951Y-106275925D01*
X126366771Y-106328097D01*
X126314823Y-106374821D01*
X126261232Y-106387000D01*
X125783440Y-106387000D01*
X125742519Y-106397964D01*
X125742519Y-106397965D01*
X125705251Y-106407951D01*
X125630714Y-106427923D01*
X125630709Y-106427926D01*
X125493790Y-106506975D01*
X125493782Y-106506981D01*
X125381978Y-106618786D01*
X124409820Y-107590943D01*
X124348497Y-107624428D01*
X124278805Y-107619444D01*
X124222872Y-107577572D01*
X124220595Y-107574429D01*
X124153495Y-107478599D01*
X124031179Y-107356283D01*
X123997696Y-107294963D01*
X124002680Y-107225271D01*
X124044551Y-107169337D01*
X124075529Y-107152422D01*
X124207086Y-107103354D01*
X124207093Y-107103350D01*
X124322187Y-107017190D01*
X124322190Y-107017187D01*
X124408350Y-106902093D01*
X124408354Y-106902086D01*
X124458596Y-106767379D01*
X124458598Y-106767372D01*
X124464999Y-106707844D01*
X124465000Y-106707827D01*
X124465000Y-106060000D01*
X123548012Y-106060000D01*
X123580925Y-106002993D01*
X123615000Y-105875826D01*
X123615000Y-105744174D01*
X123580925Y-105617007D01*
X123548012Y-105560000D01*
X124465000Y-105560000D01*
X124465000Y-104912172D01*
X124464999Y-104912155D01*
X124458598Y-104852627D01*
X124458596Y-104852620D01*
X124408354Y-104717913D01*
X124408350Y-104717906D01*
X124322190Y-104602812D01*
X124322187Y-104602809D01*
X124218266Y-104525013D01*
X126300000Y-104525013D01*
X126300000Y-104662500D01*
X127275000Y-104662500D01*
X127775000Y-104662500D01*
X128749999Y-104662500D01*
X128749999Y-104525028D01*
X128749998Y-104525013D01*
X128739505Y-104422302D01*
X128684358Y-104255880D01*
X128684356Y-104255875D01*
X128592315Y-104106654D01*
X128468345Y-103982684D01*
X128319124Y-103890643D01*
X128319119Y-103890641D01*
X128152697Y-103835494D01*
X128152690Y-103835493D01*
X128049986Y-103825000D01*
X127775000Y-103825000D01*
X127775000Y-104662500D01*
X127275000Y-104662500D01*
X127275000Y-103825000D01*
X127000029Y-103825000D01*
X127000012Y-103825001D01*
X126897302Y-103835494D01*
X126730880Y-103890641D01*
X126730875Y-103890643D01*
X126581654Y-103982684D01*
X126457684Y-104106654D01*
X126365643Y-104255875D01*
X126365641Y-104255880D01*
X126310494Y-104422302D01*
X126310493Y-104422309D01*
X126300000Y-104525013D01*
X124218266Y-104525013D01*
X124207093Y-104516649D01*
X124207086Y-104516645D01*
X124072379Y-104466403D01*
X124072372Y-104466401D01*
X124012844Y-104460000D01*
X123365000Y-104460000D01*
X123365000Y-105376988D01*
X123307993Y-105344075D01*
X123180826Y-105310000D01*
X123049174Y-105310000D01*
X122922007Y-105344075D01*
X122865000Y-105376988D01*
X122865000Y-104460000D01*
X122217155Y-104460000D01*
X122157627Y-104466401D01*
X122157620Y-104466403D01*
X122022913Y-104516645D01*
X122022906Y-104516649D01*
X121907812Y-104602809D01*
X121907809Y-104602812D01*
X121821649Y-104717906D01*
X121821645Y-104717913D01*
X121772578Y-104849470D01*
X121730707Y-104905404D01*
X121665242Y-104929821D01*
X121596969Y-104914969D01*
X121568715Y-104893819D01*
X121524366Y-104849470D01*
X121446401Y-104771505D01*
X121446397Y-104771502D01*
X121446396Y-104771501D01*
X121252834Y-104635967D01*
X121252830Y-104635965D01*
X121181727Y-104602809D01*
X121038663Y-104536097D01*
X121038659Y-104536096D01*
X121038655Y-104536094D01*
X120810413Y-104474938D01*
X120810403Y-104474936D01*
X120575001Y-104454341D01*
X120574999Y-104454341D01*
X120339596Y-104474936D01*
X120339586Y-104474938D01*
X120111344Y-104536094D01*
X120111335Y-104536098D01*
X119897171Y-104635964D01*
X119897169Y-104635965D01*
X119703597Y-104771505D01*
X119536505Y-104938597D01*
X119406575Y-105124158D01*
X119351998Y-105167783D01*
X119282500Y-105174977D01*
X119220145Y-105143454D01*
X119203425Y-105124158D01*
X119073494Y-104938597D01*
X118906402Y-104771506D01*
X118906395Y-104771501D01*
X118712834Y-104635967D01*
X118712830Y-104635965D01*
X118641727Y-104602809D01*
X118498663Y-104536097D01*
X118498659Y-104536096D01*
X118498655Y-104536094D01*
X118270413Y-104474938D01*
X118270403Y-104474936D01*
X118035001Y-104454341D01*
X118034999Y-104454341D01*
X117799596Y-104474936D01*
X117799586Y-104474938D01*
X117571344Y-104536094D01*
X117571335Y-104536098D01*
X117357171Y-104635964D01*
X117357169Y-104635965D01*
X117163597Y-104771505D01*
X116996505Y-104938597D01*
X116866575Y-105124158D01*
X116811998Y-105167783D01*
X116742500Y-105174977D01*
X116680145Y-105143454D01*
X116663425Y-105124158D01*
X116533494Y-104938597D01*
X116366402Y-104771506D01*
X116366395Y-104771501D01*
X116172834Y-104635967D01*
X116172830Y-104635965D01*
X116101727Y-104602809D01*
X115958663Y-104536097D01*
X115958659Y-104536096D01*
X115958655Y-104536094D01*
X115730413Y-104474938D01*
X115730403Y-104474936D01*
X115495001Y-104454341D01*
X115494999Y-104454341D01*
X115259596Y-104474936D01*
X115259586Y-104474938D01*
X115031344Y-104536094D01*
X115031335Y-104536098D01*
X114817171Y-104635964D01*
X114817169Y-104635965D01*
X114623597Y-104771505D01*
X114456505Y-104938597D01*
X114320965Y-105132169D01*
X114320964Y-105132171D01*
X114221098Y-105346335D01*
X114221094Y-105346344D01*
X114159938Y-105574586D01*
X114159936Y-105574596D01*
X114139341Y-105809999D01*
X114139341Y-105810000D01*
X114159936Y-106045403D01*
X114159938Y-106045413D01*
X114221094Y-106273655D01*
X114221096Y-106273659D01*
X114221097Y-106273663D01*
X114246480Y-106328097D01*
X114320965Y-106487830D01*
X114320967Y-106487834D01*
X114456501Y-106681395D01*
X114456506Y-106681402D01*
X114623597Y-106848493D01*
X114623603Y-106848498D01*
X114809158Y-106978425D01*
X114852783Y-107033002D01*
X114859977Y-107102500D01*
X114828454Y-107164855D01*
X114809158Y-107181575D01*
X114623597Y-107311505D01*
X114456505Y-107478597D01*
X114320965Y-107672169D01*
X114320964Y-107672171D01*
X114221098Y-107886335D01*
X114221094Y-107886344D01*
X114159938Y-108114586D01*
X114159936Y-108114596D01*
X114139341Y-108349999D01*
X114139341Y-108350000D01*
X114159936Y-108585403D01*
X114159938Y-108585413D01*
X114221094Y-108813655D01*
X114221096Y-108813659D01*
X114221097Y-108813663D01*
X114296796Y-108976000D01*
X114320965Y-109027830D01*
X114320967Y-109027834D01*
X114403587Y-109145826D01*
X114456505Y-109221401D01*
X114623599Y-109388495D01*
X114720384Y-109456265D01*
X114817165Y-109524032D01*
X114817167Y-109524033D01*
X114817170Y-109524035D01*
X115031337Y-109623903D01*
X115259592Y-109685063D01*
X115447918Y-109701539D01*
X115494999Y-109705659D01*
X115495000Y-109705659D01*
X115654802Y-109691677D01*
X115723300Y-109705443D01*
X115753289Y-109727524D01*
X125163181Y-119137416D01*
X125196666Y-119198739D01*
X125199500Y-119225097D01*
X125199500Y-120751000D01*
X125179815Y-120818039D01*
X125127011Y-120863794D01*
X125075500Y-120875000D01*
X109650000Y-120875000D01*
X109673828Y-133075258D01*
X109654274Y-133142336D01*
X109601560Y-133188194D01*
X109549828Y-133199500D01*
X84079500Y-133199500D01*
X84012461Y-133179815D01*
X83966706Y-133127011D01*
X83955500Y-133075500D01*
X83955500Y-131393713D01*
X84249500Y-131393713D01*
X84249500Y-131606286D01*
X84281270Y-131806877D01*
X84282754Y-131816243D01*
X84339891Y-131992093D01*
X84348444Y-132018414D01*
X84444951Y-132207820D01*
X84569890Y-132379786D01*
X84720213Y-132530109D01*
X84892179Y-132655048D01*
X84892181Y-132655049D01*
X84892184Y-132655051D01*
X85081588Y-132751557D01*
X85283757Y-132817246D01*
X85493713Y-132850500D01*
X85493714Y-132850500D01*
X85706286Y-132850500D01*
X85706287Y-132850500D01*
X85916243Y-132817246D01*
X86118412Y-132751557D01*
X86307816Y-132655051D01*
X86329789Y-132639086D01*
X86479786Y-132530109D01*
X86479788Y-132530106D01*
X86479792Y-132530104D01*
X86630104Y-132379792D01*
X86630106Y-132379788D01*
X86630109Y-132379786D01*
X86755048Y-132207820D01*
X86755047Y-132207820D01*
X86755051Y-132207816D01*
X86851557Y-132018412D01*
X86917246Y-131816243D01*
X86950500Y-131606287D01*
X86950500Y-131393713D01*
X86917246Y-131183757D01*
X86851557Y-130981588D01*
X86755051Y-130792184D01*
X86755049Y-130792181D01*
X86755048Y-130792179D01*
X86630109Y-130620213D01*
X86479786Y-130469890D01*
X86307820Y-130344951D01*
X86118414Y-130248444D01*
X86118413Y-130248443D01*
X86118412Y-130248443D01*
X85916243Y-130182754D01*
X85916241Y-130182753D01*
X85916240Y-130182753D01*
X85754957Y-130157208D01*
X85706287Y-130149500D01*
X85493713Y-130149500D01*
X85445042Y-130157208D01*
X85283760Y-130182753D01*
X85081585Y-130248444D01*
X84892179Y-130344951D01*
X84720213Y-130469890D01*
X84569890Y-130620213D01*
X84444951Y-130792179D01*
X84348444Y-130981585D01*
X84282753Y-131183760D01*
X84249500Y-131393713D01*
X83955500Y-131393713D01*
X83955500Y-128499994D01*
X88094945Y-128499994D01*
X88094945Y-128500005D01*
X88115130Y-128743605D01*
X88175138Y-128980573D01*
X88273328Y-129204424D01*
X88369626Y-129351820D01*
X88973958Y-128747488D01*
X88998978Y-128807890D01*
X89070112Y-128914351D01*
X89160649Y-129004888D01*
X89267110Y-129076022D01*
X89327510Y-129101041D01*
X88722757Y-129705793D01*
X88722758Y-129705794D01*
X88765485Y-129739050D01*
X88765485Y-129739051D01*
X88980468Y-129855394D01*
X88980476Y-129855397D01*
X89211664Y-129934765D01*
X89452779Y-129975000D01*
X89697221Y-129975000D01*
X89776706Y-129961736D01*
X89846071Y-129970118D01*
X89899893Y-130014670D01*
X89921084Y-130081249D01*
X89902917Y-130148715D01*
X89884799Y-130171725D01*
X89863401Y-130193123D01*
X89737900Y-130372357D01*
X89737898Y-130372361D01*
X89645426Y-130570668D01*
X89645422Y-130570677D01*
X89588793Y-130782020D01*
X89588793Y-130782023D01*
X89569723Y-131000000D01*
X89585799Y-131183760D01*
X89588793Y-131217975D01*
X89588793Y-131217979D01*
X89645422Y-131429322D01*
X89645424Y-131429326D01*
X89645425Y-131429330D01*
X89662490Y-131465925D01*
X89737897Y-131627638D01*
X89737898Y-131627639D01*
X89863402Y-131806877D01*
X90018123Y-131961598D01*
X90197361Y-132087102D01*
X90395670Y-132179575D01*
X90607023Y-132236207D01*
X90789926Y-132252208D01*
X90824998Y-132255277D01*
X90825000Y-132255277D01*
X90825002Y-132255277D01*
X90853254Y-132252805D01*
X91042977Y-132236207D01*
X91254330Y-132179575D01*
X91452639Y-132087102D01*
X91631877Y-131961598D01*
X91786598Y-131806877D01*
X91912102Y-131627639D01*
X92004575Y-131429330D01*
X92061207Y-131217977D01*
X92080277Y-131000000D01*
X92061207Y-130782023D01*
X92044023Y-130717891D01*
X92045685Y-130648043D01*
X92076114Y-130598119D01*
X92543713Y-130130521D01*
X92543716Y-130130520D01*
X92655520Y-130018716D01*
X92705639Y-129931904D01*
X92734577Y-129881785D01*
X92775500Y-129729058D01*
X92775500Y-129570943D01*
X92775500Y-126949500D01*
X92795185Y-126882461D01*
X92847989Y-126836706D01*
X92899500Y-126825500D01*
X96166897Y-126825500D01*
X96233936Y-126845185D01*
X96279691Y-126897989D01*
X96289635Y-126967147D01*
X96260610Y-127030703D01*
X96207160Y-127066781D01*
X95980476Y-127144602D01*
X95980468Y-127144605D01*
X95765484Y-127260949D01*
X95765478Y-127260953D01*
X95722758Y-127294203D01*
X95722758Y-127294205D01*
X96327511Y-127898958D01*
X96267110Y-127923978D01*
X96160649Y-127995112D01*
X96070112Y-128085649D01*
X95998978Y-128192110D01*
X95973958Y-128252511D01*
X95369626Y-127648178D01*
X95273329Y-127795572D01*
X95175138Y-128019426D01*
X95115130Y-128256394D01*
X95094945Y-128499994D01*
X95094945Y-128500005D01*
X95115130Y-128743605D01*
X95175138Y-128980573D01*
X95273328Y-129204424D01*
X95369626Y-129351820D01*
X95973958Y-128747488D01*
X95998978Y-128807890D01*
X96070112Y-128914351D01*
X96160649Y-129004888D01*
X96267110Y-129076022D01*
X96327510Y-129101041D01*
X95704551Y-129723999D01*
X95643228Y-129757484D01*
X95610425Y-129755138D01*
X95575000Y-129769811D01*
X95575000Y-130566988D01*
X95517993Y-130534075D01*
X95390826Y-130500000D01*
X95259174Y-130500000D01*
X95132007Y-130534075D01*
X95075000Y-130566988D01*
X95075000Y-129750000D01*
X94527155Y-129750000D01*
X94467627Y-129756401D01*
X94467620Y-129756403D01*
X94332913Y-129806645D01*
X94332906Y-129806649D01*
X94217812Y-129892809D01*
X94217809Y-129892812D01*
X94131649Y-130007906D01*
X94131645Y-130007913D01*
X94081403Y-130142620D01*
X94081401Y-130142627D01*
X94075000Y-130202155D01*
X94075000Y-130750000D01*
X94891988Y-130750000D01*
X94859075Y-130807007D01*
X94825000Y-130934174D01*
X94825000Y-131065826D01*
X94859075Y-131192993D01*
X94891988Y-131250000D01*
X94075000Y-131250000D01*
X94075000Y-131797844D01*
X94081401Y-131857372D01*
X94081403Y-131857379D01*
X94131645Y-131992086D01*
X94131649Y-131992093D01*
X94217809Y-132107187D01*
X94217812Y-132107190D01*
X94332906Y-132193350D01*
X94332913Y-132193354D01*
X94467620Y-132243596D01*
X94467627Y-132243598D01*
X94527155Y-132249999D01*
X94527172Y-132250000D01*
X95075000Y-132250000D01*
X95075000Y-131433012D01*
X95132007Y-131465925D01*
X95259174Y-131500000D01*
X95390826Y-131500000D01*
X95517993Y-131465925D01*
X95575000Y-131433012D01*
X95575000Y-132250000D01*
X96122828Y-132250000D01*
X96122844Y-132249999D01*
X96182372Y-132243598D01*
X96182379Y-132243596D01*
X96317086Y-132193354D01*
X96317093Y-132193350D01*
X96432187Y-132107190D01*
X96432190Y-132107187D01*
X96518350Y-131992093D01*
X96518354Y-131992086D01*
X96568596Y-131857379D01*
X96568598Y-131857372D01*
X96574999Y-131797844D01*
X96575000Y-131797827D01*
X96575000Y-131250000D01*
X95758012Y-131250000D01*
X95790925Y-131192993D01*
X95825000Y-131065826D01*
X95825000Y-130934174D01*
X95790925Y-130807007D01*
X95758012Y-130750000D01*
X96575000Y-130750000D01*
X96575000Y-130202172D01*
X96574999Y-130202155D01*
X96568598Y-130142627D01*
X96568597Y-130142621D01*
X96568488Y-130142329D01*
X96568470Y-130142086D01*
X96566813Y-130135070D01*
X96567949Y-130134801D01*
X96563507Y-130072637D01*
X96596994Y-130011315D01*
X96658319Y-129977833D01*
X96684672Y-129975000D01*
X96697221Y-129975000D01*
X96938335Y-129934765D01*
X97169523Y-129855397D01*
X97169531Y-129855394D01*
X97384515Y-129739050D01*
X97384516Y-129739048D01*
X97427240Y-129705794D01*
X97427241Y-129705793D01*
X96822488Y-129101041D01*
X96882890Y-129076022D01*
X96989351Y-129004888D01*
X97079888Y-128914351D01*
X97151022Y-128807890D01*
X97176041Y-128747489D01*
X97780372Y-129351820D01*
X97876669Y-129204429D01*
X97974861Y-128980573D01*
X98034869Y-128743605D01*
X98055055Y-128500005D01*
X98055055Y-128499994D01*
X98034869Y-128256394D01*
X97974861Y-128019426D01*
X97876671Y-127795575D01*
X97780372Y-127648178D01*
X97176041Y-128252510D01*
X97151022Y-128192110D01*
X97079888Y-128085649D01*
X96989351Y-127995112D01*
X96882890Y-127923978D01*
X96822487Y-127898957D01*
X97427240Y-127294205D01*
X97427240Y-127294204D01*
X97384514Y-127260949D01*
X97384514Y-127260948D01*
X97169531Y-127144605D01*
X97169523Y-127144602D01*
X96942840Y-127066781D01*
X96885825Y-127026395D01*
X96859694Y-126961596D01*
X96872746Y-126892956D01*
X96920834Y-126842268D01*
X96983103Y-126825500D01*
X100191897Y-126825500D01*
X100258936Y-126845185D01*
X100304691Y-126897989D01*
X100314635Y-126967147D01*
X100285610Y-127030703D01*
X100232160Y-127066781D01*
X100005476Y-127144602D01*
X100005468Y-127144605D01*
X99790484Y-127260949D01*
X99790478Y-127260953D01*
X99747758Y-127294203D01*
X99747758Y-127294205D01*
X100352511Y-127898958D01*
X100292110Y-127923978D01*
X100185649Y-127995112D01*
X100095112Y-128085649D01*
X100023978Y-128192110D01*
X99998958Y-128252511D01*
X99394626Y-127648178D01*
X99298329Y-127795572D01*
X99200138Y-128019426D01*
X99140130Y-128256394D01*
X99119945Y-128499994D01*
X99119945Y-128500005D01*
X99140130Y-128743605D01*
X99200138Y-128980573D01*
X99298328Y-129204424D01*
X99394626Y-129351820D01*
X99998958Y-128747488D01*
X100023978Y-128807890D01*
X100095112Y-128914351D01*
X100185649Y-129004888D01*
X100292110Y-129076022D01*
X100352510Y-129101041D01*
X99747757Y-129705793D01*
X99747758Y-129705794D01*
X99790485Y-129739050D01*
X99790485Y-129739051D01*
X100005468Y-129855394D01*
X100005476Y-129855397D01*
X100236664Y-129934765D01*
X100477779Y-129975000D01*
X100722221Y-129975000D01*
X100801706Y-129961736D01*
X100871071Y-129970118D01*
X100924893Y-130014670D01*
X100946084Y-130081249D01*
X100927917Y-130148715D01*
X100909799Y-130171725D01*
X100888401Y-130193123D01*
X100762900Y-130372357D01*
X100762898Y-130372361D01*
X100670426Y-130570668D01*
X100670422Y-130570677D01*
X100613793Y-130782020D01*
X100613793Y-130782023D01*
X100594723Y-131000000D01*
X100610799Y-131183760D01*
X100613793Y-131217975D01*
X100613793Y-131217979D01*
X100670422Y-131429322D01*
X100670424Y-131429326D01*
X100670425Y-131429330D01*
X100687490Y-131465925D01*
X100762897Y-131627638D01*
X100762898Y-131627639D01*
X100888402Y-131806877D01*
X101043123Y-131961598D01*
X101222361Y-132087102D01*
X101420670Y-132179575D01*
X101632023Y-132236207D01*
X101814926Y-132252208D01*
X101849998Y-132255277D01*
X101850000Y-132255277D01*
X101850002Y-132255277D01*
X101878254Y-132252805D01*
X102067977Y-132236207D01*
X102279330Y-132179575D01*
X102477639Y-132087102D01*
X102656877Y-131961598D01*
X102811598Y-131806877D01*
X102937102Y-131627639D01*
X103029575Y-131429330D01*
X103086207Y-131217977D01*
X103105277Y-131000000D01*
X103086207Y-130782023D01*
X103069023Y-130717891D01*
X103070685Y-130648043D01*
X103101114Y-130598119D01*
X106196694Y-127502539D01*
X106258015Y-127469056D01*
X106327707Y-127474040D01*
X106383640Y-127515912D01*
X106408057Y-127581376D01*
X106393205Y-127649649D01*
X106388182Y-127658044D01*
X106298328Y-127795575D01*
X106200138Y-128019426D01*
X106140130Y-128256394D01*
X106119945Y-128499994D01*
X106119945Y-128500005D01*
X106140130Y-128743605D01*
X106200138Y-128980573D01*
X106298328Y-129204424D01*
X106394626Y-129351820D01*
X106998958Y-128747487D01*
X107023978Y-128807890D01*
X107095112Y-128914351D01*
X107185649Y-129004888D01*
X107292110Y-129076022D01*
X107352510Y-129101041D01*
X106729551Y-129723999D01*
X106668228Y-129757484D01*
X106635425Y-129755138D01*
X106600000Y-129769811D01*
X106600000Y-130566988D01*
X106542993Y-130534075D01*
X106415826Y-130500000D01*
X106284174Y-130500000D01*
X106157007Y-130534075D01*
X106100000Y-130566988D01*
X106100000Y-129750000D01*
X105552155Y-129750000D01*
X105492627Y-129756401D01*
X105492620Y-129756403D01*
X105357913Y-129806645D01*
X105357906Y-129806649D01*
X105242812Y-129892809D01*
X105242809Y-129892812D01*
X105156649Y-130007906D01*
X105156645Y-130007913D01*
X105106403Y-130142620D01*
X105106401Y-130142627D01*
X105100000Y-130202155D01*
X105100000Y-130750000D01*
X105916988Y-130750000D01*
X105884075Y-130807007D01*
X105850000Y-130934174D01*
X105850000Y-131065826D01*
X105884075Y-131192993D01*
X105916988Y-131250000D01*
X105100000Y-131250000D01*
X105100000Y-131797844D01*
X105106401Y-131857372D01*
X105106403Y-131857379D01*
X105156645Y-131992086D01*
X105156649Y-131992093D01*
X105242809Y-132107187D01*
X105242812Y-132107190D01*
X105357906Y-132193350D01*
X105357913Y-132193354D01*
X105492620Y-132243596D01*
X105492627Y-132243598D01*
X105552155Y-132249999D01*
X105552172Y-132250000D01*
X106100000Y-132250000D01*
X106100000Y-131433012D01*
X106157007Y-131465925D01*
X106284174Y-131500000D01*
X106415826Y-131500000D01*
X106542993Y-131465925D01*
X106600000Y-131433012D01*
X106600000Y-132250000D01*
X107147828Y-132250000D01*
X107147844Y-132249999D01*
X107207372Y-132243598D01*
X107207379Y-132243596D01*
X107342086Y-132193354D01*
X107342093Y-132193350D01*
X107457187Y-132107190D01*
X107457190Y-132107187D01*
X107543350Y-131992093D01*
X107543354Y-131992086D01*
X107593596Y-131857379D01*
X107593598Y-131857372D01*
X107599999Y-131797844D01*
X107600000Y-131797827D01*
X107600000Y-131250000D01*
X106783012Y-131250000D01*
X106815925Y-131192993D01*
X106850000Y-131065826D01*
X106850000Y-130934174D01*
X106815925Y-130807007D01*
X106783012Y-130750000D01*
X107600000Y-130750000D01*
X107600000Y-130202172D01*
X107599999Y-130202155D01*
X107593598Y-130142627D01*
X107593597Y-130142621D01*
X107593488Y-130142329D01*
X107593470Y-130142086D01*
X107591813Y-130135070D01*
X107592949Y-130134801D01*
X107588507Y-130072637D01*
X107621994Y-130011315D01*
X107683319Y-129977833D01*
X107709672Y-129975000D01*
X107722221Y-129975000D01*
X107963335Y-129934765D01*
X108194523Y-129855397D01*
X108194531Y-129855394D01*
X108409515Y-129739050D01*
X108409516Y-129739048D01*
X108452240Y-129705794D01*
X108452241Y-129705793D01*
X107847488Y-129101041D01*
X107907890Y-129076022D01*
X108014351Y-129004888D01*
X108104888Y-128914351D01*
X108176022Y-128807890D01*
X108201041Y-128747489D01*
X108805372Y-129351820D01*
X108901669Y-129204429D01*
X108999861Y-128980573D01*
X109059869Y-128743605D01*
X109080055Y-128500005D01*
X109080055Y-128499994D01*
X109059869Y-128256394D01*
X108999861Y-128019426D01*
X108901671Y-127795575D01*
X108805372Y-127648178D01*
X108201041Y-128252510D01*
X108176022Y-128192110D01*
X108104888Y-128085649D01*
X108014351Y-127995112D01*
X107907890Y-127923978D01*
X107847487Y-127898958D01*
X108452240Y-127294205D01*
X108452240Y-127294204D01*
X108409514Y-127260949D01*
X108409514Y-127260948D01*
X108194531Y-127144605D01*
X108194523Y-127144602D01*
X107963335Y-127065234D01*
X107722221Y-127025000D01*
X107477779Y-127025000D01*
X107236664Y-127065234D01*
X107005476Y-127144602D01*
X107005468Y-127144605D01*
X106790484Y-127260949D01*
X106790481Y-127260951D01*
X106777749Y-127270861D01*
X106712754Y-127296501D01*
X106644214Y-127282932D01*
X106593891Y-127234462D01*
X106577762Y-127166480D01*
X106600947Y-127100569D01*
X106613903Y-127085330D01*
X107208506Y-126490728D01*
X107208511Y-126490724D01*
X107218714Y-126480520D01*
X107218716Y-126480520D01*
X107330520Y-126368716D01*
X107381440Y-126280520D01*
X107409577Y-126231785D01*
X107450501Y-126079057D01*
X107450501Y-125920943D01*
X107450501Y-125913348D01*
X107450500Y-125913330D01*
X107450500Y-93350096D01*
X107470185Y-93283057D01*
X107486814Y-93262420D01*
X112568535Y-88180698D01*
X112629856Y-88147215D01*
X112642311Y-88145163D01*
X112729255Y-88135368D01*
X112899522Y-88075789D01*
X113052262Y-87979816D01*
X113179816Y-87852262D01*
X113275789Y-87699522D01*
X113335368Y-87529255D01*
X113345161Y-87442329D01*
X113372226Y-87377918D01*
X113380690Y-87368543D01*
X113393535Y-87355698D01*
X113454856Y-87322215D01*
X113467311Y-87320163D01*
X113554255Y-87310368D01*
X113724522Y-87250789D01*
X113877262Y-87154816D01*
X114004816Y-87027262D01*
X114100789Y-86874522D01*
X114160368Y-86704255D01*
X114160369Y-86704249D01*
X114180565Y-86525003D01*
X114180565Y-86524996D01*
X114160369Y-86345750D01*
X114160368Y-86345745D01*
X114121700Y-86235238D01*
X114100789Y-86175478D01*
X114004816Y-86022738D01*
X113877262Y-85895184D01*
X113872174Y-85891987D01*
X113724521Y-85799210D01*
X113626233Y-85764818D01*
X113554255Y-85739632D01*
X113554252Y-85739631D01*
X113549621Y-85738011D01*
X113492845Y-85697289D01*
X113473533Y-85661923D01*
X113425789Y-85525478D01*
X113403169Y-85489478D01*
X113329816Y-85372738D01*
X113202262Y-85245184D01*
X113049523Y-85149211D01*
X112879254Y-85089631D01*
X112879249Y-85089630D01*
X112700004Y-85069435D01*
X112699996Y-85069435D01*
X112520750Y-85089630D01*
X112520745Y-85089631D01*
X112350476Y-85149211D01*
X112197737Y-85245184D01*
X112070184Y-85372737D01*
X111974210Y-85525478D01*
X111914630Y-85695750D01*
X111904837Y-85782668D01*
X111877770Y-85847082D01*
X111869298Y-85856465D01*
X111818965Y-85906798D01*
X111757642Y-85940283D01*
X111745168Y-85942337D01*
X111658250Y-85952130D01*
X111487978Y-86011710D01*
X111335237Y-86107684D01*
X111207684Y-86235237D01*
X111111710Y-86387978D01*
X111052130Y-86558250D01*
X111042337Y-86645168D01*
X111015270Y-86709582D01*
X111006798Y-86718965D01*
X105831286Y-91894478D01*
X105719481Y-92006282D01*
X105719479Y-92006285D01*
X105669361Y-92093094D01*
X105669359Y-92093096D01*
X105640425Y-92143209D01*
X105640424Y-92143210D01*
X105640423Y-92143215D01*
X105599499Y-92295943D01*
X105599499Y-92295945D01*
X105599499Y-92464046D01*
X105599500Y-92464059D01*
X105599500Y-125499901D01*
X105579815Y-125566940D01*
X105563254Y-125587509D01*
X105562656Y-125588108D01*
X105501361Y-125621644D01*
X105474902Y-125624500D01*
X92899500Y-125624500D01*
X92832461Y-125604815D01*
X92786706Y-125552011D01*
X92775500Y-125500500D01*
X92775500Y-125220908D01*
X92795185Y-125153869D01*
X92839271Y-125115363D01*
X92838187Y-125113605D01*
X92844332Y-125109814D01*
X92844334Y-125109814D01*
X92993656Y-125017712D01*
X93117712Y-124893656D01*
X93209814Y-124744334D01*
X93237595Y-124660495D01*
X93277368Y-124603051D01*
X93341884Y-124576228D01*
X93355301Y-124575500D01*
X93523915Y-124575500D01*
X93590954Y-124595185D01*
X93636709Y-124647989D01*
X93641618Y-124660489D01*
X93677686Y-124769334D01*
X93769788Y-124918656D01*
X93893844Y-125042712D01*
X94043166Y-125134814D01*
X94209703Y-125189999D01*
X94312491Y-125200500D01*
X95087508Y-125200499D01*
X95087516Y-125200498D01*
X95087519Y-125200498D01*
X95143802Y-125194748D01*
X95190297Y-125189999D01*
X95356834Y-125134814D01*
X95506156Y-125042712D01*
X95630212Y-124918656D01*
X95632252Y-124915347D01*
X95634245Y-124913555D01*
X95634693Y-124912989D01*
X95634789Y-124913065D01*
X95684194Y-124868623D01*
X95753156Y-124857395D01*
X95817240Y-124885234D01*
X95843329Y-124915339D01*
X95845181Y-124918341D01*
X95845183Y-124918344D01*
X95969154Y-125042315D01*
X96118375Y-125134356D01*
X96118380Y-125134358D01*
X96284802Y-125189505D01*
X96284809Y-125189506D01*
X96387519Y-125199999D01*
X96524999Y-125199999D01*
X97025000Y-125199999D01*
X97162472Y-125199999D01*
X97162486Y-125199998D01*
X97265197Y-125189505D01*
X97431619Y-125134358D01*
X97431624Y-125134356D01*
X97580845Y-125042315D01*
X97704815Y-124918345D01*
X97796856Y-124769124D01*
X97796858Y-124769119D01*
X97852005Y-124602697D01*
X97852006Y-124602690D01*
X97862499Y-124499986D01*
X97862500Y-124499973D01*
X97862500Y-124225000D01*
X97025000Y-124225000D01*
X97025000Y-125199999D01*
X96524999Y-125199999D01*
X96525000Y-125199998D01*
X96525000Y-123725000D01*
X97025000Y-123725000D01*
X97862499Y-123725000D01*
X97862499Y-123450028D01*
X97862498Y-123450013D01*
X97852005Y-123347302D01*
X97796858Y-123180880D01*
X97796856Y-123180875D01*
X97704815Y-123031654D01*
X97580845Y-122907684D01*
X97431624Y-122815643D01*
X97431619Y-122815641D01*
X97265197Y-122760494D01*
X97265190Y-122760493D01*
X97162486Y-122750000D01*
X97025000Y-122750000D01*
X97025000Y-123725000D01*
X96525000Y-123725000D01*
X96525000Y-122750000D01*
X96387527Y-122750000D01*
X96387512Y-122750001D01*
X96284802Y-122760494D01*
X96118380Y-122815641D01*
X96118375Y-122815643D01*
X95969154Y-122907684D01*
X95845183Y-123031655D01*
X95845179Y-123031660D01*
X95843326Y-123034665D01*
X95841518Y-123036290D01*
X95840702Y-123037323D01*
X95840525Y-123037183D01*
X95791374Y-123081385D01*
X95722411Y-123092601D01*
X95658331Y-123064752D01*
X95632253Y-123034653D01*
X95632237Y-123034628D01*
X95630212Y-123031344D01*
X95506156Y-122907288D01*
X95397364Y-122840185D01*
X95356836Y-122815187D01*
X95356831Y-122815185D01*
X95355362Y-122814698D01*
X95190297Y-122760001D01*
X95190295Y-122760000D01*
X95087510Y-122749500D01*
X94312498Y-122749500D01*
X94312480Y-122749501D01*
X94209703Y-122760000D01*
X94209700Y-122760001D01*
X94043168Y-122815185D01*
X94043163Y-122815187D01*
X93893842Y-122907289D01*
X93769789Y-123031342D01*
X93677687Y-123180663D01*
X93677685Y-123180668D01*
X93641621Y-123289504D01*
X93601848Y-123346949D01*
X93537333Y-123373772D01*
X93523915Y-123374500D01*
X93355301Y-123374500D01*
X93288262Y-123354815D01*
X93242507Y-123302011D01*
X93237595Y-123289504D01*
X93209814Y-123205666D01*
X93117712Y-123056344D01*
X92993656Y-122932288D01*
X92844334Y-122840186D01*
X92677797Y-122785001D01*
X92677795Y-122785000D01*
X92575010Y-122774500D01*
X91774998Y-122774500D01*
X91774980Y-122774501D01*
X91672203Y-122785000D01*
X91672200Y-122785001D01*
X91505668Y-122840185D01*
X91505663Y-122840187D01*
X91356342Y-122932289D01*
X91262681Y-123025951D01*
X91201358Y-123059436D01*
X91131666Y-123054452D01*
X91087319Y-123025951D01*
X90993657Y-122932289D01*
X90993656Y-122932288D01*
X90844334Y-122840186D01*
X90844332Y-122840185D01*
X90838187Y-122836395D01*
X90839290Y-122834605D01*
X90794649Y-122795290D01*
X90775500Y-122729091D01*
X90775500Y-122370096D01*
X90795185Y-122303057D01*
X90811815Y-122282419D01*
X91632416Y-121461817D01*
X91693739Y-121428333D01*
X91720097Y-121425499D01*
X93067871Y-121425499D01*
X93067872Y-121425499D01*
X93127483Y-121419091D01*
X93262331Y-121368796D01*
X93377546Y-121282546D01*
X93463796Y-121167331D01*
X93513002Y-121035401D01*
X93554872Y-120979468D01*
X93620337Y-120955050D01*
X93688610Y-120969901D01*
X93716865Y-120991053D01*
X93838917Y-121113105D01*
X94032421Y-121248600D01*
X94246507Y-121348429D01*
X94246516Y-121348433D01*
X94460000Y-121405634D01*
X94460000Y-120508012D01*
X94517007Y-120540925D01*
X94644174Y-120575000D01*
X94775826Y-120575000D01*
X94902993Y-120540925D01*
X94960000Y-120508012D01*
X94960000Y-121405633D01*
X95173483Y-121348433D01*
X95173492Y-121348429D01*
X95387578Y-121248600D01*
X95581082Y-121113105D01*
X95748105Y-120946082D01*
X95878119Y-120760405D01*
X95932696Y-120716781D01*
X96002195Y-120709588D01*
X96064549Y-120741110D01*
X96081269Y-120760405D01*
X96211505Y-120946401D01*
X96378599Y-121113495D01*
X96475384Y-121181265D01*
X96572165Y-121249032D01*
X96572167Y-121249033D01*
X96572170Y-121249035D01*
X96786337Y-121348903D01*
X97014592Y-121410063D01*
X97202918Y-121426539D01*
X97249999Y-121430659D01*
X97250000Y-121430659D01*
X97250001Y-121430659D01*
X97289234Y-121427226D01*
X97485408Y-121410063D01*
X97713663Y-121348903D01*
X97927830Y-121249035D01*
X98121401Y-121113495D01*
X98288495Y-120946401D01*
X98418425Y-120760842D01*
X98473002Y-120717217D01*
X98542500Y-120710023D01*
X98604855Y-120741546D01*
X98621575Y-120760842D01*
X98751500Y-120946395D01*
X98751505Y-120946401D01*
X98918599Y-121113495D01*
X99015384Y-121181265D01*
X99112165Y-121249032D01*
X99112167Y-121249033D01*
X99112170Y-121249035D01*
X99326337Y-121348903D01*
X99554592Y-121410063D01*
X99742918Y-121426539D01*
X99789999Y-121430659D01*
X99790000Y-121430659D01*
X99790001Y-121430659D01*
X99829234Y-121427226D01*
X100025408Y-121410063D01*
X100253663Y-121348903D01*
X100467830Y-121249035D01*
X100661401Y-121113495D01*
X100828495Y-120946401D01*
X100964035Y-120752830D01*
X101063903Y-120538663D01*
X101125063Y-120310408D01*
X101145659Y-120075000D01*
X101125063Y-119839592D01*
X101063903Y-119611337D01*
X100964035Y-119397171D01*
X100959604Y-119390842D01*
X100828494Y-119203597D01*
X100661402Y-119036506D01*
X100661395Y-119036501D01*
X100467832Y-118900966D01*
X100417094Y-118877306D01*
X100364655Y-118831133D01*
X100345500Y-118764924D01*
X100345500Y-110390074D01*
X100365185Y-110323035D01*
X100417094Y-110277693D01*
X100467830Y-110254035D01*
X100661401Y-110118495D01*
X100828495Y-109951401D01*
X100964035Y-109757830D01*
X101063903Y-109543663D01*
X101125063Y-109315408D01*
X101145659Y-109080000D01*
X101125063Y-108844592D01*
X101063903Y-108616337D01*
X100964035Y-108402171D01*
X100958731Y-108394595D01*
X100828494Y-108208597D01*
X100661402Y-108041506D01*
X100661395Y-108041501D01*
X100467831Y-107905965D01*
X100467824Y-107905961D01*
X100467094Y-107905621D01*
X100466826Y-107905385D01*
X100463140Y-107903257D01*
X100463567Y-107902516D01*
X100414655Y-107859448D01*
X100395500Y-107793240D01*
X100395500Y-99339090D01*
X100415185Y-99272051D01*
X100467101Y-99226706D01*
X100472830Y-99224035D01*
X100666401Y-99088495D01*
X100833495Y-98921401D01*
X100969035Y-98727830D01*
X101068903Y-98513663D01*
X101130063Y-98285408D01*
X101150659Y-98050000D01*
X101130063Y-97814592D01*
X101068903Y-97586337D01*
X100969035Y-97372171D01*
X100963731Y-97364595D01*
X100833494Y-97178597D01*
X100666402Y-97011506D01*
X100666395Y-97011501D01*
X100660922Y-97007669D01*
X100589518Y-96957671D01*
X100472831Y-96875965D01*
X100472826Y-96875962D01*
X100467091Y-96873288D01*
X100414653Y-96827113D01*
X100395500Y-96760908D01*
X100395500Y-88339090D01*
X100415185Y-88272051D01*
X100467101Y-88226706D01*
X100472830Y-88224035D01*
X100666401Y-88088495D01*
X100833495Y-87921401D01*
X100969035Y-87727830D01*
X101068903Y-87513663D01*
X101130063Y-87285408D01*
X101150659Y-87050000D01*
X101130063Y-86814592D01*
X101095671Y-86686239D01*
X101097334Y-86616393D01*
X101127763Y-86566470D01*
X109602544Y-78091691D01*
X109663867Y-78058206D01*
X109690225Y-78055372D01*
X110504775Y-78055372D01*
X110571814Y-78075057D01*
X110592456Y-78091691D01*
X110844837Y-78344072D01*
X110878322Y-78405395D01*
X110873338Y-78475087D01*
X110831466Y-78531020D01*
X110798111Y-78548794D01*
X110725480Y-78574208D01*
X110572737Y-78670184D01*
X110445184Y-78797737D01*
X110349211Y-78950476D01*
X110289631Y-79120745D01*
X110289630Y-79120750D01*
X110269435Y-79299996D01*
X110269435Y-79300003D01*
X110289630Y-79479249D01*
X110289631Y-79479254D01*
X110349211Y-79649523D01*
X110433727Y-79784028D01*
X110452727Y-79851264D01*
X110433727Y-79915972D01*
X110349211Y-80050476D01*
X110289631Y-80220745D01*
X110289630Y-80220750D01*
X110269435Y-80399996D01*
X110269435Y-80400003D01*
X110289630Y-80579249D01*
X110289631Y-80579254D01*
X110349211Y-80749523D01*
X110445182Y-80902259D01*
X110447441Y-80905091D01*
X110448330Y-80907268D01*
X110448889Y-80908158D01*
X110448733Y-80908255D01*
X110473854Y-80969776D01*
X110474499Y-80982410D01*
X110474499Y-81074054D01*
X110474498Y-81074054D01*
X110515423Y-81226785D01*
X110531279Y-81254249D01*
X110540586Y-81270368D01*
X110569671Y-81320745D01*
X110594479Y-81363714D01*
X110594481Y-81363717D01*
X110713349Y-81482585D01*
X110713355Y-81482590D01*
X115822233Y-86591468D01*
X115855718Y-86652791D01*
X115854327Y-86711241D01*
X115819939Y-86839583D01*
X115819936Y-86839596D01*
X115799341Y-87074999D01*
X115799341Y-87075000D01*
X115819936Y-87310403D01*
X115819938Y-87310413D01*
X115881094Y-87538655D01*
X115881096Y-87538659D01*
X115881097Y-87538663D01*
X115964155Y-87716781D01*
X115980965Y-87752830D01*
X115980967Y-87752834D01*
X116050588Y-87852262D01*
X116116505Y-87946401D01*
X116283599Y-88113495D01*
X116379578Y-88180700D01*
X116477165Y-88249032D01*
X116477167Y-88249033D01*
X116477170Y-88249035D01*
X116482898Y-88251706D01*
X116535339Y-88297872D01*
X116554500Y-88364090D01*
X116554500Y-96810908D01*
X116534815Y-96877947D01*
X116482914Y-96923286D01*
X116477173Y-96925963D01*
X116477169Y-96925965D01*
X116283597Y-97061505D01*
X116116505Y-97228597D01*
X115980965Y-97422169D01*
X115980964Y-97422171D01*
X115881098Y-97636335D01*
X115881094Y-97636344D01*
X115819938Y-97864586D01*
X115819936Y-97864596D01*
X115799341Y-98099999D01*
X115799341Y-98100000D01*
X115819936Y-98335403D01*
X115819938Y-98335413D01*
X115881094Y-98563655D01*
X115881096Y-98563659D01*
X115881097Y-98563663D01*
X115961004Y-98735023D01*
X115980965Y-98777830D01*
X115980967Y-98777834D01*
X116081271Y-98921082D01*
X116116505Y-98971401D01*
X116283599Y-99138495D01*
X116380216Y-99206147D01*
X116477165Y-99274032D01*
X116477167Y-99274033D01*
X116477170Y-99274035D01*
X116691337Y-99373903D01*
X116691343Y-99373904D01*
X116691344Y-99373905D01*
X116746285Y-99388626D01*
X116919592Y-99435063D01*
X117096034Y-99450500D01*
X117154999Y-99455659D01*
X117155000Y-99455659D01*
X117155001Y-99455659D01*
X117213966Y-99450500D01*
X117390408Y-99435063D01*
X117618663Y-99373903D01*
X117832830Y-99274035D01*
X118026401Y-99138495D01*
X118193495Y-98971401D01*
X118323425Y-98785842D01*
X118378002Y-98742217D01*
X118447500Y-98735023D01*
X118509855Y-98766546D01*
X118526575Y-98785842D01*
X118656500Y-98971395D01*
X118656505Y-98971401D01*
X118823599Y-99138495D01*
X118920216Y-99206147D01*
X119017165Y-99274032D01*
X119017167Y-99274033D01*
X119017170Y-99274035D01*
X119231337Y-99373903D01*
X119231343Y-99373904D01*
X119231344Y-99373905D01*
X119286285Y-99388626D01*
X119459592Y-99435063D01*
X119636034Y-99450500D01*
X119694999Y-99455659D01*
X119695000Y-99455659D01*
X119695001Y-99455659D01*
X119753966Y-99450500D01*
X119930408Y-99435063D01*
X120158663Y-99373903D01*
X120372830Y-99274035D01*
X120566401Y-99138495D01*
X120733495Y-98971401D01*
X120863730Y-98785405D01*
X120918307Y-98741781D01*
X120987805Y-98734587D01*
X121050160Y-98766110D01*
X121066879Y-98785405D01*
X121196890Y-98971078D01*
X121363917Y-99138105D01*
X121557421Y-99273600D01*
X121771507Y-99373429D01*
X121771516Y-99373433D01*
X121985000Y-99430634D01*
X121985000Y-98533012D01*
X122042007Y-98565925D01*
X122169174Y-98600000D01*
X122300826Y-98600000D01*
X122427993Y-98565925D01*
X122485000Y-98533012D01*
X122485000Y-99430633D01*
X122698483Y-99373433D01*
X122698492Y-99373429D01*
X122912578Y-99273600D01*
X123106078Y-99138108D01*
X123228133Y-99016053D01*
X123289456Y-98982568D01*
X123359148Y-98987552D01*
X123415082Y-99029423D01*
X123431997Y-99060401D01*
X123481202Y-99192328D01*
X123481206Y-99192335D01*
X123567452Y-99307544D01*
X123567455Y-99307547D01*
X123682664Y-99393793D01*
X123682671Y-99393797D01*
X123817517Y-99444091D01*
X123817516Y-99444091D01*
X123824444Y-99444835D01*
X123877127Y-99450500D01*
X125672872Y-99450499D01*
X125732483Y-99444091D01*
X125867331Y-99393796D01*
X125982546Y-99307546D01*
X126068796Y-99192331D01*
X126119091Y-99057483D01*
X126125500Y-98997873D01*
X126125499Y-97202128D01*
X126119091Y-97142517D01*
X126118002Y-97139598D01*
X126068797Y-97007671D01*
X126068793Y-97007664D01*
X125982547Y-96892455D01*
X125982544Y-96892452D01*
X125867335Y-96806206D01*
X125867328Y-96806202D01*
X125732482Y-96755908D01*
X125732483Y-96755908D01*
X125672883Y-96749501D01*
X125672881Y-96749500D01*
X125672873Y-96749500D01*
X125672865Y-96749500D01*
X125499500Y-96749500D01*
X125432461Y-96729815D01*
X125386706Y-96677011D01*
X125375500Y-96625500D01*
X125375500Y-88549499D01*
X125395185Y-88482460D01*
X125447989Y-88436705D01*
X125499500Y-88425499D01*
X125672871Y-88425499D01*
X125672872Y-88425499D01*
X125732483Y-88419091D01*
X125867331Y-88368796D01*
X125982546Y-88282546D01*
X126068796Y-88167331D01*
X126119091Y-88032483D01*
X126125500Y-87972873D01*
X126125499Y-86177128D01*
X126119091Y-86117517D01*
X126100380Y-86067351D01*
X126068797Y-85982671D01*
X126068793Y-85982664D01*
X125982547Y-85867455D01*
X125982544Y-85867452D01*
X125867335Y-85781206D01*
X125867328Y-85781202D01*
X125732482Y-85730908D01*
X125732483Y-85730908D01*
X125672883Y-85724501D01*
X125672881Y-85724500D01*
X125672873Y-85724500D01*
X125672865Y-85724500D01*
X124325097Y-85724500D01*
X124258058Y-85704815D01*
X124237416Y-85688181D01*
X122686819Y-84137584D01*
X122653334Y-84076261D01*
X122650500Y-84049903D01*
X122650500Y-82082412D01*
X122670185Y-82015373D01*
X122677555Y-82005097D01*
X122679810Y-82002267D01*
X122679816Y-82002262D01*
X122775789Y-81849522D01*
X122835368Y-81679255D01*
X122853517Y-81518178D01*
X122880583Y-81453764D01*
X122938178Y-81414209D01*
X123008015Y-81412071D01*
X123067921Y-81448029D01*
X123093779Y-81491106D01*
X123149211Y-81649523D01*
X123245184Y-81802262D01*
X123372738Y-81929816D01*
X123386223Y-81938289D01*
X123517450Y-82020745D01*
X123525478Y-82025789D01*
X123592426Y-82049215D01*
X123695745Y-82085368D01*
X123695750Y-82085369D01*
X123838015Y-82101398D01*
X123902429Y-82128464D01*
X123941173Y-82183663D01*
X123999209Y-82349519D01*
X124035200Y-82406798D01*
X124095184Y-82502262D01*
X124222738Y-82629816D01*
X124313080Y-82686582D01*
X124338036Y-82702263D01*
X124375478Y-82725789D01*
X124402482Y-82735238D01*
X124545745Y-82785368D01*
X124545750Y-82785369D01*
X124724996Y-82805565D01*
X124725000Y-82805565D01*
X124725004Y-82805565D01*
X124904249Y-82785369D01*
X124904252Y-82785368D01*
X124904255Y-82785368D01*
X125074522Y-82725789D01*
X125227262Y-82629816D01*
X125354816Y-82502262D01*
X125450789Y-82349522D01*
X125510368Y-82179255D01*
X125517663Y-82114498D01*
X125544728Y-82050088D01*
X125602321Y-82010531D01*
X125626990Y-82005164D01*
X125691755Y-81997868D01*
X125862022Y-81938289D01*
X126014762Y-81842316D01*
X126142316Y-81714762D01*
X126238289Y-81562022D01*
X126297868Y-81391755D01*
X126307661Y-81304829D01*
X126334726Y-81240418D01*
X126343190Y-81231043D01*
X126749490Y-80824743D01*
X126810810Y-80791261D01*
X126880502Y-80796245D01*
X126924849Y-80824745D01*
X127078599Y-80978495D01*
X127078602Y-80978497D01*
X127078603Y-80978498D01*
X127272165Y-81114032D01*
X127272167Y-81114033D01*
X127272170Y-81114035D01*
X127486337Y-81213903D01*
X127714592Y-81275063D01*
X127902918Y-81291539D01*
X127949999Y-81295659D01*
X127950000Y-81295659D01*
X127950001Y-81295659D01*
X127989234Y-81292226D01*
X128185408Y-81275063D01*
X128413663Y-81213903D01*
X128627830Y-81114035D01*
X128821401Y-80978495D01*
X128988495Y-80811401D01*
X129118425Y-80625842D01*
X129173002Y-80582217D01*
X129242500Y-80575023D01*
X129304855Y-80606546D01*
X129321575Y-80625842D01*
X129451500Y-80811395D01*
X129451505Y-80811401D01*
X129618599Y-80978495D01*
X129646081Y-80997738D01*
X129812165Y-81114032D01*
X129812167Y-81114033D01*
X129812170Y-81114035D01*
X130026337Y-81213903D01*
X130254592Y-81275063D01*
X130442918Y-81291539D01*
X130489999Y-81295659D01*
X130490000Y-81295659D01*
X130490001Y-81295659D01*
X130529234Y-81292226D01*
X130725408Y-81275063D01*
X130953663Y-81213903D01*
X131167830Y-81114035D01*
X131361401Y-80978495D01*
X131528495Y-80811401D01*
X131664035Y-80617830D01*
X131763903Y-80403663D01*
X131825063Y-80175408D01*
X131845659Y-79940000D01*
X131825063Y-79704592D01*
X131763903Y-79476337D01*
X131664035Y-79262171D01*
X131619890Y-79199124D01*
X131528494Y-79068597D01*
X131361402Y-78901506D01*
X131361396Y-78901501D01*
X131175842Y-78771575D01*
X131132217Y-78716998D01*
X131125023Y-78647500D01*
X131156546Y-78585145D01*
X131175842Y-78568425D01*
X131309142Y-78475087D01*
X131361401Y-78438495D01*
X131528495Y-78271401D01*
X131664035Y-78077830D01*
X131763903Y-77863663D01*
X131825063Y-77635408D01*
X131845659Y-77400000D01*
X131825063Y-77164592D01*
X131763903Y-76936337D01*
X131664035Y-76722171D01*
X131630937Y-76674901D01*
X131528494Y-76528597D01*
X131361402Y-76361506D01*
X131361396Y-76361501D01*
X131175842Y-76231575D01*
X131132217Y-76176998D01*
X131125023Y-76107500D01*
X131156546Y-76045145D01*
X131175842Y-76028425D01*
X131315150Y-75930880D01*
X131361401Y-75898495D01*
X131528495Y-75731401D01*
X131664035Y-75537830D01*
X131763903Y-75323663D01*
X131825063Y-75095408D01*
X131845659Y-74860000D01*
X131825063Y-74624592D01*
X131763903Y-74396337D01*
X131664035Y-74182171D01*
X131632757Y-74137500D01*
X131528494Y-73988597D01*
X131361402Y-73821506D01*
X131361396Y-73821501D01*
X131175842Y-73691575D01*
X131132217Y-73636998D01*
X131125023Y-73567500D01*
X131156546Y-73505145D01*
X131175842Y-73488425D01*
X131234886Y-73447082D01*
X131361401Y-73358495D01*
X131528495Y-73191401D01*
X131664035Y-72997830D01*
X131763903Y-72783663D01*
X131825063Y-72555408D01*
X131845659Y-72320000D01*
X131825063Y-72084592D01*
X131767386Y-71869336D01*
X131763905Y-71856344D01*
X131763904Y-71856343D01*
X131763903Y-71856337D01*
X131664035Y-71642171D01*
X131634513Y-71600008D01*
X131528494Y-71448597D01*
X131361402Y-71281506D01*
X131361396Y-71281501D01*
X131175842Y-71151575D01*
X131132217Y-71096998D01*
X131125023Y-71027500D01*
X131156546Y-70965145D01*
X131175842Y-70948425D01*
X131212882Y-70922489D01*
X131361401Y-70818495D01*
X131528495Y-70651401D01*
X131664035Y-70457830D01*
X131763903Y-70243663D01*
X131825063Y-70015408D01*
X131845659Y-69780000D01*
X131825063Y-69544592D01*
X131763903Y-69316337D01*
X131664035Y-69102171D01*
X131661963Y-69099211D01*
X131528494Y-68908597D01*
X131361402Y-68741506D01*
X131361401Y-68741505D01*
X131175405Y-68611269D01*
X131131781Y-68556692D01*
X131124588Y-68487193D01*
X131156110Y-68424839D01*
X131175405Y-68408119D01*
X131361082Y-68278105D01*
X131528105Y-68111082D01*
X131663600Y-67917578D01*
X131763429Y-67703492D01*
X131763432Y-67703486D01*
X131820636Y-67490000D01*
X130923012Y-67490000D01*
X130955925Y-67432993D01*
X130990000Y-67305826D01*
X130990000Y-67174174D01*
X130955925Y-67047007D01*
X130923012Y-66990000D01*
X131820636Y-66990000D01*
X131820635Y-66989999D01*
X131763432Y-66776513D01*
X131763429Y-66776507D01*
X131663600Y-66562422D01*
X131663599Y-66562420D01*
X131528113Y-66368926D01*
X131528108Y-66368920D01*
X131406053Y-66246865D01*
X131372568Y-66185542D01*
X131377552Y-66115850D01*
X131419424Y-66059917D01*
X131450400Y-66043002D01*
X131582331Y-65993796D01*
X131697546Y-65907546D01*
X131783796Y-65792331D01*
X131834091Y-65657483D01*
X131840500Y-65597873D01*
X131840499Y-63802128D01*
X131835299Y-63753757D01*
X131834091Y-63742516D01*
X131783797Y-63607671D01*
X131783793Y-63607664D01*
X131697547Y-63492455D01*
X131697544Y-63492452D01*
X131582335Y-63406206D01*
X131582328Y-63406202D01*
X131447482Y-63355908D01*
X131447483Y-63355908D01*
X131387883Y-63349501D01*
X131387881Y-63349500D01*
X131387873Y-63349500D01*
X131387864Y-63349500D01*
X129592129Y-63349500D01*
X129592123Y-63349501D01*
X129532516Y-63355908D01*
X129397671Y-63406202D01*
X129397664Y-63406206D01*
X129282455Y-63492452D01*
X129282452Y-63492455D01*
X129196206Y-63607664D01*
X129196203Y-63607669D01*
X129147189Y-63739083D01*
X129105317Y-63795016D01*
X129039853Y-63819433D01*
X128971580Y-63804581D01*
X128943326Y-63783430D01*
X128821402Y-63661506D01*
X128821395Y-63661501D01*
X128627834Y-63525967D01*
X128627830Y-63525965D01*
X128566143Y-63497200D01*
X128413663Y-63426097D01*
X128413659Y-63426096D01*
X128413655Y-63426094D01*
X128185413Y-63364938D01*
X128185403Y-63364936D01*
X127950001Y-63344341D01*
X127949998Y-63344341D01*
X127725829Y-63363953D01*
X127657329Y-63350186D01*
X127627341Y-63328106D01*
X126250090Y-61950855D01*
X126250088Y-61950852D01*
X126131217Y-61831981D01*
X126131209Y-61831975D01*
X126007785Y-61760717D01*
X126007782Y-61760716D01*
X125994285Y-61752923D01*
X125992221Y-61752370D01*
X125841557Y-61711999D01*
X125683443Y-61711999D01*
X125675847Y-61711999D01*
X125675831Y-61712000D01*
X122856268Y-61712000D01*
X122789229Y-61692315D01*
X122750729Y-61653097D01*
X122660212Y-61506344D01*
X122536156Y-61382288D01*
X122398212Y-61297204D01*
X122386836Y-61290187D01*
X122386831Y-61290185D01*
X122385362Y-61289698D01*
X122220297Y-61235001D01*
X122220295Y-61235000D01*
X122117510Y-61224500D01*
X121067498Y-61224500D01*
X121067480Y-61224501D01*
X120964703Y-61235000D01*
X120964700Y-61235001D01*
X120798168Y-61290185D01*
X120798163Y-61290187D01*
X120648842Y-61382289D01*
X120524789Y-61506342D01*
X120495365Y-61554047D01*
X120437209Y-61648334D01*
X120434271Y-61653097D01*
X120382323Y-61699821D01*
X120328732Y-61712000D01*
X120306268Y-61712000D01*
X120239229Y-61692315D01*
X120200729Y-61653097D01*
X120110212Y-61506344D01*
X119986156Y-61382288D01*
X119848212Y-61297204D01*
X119836836Y-61290187D01*
X119836831Y-61290185D01*
X119835362Y-61289698D01*
X119670297Y-61235001D01*
X119670295Y-61235000D01*
X119567510Y-61224500D01*
X118517498Y-61224500D01*
X118517480Y-61224501D01*
X118414703Y-61235000D01*
X118414700Y-61235001D01*
X118248168Y-61290185D01*
X118248163Y-61290187D01*
X118098842Y-61382289D01*
X117974789Y-61506342D01*
X117945365Y-61554047D01*
X117887209Y-61648334D01*
X117884271Y-61653097D01*
X117832323Y-61699821D01*
X117778732Y-61712000D01*
X117474499Y-61712000D01*
X117407460Y-61692315D01*
X117361705Y-61639511D01*
X117350499Y-61588000D01*
X117350499Y-61399998D01*
X117350498Y-61399981D01*
X117339999Y-61297203D01*
X117339998Y-61297200D01*
X117315908Y-61224501D01*
X117284814Y-61130666D01*
X117192712Y-60981344D01*
X117068656Y-60857288D01*
X116965584Y-60793713D01*
X129949500Y-60793713D01*
X129949500Y-61006286D01*
X129979785Y-61197501D01*
X129982754Y-61216243D01*
X130042454Y-61399981D01*
X130048444Y-61418414D01*
X130144951Y-61607820D01*
X130269890Y-61779786D01*
X130420213Y-61930109D01*
X130592179Y-62055048D01*
X130592181Y-62055049D01*
X130592184Y-62055051D01*
X130781588Y-62151557D01*
X130983757Y-62217246D01*
X131193713Y-62250500D01*
X131193714Y-62250500D01*
X131406286Y-62250500D01*
X131406287Y-62250500D01*
X131616243Y-62217246D01*
X131818412Y-62151557D01*
X132007816Y-62055051D01*
X132029789Y-62039086D01*
X132179786Y-61930109D01*
X132179788Y-61930106D01*
X132179792Y-61930104D01*
X132330104Y-61779792D01*
X132330106Y-61779788D01*
X132330109Y-61779786D01*
X132455048Y-61607820D01*
X132455047Y-61607820D01*
X132455051Y-61607816D01*
X132551557Y-61418412D01*
X132617246Y-61216243D01*
X132650500Y-61006287D01*
X132650500Y-60793713D01*
X132617246Y-60583757D01*
X132551557Y-60381588D01*
X132455051Y-60192184D01*
X132455049Y-60192181D01*
X132455048Y-60192179D01*
X132330109Y-60020213D01*
X132179786Y-59869890D01*
X132007820Y-59744951D01*
X131818414Y-59648444D01*
X131818413Y-59648443D01*
X131818412Y-59648443D01*
X131616243Y-59582754D01*
X131616241Y-59582753D01*
X131616240Y-59582753D01*
X131454957Y-59557208D01*
X131406287Y-59549500D01*
X131193713Y-59549500D01*
X131145042Y-59557208D01*
X130983760Y-59582753D01*
X130781585Y-59648444D01*
X130592179Y-59744951D01*
X130420213Y-59869890D01*
X130269890Y-60020213D01*
X130144951Y-60192179D01*
X130048444Y-60381585D01*
X129982753Y-60583760D01*
X129949500Y-60793713D01*
X116965584Y-60793713D01*
X116919334Y-60765186D01*
X116752797Y-60710001D01*
X116752795Y-60710000D01*
X116650010Y-60699500D01*
X115849998Y-60699500D01*
X115849980Y-60699501D01*
X115747203Y-60710000D01*
X115747200Y-60710001D01*
X115580668Y-60765185D01*
X115580663Y-60765187D01*
X115431342Y-60857289D01*
X115307289Y-60981342D01*
X115215187Y-61130663D01*
X115215186Y-61130666D01*
X115160001Y-61297203D01*
X115160001Y-61297204D01*
X115160000Y-61297204D01*
X115149500Y-61399983D01*
X115149500Y-61554047D01*
X115129815Y-61621086D01*
X115077011Y-61666841D01*
X115007853Y-61676785D01*
X114959528Y-61659041D01*
X114824523Y-61574211D01*
X114654254Y-61514631D01*
X114654249Y-61514630D01*
X114475004Y-61494435D01*
X114474996Y-61494435D01*
X114295750Y-61514630D01*
X114295737Y-61514633D01*
X114125480Y-61574209D01*
X114103470Y-61588039D01*
X114036233Y-61607038D01*
X113971530Y-61588039D01*
X113949519Y-61574209D01*
X113779262Y-61514633D01*
X113779249Y-61514630D01*
X113600004Y-61494435D01*
X113599996Y-61494435D01*
X113420750Y-61514630D01*
X113420745Y-61514631D01*
X113250476Y-61574211D01*
X113097739Y-61670183D01*
X113002180Y-61765742D01*
X112940856Y-61799226D01*
X112871165Y-61794242D01*
X112815232Y-61752370D01*
X112790815Y-61686905D01*
X112790499Y-61678060D01*
X112790499Y-61399998D01*
X112790498Y-61399981D01*
X112779999Y-61297203D01*
X112779998Y-61297200D01*
X112755908Y-61224501D01*
X112724814Y-61130666D01*
X112632712Y-60981344D01*
X112508656Y-60857288D01*
X112359334Y-60765186D01*
X112192797Y-60710001D01*
X112192795Y-60710000D01*
X112090010Y-60699500D01*
X111289998Y-60699500D01*
X111289980Y-60699501D01*
X111187203Y-60710000D01*
X111187200Y-60710001D01*
X111020668Y-60765185D01*
X111020663Y-60765187D01*
X110871342Y-60857289D01*
X110747289Y-60981342D01*
X110655187Y-61130663D01*
X110655186Y-61130666D01*
X110600001Y-61297203D01*
X110600001Y-61297204D01*
X110600000Y-61297204D01*
X110589500Y-61399983D01*
X110589500Y-61550500D01*
X110569815Y-61617539D01*
X110517011Y-61663294D01*
X110465500Y-61674500D01*
X110306268Y-61674500D01*
X110239229Y-61654815D01*
X110200729Y-61615597D01*
X110200728Y-61615595D01*
X110110212Y-61468844D01*
X109986156Y-61344788D01*
X109836834Y-61252686D01*
X109670297Y-61197501D01*
X109670295Y-61197500D01*
X109567510Y-61187000D01*
X108517498Y-61187000D01*
X108517480Y-61187001D01*
X108414703Y-61197500D01*
X108414700Y-61197501D01*
X108248168Y-61252685D01*
X108248163Y-61252687D01*
X108098842Y-61344789D01*
X107974787Y-61468844D01*
X107902156Y-61586600D01*
X107889068Y-61607820D01*
X107884272Y-61615595D01*
X107832324Y-61662320D01*
X107778733Y-61674499D01*
X107745943Y-61674499D01*
X107669579Y-61694961D01*
X107593214Y-61715423D01*
X107593209Y-61715426D01*
X107456290Y-61794475D01*
X107456282Y-61794481D01*
X105894479Y-63356284D01*
X105883333Y-63375591D01*
X105865659Y-63406204D01*
X105829211Y-63469334D01*
X105815864Y-63492452D01*
X105815423Y-63493215D01*
X105774499Y-63645943D01*
X105774499Y-63645945D01*
X105774499Y-63814046D01*
X105774500Y-63814059D01*
X105774500Y-79199902D01*
X105754815Y-79266941D01*
X105738181Y-79287583D01*
X104562584Y-80463181D01*
X104501261Y-80496666D01*
X104474903Y-80499500D01*
X96620941Y-80499500D01*
X96583334Y-80509576D01*
X96583335Y-80509577D01*
X96468214Y-80540423D01*
X96468209Y-80540426D01*
X96331290Y-80619475D01*
X96331282Y-80619481D01*
X91694481Y-85256282D01*
X91694477Y-85256287D01*
X91648620Y-85335716D01*
X91648620Y-85335717D01*
X91615423Y-85393214D01*
X91615423Y-85393215D01*
X91574499Y-85545943D01*
X91574499Y-85545945D01*
X91574499Y-85575500D01*
X91554814Y-85642539D01*
X91502010Y-85688294D01*
X91450500Y-85699500D01*
X91277130Y-85699500D01*
X91277123Y-85699501D01*
X91217516Y-85705908D01*
X91082671Y-85756202D01*
X91082664Y-85756206D01*
X90967455Y-85842452D01*
X90967452Y-85842455D01*
X90881206Y-85957664D01*
X90881202Y-85957671D01*
X90830908Y-86092517D01*
X90824501Y-86152116D01*
X90824500Y-86152135D01*
X90824500Y-87947870D01*
X90824501Y-87947876D01*
X90830908Y-88007483D01*
X90881202Y-88142328D01*
X90881206Y-88142335D01*
X90967452Y-88257544D01*
X90967455Y-88257547D01*
X91082664Y-88343793D01*
X91082671Y-88343797D01*
X91095101Y-88348433D01*
X91217517Y-88394091D01*
X91277127Y-88400500D01*
X91450500Y-88400499D01*
X91517539Y-88420183D01*
X91563294Y-88472987D01*
X91574500Y-88524499D01*
X91574500Y-96575500D01*
X91554815Y-96642539D01*
X91502011Y-96688294D01*
X91450501Y-96699500D01*
X91277130Y-96699500D01*
X91277123Y-96699501D01*
X91217516Y-96705908D01*
X91082671Y-96756202D01*
X91082664Y-96756206D01*
X90967455Y-96842452D01*
X90967452Y-96842455D01*
X90881206Y-96957664D01*
X90881202Y-96957671D01*
X90830908Y-97092517D01*
X90824501Y-97152116D01*
X90824500Y-97152135D01*
X90824500Y-98947870D01*
X90824501Y-98947876D01*
X90830908Y-99007483D01*
X90881202Y-99142328D01*
X90881206Y-99142335D01*
X90967452Y-99257544D01*
X90967455Y-99257547D01*
X91082664Y-99343793D01*
X91082671Y-99343797D01*
X91127618Y-99360561D01*
X91217517Y-99394091D01*
X91277127Y-99400500D01*
X91445500Y-99400499D01*
X91512539Y-99420183D01*
X91558294Y-99472987D01*
X91569500Y-99524499D01*
X91569500Y-107605500D01*
X91549815Y-107672539D01*
X91497011Y-107718294D01*
X91445501Y-107729500D01*
X91272130Y-107729500D01*
X91272123Y-107729501D01*
X91212516Y-107735908D01*
X91077671Y-107786202D01*
X91077664Y-107786206D01*
X90962455Y-107872452D01*
X90962452Y-107872455D01*
X90876206Y-107987664D01*
X90876202Y-107987671D01*
X90825908Y-108122517D01*
X90819501Y-108182116D01*
X90819500Y-108182135D01*
X90819500Y-109977870D01*
X90819501Y-109977876D01*
X90825908Y-110037483D01*
X90876202Y-110172328D01*
X90876206Y-110172335D01*
X90962452Y-110287544D01*
X90962455Y-110287547D01*
X91077664Y-110373793D01*
X91077671Y-110373797D01*
X91121313Y-110390074D01*
X91212517Y-110424091D01*
X91272127Y-110430500D01*
X91445500Y-110430499D01*
X91512539Y-110450183D01*
X91558294Y-110502987D01*
X91569500Y-110554499D01*
X91569500Y-112683330D01*
X91569499Y-112683348D01*
X91569499Y-112859046D01*
X91569500Y-112859059D01*
X91569500Y-118600500D01*
X91549815Y-118667539D01*
X91497011Y-118713294D01*
X91445501Y-118724500D01*
X91272130Y-118724500D01*
X91272123Y-118724501D01*
X91212516Y-118730908D01*
X91077671Y-118781202D01*
X91077664Y-118781206D01*
X90962455Y-118867452D01*
X90962452Y-118867455D01*
X90876206Y-118982664D01*
X90876202Y-118982671D01*
X90825908Y-119117517D01*
X90819501Y-119177116D01*
X90819500Y-119177135D01*
X90819500Y-120524902D01*
X90799815Y-120591941D01*
X90783181Y-120612583D01*
X89694481Y-121701282D01*
X89694479Y-121701285D01*
X89644361Y-121788094D01*
X89644359Y-121788096D01*
X89615425Y-121838209D01*
X89615424Y-121838210D01*
X89615423Y-121838215D01*
X89574499Y-121990943D01*
X89574499Y-121990945D01*
X89574499Y-122159046D01*
X89574500Y-122159059D01*
X89574500Y-122729091D01*
X89554815Y-122796130D01*
X89510731Y-122834641D01*
X89511813Y-122836395D01*
X89505667Y-122840185D01*
X89505666Y-122840186D01*
X89407419Y-122900784D01*
X89356342Y-122932289D01*
X89232289Y-123056342D01*
X89140187Y-123205663D01*
X89140186Y-123205666D01*
X89085001Y-123372203D01*
X89085001Y-123372204D01*
X89085000Y-123372204D01*
X89074500Y-123474983D01*
X89074500Y-124475001D01*
X89074501Y-124475019D01*
X89085000Y-124577796D01*
X89085001Y-124577799D01*
X89140185Y-124744331D01*
X89140187Y-124744336D01*
X89155604Y-124769331D01*
X89232288Y-124893656D01*
X89356344Y-125017712D01*
X89505666Y-125109814D01*
X89672203Y-125164999D01*
X89774991Y-125175500D01*
X90575008Y-125175499D01*
X90575016Y-125175498D01*
X90575019Y-125175498D01*
X90631302Y-125169748D01*
X90677797Y-125164999D01*
X90844334Y-125109814D01*
X90993656Y-125017712D01*
X91087319Y-124924049D01*
X91148642Y-124890564D01*
X91218334Y-124895548D01*
X91262681Y-124924049D01*
X91356344Y-125017712D01*
X91505666Y-125109814D01*
X91505667Y-125109814D01*
X91511813Y-125113605D01*
X91510706Y-125115399D01*
X91555337Y-125154687D01*
X91574500Y-125220908D01*
X91574500Y-129349902D01*
X91554815Y-129416941D01*
X91538181Y-129437583D01*
X91226881Y-129748882D01*
X91165558Y-129782367D01*
X91107108Y-129780976D01*
X91042984Y-129763795D01*
X91042986Y-129763795D01*
X91042977Y-129763793D01*
X91042973Y-129763792D01*
X91042970Y-129763792D01*
X90825002Y-129744723D01*
X90824998Y-129744723D01*
X90691516Y-129756401D01*
X90607023Y-129763793D01*
X90594648Y-129767108D01*
X90580125Y-129771000D01*
X90510275Y-129769335D01*
X90460353Y-129738905D01*
X89822488Y-129101041D01*
X89882890Y-129076022D01*
X89989351Y-129004888D01*
X90079888Y-128914351D01*
X90151022Y-128807890D01*
X90176041Y-128747488D01*
X90780372Y-129351820D01*
X90876669Y-129204429D01*
X90974861Y-128980573D01*
X91034869Y-128743605D01*
X91055055Y-128500005D01*
X91055055Y-128499994D01*
X91034869Y-128256394D01*
X90974861Y-128019426D01*
X90876671Y-127795575D01*
X90780372Y-127648178D01*
X90176041Y-128252510D01*
X90151022Y-128192110D01*
X90079888Y-128085649D01*
X89989351Y-127995112D01*
X89882890Y-127923978D01*
X89822487Y-127898957D01*
X90427240Y-127294205D01*
X90427240Y-127294204D01*
X90384514Y-127260949D01*
X90384514Y-127260948D01*
X90169531Y-127144605D01*
X90169523Y-127144602D01*
X89938335Y-127065234D01*
X89697221Y-127025000D01*
X89452779Y-127025000D01*
X89211664Y-127065234D01*
X88980476Y-127144602D01*
X88980468Y-127144605D01*
X88765484Y-127260949D01*
X88765478Y-127260953D01*
X88722758Y-127294203D01*
X88722758Y-127294205D01*
X89327511Y-127898958D01*
X89267110Y-127923978D01*
X89160649Y-127995112D01*
X89070112Y-128085649D01*
X88998978Y-128192110D01*
X88973958Y-128252511D01*
X88369626Y-127648178D01*
X88273329Y-127795572D01*
X88175138Y-128019426D01*
X88115130Y-128256394D01*
X88094945Y-128499994D01*
X83955500Y-128499994D01*
X83955500Y-66924999D01*
X85569341Y-66924999D01*
X85569341Y-66925000D01*
X85589936Y-67160403D01*
X85589938Y-67160413D01*
X85651094Y-67388655D01*
X85651096Y-67388659D01*
X85651097Y-67388663D01*
X85706416Y-67507295D01*
X85750965Y-67602830D01*
X85750967Y-67602834D01*
X85859281Y-67757521D01*
X85886501Y-67796396D01*
X85886506Y-67796402D01*
X86008430Y-67918326D01*
X86041915Y-67979649D01*
X86036931Y-68049341D01*
X85995059Y-68105274D01*
X85964083Y-68122189D01*
X85832669Y-68171203D01*
X85832664Y-68171206D01*
X85717455Y-68257452D01*
X85717452Y-68257455D01*
X85631206Y-68372664D01*
X85631202Y-68372671D01*
X85580908Y-68507517D01*
X85575622Y-68556692D01*
X85574501Y-68567123D01*
X85574500Y-68567135D01*
X85574500Y-70362870D01*
X85574501Y-70362876D01*
X85580908Y-70422483D01*
X85631202Y-70557328D01*
X85631206Y-70557335D01*
X85717452Y-70672544D01*
X85717455Y-70672547D01*
X85832664Y-70758793D01*
X85832671Y-70758797D01*
X85877618Y-70775561D01*
X85967517Y-70809091D01*
X86027127Y-70815500D01*
X86105500Y-70815499D01*
X86172538Y-70835183D01*
X86218294Y-70887986D01*
X86229500Y-70939499D01*
X86229500Y-75612371D01*
X86209815Y-75679410D01*
X86157011Y-75725165D01*
X86148833Y-75728553D01*
X86007671Y-75781202D01*
X86007664Y-75781206D01*
X85892455Y-75867452D01*
X85892452Y-75867455D01*
X85806206Y-75982664D01*
X85806202Y-75982671D01*
X85755908Y-76117517D01*
X85749501Y-76177116D01*
X85749500Y-76177135D01*
X85749500Y-77972870D01*
X85749501Y-77972876D01*
X85755908Y-78032483D01*
X85806202Y-78167328D01*
X85806206Y-78167335D01*
X85892452Y-78282544D01*
X85892455Y-78282547D01*
X86007664Y-78368793D01*
X86007671Y-78368797D01*
X86142517Y-78419091D01*
X86142516Y-78419091D01*
X86149444Y-78419835D01*
X86202127Y-78425500D01*
X87997872Y-78425499D01*
X88057483Y-78419091D01*
X88192331Y-78368796D01*
X88307546Y-78282546D01*
X88393796Y-78167331D01*
X88443002Y-78035401D01*
X88484872Y-77979468D01*
X88550337Y-77955050D01*
X88618610Y-77969901D01*
X88646865Y-77991053D01*
X88768917Y-78113105D01*
X88962421Y-78248600D01*
X89176507Y-78348429D01*
X89176516Y-78348433D01*
X89390000Y-78405634D01*
X89390000Y-77508012D01*
X89447007Y-77540925D01*
X89574174Y-77575000D01*
X89705826Y-77575000D01*
X89832993Y-77540925D01*
X89890000Y-77508012D01*
X89890000Y-78405633D01*
X90103483Y-78348433D01*
X90103492Y-78348429D01*
X90317578Y-78248600D01*
X90511082Y-78113105D01*
X90678105Y-77946082D01*
X90808119Y-77760405D01*
X90862696Y-77716781D01*
X90932195Y-77709588D01*
X90994549Y-77741110D01*
X91011269Y-77760405D01*
X91141505Y-77946401D01*
X91308599Y-78113495D01*
X91389051Y-78169828D01*
X91502165Y-78249032D01*
X91502167Y-78249033D01*
X91502170Y-78249035D01*
X91716337Y-78348903D01*
X91944592Y-78410063D01*
X92121034Y-78425500D01*
X92179999Y-78430659D01*
X92180000Y-78430659D01*
X92180001Y-78430659D01*
X92238966Y-78425500D01*
X92415408Y-78410063D01*
X92643663Y-78348903D01*
X92857830Y-78249035D01*
X93051401Y-78113495D01*
X93218495Y-77946401D01*
X93348425Y-77760842D01*
X93403002Y-77717217D01*
X93472500Y-77710023D01*
X93534855Y-77741546D01*
X93551575Y-77760842D01*
X93681500Y-77946395D01*
X93681505Y-77946401D01*
X93848599Y-78113495D01*
X93929051Y-78169828D01*
X94042165Y-78249032D01*
X94042167Y-78249033D01*
X94042170Y-78249035D01*
X94256337Y-78348903D01*
X94484592Y-78410063D01*
X94661034Y-78425500D01*
X94719999Y-78430659D01*
X94720000Y-78430659D01*
X94720001Y-78430659D01*
X94778966Y-78425500D01*
X94955408Y-78410063D01*
X95183663Y-78348903D01*
X95397830Y-78249035D01*
X95591401Y-78113495D01*
X95758495Y-77946401D01*
X95888730Y-77760405D01*
X95943307Y-77716781D01*
X96012805Y-77709587D01*
X96075160Y-77741110D01*
X96091879Y-77760405D01*
X96221890Y-77946078D01*
X96388917Y-78113105D01*
X96582421Y-78248600D01*
X96796507Y-78348429D01*
X96796516Y-78348433D01*
X97010000Y-78405634D01*
X97010000Y-77508012D01*
X97067007Y-77540925D01*
X97194174Y-77575000D01*
X97325826Y-77575000D01*
X97452993Y-77540925D01*
X97510000Y-77508012D01*
X97510000Y-78405633D01*
X97723483Y-78348433D01*
X97723492Y-78348429D01*
X97937578Y-78248600D01*
X98131082Y-78113105D01*
X98298105Y-77946082D01*
X98428119Y-77760405D01*
X98482696Y-77716781D01*
X98552195Y-77709588D01*
X98614549Y-77741110D01*
X98631269Y-77760405D01*
X98761505Y-77946401D01*
X98928599Y-78113495D01*
X99009051Y-78169828D01*
X99122165Y-78249032D01*
X99122167Y-78249033D01*
X99122170Y-78249035D01*
X99336337Y-78348903D01*
X99564592Y-78410063D01*
X99741034Y-78425500D01*
X99799999Y-78430659D01*
X99800000Y-78430659D01*
X99800001Y-78430659D01*
X99858966Y-78425500D01*
X100035408Y-78410063D01*
X100263663Y-78348903D01*
X100477830Y-78249035D01*
X100671401Y-78113495D01*
X100838495Y-77946401D01*
X100968425Y-77760842D01*
X101023002Y-77717217D01*
X101092500Y-77710023D01*
X101154855Y-77741546D01*
X101171575Y-77760842D01*
X101301500Y-77946395D01*
X101301505Y-77946401D01*
X101468599Y-78113495D01*
X101549051Y-78169828D01*
X101662165Y-78249032D01*
X101662167Y-78249033D01*
X101662170Y-78249035D01*
X101876337Y-78348903D01*
X102104592Y-78410063D01*
X102281034Y-78425500D01*
X102339999Y-78430659D01*
X102340000Y-78430659D01*
X102340001Y-78430659D01*
X102398966Y-78425500D01*
X102575408Y-78410063D01*
X102803663Y-78348903D01*
X103017830Y-78249035D01*
X103211401Y-78113495D01*
X103378495Y-77946401D01*
X103514035Y-77752830D01*
X103613903Y-77538663D01*
X103675063Y-77310408D01*
X103695659Y-77075000D01*
X103693515Y-77050500D01*
X103689900Y-77009174D01*
X103675063Y-76839592D01*
X103616046Y-76619334D01*
X103613905Y-76611344D01*
X103613904Y-76611343D01*
X103613903Y-76611337D01*
X103514035Y-76397171D01*
X103508731Y-76389595D01*
X103378494Y-76203597D01*
X103211402Y-76036506D01*
X103211395Y-76036501D01*
X103199861Y-76028425D01*
X103134518Y-75982671D01*
X103017834Y-75900967D01*
X103017830Y-75900965D01*
X103017828Y-75900964D01*
X102803663Y-75801097D01*
X102803659Y-75801096D01*
X102803655Y-75801094D01*
X102575413Y-75739938D01*
X102575403Y-75739936D01*
X102340001Y-75719341D01*
X102339999Y-75719341D01*
X102104596Y-75739936D01*
X102104586Y-75739938D01*
X101876344Y-75801094D01*
X101876335Y-75801098D01*
X101662171Y-75900964D01*
X101662169Y-75900965D01*
X101468597Y-76036505D01*
X101301505Y-76203597D01*
X101171575Y-76389158D01*
X101116998Y-76432783D01*
X101047500Y-76439977D01*
X100985145Y-76408454D01*
X100968425Y-76389158D01*
X100838494Y-76203597D01*
X100671402Y-76036506D01*
X100671395Y-76036501D01*
X100659861Y-76028425D01*
X100594518Y-75982671D01*
X100477834Y-75900967D01*
X100477830Y-75900965D01*
X100477828Y-75900964D01*
X100263663Y-75801097D01*
X100263659Y-75801096D01*
X100263655Y-75801094D01*
X100035413Y-75739938D01*
X100035403Y-75739936D01*
X99800001Y-75719341D01*
X99799999Y-75719341D01*
X99564596Y-75739936D01*
X99564586Y-75739938D01*
X99336344Y-75801094D01*
X99336335Y-75801098D01*
X99122171Y-75900964D01*
X99122169Y-75900965D01*
X98928597Y-76036505D01*
X98761508Y-76203594D01*
X98631269Y-76389595D01*
X98576692Y-76433219D01*
X98507193Y-76440412D01*
X98444839Y-76408890D01*
X98428119Y-76389594D01*
X98298113Y-76203926D01*
X98298108Y-76203920D01*
X98131082Y-76036894D01*
X97937578Y-75901399D01*
X97723492Y-75801570D01*
X97723486Y-75801567D01*
X97510000Y-75744364D01*
X97510000Y-76641988D01*
X97452993Y-76609075D01*
X97325826Y-76575000D01*
X97194174Y-76575000D01*
X97067007Y-76609075D01*
X97010000Y-76641988D01*
X97010000Y-75744364D01*
X97009999Y-75744364D01*
X96796513Y-75801567D01*
X96796507Y-75801570D01*
X96582422Y-75901399D01*
X96582420Y-75901400D01*
X96388926Y-76036886D01*
X96388920Y-76036891D01*
X96221891Y-76203920D01*
X96221890Y-76203922D01*
X96091880Y-76389595D01*
X96037303Y-76433219D01*
X95967804Y-76440412D01*
X95905450Y-76408890D01*
X95888730Y-76389594D01*
X95758494Y-76203597D01*
X95591402Y-76036506D01*
X95591395Y-76036501D01*
X95579861Y-76028425D01*
X95514518Y-75982671D01*
X95397834Y-75900967D01*
X95397830Y-75900965D01*
X95397828Y-75900964D01*
X95183663Y-75801097D01*
X95183659Y-75801096D01*
X95183655Y-75801094D01*
X94955413Y-75739938D01*
X94955403Y-75739936D01*
X94720001Y-75719341D01*
X94719999Y-75719341D01*
X94484596Y-75739936D01*
X94484586Y-75739938D01*
X94256344Y-75801094D01*
X94256335Y-75801098D01*
X94042171Y-75900964D01*
X94042169Y-75900965D01*
X93848597Y-76036505D01*
X93681505Y-76203597D01*
X93551575Y-76389158D01*
X93496998Y-76432783D01*
X93427500Y-76439977D01*
X93365145Y-76408454D01*
X93348425Y-76389158D01*
X93218494Y-76203597D01*
X93051402Y-76036506D01*
X93051395Y-76036501D01*
X93039861Y-76028425D01*
X92974518Y-75982671D01*
X92857834Y-75900967D01*
X92857830Y-75900965D01*
X92857828Y-75900964D01*
X92643663Y-75801097D01*
X92643659Y-75801096D01*
X92643655Y-75801094D01*
X92415413Y-75739938D01*
X92415403Y-75739936D01*
X92180001Y-75719341D01*
X92179999Y-75719341D01*
X91944596Y-75739936D01*
X91944586Y-75739938D01*
X91716344Y-75801094D01*
X91716335Y-75801098D01*
X91502171Y-75900964D01*
X91502169Y-75900965D01*
X91308597Y-76036505D01*
X91141508Y-76203594D01*
X91011269Y-76389595D01*
X90956692Y-76433219D01*
X90887193Y-76440412D01*
X90824839Y-76408890D01*
X90808119Y-76389594D01*
X90678113Y-76203926D01*
X90678108Y-76203920D01*
X90511082Y-76036894D01*
X90317578Y-75901399D01*
X90103492Y-75801570D01*
X90103486Y-75801567D01*
X89890000Y-75744364D01*
X89890000Y-76641988D01*
X89832993Y-76609075D01*
X89705826Y-76575000D01*
X89574174Y-76575000D01*
X89447007Y-76609075D01*
X89390000Y-76641988D01*
X89390000Y-75744364D01*
X89389999Y-75744364D01*
X89176513Y-75801567D01*
X89176507Y-75801570D01*
X88962422Y-75901399D01*
X88962420Y-75901400D01*
X88768926Y-76036886D01*
X88646865Y-76158947D01*
X88585542Y-76192431D01*
X88515850Y-76187447D01*
X88459917Y-76145575D01*
X88443002Y-76114598D01*
X88393797Y-75982671D01*
X88393793Y-75982664D01*
X88307547Y-75867455D01*
X88307544Y-75867452D01*
X88192335Y-75781206D01*
X88192328Y-75781202D01*
X88057482Y-75730908D01*
X88057483Y-75730908D01*
X87997883Y-75724501D01*
X87997881Y-75724500D01*
X87997873Y-75724500D01*
X87997865Y-75724500D01*
X87554500Y-75724500D01*
X87487461Y-75704815D01*
X87441706Y-75652011D01*
X87430500Y-75600500D01*
X87430500Y-70939499D01*
X87450185Y-70872460D01*
X87502989Y-70826705D01*
X87554500Y-70815499D01*
X87822871Y-70815499D01*
X87822872Y-70815499D01*
X87882483Y-70809091D01*
X88017331Y-70758796D01*
X88132546Y-70672546D01*
X88218796Y-70557331D01*
X88269091Y-70422483D01*
X88275500Y-70362873D01*
X88275500Y-70189500D01*
X88295185Y-70122461D01*
X88347989Y-70076706D01*
X88399500Y-70065500D01*
X89500500Y-70065500D01*
X89567539Y-70085185D01*
X89613294Y-70137989D01*
X89624500Y-70189500D01*
X89624500Y-71700001D01*
X89624501Y-71700018D01*
X89635000Y-71802796D01*
X89635001Y-71802799D01*
X89690185Y-71969331D01*
X89690187Y-71969336D01*
X89725069Y-72025888D01*
X89782288Y-72118656D01*
X89906344Y-72242712D01*
X90055666Y-72334814D01*
X90222203Y-72389999D01*
X90324991Y-72400500D01*
X91725008Y-72400499D01*
X91827797Y-72389999D01*
X91994334Y-72334814D01*
X92143656Y-72242712D01*
X92267712Y-72118656D01*
X92359814Y-71969334D01*
X92414999Y-71802797D01*
X92425500Y-71700009D01*
X92425500Y-71599986D01*
X93125001Y-71599986D01*
X93135494Y-71702697D01*
X93190641Y-71869119D01*
X93190643Y-71869124D01*
X93282684Y-72018345D01*
X93406654Y-72142315D01*
X93555875Y-72234356D01*
X93555880Y-72234358D01*
X93722302Y-72289505D01*
X93722309Y-72289506D01*
X93825019Y-72299999D01*
X93974999Y-72299999D01*
X93975000Y-72299998D01*
X93975000Y-71350000D01*
X93125001Y-71350000D01*
X93125001Y-71599986D01*
X92425500Y-71599986D01*
X92425499Y-68599992D01*
X92418573Y-68532195D01*
X92414999Y-68497203D01*
X92414998Y-68497200D01*
X92385479Y-68408119D01*
X92359814Y-68330666D01*
X92267712Y-68181344D01*
X92143656Y-68057288D01*
X92050888Y-68000069D01*
X91994336Y-67965187D01*
X91994331Y-67965185D01*
X91989231Y-67963495D01*
X91827797Y-67910001D01*
X91827795Y-67910000D01*
X91725010Y-67899500D01*
X90324998Y-67899500D01*
X90324981Y-67899501D01*
X90222203Y-67910000D01*
X90222200Y-67910001D01*
X90055668Y-67965185D01*
X90055663Y-67965187D01*
X89906342Y-68057289D01*
X89782289Y-68181342D01*
X89690187Y-68330663D01*
X89690185Y-68330668D01*
X89676267Y-68372671D01*
X89635001Y-68497203D01*
X89635001Y-68497204D01*
X89635000Y-68497204D01*
X89624500Y-68599983D01*
X89624500Y-68740500D01*
X89604815Y-68807539D01*
X89552011Y-68853294D01*
X89500500Y-68864500D01*
X88399499Y-68864500D01*
X88332460Y-68844815D01*
X88286705Y-68792011D01*
X88275499Y-68740500D01*
X88275499Y-68567129D01*
X88275498Y-68567123D01*
X88275497Y-68567116D01*
X88269091Y-68507517D01*
X88268561Y-68506097D01*
X88218797Y-68372671D01*
X88218793Y-68372664D01*
X88132547Y-68257455D01*
X88132544Y-68257452D01*
X88017335Y-68171206D01*
X88017328Y-68171202D01*
X87885917Y-68122189D01*
X87829983Y-68080318D01*
X87805566Y-68014853D01*
X87820418Y-67946580D01*
X87841563Y-67918332D01*
X87963495Y-67796401D01*
X88099035Y-67602830D01*
X88198903Y-67388663D01*
X88260063Y-67160408D01*
X88280659Y-66925000D01*
X88260063Y-66689592D01*
X88225671Y-66561239D01*
X88227334Y-66491393D01*
X88257763Y-66441470D01*
X88912416Y-65786819D01*
X88973739Y-65753334D01*
X89000097Y-65750500D01*
X89500501Y-65750500D01*
X89567540Y-65770185D01*
X89613295Y-65822989D01*
X89624501Y-65874500D01*
X89624501Y-66700018D01*
X89635000Y-66802796D01*
X89635001Y-66802799D01*
X89674138Y-66920905D01*
X89690186Y-66969334D01*
X89782288Y-67118656D01*
X89906344Y-67242712D01*
X90055666Y-67334814D01*
X90222203Y-67389999D01*
X90324991Y-67400500D01*
X91725008Y-67400499D01*
X91827797Y-67389999D01*
X91994334Y-67334814D01*
X92143656Y-67242712D01*
X92267712Y-67118656D01*
X92359814Y-66969334D01*
X92414999Y-66802797D01*
X92425500Y-66700009D01*
X92425500Y-65724500D01*
X92445185Y-65657461D01*
X92497989Y-65611706D01*
X92549500Y-65600500D01*
X93283480Y-65600500D01*
X93350519Y-65620185D01*
X93371161Y-65636819D01*
X93464811Y-65730469D01*
X93464813Y-65730470D01*
X93464815Y-65730472D01*
X93610394Y-65818478D01*
X93772804Y-65869086D01*
X93843384Y-65875500D01*
X93843387Y-65875500D01*
X94450902Y-65875500D01*
X94517941Y-65895185D01*
X94563696Y-65947989D01*
X94573640Y-66017147D01*
X94544615Y-66080703D01*
X94538583Y-66087181D01*
X93719481Y-66906282D01*
X93719479Y-66906285D01*
X93703319Y-66934276D01*
X93671148Y-66989999D01*
X93669361Y-66993094D01*
X93669359Y-66993096D01*
X93640425Y-67043209D01*
X93640424Y-67043210D01*
X93640423Y-67043215D01*
X93599499Y-67195943D01*
X93599499Y-67195945D01*
X93599499Y-67304091D01*
X93579814Y-67371130D01*
X93535732Y-67409642D01*
X93536813Y-67411395D01*
X93530667Y-67415185D01*
X93530666Y-67415186D01*
X93478066Y-67447630D01*
X93381342Y-67507289D01*
X93257289Y-67631342D01*
X93165187Y-67780663D01*
X93165185Y-67780668D01*
X93137349Y-67864670D01*
X93110001Y-67947203D01*
X93110001Y-67947204D01*
X93110000Y-67947204D01*
X93099500Y-68049983D01*
X93099500Y-69050001D01*
X93099501Y-69050019D01*
X93110000Y-69152796D01*
X93110001Y-69152799D01*
X93165185Y-69319331D01*
X93165187Y-69319336D01*
X93199999Y-69375776D01*
X93257288Y-69468656D01*
X93381344Y-69592712D01*
X93530666Y-69684814D01*
X93611802Y-69711700D01*
X93669246Y-69751472D01*
X93696069Y-69815987D01*
X93683754Y-69884763D01*
X93636211Y-69935963D01*
X93611802Y-69947111D01*
X93555878Y-69965642D01*
X93555875Y-69965643D01*
X93406654Y-70057684D01*
X93282684Y-70181654D01*
X93190643Y-70330875D01*
X93190641Y-70330880D01*
X93135494Y-70497302D01*
X93135493Y-70497309D01*
X93125000Y-70600013D01*
X93125000Y-70850000D01*
X94101000Y-70850000D01*
X94168039Y-70869685D01*
X94213794Y-70922489D01*
X94225000Y-70974000D01*
X94225000Y-71100000D01*
X94351000Y-71100000D01*
X94418039Y-71119685D01*
X94463794Y-71172489D01*
X94475000Y-71224000D01*
X94475000Y-72299999D01*
X94624972Y-72299999D01*
X94624986Y-72299998D01*
X94727697Y-72289505D01*
X94894119Y-72234358D01*
X94894124Y-72234356D01*
X95043342Y-72142317D01*
X95136964Y-72048695D01*
X95198287Y-72015210D01*
X95267979Y-72020194D01*
X95312327Y-72048695D01*
X95406344Y-72142712D01*
X95555666Y-72234814D01*
X95722203Y-72289999D01*
X95824991Y-72300500D01*
X96625008Y-72300499D01*
X96625016Y-72300498D01*
X96625019Y-72300498D01*
X96681302Y-72294748D01*
X96727797Y-72289999D01*
X96894334Y-72234814D01*
X97043656Y-72142712D01*
X97167712Y-72018656D01*
X97259814Y-71869334D01*
X97314999Y-71702797D01*
X97325500Y-71600009D01*
X97325499Y-70599992D01*
X97323955Y-70584883D01*
X97321629Y-70562100D01*
X97334399Y-70493407D01*
X97382281Y-70442524D01*
X97444987Y-70425500D01*
X102017588Y-70425500D01*
X102084627Y-70445185D01*
X102094903Y-70452555D01*
X102097736Y-70454814D01*
X102097738Y-70454816D01*
X102250478Y-70550789D01*
X102391049Y-70599977D01*
X102420745Y-70610368D01*
X102420750Y-70610369D01*
X102599996Y-70630565D01*
X102600000Y-70630565D01*
X102600004Y-70630565D01*
X102779249Y-70610369D01*
X102779252Y-70610368D01*
X102779255Y-70610368D01*
X102949522Y-70550789D01*
X103084029Y-70466272D01*
X103151264Y-70447272D01*
X103215970Y-70466272D01*
X103265354Y-70497302D01*
X103350475Y-70550788D01*
X103520745Y-70610368D01*
X103520750Y-70610369D01*
X103699996Y-70630565D01*
X103700000Y-70630565D01*
X103700004Y-70630565D01*
X103879249Y-70610369D01*
X103879252Y-70610368D01*
X103879255Y-70610368D01*
X104049522Y-70550789D01*
X104202262Y-70454816D01*
X104329816Y-70327262D01*
X104425789Y-70174522D01*
X104485368Y-70004255D01*
X104488723Y-69974481D01*
X104505565Y-69825003D01*
X104505565Y-69824996D01*
X104485369Y-69645750D01*
X104485368Y-69645745D01*
X104425788Y-69475476D01*
X104329815Y-69322737D01*
X104202262Y-69195184D01*
X104049523Y-69099211D01*
X103879254Y-69039631D01*
X103879249Y-69039630D01*
X103700004Y-69019435D01*
X103699996Y-69019435D01*
X103520750Y-69039630D01*
X103520745Y-69039631D01*
X103350476Y-69099211D01*
X103215972Y-69183727D01*
X103148736Y-69202727D01*
X103084028Y-69183727D01*
X102949523Y-69099211D01*
X102779254Y-69039631D01*
X102779249Y-69039630D01*
X102600004Y-69019435D01*
X102599996Y-69019435D01*
X102420750Y-69039630D01*
X102420745Y-69039631D01*
X102250476Y-69099211D01*
X102097736Y-69195185D01*
X102094903Y-69197445D01*
X102092724Y-69198334D01*
X102091842Y-69198889D01*
X102091744Y-69198734D01*
X102030217Y-69223855D01*
X102017588Y-69224500D01*
X97419987Y-69224500D01*
X97352948Y-69204815D01*
X97307193Y-69152011D01*
X97296629Y-69087896D01*
X97300500Y-69050009D01*
X97300499Y-68049992D01*
X97300432Y-68049341D01*
X97289999Y-67947203D01*
X97289998Y-67947200D01*
X97240028Y-67796402D01*
X97234814Y-67780666D01*
X97142712Y-67631344D01*
X97018656Y-67507288D01*
X96869334Y-67415186D01*
X96702797Y-67360001D01*
X96702795Y-67360000D01*
X96600010Y-67349500D01*
X95799998Y-67349500D01*
X95799980Y-67349501D01*
X95697203Y-67360000D01*
X95697200Y-67360001D01*
X95530668Y-67415185D01*
X95530663Y-67415187D01*
X95381342Y-67507289D01*
X95287681Y-67600951D01*
X95226358Y-67634436D01*
X95156666Y-67629452D01*
X95112319Y-67600951D01*
X95018663Y-67507295D01*
X95018656Y-67507288D01*
X95018647Y-67507282D01*
X95015316Y-67504649D01*
X95013614Y-67502246D01*
X95013549Y-67502181D01*
X95013560Y-67502169D01*
X94974935Y-67447630D01*
X94971790Y-67377831D01*
X95004536Y-67319697D01*
X95515733Y-66808500D01*
X95577054Y-66775017D01*
X95640300Y-66777796D01*
X95772804Y-66819086D01*
X95843384Y-66825500D01*
X95843387Y-66825500D01*
X96456613Y-66825500D01*
X96456616Y-66825500D01*
X96527196Y-66819086D01*
X96689606Y-66768478D01*
X96835185Y-66680472D01*
X96955472Y-66560185D01*
X97043478Y-66414606D01*
X97094086Y-66252196D01*
X97100500Y-66181616D01*
X97100500Y-65668384D01*
X97094086Y-65597804D01*
X97043478Y-65435394D01*
X96955472Y-65289815D01*
X96955470Y-65289813D01*
X96955469Y-65289811D01*
X96835188Y-65169530D01*
X96835185Y-65169528D01*
X96689606Y-65081522D01*
X96689605Y-65081521D01*
X96688451Y-65080824D01*
X96641263Y-65029296D01*
X96629425Y-64960436D01*
X96656694Y-64896108D01*
X96688451Y-64868590D01*
X96834877Y-64780072D01*
X96955072Y-64659877D01*
X97043019Y-64514395D01*
X97093590Y-64352106D01*
X97100000Y-64281572D01*
X97100000Y-64275000D01*
X95200001Y-64275000D01*
X95200001Y-64281581D01*
X95200808Y-64290470D01*
X95187266Y-64359015D01*
X95138815Y-64409357D01*
X95070839Y-64425513D01*
X95004919Y-64402353D01*
X94971199Y-64365831D01*
X94962902Y-64352106D01*
X94955472Y-64339815D01*
X94955471Y-64339814D01*
X94955468Y-64339810D01*
X94835188Y-64219530D01*
X94689606Y-64131522D01*
X94588446Y-64100000D01*
X94527196Y-64080914D01*
X94527194Y-64080913D01*
X94527192Y-64080913D01*
X94477778Y-64076423D01*
X94456616Y-64074500D01*
X93843384Y-64074500D01*
X93824145Y-64076248D01*
X93772807Y-64080913D01*
X93610393Y-64131522D01*
X93464811Y-64219530D01*
X93344531Y-64339810D01*
X93339906Y-64345715D01*
X93338882Y-64344912D01*
X93293096Y-64386840D01*
X93238511Y-64399500D01*
X92549499Y-64399500D01*
X92482460Y-64379815D01*
X92436705Y-64327011D01*
X92425499Y-64275500D01*
X92425499Y-63768427D01*
X95200000Y-63768427D01*
X95200000Y-63775000D01*
X95900000Y-63775000D01*
X96400000Y-63775000D01*
X97099999Y-63775000D01*
X97099999Y-63768417D01*
X97093591Y-63697897D01*
X97093590Y-63697892D01*
X97043018Y-63535603D01*
X96955072Y-63390122D01*
X96834877Y-63269927D01*
X96689395Y-63181980D01*
X96689396Y-63181980D01*
X96527105Y-63131409D01*
X96527106Y-63131409D01*
X96456572Y-63125000D01*
X96400000Y-63125000D01*
X96400000Y-63775000D01*
X95900000Y-63775000D01*
X95900000Y-63125000D01*
X95899999Y-63124999D01*
X95843418Y-63125000D01*
X95843417Y-63125001D01*
X95772897Y-63131408D01*
X95772892Y-63131409D01*
X95610603Y-63181981D01*
X95465122Y-63269927D01*
X95344927Y-63390122D01*
X95256980Y-63535604D01*
X95206409Y-63697893D01*
X95200000Y-63768427D01*
X92425499Y-63768427D01*
X92425499Y-63599998D01*
X92425498Y-63599981D01*
X92414999Y-63497203D01*
X92414998Y-63497200D01*
X92359814Y-63330666D01*
X92267712Y-63181344D01*
X92143656Y-63057288D01*
X92005224Y-62971903D01*
X91994336Y-62965187D01*
X91994331Y-62965185D01*
X91988938Y-62963398D01*
X91827797Y-62910001D01*
X91827795Y-62910000D01*
X91725010Y-62899500D01*
X90324998Y-62899500D01*
X90324981Y-62899501D01*
X90222203Y-62910000D01*
X90222200Y-62910001D01*
X90055668Y-62965185D01*
X90055663Y-62965187D01*
X89906342Y-63057289D01*
X89782289Y-63181342D01*
X89690187Y-63330663D01*
X89690185Y-63330668D01*
X89675299Y-63375591D01*
X89635001Y-63497203D01*
X89635001Y-63497204D01*
X89635000Y-63497204D01*
X89624500Y-63599983D01*
X89624500Y-64425500D01*
X89604815Y-64492539D01*
X89552011Y-64538294D01*
X89500500Y-64549500D01*
X88779057Y-64549500D01*
X88620943Y-64549500D01*
X88468215Y-64590423D01*
X88468214Y-64590423D01*
X88468212Y-64590424D01*
X88468209Y-64590425D01*
X88418096Y-64619359D01*
X88418095Y-64619360D01*
X88380889Y-64640841D01*
X88331285Y-64669479D01*
X88331282Y-64669481D01*
X88219478Y-64781286D01*
X87408530Y-65592233D01*
X87347207Y-65625718D01*
X87288756Y-65624327D01*
X87160413Y-65589938D01*
X87160403Y-65589936D01*
X86925001Y-65569341D01*
X86924999Y-65569341D01*
X86689596Y-65589936D01*
X86689586Y-65589938D01*
X86461344Y-65651094D01*
X86461335Y-65651098D01*
X86247171Y-65750964D01*
X86247169Y-65750965D01*
X86053597Y-65886505D01*
X85886505Y-66053597D01*
X85750965Y-66247169D01*
X85750964Y-66247171D01*
X85651098Y-66461335D01*
X85651094Y-66461344D01*
X85589938Y-66689586D01*
X85589936Y-66689596D01*
X85569341Y-66924999D01*
X83955500Y-66924999D01*
X83955500Y-62274996D01*
X92444435Y-62274996D01*
X92444435Y-62275003D01*
X92464630Y-62454249D01*
X92464631Y-62454254D01*
X92524211Y-62624523D01*
X92620184Y-62777262D01*
X92747738Y-62904816D01*
X92818564Y-62949319D01*
X92898426Y-62999500D01*
X92900478Y-63000789D01*
X93061943Y-63057288D01*
X93070745Y-63060368D01*
X93070750Y-63060369D01*
X93249996Y-63080565D01*
X93250000Y-63080565D01*
X93250004Y-63080565D01*
X93429249Y-63060369D01*
X93429252Y-63060368D01*
X93429255Y-63060368D01*
X93599522Y-63000789D01*
X93659030Y-62963397D01*
X93726263Y-62944397D01*
X93790969Y-62963397D01*
X93850478Y-63000789D01*
X94011943Y-63057288D01*
X94020745Y-63060368D01*
X94020750Y-63060369D01*
X94199996Y-63080565D01*
X94200000Y-63080565D01*
X94200004Y-63080565D01*
X94379249Y-63060369D01*
X94379252Y-63060368D01*
X94379255Y-63060368D01*
X94549522Y-63000789D01*
X94702262Y-62904816D01*
X94702267Y-62904810D01*
X94705097Y-62902555D01*
X94707275Y-62901665D01*
X94708158Y-62901111D01*
X94708255Y-62901265D01*
X94769783Y-62876145D01*
X94782412Y-62875500D01*
X101817588Y-62875500D01*
X101884627Y-62895185D01*
X101894903Y-62902555D01*
X101897736Y-62904814D01*
X101897738Y-62904816D01*
X101968564Y-62949319D01*
X102048426Y-62999500D01*
X102050478Y-63000789D01*
X102211943Y-63057288D01*
X102220745Y-63060368D01*
X102220750Y-63060369D01*
X102399996Y-63080565D01*
X102400000Y-63080565D01*
X102400004Y-63080565D01*
X102579249Y-63060369D01*
X102579252Y-63060368D01*
X102579255Y-63060368D01*
X102749522Y-63000789D01*
X102751574Y-62999500D01*
X102834027Y-62947691D01*
X102901264Y-62928690D01*
X102965973Y-62947691D01*
X103050475Y-63000788D01*
X103220745Y-63060368D01*
X103220750Y-63060369D01*
X103399996Y-63080565D01*
X103400000Y-63080565D01*
X103400004Y-63080565D01*
X103579249Y-63060369D01*
X103579252Y-63060368D01*
X103579255Y-63060368D01*
X103749522Y-63000789D01*
X103902262Y-62904816D01*
X104029816Y-62777262D01*
X104125789Y-62624522D01*
X104185368Y-62454255D01*
X104185369Y-62454249D01*
X104205565Y-62275003D01*
X104205565Y-62274996D01*
X104185369Y-62095750D01*
X104185368Y-62095745D01*
X104125789Y-61925478D01*
X104029816Y-61772738D01*
X103902262Y-61645184D01*
X103899999Y-61643762D01*
X103749523Y-61549211D01*
X103579254Y-61489631D01*
X103579249Y-61489630D01*
X103400004Y-61469435D01*
X103399996Y-61469435D01*
X103220750Y-61489630D01*
X103220737Y-61489633D01*
X103050479Y-61549209D01*
X102965971Y-61602309D01*
X102898734Y-61621309D01*
X102834029Y-61602309D01*
X102749520Y-61549209D01*
X102579262Y-61489633D01*
X102579249Y-61489630D01*
X102400004Y-61469435D01*
X102399996Y-61469435D01*
X102220750Y-61489630D01*
X102220745Y-61489631D01*
X102050476Y-61549211D01*
X101897736Y-61645185D01*
X101894903Y-61647445D01*
X101892724Y-61648334D01*
X101891842Y-61648889D01*
X101891744Y-61648734D01*
X101830217Y-61673855D01*
X101817588Y-61674500D01*
X94782412Y-61674500D01*
X94715373Y-61654815D01*
X94705097Y-61647445D01*
X94702263Y-61645185D01*
X94702262Y-61645184D01*
X94641553Y-61607038D01*
X94549523Y-61549211D01*
X94379254Y-61489631D01*
X94379249Y-61489630D01*
X94200004Y-61469435D01*
X94199996Y-61469435D01*
X94020750Y-61489630D01*
X94020745Y-61489631D01*
X93850474Y-61549212D01*
X93790971Y-61586600D01*
X93723734Y-61605600D01*
X93659029Y-61586600D01*
X93599525Y-61549212D01*
X93429254Y-61489631D01*
X93429249Y-61489630D01*
X93250004Y-61469435D01*
X93249996Y-61469435D01*
X93070750Y-61489630D01*
X93070745Y-61489631D01*
X92900476Y-61549211D01*
X92747737Y-61645184D01*
X92620184Y-61772737D01*
X92524211Y-61925476D01*
X92464631Y-62095745D01*
X92464630Y-62095750D01*
X92444435Y-62274996D01*
X83955500Y-62274996D01*
X83955500Y-60793713D01*
X84249500Y-60793713D01*
X84249500Y-61006286D01*
X84279785Y-61197501D01*
X84282754Y-61216243D01*
X84342454Y-61399981D01*
X84348444Y-61418414D01*
X84444951Y-61607820D01*
X84569890Y-61779786D01*
X84720213Y-61930109D01*
X84892179Y-62055048D01*
X84892181Y-62055049D01*
X84892184Y-62055051D01*
X85081588Y-62151557D01*
X85283757Y-62217246D01*
X85493713Y-62250500D01*
X85493714Y-62250500D01*
X85706286Y-62250500D01*
X85706287Y-62250500D01*
X85916243Y-62217246D01*
X86118412Y-62151557D01*
X86307816Y-62055051D01*
X86329789Y-62039086D01*
X86479786Y-61930109D01*
X86479788Y-61930106D01*
X86479792Y-61930104D01*
X86630104Y-61779792D01*
X86630106Y-61779788D01*
X86630109Y-61779786D01*
X86755048Y-61607820D01*
X86755047Y-61607820D01*
X86755051Y-61607816D01*
X86851557Y-61418412D01*
X86917246Y-61216243D01*
X86950500Y-61006287D01*
X86950500Y-60793713D01*
X86917246Y-60583757D01*
X86851557Y-60381588D01*
X86755051Y-60192184D01*
X86755049Y-60192181D01*
X86755048Y-60192179D01*
X86630109Y-60020213D01*
X86479786Y-59869890D01*
X86307820Y-59744951D01*
X86118414Y-59648444D01*
X86118413Y-59648443D01*
X86118412Y-59648443D01*
X85916243Y-59582754D01*
X85916241Y-59582753D01*
X85916240Y-59582753D01*
X85754957Y-59557208D01*
X85706287Y-59549500D01*
X85493713Y-59549500D01*
X85445042Y-59557208D01*
X85283760Y-59582753D01*
X85081585Y-59648444D01*
X84892179Y-59744951D01*
X84720213Y-59869890D01*
X84569890Y-60020213D01*
X84444951Y-60192179D01*
X84348444Y-60381585D01*
X84282753Y-60583760D01*
X84249500Y-60793713D01*
X83955500Y-60793713D01*
X83955500Y-59324500D01*
X83975185Y-59257461D01*
X84027989Y-59211706D01*
X84079500Y-59200500D01*
X132830500Y-59200500D01*
X132897539Y-59220185D01*
G37*
G04 #@! TD.AperFunction*
G04 #@! TA.AperFunction,Conductor*
G36*
X130024075Y-126132007D02*
G01*
X129990000Y-126259174D01*
X129990000Y-126390826D01*
X130024075Y-126517993D01*
X130056988Y-126575000D01*
X128383012Y-126575000D01*
X128415925Y-126517993D01*
X128450000Y-126390826D01*
X128450000Y-126259174D01*
X128415925Y-126132007D01*
X128383012Y-126075000D01*
X130056988Y-126075000D01*
X130024075Y-126132007D01*
G37*
G04 #@! TD.AperFunction*
M02*
