M48
; DRILL file {KiCad 8.0.8} date 2025-01-30T21:03:48+0100
; FORMAT={-:-/ absolute / metric / decimal}
; #@! TF.CreationDate,2025-01-30T21:03:48+01:00
; #@! TF.GenerationSoftware,Kicad,Pcbnew,8.0.8
; #@! TF.FileFunction,Plated,1,2,PTH
FMAT,2
METRIC
; #@! TA.AperFunction,Plated,PTH,ViaDrill
T1C0.300
; #@! TA.AperFunction,Plated,PTH,ComponentDrill
T2C1.000
; #@! TA.AperFunction,Plated,PTH,ComponentDrill
T3C1.300
%
G90
G05
T1
X85.2Y-74.3
X85.2Y-79.85
X86.225Y-91.875
X86.225Y-113.65
X86.325Y-97.875
X86.325Y-102.3
X86.5Y-120.325
X86.5Y-124.825
X86.525Y-128.05
X86.6Y-86.8
X86.7Y-108.3
X89.375Y-84.025
X89.6Y-74.35
X90.9Y-60.375
X92.425Y-81.8
X93.25Y-62.275
X93.3Y-112.775
X93.425Y-122.225
X94.2Y-62.275
X94.2Y-73.125
X94.375Y-63.55
X94.625Y-111.075
X94.65Y-94.975
X94.65Y-106.375
X94.65Y-114.9
X94.675Y-92.6
X94.7Y-88.875
X94.7Y-99.95
X94.7Y-117.35
X94.725Y-103.6
X95.075Y-60.4
X95.8Y-112.775
X95.85Y-79.6
X95.925Y-84.675
X97.875Y-64.0
X97.975Y-82.975
X98.425Y-79.6
X98.45Y-74.525
X99.2Y-60.35
X100.275Y-123.925
X101.025Y-79.675
X101.15Y-82.225
X101.375Y-66.1
X102.137Y-83.237
X102.4Y-62.275
X102.6Y-69.825
X102.85Y-60.3
X103.275Y-82.1
X103.4Y-62.275
X103.525Y-110.275
X103.65Y-114.775
X103.7Y-69.825
X103.775Y-93.575
X103.775Y-101.4
X103.9Y-120.15
X103.95Y-88.025
X104.65Y-85.05
X104.7Y-64.0
X104.775Y-79.25
X104.8Y-68.175
X104.95Y-74.525
X106.625Y-60.3
X107.4Y-81.25
X107.825Y-71.475
X108.475Y-85.025
X108.875Y-66.65
X108.875Y-68.525
X109.325Y-79.55
X109.55Y-71.425
X109.85Y-81.3
X111.025Y-110.275
X111.075Y-73.475
X111.075Y-74.575
X111.075Y-79.3
X111.075Y-80.4
X111.125Y-118.25
X111.15Y-114.6
X111.425Y-83.875
X111.675Y-60.0
X111.837Y-86.737
X111.875Y-94.875
X111.875Y-101.025
X112.55Y-87.35
X112.6Y-73.1
X112.7Y-85.875
X113.375Y-86.525
X113.6Y-62.3
X114.0Y-63.925
X114.15Y-90.55
X114.475Y-62.3
X114.625Y-75.225
X115.525Y-118.075
X115.85Y-81.925
X116.3Y-73.1
X116.45Y-59.95
X117.057Y-78.483
X117.825Y-77.885
X117.95Y-81.25
X118.175Y-72.975
X118.175Y-73.975
X118.43Y-76.3
X118.725Y-71.425
X118.8Y-68.525
X118.825Y-66.8
X119.65Y-101.3
X119.695Y-81.075
X119.695Y-82.2
X121.0Y-80.275
X121.275Y-68.525
X121.275Y-71.4
X121.825Y-75.625
X122.05Y-81.5
X122.2Y-92.55
X122.2Y-95.075
X122.25Y-89.0
X122.425Y-73.475
X122.5Y-101.425
X123.0Y-80.475
X123.25Y-72.65
X123.875Y-81.3
X124.6Y-64.525
X124.6Y-72.925
X124.685Y-80.485
X124.725Y-82.0
X124.83Y-78.09
X125.325Y-70.8
X125.512Y-81.212
X125.775Y-124.975
X125.8Y-105.775
X126.125Y-68.1
X126.125Y-83.7
X126.25Y-101.325
X126.4Y-61.075
X126.45Y-131.825
X127.75Y-129.7
X128.2Y-92.575
X129.8Y-105.8
X131.2Y-93.275
X131.25Y-87.025
X131.375Y-82.9
X131.5Y-99.85
X131.6Y-108.1
X131.7Y-104.575
X132.425Y-125.05
T2
X86.925Y-66.925
X86.925Y-69.465
X87.1Y-77.075
X89.64Y-77.075
X90.825Y-131.0
X92.17Y-109.08
X92.17Y-120.075
X92.175Y-87.05
X92.175Y-98.05
X92.18Y-77.075
X94.71Y-109.08
X94.71Y-120.075
X94.715Y-87.05
X94.715Y-98.05
X94.72Y-77.075
X95.325Y-131.0
X97.25Y-109.08
X97.25Y-120.075
X97.255Y-87.05
X97.255Y-98.05
X97.26Y-77.075
X99.79Y-109.08
X99.79Y-120.075
X99.795Y-87.05
X99.795Y-98.05
X99.8Y-77.075
X101.85Y-131.0
X102.34Y-77.075
X106.35Y-131.0
X115.495Y-105.81
X115.495Y-108.35
X117.155Y-87.075
X117.155Y-98.1
X118.035Y-105.81
X118.035Y-108.35
X119.695Y-87.075
X119.695Y-98.1
X120.575Y-105.81
X120.575Y-108.35
X122.235Y-87.075
X122.235Y-98.1
X123.115Y-105.81
X123.115Y-108.35
X124.775Y-87.075
X124.775Y-98.1
X127.95Y-64.7
X127.95Y-67.24
X127.95Y-69.78
X127.95Y-72.32
X127.95Y-74.86
X127.95Y-77.4
X127.95Y-79.94
X127.95Y-111.085
X127.95Y-113.625
X127.95Y-116.165
X127.95Y-118.705
X127.95Y-121.245
X127.95Y-123.785
X127.95Y-126.325
X130.49Y-64.7
X130.49Y-67.24
X130.49Y-69.78
X130.49Y-72.32
X130.49Y-74.86
X130.49Y-77.4
X130.49Y-79.94
X130.49Y-111.085
X130.49Y-113.625
X130.49Y-116.165
X130.49Y-118.705
X130.49Y-121.245
X130.49Y-123.785
X130.49Y-126.325
T3
X89.575Y-128.5
X96.575Y-128.5
X100.6Y-128.5
X107.6Y-128.5
M30
