G04 #@! TF.GenerationSoftware,KiCad,Pcbnew,8.0.8*
G04 #@! TF.CreationDate,2025-01-30T21:03:47+01:00*
G04 #@! TF.ProjectId,HAMS_hub,48414d53-5f68-4756-922e-6b696361645f,rev?*
G04 #@! TF.SameCoordinates,Original*
G04 #@! TF.FileFunction,Copper,L2,Bot*
G04 #@! TF.FilePolarity,Positive*
%FSLAX46Y46*%
G04 Gerber Fmt 4.6, Leading zero omitted, Abs format (unit mm)*
G04 Created by KiCad (PCBNEW 8.0.8) date 2025-01-30 21:03:47*
%MOMM*%
%LPD*%
G01*
G04 APERTURE LIST*
G04 #@! TA.AperFunction,ComponentPad*
%ADD10C,1.950000*%
G04 #@! TD*
G04 #@! TA.AperFunction,ComponentPad*
%ADD11C,1.500000*%
G04 #@! TD*
G04 #@! TA.AperFunction,ComponentPad*
%ADD12R,1.500000X1.500000*%
G04 #@! TD*
G04 #@! TA.AperFunction,ComponentPad*
%ADD13R,1.700000X1.700000*%
G04 #@! TD*
G04 #@! TA.AperFunction,ComponentPad*
%ADD14O,1.700000X1.700000*%
G04 #@! TD*
G04 #@! TA.AperFunction,ComponentPad*
%ADD15C,1.700000*%
G04 #@! TD*
G04 #@! TA.AperFunction,ViaPad*
%ADD16C,0.600000*%
G04 #@! TD*
G04 #@! TA.AperFunction,Conductor*
%ADD17C,0.200000*%
G04 #@! TD*
G04 APERTURE END LIST*
D10*
X100600000Y-128500000D03*
X107600000Y-128500000D03*
D11*
X101850000Y-131000000D03*
D12*
X106350000Y-131000000D03*
D13*
X130490000Y-64700000D03*
D14*
X127950000Y-64700000D03*
X130490000Y-67240000D03*
X127950000Y-67240000D03*
X130490000Y-69780000D03*
X127950000Y-69780000D03*
X130490000Y-72320000D03*
X127950000Y-72320000D03*
X130490000Y-74860000D03*
X127950000Y-74860000D03*
X130490000Y-77400000D03*
X127950000Y-77400000D03*
X130490000Y-79940000D03*
X127950000Y-79940000D03*
D10*
X89575000Y-128500000D03*
X96575000Y-128500000D03*
D11*
X90825000Y-131000000D03*
D12*
X95325000Y-131000000D03*
D13*
X124775000Y-87075000D03*
D14*
X122235000Y-87075000D03*
X119695000Y-87075000D03*
X117155000Y-87075000D03*
D13*
X86925000Y-69465000D03*
D14*
X86925000Y-66925000D03*
D13*
X130490000Y-111085000D03*
D14*
X127950000Y-111085000D03*
X130490000Y-113625000D03*
X127950000Y-113625000D03*
X130490000Y-116165000D03*
X127950000Y-116165000D03*
X130490000Y-118705000D03*
X127950000Y-118705000D03*
X130490000Y-121245000D03*
X127950000Y-121245000D03*
X130490000Y-123785000D03*
X127950000Y-123785000D03*
X130490000Y-126325000D03*
X127950000Y-126325000D03*
D13*
X123115000Y-105810000D03*
D15*
X123115000Y-108350000D03*
X120575000Y-105810000D03*
X120575000Y-108350000D03*
X118035000Y-105810000D03*
X118035000Y-108350000D03*
X115495000Y-105810000D03*
X115495000Y-108350000D03*
D13*
X92175000Y-87050000D03*
D14*
X94715000Y-87050000D03*
X97255000Y-87050000D03*
X99795000Y-87050000D03*
D13*
X92170000Y-120075000D03*
D14*
X94710000Y-120075000D03*
X97250000Y-120075000D03*
X99790000Y-120075000D03*
D13*
X124775000Y-98100000D03*
D14*
X122235000Y-98100000D03*
X119695000Y-98100000D03*
X117155000Y-98100000D03*
D13*
X87100000Y-77075000D03*
D14*
X89640000Y-77075000D03*
X92180000Y-77075000D03*
X94720000Y-77075000D03*
X97260000Y-77075000D03*
X99800000Y-77075000D03*
X102340000Y-77075000D03*
D13*
X92170000Y-109080000D03*
D14*
X94710000Y-109080000D03*
X97250000Y-109080000D03*
X99790000Y-109080000D03*
D13*
X92175000Y-98050000D03*
D14*
X94715000Y-98050000D03*
X97255000Y-98050000D03*
X99795000Y-98050000D03*
D16*
X117057500Y-78482500D03*
X118175000Y-72975000D03*
X111075000Y-73475000D03*
X124685000Y-80485000D03*
X125512500Y-81212500D03*
X119695000Y-82200000D03*
X111837500Y-86737500D03*
X112550000Y-87350000D03*
X111075000Y-80400000D03*
X102137500Y-83237500D03*
X95800000Y-112775000D03*
X102600000Y-69825000D03*
X113600000Y-62300000D03*
X102400000Y-62275000D03*
X94200000Y-62275000D03*
X123250000Y-72650000D03*
X122050000Y-81500000D03*
X125800000Y-105775000D03*
X121275000Y-68525000D03*
X117950000Y-81250000D03*
X112700000Y-85875000D03*
X123875000Y-81300000D03*
X103775000Y-101400000D03*
X121275000Y-71400000D03*
X114000000Y-63925000D03*
X89600000Y-74350000D03*
X104700000Y-64000000D03*
X86225000Y-91875000D03*
X121825000Y-75625000D03*
X131375000Y-82900000D03*
X103650000Y-114775000D03*
X122200000Y-92550000D03*
X124830000Y-78090000D03*
X94375000Y-63550000D03*
X94700000Y-99950000D03*
X126125000Y-68100000D03*
X129800000Y-105800000D03*
X92425000Y-81800000D03*
X111025000Y-110275000D03*
X121000000Y-80275000D03*
X122250000Y-89000000D03*
X126125000Y-83700000D03*
X126450000Y-131825000D03*
X101375000Y-66100000D03*
X103775000Y-93575000D03*
X125775000Y-124975000D03*
X95075000Y-60400000D03*
X94725000Y-103600000D03*
X104775000Y-79250000D03*
X109850000Y-81300000D03*
X131700000Y-104575000D03*
X124600000Y-64525000D03*
X114150000Y-90550000D03*
X122500000Y-101425000D03*
X115525000Y-118075000D03*
X108875000Y-66650000D03*
X86325000Y-97875000D03*
X86700000Y-108300000D03*
X97975000Y-82975000D03*
X114625000Y-75225000D03*
X111125000Y-118250000D03*
X86525000Y-128050000D03*
X118430000Y-76300000D03*
X108475000Y-85025000D03*
X111425000Y-83875000D03*
X126250000Y-101325000D03*
X94650000Y-114900000D03*
X95850000Y-79600000D03*
X112600000Y-73100000D03*
X101150000Y-82225000D03*
X131600000Y-108100000D03*
X122200000Y-95075000D03*
X111150000Y-114600000D03*
X106625000Y-60300000D03*
X131200000Y-93275000D03*
X127750000Y-129700000D03*
X86600000Y-86800000D03*
X111875000Y-94875000D03*
X86325000Y-102300000D03*
X86225000Y-113650000D03*
X132425000Y-125050000D03*
X109550000Y-71425000D03*
X107400000Y-81250000D03*
X103900000Y-120150000D03*
X94675000Y-92600000D03*
X111675000Y-60000000D03*
X109325000Y-79550000D03*
X95925000Y-84675000D03*
X94650000Y-94975000D03*
X108875000Y-68525000D03*
X94650000Y-106375000D03*
X119650000Y-101300000D03*
X85200000Y-74300000D03*
X101025000Y-79675000D03*
X111875000Y-101025000D03*
X89375000Y-84025000D03*
X85200000Y-79850000D03*
X118725000Y-71425000D03*
X104800000Y-68175000D03*
X104650000Y-85050000D03*
X98425000Y-79600000D03*
X131500000Y-99850000D03*
X126400000Y-61075000D03*
X102850000Y-60300000D03*
X116300000Y-73100000D03*
X93425000Y-122225000D03*
X90900000Y-60375000D03*
X124600000Y-72925000D03*
X94200000Y-73125000D03*
X99200000Y-60350000D03*
X118825000Y-66800000D03*
X94700000Y-117350000D03*
X118800000Y-68525000D03*
X104950000Y-74525000D03*
X115850000Y-81925000D03*
X100275000Y-123925000D03*
X86500000Y-120325000D03*
X107825000Y-71475000D03*
X97875000Y-64000000D03*
X86500000Y-124825000D03*
X103950000Y-88025000D03*
X125325000Y-70800000D03*
X131250000Y-87025000D03*
X116450000Y-59950000D03*
X128200000Y-92575000D03*
X103525000Y-110275000D03*
X98450000Y-74525000D03*
X94700000Y-88875000D03*
X94625000Y-111075000D03*
X103400000Y-62275000D03*
X93250000Y-62275000D03*
X122425000Y-73475000D03*
X114475000Y-62300000D03*
X123000000Y-80475000D03*
X93300000Y-112775000D03*
X124725000Y-82000000D03*
X113375000Y-86525000D03*
X117825000Y-77885000D03*
X103275000Y-82100000D03*
X103700000Y-69825000D03*
X111075000Y-74575000D03*
X111075000Y-79300000D03*
X119695000Y-81075000D03*
X118175000Y-73975000D03*
D17*
X117655000Y-77885000D02*
X117825000Y-77885000D01*
X113440000Y-82100000D02*
X103275000Y-82100000D01*
X117057500Y-78482500D02*
X113440000Y-82100000D01*
X117057500Y-78482500D02*
X117655000Y-77885000D01*
X118175000Y-72975000D02*
X118175000Y-73975000D01*
X111075000Y-73475000D02*
X111075000Y-74575000D01*
X125512500Y-81212500D02*
X124725000Y-82000000D01*
X124685000Y-80490000D02*
X123875000Y-81300000D01*
X124685000Y-80485000D02*
X124685000Y-80490000D01*
X119695000Y-81075000D02*
X119695000Y-82200000D01*
X112700000Y-85875000D02*
X111837500Y-86737500D01*
X113375000Y-86525000D02*
X112550000Y-87350000D01*
X111075000Y-79300000D02*
X111075000Y-80400000D01*
X103275000Y-82100000D02*
X102137500Y-83237500D01*
X95800000Y-112775000D02*
X120250000Y-112775000D01*
X102600000Y-69825000D02*
X103700000Y-69825000D01*
X113575000Y-62275000D02*
X113600000Y-62300000D01*
X103400000Y-62275000D02*
X113575000Y-62275000D01*
X113600000Y-62300000D02*
X114475000Y-62300000D01*
X102400000Y-62275000D02*
X103400000Y-62275000D01*
X93250000Y-62275000D02*
X94200000Y-62275000D01*
X122050000Y-81425000D02*
X123000000Y-80475000D01*
X122050000Y-81500000D02*
X122050000Y-81425000D01*
X123250000Y-72650000D02*
X122425000Y-73475000D01*
X123115000Y-109910000D02*
X123115000Y-108350000D01*
X120250000Y-112775000D02*
X123115000Y-109910000D01*
X93300000Y-112775000D02*
X95800000Y-112775000D01*
X127905000Y-69825000D02*
X127950000Y-69780000D01*
X103700000Y-69825000D02*
X127905000Y-69825000D01*
X123000000Y-80475000D02*
X123000000Y-74050000D01*
X123000000Y-74050000D02*
X122425000Y-73475000D01*
X119695000Y-79565000D02*
X120675000Y-78585000D01*
X120675000Y-78585000D02*
X120675000Y-75825000D01*
X120675000Y-75825000D02*
X118825000Y-73975000D01*
X119695000Y-81075000D02*
X119695000Y-79565000D01*
X118825000Y-73975000D02*
X118175000Y-73975000D01*
X121750000Y-83425000D02*
X123875000Y-81300000D01*
X115150000Y-83425000D02*
X121750000Y-83425000D01*
X112700000Y-85875000D02*
X115150000Y-83425000D01*
X122475000Y-84250000D02*
X115650000Y-84250000D01*
X124725000Y-82000000D02*
X122475000Y-84250000D01*
X115650000Y-84250000D02*
X113375000Y-86525000D01*
X88160000Y-69465000D02*
X86925000Y-69465000D01*
X93250000Y-62275000D02*
X93250000Y-64375000D01*
X93250000Y-64375000D02*
X88160000Y-69465000D01*
X99800000Y-77325000D02*
X99800000Y-87045000D01*
X99550000Y-77075000D02*
X99800000Y-77325000D01*
X99800000Y-87045000D02*
X99795000Y-87050000D01*
X103275000Y-82100000D02*
X103275000Y-81025000D01*
X103275000Y-81025000D02*
X102340000Y-80090000D01*
X102340000Y-80090000D02*
X102340000Y-77325000D01*
X111075000Y-79300000D02*
X111075000Y-74575000D01*
G04 #@! TA.AperFunction,Conductor*
G36*
X130024075Y-126132007D02*
G01*
X129990000Y-126259174D01*
X129990000Y-126390826D01*
X130024075Y-126517993D01*
X130056988Y-126575000D01*
X128383012Y-126575000D01*
X128415925Y-126517993D01*
X128450000Y-126390826D01*
X128450000Y-126259174D01*
X128415925Y-126132007D01*
X128383012Y-126075000D01*
X130056988Y-126075000D01*
X130024075Y-126132007D01*
G37*
G04 #@! TD.AperFunction*
G04 #@! TA.AperFunction,Conductor*
G36*
X130024075Y-67047007D02*
G01*
X129990000Y-67174174D01*
X129990000Y-67305826D01*
X130024075Y-67432993D01*
X130056988Y-67490000D01*
X128383012Y-67490000D01*
X128415925Y-67432993D01*
X128450000Y-67305826D01*
X128450000Y-67174174D01*
X128415925Y-67047007D01*
X128383012Y-66990000D01*
X130056988Y-66990000D01*
X130024075Y-67047007D01*
G37*
G04 #@! TD.AperFunction*
G04 #@! TA.AperFunction,Conductor*
G36*
X132897539Y-59220185D02*
G01*
X132943294Y-59272989D01*
X132954500Y-59324500D01*
X132954500Y-133075500D01*
X132934815Y-133142539D01*
X132882011Y-133188294D01*
X132830500Y-133199500D01*
X125497829Y-133199500D01*
X125430790Y-133179815D01*
X125385035Y-133127011D01*
X125373829Y-133075742D01*
X125373007Y-132655051D01*
X125370544Y-131393713D01*
X129949500Y-131393713D01*
X129949500Y-131606286D01*
X129981270Y-131806877D01*
X129982754Y-131816243D01*
X130039891Y-131992093D01*
X130048444Y-132018414D01*
X130144951Y-132207820D01*
X130269890Y-132379786D01*
X130420213Y-132530109D01*
X130592179Y-132655048D01*
X130592181Y-132655049D01*
X130592184Y-132655051D01*
X130781588Y-132751557D01*
X130983757Y-132817246D01*
X131193713Y-132850500D01*
X131193714Y-132850500D01*
X131406286Y-132850500D01*
X131406287Y-132850500D01*
X131616243Y-132817246D01*
X131818412Y-132751557D01*
X132007816Y-132655051D01*
X132029789Y-132639086D01*
X132179786Y-132530109D01*
X132179788Y-132530106D01*
X132179792Y-132530104D01*
X132330104Y-132379792D01*
X132330106Y-132379788D01*
X132330109Y-132379786D01*
X132455048Y-132207820D01*
X132455047Y-132207820D01*
X132455051Y-132207816D01*
X132551557Y-132018412D01*
X132617246Y-131816243D01*
X132650500Y-131606287D01*
X132650500Y-131393713D01*
X132617246Y-131183757D01*
X132551557Y-130981588D01*
X132455051Y-130792184D01*
X132455049Y-130792181D01*
X132455048Y-130792179D01*
X132330109Y-130620213D01*
X132179786Y-130469890D01*
X132007820Y-130344951D01*
X131818414Y-130248444D01*
X131818413Y-130248443D01*
X131818412Y-130248443D01*
X131616243Y-130182754D01*
X131616241Y-130182753D01*
X131616240Y-130182753D01*
X131454957Y-130157208D01*
X131406287Y-130149500D01*
X131193713Y-130149500D01*
X131145042Y-130157208D01*
X130983760Y-130182753D01*
X130781585Y-130248444D01*
X130592179Y-130344951D01*
X130420213Y-130469890D01*
X130269890Y-130620213D01*
X130144951Y-130792179D01*
X130048444Y-130981585D01*
X129982753Y-131183760D01*
X129949500Y-131393713D01*
X125370544Y-131393713D01*
X125350000Y-120875000D01*
X109650000Y-120875000D01*
X109673828Y-133075258D01*
X109654274Y-133142336D01*
X109601560Y-133188194D01*
X109549828Y-133199500D01*
X84079500Y-133199500D01*
X84012461Y-133179815D01*
X83966706Y-133127011D01*
X83955500Y-133075500D01*
X83955500Y-131393713D01*
X84249500Y-131393713D01*
X84249500Y-131606286D01*
X84281270Y-131806877D01*
X84282754Y-131816243D01*
X84339891Y-131992093D01*
X84348444Y-132018414D01*
X84444951Y-132207820D01*
X84569890Y-132379786D01*
X84720213Y-132530109D01*
X84892179Y-132655048D01*
X84892181Y-132655049D01*
X84892184Y-132655051D01*
X85081588Y-132751557D01*
X85283757Y-132817246D01*
X85493713Y-132850500D01*
X85493714Y-132850500D01*
X85706286Y-132850500D01*
X85706287Y-132850500D01*
X85916243Y-132817246D01*
X86118412Y-132751557D01*
X86307816Y-132655051D01*
X86329789Y-132639086D01*
X86479786Y-132530109D01*
X86479788Y-132530106D01*
X86479792Y-132530104D01*
X86630104Y-132379792D01*
X86630106Y-132379788D01*
X86630109Y-132379786D01*
X86755048Y-132207820D01*
X86755047Y-132207820D01*
X86755051Y-132207816D01*
X86851557Y-132018412D01*
X86917246Y-131816243D01*
X86950500Y-131606287D01*
X86950500Y-131393713D01*
X86917246Y-131183757D01*
X86851557Y-130981588D01*
X86755051Y-130792184D01*
X86755049Y-130792181D01*
X86755048Y-130792179D01*
X86630109Y-130620213D01*
X86479786Y-130469890D01*
X86307820Y-130344951D01*
X86118414Y-130248444D01*
X86118413Y-130248443D01*
X86118412Y-130248443D01*
X85916243Y-130182754D01*
X85916241Y-130182753D01*
X85916240Y-130182753D01*
X85754957Y-130157208D01*
X85706287Y-130149500D01*
X85493713Y-130149500D01*
X85445042Y-130157208D01*
X85283760Y-130182753D01*
X85081585Y-130248444D01*
X84892179Y-130344951D01*
X84720213Y-130469890D01*
X84569890Y-130620213D01*
X84444951Y-130792179D01*
X84348444Y-130981585D01*
X84282753Y-131183760D01*
X84249500Y-131393713D01*
X83955500Y-131393713D01*
X83955500Y-128499994D01*
X88094945Y-128499994D01*
X88094945Y-128500005D01*
X88115130Y-128743605D01*
X88175138Y-128980573D01*
X88273328Y-129204424D01*
X88369626Y-129351820D01*
X88973958Y-128747488D01*
X88998978Y-128807890D01*
X89070112Y-128914351D01*
X89160649Y-129004888D01*
X89267110Y-129076022D01*
X89327510Y-129101041D01*
X88722757Y-129705793D01*
X88722758Y-129705794D01*
X88765485Y-129739050D01*
X88765485Y-129739051D01*
X88980468Y-129855394D01*
X88980476Y-129855397D01*
X89211664Y-129934765D01*
X89452779Y-129975000D01*
X89697221Y-129975000D01*
X89776706Y-129961736D01*
X89846071Y-129970118D01*
X89899893Y-130014670D01*
X89921084Y-130081249D01*
X89902917Y-130148715D01*
X89884799Y-130171725D01*
X89863401Y-130193123D01*
X89737900Y-130372357D01*
X89737898Y-130372361D01*
X89645426Y-130570668D01*
X89645422Y-130570677D01*
X89588793Y-130782020D01*
X89588793Y-130782023D01*
X89569723Y-131000000D01*
X89585799Y-131183760D01*
X89588793Y-131217975D01*
X89588793Y-131217979D01*
X89645422Y-131429322D01*
X89645424Y-131429326D01*
X89645425Y-131429330D01*
X89662490Y-131465925D01*
X89737897Y-131627638D01*
X89737898Y-131627639D01*
X89863402Y-131806877D01*
X90018123Y-131961598D01*
X90197361Y-132087102D01*
X90395670Y-132179575D01*
X90607023Y-132236207D01*
X90789926Y-132252208D01*
X90824998Y-132255277D01*
X90825000Y-132255277D01*
X90825002Y-132255277D01*
X90853254Y-132252805D01*
X91042977Y-132236207D01*
X91254330Y-132179575D01*
X91452639Y-132087102D01*
X91631877Y-131961598D01*
X91786598Y-131806877D01*
X91912102Y-131627639D01*
X92004575Y-131429330D01*
X92061207Y-131217977D01*
X92080277Y-131000000D01*
X92061207Y-130782023D01*
X92017849Y-130620208D01*
X92004577Y-130570677D01*
X92004576Y-130570676D01*
X92004575Y-130570670D01*
X91912102Y-130372362D01*
X91912100Y-130372359D01*
X91912099Y-130372357D01*
X91792923Y-130202155D01*
X94075000Y-130202155D01*
X94075000Y-130750000D01*
X94891988Y-130750000D01*
X94859075Y-130807007D01*
X94825000Y-130934174D01*
X94825000Y-131065826D01*
X94859075Y-131192993D01*
X94891988Y-131250000D01*
X94075000Y-131250000D01*
X94075000Y-131797844D01*
X94081401Y-131857372D01*
X94081403Y-131857379D01*
X94131645Y-131992086D01*
X94131649Y-131992093D01*
X94217809Y-132107187D01*
X94217812Y-132107190D01*
X94332906Y-132193350D01*
X94332913Y-132193354D01*
X94467620Y-132243596D01*
X94467627Y-132243598D01*
X94527155Y-132249999D01*
X94527172Y-132250000D01*
X95075000Y-132250000D01*
X95075000Y-131433012D01*
X95132007Y-131465925D01*
X95259174Y-131500000D01*
X95390826Y-131500000D01*
X95517993Y-131465925D01*
X95575000Y-131433012D01*
X95575000Y-132250000D01*
X96122828Y-132250000D01*
X96122844Y-132249999D01*
X96182372Y-132243598D01*
X96182379Y-132243596D01*
X96317086Y-132193354D01*
X96317093Y-132193350D01*
X96432187Y-132107190D01*
X96432190Y-132107187D01*
X96518350Y-131992093D01*
X96518354Y-131992086D01*
X96568596Y-131857379D01*
X96568598Y-131857372D01*
X96574999Y-131797844D01*
X96575000Y-131797827D01*
X96575000Y-131250000D01*
X95758012Y-131250000D01*
X95790925Y-131192993D01*
X95825000Y-131065826D01*
X95825000Y-130934174D01*
X95790925Y-130807007D01*
X95758012Y-130750000D01*
X96575000Y-130750000D01*
X96575000Y-130202172D01*
X96574999Y-130202155D01*
X96568598Y-130142627D01*
X96568597Y-130142621D01*
X96568488Y-130142329D01*
X96568470Y-130142086D01*
X96566813Y-130135070D01*
X96567949Y-130134801D01*
X96563507Y-130072637D01*
X96596994Y-130011315D01*
X96658319Y-129977833D01*
X96684672Y-129975000D01*
X96697221Y-129975000D01*
X96938335Y-129934765D01*
X97169523Y-129855397D01*
X97169531Y-129855394D01*
X97384515Y-129739050D01*
X97384516Y-129739048D01*
X97427240Y-129705794D01*
X97427241Y-129705793D01*
X96822488Y-129101041D01*
X96882890Y-129076022D01*
X96989351Y-129004888D01*
X97079888Y-128914351D01*
X97151022Y-128807890D01*
X97176041Y-128747489D01*
X97780372Y-129351820D01*
X97876669Y-129204429D01*
X97974861Y-128980573D01*
X98034869Y-128743605D01*
X98055055Y-128500005D01*
X98055055Y-128499994D01*
X99119945Y-128499994D01*
X99119945Y-128500005D01*
X99140130Y-128743605D01*
X99200138Y-128980573D01*
X99298328Y-129204424D01*
X99394626Y-129351820D01*
X99998958Y-128747488D01*
X100023978Y-128807890D01*
X100095112Y-128914351D01*
X100185649Y-129004888D01*
X100292110Y-129076022D01*
X100352510Y-129101041D01*
X99747757Y-129705793D01*
X99747758Y-129705794D01*
X99790485Y-129739050D01*
X99790485Y-129739051D01*
X100005468Y-129855394D01*
X100005476Y-129855397D01*
X100236664Y-129934765D01*
X100477779Y-129975000D01*
X100722221Y-129975000D01*
X100801706Y-129961736D01*
X100871071Y-129970118D01*
X100924893Y-130014670D01*
X100946084Y-130081249D01*
X100927917Y-130148715D01*
X100909799Y-130171725D01*
X100888401Y-130193123D01*
X100762900Y-130372357D01*
X100762898Y-130372361D01*
X100670426Y-130570668D01*
X100670422Y-130570677D01*
X100613793Y-130782020D01*
X100613793Y-130782023D01*
X100594723Y-131000000D01*
X100610799Y-131183760D01*
X100613793Y-131217975D01*
X100613793Y-131217979D01*
X100670422Y-131429322D01*
X100670424Y-131429326D01*
X100670425Y-131429330D01*
X100687490Y-131465925D01*
X100762897Y-131627638D01*
X100762898Y-131627639D01*
X100888402Y-131806877D01*
X101043123Y-131961598D01*
X101222361Y-132087102D01*
X101420670Y-132179575D01*
X101632023Y-132236207D01*
X101814926Y-132252208D01*
X101849998Y-132255277D01*
X101850000Y-132255277D01*
X101850002Y-132255277D01*
X101878254Y-132252805D01*
X102067977Y-132236207D01*
X102279330Y-132179575D01*
X102477639Y-132087102D01*
X102656877Y-131961598D01*
X102811598Y-131806877D01*
X102937102Y-131627639D01*
X103029575Y-131429330D01*
X103086207Y-131217977D01*
X103105277Y-131000000D01*
X103086207Y-130782023D01*
X103042849Y-130620208D01*
X103029577Y-130570677D01*
X103029576Y-130570676D01*
X103029575Y-130570670D01*
X102937102Y-130372362D01*
X102937100Y-130372359D01*
X102937099Y-130372357D01*
X102817923Y-130202155D01*
X105100000Y-130202155D01*
X105100000Y-130750000D01*
X105916988Y-130750000D01*
X105884075Y-130807007D01*
X105850000Y-130934174D01*
X105850000Y-131065826D01*
X105884075Y-131192993D01*
X105916988Y-131250000D01*
X105100000Y-131250000D01*
X105100000Y-131797844D01*
X105106401Y-131857372D01*
X105106403Y-131857379D01*
X105156645Y-131992086D01*
X105156649Y-131992093D01*
X105242809Y-132107187D01*
X105242812Y-132107190D01*
X105357906Y-132193350D01*
X105357913Y-132193354D01*
X105492620Y-132243596D01*
X105492627Y-132243598D01*
X105552155Y-132249999D01*
X105552172Y-132250000D01*
X106100000Y-132250000D01*
X106100000Y-131433012D01*
X106157007Y-131465925D01*
X106284174Y-131500000D01*
X106415826Y-131500000D01*
X106542993Y-131465925D01*
X106600000Y-131433012D01*
X106600000Y-132250000D01*
X107147828Y-132250000D01*
X107147844Y-132249999D01*
X107207372Y-132243598D01*
X107207379Y-132243596D01*
X107342086Y-132193354D01*
X107342093Y-132193350D01*
X107457187Y-132107190D01*
X107457190Y-132107187D01*
X107543350Y-131992093D01*
X107543354Y-131992086D01*
X107593596Y-131857379D01*
X107593598Y-131857372D01*
X107599999Y-131797844D01*
X107600000Y-131797827D01*
X107600000Y-131250000D01*
X106783012Y-131250000D01*
X106815925Y-131192993D01*
X106850000Y-131065826D01*
X106850000Y-130934174D01*
X106815925Y-130807007D01*
X106783012Y-130750000D01*
X107600000Y-130750000D01*
X107600000Y-130202172D01*
X107599999Y-130202155D01*
X107593598Y-130142627D01*
X107593597Y-130142621D01*
X107593488Y-130142329D01*
X107593470Y-130142086D01*
X107591813Y-130135070D01*
X107592949Y-130134801D01*
X107588507Y-130072637D01*
X107621994Y-130011315D01*
X107683319Y-129977833D01*
X107709672Y-129975000D01*
X107722221Y-129975000D01*
X107963335Y-129934765D01*
X108194523Y-129855397D01*
X108194531Y-129855394D01*
X108409515Y-129739050D01*
X108409516Y-129739048D01*
X108452240Y-129705794D01*
X108452241Y-129705793D01*
X107847488Y-129101041D01*
X107907890Y-129076022D01*
X108014351Y-129004888D01*
X108104888Y-128914351D01*
X108176022Y-128807890D01*
X108201041Y-128747489D01*
X108805372Y-129351820D01*
X108901669Y-129204429D01*
X108999861Y-128980573D01*
X109059869Y-128743605D01*
X109080055Y-128500005D01*
X109080055Y-128499994D01*
X109059869Y-128256394D01*
X108999861Y-128019426D01*
X108901671Y-127795575D01*
X108805372Y-127648178D01*
X108201041Y-128252510D01*
X108176022Y-128192110D01*
X108104888Y-128085649D01*
X108014351Y-127995112D01*
X107907890Y-127923978D01*
X107847487Y-127898957D01*
X108452240Y-127294205D01*
X108452240Y-127294204D01*
X108409514Y-127260949D01*
X108409514Y-127260948D01*
X108194531Y-127144605D01*
X108194523Y-127144602D01*
X107963335Y-127065234D01*
X107722221Y-127025000D01*
X107477779Y-127025000D01*
X107236664Y-127065234D01*
X107005476Y-127144602D01*
X107005468Y-127144605D01*
X106790484Y-127260949D01*
X106790478Y-127260953D01*
X106747758Y-127294203D01*
X106747758Y-127294205D01*
X107352511Y-127898958D01*
X107292110Y-127923978D01*
X107185649Y-127995112D01*
X107095112Y-128085649D01*
X107023978Y-128192110D01*
X106998958Y-128252511D01*
X106394626Y-127648178D01*
X106298329Y-127795572D01*
X106200138Y-128019426D01*
X106140130Y-128256394D01*
X106119945Y-128499994D01*
X106119945Y-128500005D01*
X106140130Y-128743605D01*
X106200138Y-128980573D01*
X106298328Y-129204424D01*
X106394626Y-129351820D01*
X106998958Y-128747488D01*
X107023978Y-128807890D01*
X107095112Y-128914351D01*
X107185649Y-129004888D01*
X107292110Y-129076022D01*
X107352510Y-129101041D01*
X106729551Y-129723999D01*
X106668228Y-129757484D01*
X106635425Y-129755138D01*
X106600000Y-129769811D01*
X106600000Y-130566988D01*
X106542993Y-130534075D01*
X106415826Y-130500000D01*
X106284174Y-130500000D01*
X106157007Y-130534075D01*
X106100000Y-130566988D01*
X106100000Y-129750000D01*
X105552155Y-129750000D01*
X105492627Y-129756401D01*
X105492620Y-129756403D01*
X105357913Y-129806645D01*
X105357906Y-129806649D01*
X105242812Y-129892809D01*
X105242809Y-129892812D01*
X105156649Y-130007906D01*
X105156645Y-130007913D01*
X105106403Y-130142620D01*
X105106401Y-130142627D01*
X105100000Y-130202155D01*
X102817923Y-130202155D01*
X102811599Y-130193124D01*
X102753276Y-130134801D01*
X102656877Y-130038402D01*
X102477639Y-129912898D01*
X102477640Y-129912898D01*
X102477638Y-129912897D01*
X102378484Y-129866661D01*
X102279330Y-129820425D01*
X102279326Y-129820424D01*
X102279322Y-129820422D01*
X102067977Y-129763793D01*
X101850002Y-129744723D01*
X101849998Y-129744723D01*
X101716516Y-129756401D01*
X101632023Y-129763793D01*
X101619648Y-129767108D01*
X101605125Y-129771000D01*
X101535275Y-129769335D01*
X101485353Y-129738905D01*
X100847488Y-129101041D01*
X100907890Y-129076022D01*
X101014351Y-129004888D01*
X101104888Y-128914351D01*
X101176022Y-128807890D01*
X101201041Y-128747488D01*
X101805372Y-129351820D01*
X101901669Y-129204429D01*
X101999861Y-128980573D01*
X102059869Y-128743605D01*
X102080055Y-128500005D01*
X102080055Y-128499994D01*
X102059869Y-128256394D01*
X101999861Y-128019426D01*
X101901671Y-127795575D01*
X101805372Y-127648178D01*
X101201041Y-128252510D01*
X101176022Y-128192110D01*
X101104888Y-128085649D01*
X101014351Y-127995112D01*
X100907890Y-127923978D01*
X100847487Y-127898957D01*
X101452240Y-127294205D01*
X101452240Y-127294204D01*
X101409514Y-127260949D01*
X101409514Y-127260948D01*
X101194531Y-127144605D01*
X101194523Y-127144602D01*
X100963335Y-127065234D01*
X100722221Y-127025000D01*
X100477779Y-127025000D01*
X100236664Y-127065234D01*
X100005476Y-127144602D01*
X100005468Y-127144605D01*
X99790484Y-127260949D01*
X99790478Y-127260953D01*
X99747758Y-127294203D01*
X99747758Y-127294205D01*
X100352511Y-127898958D01*
X100292110Y-127923978D01*
X100185649Y-127995112D01*
X100095112Y-128085649D01*
X100023978Y-128192110D01*
X99998958Y-128252511D01*
X99394626Y-127648178D01*
X99298329Y-127795572D01*
X99200138Y-128019426D01*
X99140130Y-128256394D01*
X99119945Y-128499994D01*
X98055055Y-128499994D01*
X98034869Y-128256394D01*
X97974861Y-128019426D01*
X97876671Y-127795575D01*
X97780372Y-127648178D01*
X97176041Y-128252510D01*
X97151022Y-128192110D01*
X97079888Y-128085649D01*
X96989351Y-127995112D01*
X96882890Y-127923978D01*
X96822487Y-127898957D01*
X97427240Y-127294205D01*
X97427240Y-127294204D01*
X97384514Y-127260949D01*
X97384514Y-127260948D01*
X97169531Y-127144605D01*
X97169523Y-127144602D01*
X96938335Y-127065234D01*
X96697221Y-127025000D01*
X96452779Y-127025000D01*
X96211664Y-127065234D01*
X95980476Y-127144602D01*
X95980468Y-127144605D01*
X95765484Y-127260949D01*
X95765478Y-127260953D01*
X95722758Y-127294203D01*
X95722758Y-127294205D01*
X96327511Y-127898958D01*
X96267110Y-127923978D01*
X96160649Y-127995112D01*
X96070112Y-128085649D01*
X95998978Y-128192110D01*
X95973958Y-128252511D01*
X95369626Y-127648178D01*
X95273329Y-127795572D01*
X95175138Y-128019426D01*
X95115130Y-128256394D01*
X95094945Y-128499994D01*
X95094945Y-128500005D01*
X95115130Y-128743605D01*
X95175138Y-128980573D01*
X95273328Y-129204424D01*
X95369626Y-129351820D01*
X95973958Y-128747488D01*
X95998978Y-128807890D01*
X96070112Y-128914351D01*
X96160649Y-129004888D01*
X96267110Y-129076022D01*
X96327510Y-129101041D01*
X95704551Y-129723999D01*
X95643228Y-129757484D01*
X95610425Y-129755138D01*
X95575000Y-129769811D01*
X95575000Y-130566988D01*
X95517993Y-130534075D01*
X95390826Y-130500000D01*
X95259174Y-130500000D01*
X95132007Y-130534075D01*
X95075000Y-130566988D01*
X95075000Y-129750000D01*
X94527155Y-129750000D01*
X94467627Y-129756401D01*
X94467620Y-129756403D01*
X94332913Y-129806645D01*
X94332906Y-129806649D01*
X94217812Y-129892809D01*
X94217809Y-129892812D01*
X94131649Y-130007906D01*
X94131645Y-130007913D01*
X94081403Y-130142620D01*
X94081401Y-130142627D01*
X94075000Y-130202155D01*
X91792923Y-130202155D01*
X91786599Y-130193124D01*
X91728276Y-130134801D01*
X91631877Y-130038402D01*
X91452639Y-129912898D01*
X91452640Y-129912898D01*
X91452638Y-129912897D01*
X91353484Y-129866661D01*
X91254330Y-129820425D01*
X91254326Y-129820424D01*
X91254322Y-129820422D01*
X91042977Y-129763793D01*
X90825002Y-129744723D01*
X90824998Y-129744723D01*
X90691516Y-129756401D01*
X90607023Y-129763793D01*
X90594648Y-129767108D01*
X90580125Y-129771000D01*
X90510275Y-129769335D01*
X90460353Y-129738905D01*
X89822488Y-129101041D01*
X89882890Y-129076022D01*
X89989351Y-129004888D01*
X90079888Y-128914351D01*
X90151022Y-128807890D01*
X90176041Y-128747488D01*
X90780372Y-129351820D01*
X90876669Y-129204429D01*
X90974861Y-128980573D01*
X91034869Y-128743605D01*
X91055055Y-128500005D01*
X91055055Y-128499994D01*
X91034869Y-128256394D01*
X90974861Y-128019426D01*
X90876671Y-127795575D01*
X90780372Y-127648178D01*
X90176041Y-128252510D01*
X90151022Y-128192110D01*
X90079888Y-128085649D01*
X89989351Y-127995112D01*
X89882890Y-127923978D01*
X89822487Y-127898957D01*
X90427240Y-127294205D01*
X90427240Y-127294204D01*
X90384514Y-127260949D01*
X90384514Y-127260948D01*
X90169531Y-127144605D01*
X90169523Y-127144602D01*
X89938335Y-127065234D01*
X89697221Y-127025000D01*
X89452779Y-127025000D01*
X89211664Y-127065234D01*
X88980476Y-127144602D01*
X88980468Y-127144605D01*
X88765484Y-127260949D01*
X88765478Y-127260953D01*
X88722758Y-127294203D01*
X88722758Y-127294205D01*
X89327511Y-127898958D01*
X89267110Y-127923978D01*
X89160649Y-127995112D01*
X89070112Y-128085649D01*
X88998978Y-128192110D01*
X88973958Y-128252511D01*
X88369626Y-127648178D01*
X88273329Y-127795572D01*
X88175138Y-128019426D01*
X88115130Y-128256394D01*
X88094945Y-128499994D01*
X83955500Y-128499994D01*
X83955500Y-119177135D01*
X90819500Y-119177135D01*
X90819500Y-120972870D01*
X90819501Y-120972876D01*
X90825908Y-121032483D01*
X90876202Y-121167328D01*
X90876206Y-121167335D01*
X90962452Y-121282544D01*
X90962455Y-121282547D01*
X91077664Y-121368793D01*
X91077671Y-121368797D01*
X91212517Y-121419091D01*
X91212516Y-121419091D01*
X91219444Y-121419835D01*
X91272127Y-121425500D01*
X93067872Y-121425499D01*
X93127483Y-121419091D01*
X93262331Y-121368796D01*
X93377546Y-121282546D01*
X93463796Y-121167331D01*
X93513002Y-121035401D01*
X93554872Y-120979468D01*
X93620337Y-120955050D01*
X93688610Y-120969901D01*
X93716865Y-120991053D01*
X93838917Y-121113105D01*
X94032421Y-121248600D01*
X94246507Y-121348429D01*
X94246516Y-121348433D01*
X94460000Y-121405634D01*
X94460000Y-120508012D01*
X94517007Y-120540925D01*
X94644174Y-120575000D01*
X94775826Y-120575000D01*
X94902993Y-120540925D01*
X94960000Y-120508012D01*
X94960000Y-121405633D01*
X95173483Y-121348433D01*
X95173492Y-121348429D01*
X95387578Y-121248600D01*
X95581082Y-121113105D01*
X95748105Y-120946082D01*
X95878119Y-120760405D01*
X95932696Y-120716781D01*
X96002195Y-120709588D01*
X96064549Y-120741110D01*
X96081269Y-120760405D01*
X96211505Y-120946401D01*
X96378599Y-121113495D01*
X96475384Y-121181265D01*
X96572165Y-121249032D01*
X96572167Y-121249033D01*
X96572170Y-121249035D01*
X96786337Y-121348903D01*
X97014592Y-121410063D01*
X97191034Y-121425500D01*
X97249999Y-121430659D01*
X97250000Y-121430659D01*
X97250001Y-121430659D01*
X97308966Y-121425500D01*
X97485408Y-121410063D01*
X97713663Y-121348903D01*
X97927830Y-121249035D01*
X98121401Y-121113495D01*
X98288495Y-120946401D01*
X98418425Y-120760842D01*
X98473002Y-120717217D01*
X98542500Y-120710023D01*
X98604855Y-120741546D01*
X98621575Y-120760842D01*
X98751500Y-120946395D01*
X98751505Y-120946401D01*
X98918599Y-121113495D01*
X99015384Y-121181265D01*
X99112165Y-121249032D01*
X99112167Y-121249033D01*
X99112170Y-121249035D01*
X99326337Y-121348903D01*
X99554592Y-121410063D01*
X99731034Y-121425500D01*
X99789999Y-121430659D01*
X99790000Y-121430659D01*
X99790001Y-121430659D01*
X99848966Y-121425500D01*
X100025408Y-121410063D01*
X100253663Y-121348903D01*
X100467830Y-121249035D01*
X100661401Y-121113495D01*
X100828495Y-120946401D01*
X100964035Y-120752830D01*
X101063903Y-120538663D01*
X101125063Y-120310408D01*
X101145659Y-120075000D01*
X101125063Y-119839592D01*
X101063903Y-119611337D01*
X100964035Y-119397171D01*
X100959604Y-119390842D01*
X100828494Y-119203597D01*
X100661402Y-119036506D01*
X100661395Y-119036501D01*
X100467834Y-118900967D01*
X100467830Y-118900965D01*
X100467828Y-118900964D01*
X100253663Y-118801097D01*
X100253659Y-118801096D01*
X100253655Y-118801094D01*
X100025413Y-118739938D01*
X100025403Y-118739936D01*
X99790001Y-118719341D01*
X99789999Y-118719341D01*
X99554596Y-118739936D01*
X99554586Y-118739938D01*
X99326344Y-118801094D01*
X99326335Y-118801098D01*
X99112171Y-118900964D01*
X99112169Y-118900965D01*
X98918597Y-119036505D01*
X98751505Y-119203597D01*
X98621575Y-119389158D01*
X98566998Y-119432783D01*
X98497500Y-119439977D01*
X98435145Y-119408454D01*
X98418425Y-119389158D01*
X98288494Y-119203597D01*
X98121402Y-119036506D01*
X98121395Y-119036501D01*
X97927834Y-118900967D01*
X97927830Y-118900965D01*
X97927828Y-118900964D01*
X97713663Y-118801097D01*
X97713659Y-118801096D01*
X97713655Y-118801094D01*
X97485413Y-118739938D01*
X97485403Y-118739936D01*
X97250001Y-118719341D01*
X97249999Y-118719341D01*
X97014596Y-118739936D01*
X97014586Y-118739938D01*
X96786344Y-118801094D01*
X96786335Y-118801098D01*
X96572171Y-118900964D01*
X96572169Y-118900965D01*
X96378597Y-119036505D01*
X96211508Y-119203594D01*
X96081269Y-119389595D01*
X96026692Y-119433219D01*
X95957193Y-119440412D01*
X95894839Y-119408890D01*
X95878119Y-119389594D01*
X95748113Y-119203926D01*
X95748108Y-119203920D01*
X95581082Y-119036894D01*
X95387578Y-118901399D01*
X95173492Y-118801570D01*
X95173486Y-118801567D01*
X94960000Y-118744364D01*
X94960000Y-119641988D01*
X94902993Y-119609075D01*
X94775826Y-119575000D01*
X94644174Y-119575000D01*
X94517007Y-119609075D01*
X94460000Y-119641988D01*
X94460000Y-118744364D01*
X94459999Y-118744364D01*
X94246513Y-118801567D01*
X94246507Y-118801570D01*
X94032422Y-118901399D01*
X94032420Y-118901400D01*
X93838926Y-119036886D01*
X93716865Y-119158947D01*
X93655542Y-119192431D01*
X93585850Y-119187447D01*
X93529917Y-119145575D01*
X93513002Y-119114598D01*
X93463797Y-118982671D01*
X93463793Y-118982664D01*
X93377547Y-118867455D01*
X93377544Y-118867452D01*
X93262335Y-118781206D01*
X93262328Y-118781202D01*
X93127482Y-118730908D01*
X93127483Y-118730908D01*
X93067883Y-118724501D01*
X93067881Y-118724500D01*
X93067873Y-118724500D01*
X93067864Y-118724500D01*
X91272129Y-118724500D01*
X91272123Y-118724501D01*
X91212516Y-118730908D01*
X91077671Y-118781202D01*
X91077664Y-118781206D01*
X90962455Y-118867452D01*
X90962452Y-118867455D01*
X90876206Y-118982664D01*
X90876202Y-118982671D01*
X90825908Y-119117517D01*
X90819501Y-119177116D01*
X90819500Y-119177135D01*
X83955500Y-119177135D01*
X83955500Y-112774996D01*
X92494435Y-112774996D01*
X92494435Y-112775003D01*
X92514630Y-112954249D01*
X92514631Y-112954254D01*
X92574211Y-113124523D01*
X92670184Y-113277262D01*
X92797738Y-113404816D01*
X92950478Y-113500789D01*
X93120745Y-113560368D01*
X93120750Y-113560369D01*
X93299996Y-113580565D01*
X93300000Y-113580565D01*
X93300004Y-113580565D01*
X93479249Y-113560369D01*
X93479252Y-113560368D01*
X93479255Y-113560368D01*
X93649522Y-113500789D01*
X93802262Y-113404816D01*
X93802267Y-113404810D01*
X93805097Y-113402555D01*
X93807275Y-113401665D01*
X93808158Y-113401111D01*
X93808255Y-113401265D01*
X93869783Y-113376145D01*
X93882412Y-113375500D01*
X95217588Y-113375500D01*
X95284627Y-113395185D01*
X95294903Y-113402555D01*
X95297736Y-113404814D01*
X95297738Y-113404816D01*
X95450478Y-113500789D01*
X95620745Y-113560368D01*
X95620750Y-113560369D01*
X95799996Y-113580565D01*
X95800000Y-113580565D01*
X95800004Y-113580565D01*
X95979249Y-113560369D01*
X95979252Y-113560368D01*
X95979255Y-113560368D01*
X96149522Y-113500789D01*
X96302262Y-113404816D01*
X96302267Y-113404810D01*
X96305097Y-113402555D01*
X96307275Y-113401665D01*
X96308158Y-113401111D01*
X96308255Y-113401265D01*
X96369783Y-113376145D01*
X96382412Y-113375500D01*
X120163331Y-113375500D01*
X120163347Y-113375501D01*
X120170943Y-113375501D01*
X120329054Y-113375501D01*
X120329057Y-113375501D01*
X120481785Y-113334577D01*
X120531904Y-113305639D01*
X120618716Y-113255520D01*
X120730520Y-113143716D01*
X120730520Y-113143714D01*
X120740728Y-113133507D01*
X120740730Y-113133504D01*
X122789235Y-111084999D01*
X126594341Y-111084999D01*
X126594341Y-111085000D01*
X126614936Y-111320403D01*
X126614938Y-111320413D01*
X126676094Y-111548655D01*
X126676096Y-111548659D01*
X126676097Y-111548663D01*
X126760499Y-111729663D01*
X126775965Y-111762830D01*
X126775967Y-111762834D01*
X126911501Y-111956395D01*
X126911506Y-111956402D01*
X127078597Y-112123493D01*
X127078603Y-112123498D01*
X127264158Y-112253425D01*
X127307783Y-112308002D01*
X127314977Y-112377500D01*
X127283454Y-112439855D01*
X127264158Y-112456575D01*
X127078597Y-112586505D01*
X126911505Y-112753597D01*
X126775965Y-112947169D01*
X126775964Y-112947171D01*
X126676098Y-113161335D01*
X126676094Y-113161344D01*
X126614938Y-113389586D01*
X126614936Y-113389596D01*
X126594341Y-113624999D01*
X126594341Y-113625000D01*
X126614936Y-113860403D01*
X126614938Y-113860413D01*
X126676094Y-114088655D01*
X126676096Y-114088659D01*
X126676097Y-114088663D01*
X126680000Y-114097032D01*
X126775965Y-114302830D01*
X126775967Y-114302834D01*
X126884281Y-114457521D01*
X126911501Y-114496396D01*
X126911506Y-114496402D01*
X127078597Y-114663493D01*
X127078603Y-114663498D01*
X127264158Y-114793425D01*
X127307783Y-114848002D01*
X127314977Y-114917500D01*
X127283454Y-114979855D01*
X127264158Y-114996575D01*
X127078597Y-115126505D01*
X126911505Y-115293597D01*
X126775965Y-115487169D01*
X126775964Y-115487171D01*
X126676098Y-115701335D01*
X126676094Y-115701344D01*
X126614938Y-115929586D01*
X126614936Y-115929596D01*
X126594341Y-116164999D01*
X126594341Y-116165000D01*
X126614936Y-116400403D01*
X126614938Y-116400413D01*
X126676094Y-116628655D01*
X126676096Y-116628659D01*
X126676097Y-116628663D01*
X126680000Y-116637032D01*
X126775965Y-116842830D01*
X126775967Y-116842834D01*
X126884281Y-116997521D01*
X126911501Y-117036396D01*
X126911506Y-117036402D01*
X127078597Y-117203493D01*
X127078603Y-117203498D01*
X127264158Y-117333425D01*
X127307783Y-117388002D01*
X127314977Y-117457500D01*
X127283454Y-117519855D01*
X127264158Y-117536575D01*
X127078597Y-117666505D01*
X126911505Y-117833597D01*
X126775965Y-118027169D01*
X126775964Y-118027171D01*
X126676098Y-118241335D01*
X126676094Y-118241344D01*
X126614938Y-118469586D01*
X126614936Y-118469596D01*
X126594341Y-118704999D01*
X126594341Y-118705000D01*
X126614936Y-118940403D01*
X126614938Y-118940413D01*
X126676094Y-119168655D01*
X126676096Y-119168659D01*
X126676097Y-119168663D01*
X126756004Y-119340023D01*
X126775965Y-119382830D01*
X126775967Y-119382834D01*
X126816284Y-119440412D01*
X126911501Y-119576396D01*
X126911506Y-119576402D01*
X127078597Y-119743493D01*
X127078603Y-119743498D01*
X127264158Y-119873425D01*
X127307783Y-119928002D01*
X127314977Y-119997500D01*
X127283454Y-120059855D01*
X127264158Y-120076575D01*
X127078597Y-120206505D01*
X126911505Y-120373597D01*
X126775965Y-120567169D01*
X126775964Y-120567171D01*
X126676098Y-120781335D01*
X126676094Y-120781344D01*
X126614938Y-121009586D01*
X126614936Y-121009596D01*
X126594341Y-121244999D01*
X126594341Y-121245000D01*
X126614936Y-121480403D01*
X126614938Y-121480413D01*
X126676094Y-121708655D01*
X126676096Y-121708659D01*
X126676097Y-121708663D01*
X126680000Y-121717032D01*
X126775965Y-121922830D01*
X126775967Y-121922834D01*
X126884281Y-122077521D01*
X126911501Y-122116396D01*
X126911506Y-122116402D01*
X127078597Y-122283493D01*
X127078603Y-122283498D01*
X127264158Y-122413425D01*
X127307783Y-122468002D01*
X127314977Y-122537500D01*
X127283454Y-122599855D01*
X127264158Y-122616575D01*
X127078597Y-122746505D01*
X126911505Y-122913597D01*
X126775965Y-123107169D01*
X126775964Y-123107171D01*
X126676098Y-123321335D01*
X126676094Y-123321344D01*
X126614938Y-123549586D01*
X126614936Y-123549596D01*
X126594341Y-123784999D01*
X126594341Y-123785000D01*
X126614936Y-124020403D01*
X126614938Y-124020413D01*
X126676094Y-124248655D01*
X126676096Y-124248659D01*
X126676097Y-124248663D01*
X126680000Y-124257032D01*
X126775965Y-124462830D01*
X126775967Y-124462834D01*
X126884281Y-124617521D01*
X126911501Y-124656396D01*
X126911506Y-124656402D01*
X127078597Y-124823493D01*
X127078603Y-124823498D01*
X127264594Y-124953730D01*
X127308219Y-125008307D01*
X127315413Y-125077805D01*
X127283890Y-125140160D01*
X127264595Y-125156880D01*
X127078922Y-125286890D01*
X127078920Y-125286891D01*
X126911891Y-125453920D01*
X126911886Y-125453926D01*
X126776400Y-125647420D01*
X126776399Y-125647422D01*
X126676570Y-125861507D01*
X126676567Y-125861513D01*
X126619364Y-126074999D01*
X126619364Y-126075000D01*
X127516988Y-126075000D01*
X127484075Y-126132007D01*
X127450000Y-126259174D01*
X127450000Y-126390826D01*
X127484075Y-126517993D01*
X127516988Y-126575000D01*
X126619364Y-126575000D01*
X126676567Y-126788486D01*
X126676570Y-126788492D01*
X126776399Y-127002578D01*
X126911894Y-127196082D01*
X127078917Y-127363105D01*
X127272421Y-127498600D01*
X127486507Y-127598429D01*
X127486516Y-127598433D01*
X127700000Y-127655634D01*
X127700000Y-126758012D01*
X127757007Y-126790925D01*
X127884174Y-126825000D01*
X128015826Y-126825000D01*
X128142993Y-126790925D01*
X128200000Y-126758012D01*
X128200000Y-127655633D01*
X128413483Y-127598433D01*
X128413492Y-127598429D01*
X128627578Y-127498600D01*
X128821082Y-127363105D01*
X128988105Y-127196082D01*
X129118425Y-127009968D01*
X129173002Y-126966344D01*
X129242501Y-126959151D01*
X129304855Y-126990673D01*
X129321575Y-127009968D01*
X129451894Y-127196082D01*
X129618917Y-127363105D01*
X129812421Y-127498600D01*
X130026507Y-127598429D01*
X130026516Y-127598433D01*
X130240000Y-127655634D01*
X130240000Y-126758012D01*
X130297007Y-126790925D01*
X130424174Y-126825000D01*
X130555826Y-126825000D01*
X130682993Y-126790925D01*
X130740000Y-126758012D01*
X130740000Y-127655633D01*
X130953483Y-127598433D01*
X130953492Y-127598429D01*
X131167578Y-127498600D01*
X131361082Y-127363105D01*
X131528105Y-127196082D01*
X131663600Y-127002578D01*
X131763429Y-126788492D01*
X131763432Y-126788486D01*
X131820636Y-126575000D01*
X130923012Y-126575000D01*
X130955925Y-126517993D01*
X130990000Y-126390826D01*
X130990000Y-126259174D01*
X130955925Y-126132007D01*
X130923012Y-126075000D01*
X131820636Y-126075000D01*
X131820635Y-126074999D01*
X131763432Y-125861513D01*
X131763429Y-125861507D01*
X131663600Y-125647422D01*
X131663599Y-125647420D01*
X131528113Y-125453926D01*
X131528108Y-125453920D01*
X131361078Y-125286890D01*
X131175405Y-125156879D01*
X131131780Y-125102302D01*
X131124588Y-125032804D01*
X131156110Y-124970449D01*
X131175406Y-124953730D01*
X131361401Y-124823495D01*
X131528495Y-124656401D01*
X131664035Y-124462830D01*
X131763903Y-124248663D01*
X131825063Y-124020408D01*
X131845659Y-123785000D01*
X131825063Y-123549592D01*
X131763903Y-123321337D01*
X131664035Y-123107171D01*
X131658425Y-123099158D01*
X131528494Y-122913597D01*
X131361402Y-122746506D01*
X131361396Y-122746501D01*
X131175842Y-122616575D01*
X131132217Y-122561998D01*
X131125023Y-122492500D01*
X131156546Y-122430145D01*
X131175842Y-122413425D01*
X131198026Y-122397891D01*
X131361401Y-122283495D01*
X131528495Y-122116401D01*
X131664035Y-121922830D01*
X131763903Y-121708663D01*
X131825063Y-121480408D01*
X131845659Y-121245000D01*
X131825063Y-121009592D01*
X131763903Y-120781337D01*
X131664035Y-120567171D01*
X131658425Y-120559158D01*
X131528494Y-120373597D01*
X131361402Y-120206506D01*
X131361396Y-120206501D01*
X131175842Y-120076575D01*
X131132217Y-120021998D01*
X131125023Y-119952500D01*
X131156546Y-119890145D01*
X131175842Y-119873425D01*
X131326414Y-119767993D01*
X131361401Y-119743495D01*
X131528495Y-119576401D01*
X131664035Y-119382830D01*
X131763903Y-119168663D01*
X131825063Y-118940408D01*
X131845659Y-118705000D01*
X131825063Y-118469592D01*
X131763903Y-118241337D01*
X131664035Y-118027171D01*
X131658425Y-118019158D01*
X131528494Y-117833597D01*
X131361402Y-117666506D01*
X131361396Y-117666501D01*
X131175842Y-117536575D01*
X131132217Y-117481998D01*
X131125023Y-117412500D01*
X131156546Y-117350145D01*
X131175842Y-117333425D01*
X131198026Y-117317891D01*
X131361401Y-117203495D01*
X131528495Y-117036401D01*
X131664035Y-116842830D01*
X131763903Y-116628663D01*
X131825063Y-116400408D01*
X131845659Y-116165000D01*
X131825063Y-115929592D01*
X131763903Y-115701337D01*
X131664035Y-115487171D01*
X131658425Y-115479158D01*
X131528494Y-115293597D01*
X131361402Y-115126506D01*
X131361396Y-115126501D01*
X131175842Y-114996575D01*
X131132217Y-114941998D01*
X131125023Y-114872500D01*
X131156546Y-114810145D01*
X131175842Y-114793425D01*
X131198026Y-114777891D01*
X131361401Y-114663495D01*
X131528495Y-114496401D01*
X131664035Y-114302830D01*
X131763903Y-114088663D01*
X131825063Y-113860408D01*
X131845659Y-113625000D01*
X131825063Y-113389592D01*
X131763903Y-113161337D01*
X131664035Y-112947171D01*
X131658424Y-112939158D01*
X131528496Y-112753600D01*
X131528493Y-112753597D01*
X131406567Y-112631671D01*
X131373084Y-112570351D01*
X131378068Y-112500659D01*
X131419939Y-112444725D01*
X131450915Y-112427810D01*
X131582331Y-112378796D01*
X131697546Y-112292546D01*
X131783796Y-112177331D01*
X131834091Y-112042483D01*
X131840500Y-111982873D01*
X131840499Y-110187128D01*
X131834091Y-110127517D01*
X131832810Y-110124083D01*
X131783797Y-109992671D01*
X131783793Y-109992664D01*
X131697547Y-109877455D01*
X131697544Y-109877452D01*
X131582335Y-109791206D01*
X131582328Y-109791202D01*
X131447482Y-109740908D01*
X131447483Y-109740908D01*
X131387883Y-109734501D01*
X131387881Y-109734500D01*
X131387873Y-109734500D01*
X131387864Y-109734500D01*
X129592129Y-109734500D01*
X129592123Y-109734501D01*
X129532516Y-109740908D01*
X129397671Y-109791202D01*
X129397664Y-109791206D01*
X129282455Y-109877452D01*
X129282452Y-109877455D01*
X129196206Y-109992664D01*
X129196203Y-109992669D01*
X129147189Y-110124083D01*
X129105317Y-110180016D01*
X129039853Y-110204433D01*
X128971580Y-110189581D01*
X128943326Y-110168430D01*
X128821402Y-110046506D01*
X128821395Y-110046501D01*
X128627834Y-109910967D01*
X128627830Y-109910965D01*
X128627828Y-109910964D01*
X128413663Y-109811097D01*
X128413659Y-109811096D01*
X128413655Y-109811094D01*
X128185413Y-109749938D01*
X128185403Y-109749936D01*
X127950001Y-109729341D01*
X127949999Y-109729341D01*
X127714596Y-109749936D01*
X127714586Y-109749938D01*
X127486344Y-109811094D01*
X127486335Y-109811098D01*
X127272171Y-109910964D01*
X127272169Y-109910965D01*
X127078597Y-110046505D01*
X126911505Y-110213597D01*
X126775965Y-110407169D01*
X126775964Y-110407171D01*
X126676098Y-110621335D01*
X126676094Y-110621344D01*
X126614938Y-110849586D01*
X126614936Y-110849596D01*
X126594341Y-111084999D01*
X122789235Y-111084999D01*
X123473506Y-110400728D01*
X123473511Y-110400724D01*
X123483714Y-110390520D01*
X123483716Y-110390520D01*
X123595520Y-110278716D01*
X123648398Y-110187128D01*
X123659194Y-110168430D01*
X123674574Y-110141790D01*
X123674575Y-110141789D01*
X123674575Y-110141787D01*
X123674577Y-110141785D01*
X123715501Y-109989057D01*
X123715501Y-109830943D01*
X123715501Y-109823348D01*
X123715500Y-109823330D01*
X123715500Y-109639090D01*
X123735185Y-109572051D01*
X123787101Y-109526706D01*
X123792830Y-109524035D01*
X123986401Y-109388495D01*
X124153495Y-109221401D01*
X124289035Y-109027830D01*
X124388903Y-108813663D01*
X124450063Y-108585408D01*
X124470659Y-108350000D01*
X124450063Y-108114592D01*
X124388903Y-107886337D01*
X124289035Y-107672171D01*
X124283424Y-107664158D01*
X124153496Y-107478600D01*
X124153493Y-107478597D01*
X124031179Y-107356283D01*
X123997696Y-107294963D01*
X124002680Y-107225271D01*
X124044551Y-107169337D01*
X124075529Y-107152422D01*
X124207086Y-107103354D01*
X124207093Y-107103350D01*
X124322187Y-107017190D01*
X124322190Y-107017187D01*
X124408350Y-106902093D01*
X124408354Y-106902086D01*
X124458596Y-106767379D01*
X124458598Y-106767372D01*
X124464999Y-106707844D01*
X124465000Y-106707827D01*
X124465000Y-106060000D01*
X123548012Y-106060000D01*
X123580925Y-106002993D01*
X123615000Y-105875826D01*
X123615000Y-105744174D01*
X123580925Y-105617007D01*
X123548012Y-105560000D01*
X124465000Y-105560000D01*
X124465000Y-104912172D01*
X124464999Y-104912155D01*
X124458598Y-104852627D01*
X124458596Y-104852620D01*
X124408354Y-104717913D01*
X124408350Y-104717906D01*
X124322190Y-104602812D01*
X124322187Y-104602809D01*
X124207093Y-104516649D01*
X124207086Y-104516645D01*
X124072379Y-104466403D01*
X124072372Y-104466401D01*
X124012844Y-104460000D01*
X123365000Y-104460000D01*
X123365000Y-105376988D01*
X123307993Y-105344075D01*
X123180826Y-105310000D01*
X123049174Y-105310000D01*
X122922007Y-105344075D01*
X122865000Y-105376988D01*
X122865000Y-104460000D01*
X122217155Y-104460000D01*
X122157627Y-104466401D01*
X122157620Y-104466403D01*
X122022913Y-104516645D01*
X122022906Y-104516649D01*
X121907812Y-104602809D01*
X121907809Y-104602812D01*
X121821649Y-104717906D01*
X121821645Y-104717913D01*
X121772578Y-104849470D01*
X121730707Y-104905404D01*
X121665242Y-104929821D01*
X121596969Y-104914969D01*
X121568715Y-104893819D01*
X121524366Y-104849470D01*
X121446401Y-104771505D01*
X121446397Y-104771502D01*
X121446396Y-104771501D01*
X121252834Y-104635967D01*
X121252830Y-104635965D01*
X121181727Y-104602809D01*
X121038663Y-104536097D01*
X121038659Y-104536096D01*
X121038655Y-104536094D01*
X120810413Y-104474938D01*
X120810403Y-104474936D01*
X120575001Y-104454341D01*
X120574999Y-104454341D01*
X120339596Y-104474936D01*
X120339586Y-104474938D01*
X120111344Y-104536094D01*
X120111335Y-104536098D01*
X119897171Y-104635964D01*
X119897169Y-104635965D01*
X119703597Y-104771505D01*
X119536505Y-104938597D01*
X119406575Y-105124158D01*
X119351998Y-105167783D01*
X119282500Y-105174977D01*
X119220145Y-105143454D01*
X119203425Y-105124158D01*
X119073494Y-104938597D01*
X118906402Y-104771506D01*
X118906395Y-104771501D01*
X118712834Y-104635967D01*
X118712830Y-104635965D01*
X118641727Y-104602809D01*
X118498663Y-104536097D01*
X118498659Y-104536096D01*
X118498655Y-104536094D01*
X118270413Y-104474938D01*
X118270403Y-104474936D01*
X118035001Y-104454341D01*
X118034999Y-104454341D01*
X117799596Y-104474936D01*
X117799586Y-104474938D01*
X117571344Y-104536094D01*
X117571335Y-104536098D01*
X117357171Y-104635964D01*
X117357169Y-104635965D01*
X117163597Y-104771505D01*
X116996505Y-104938597D01*
X116866575Y-105124158D01*
X116811998Y-105167783D01*
X116742500Y-105174977D01*
X116680145Y-105143454D01*
X116663425Y-105124158D01*
X116533494Y-104938597D01*
X116366402Y-104771506D01*
X116366395Y-104771501D01*
X116172834Y-104635967D01*
X116172830Y-104635965D01*
X116101727Y-104602809D01*
X115958663Y-104536097D01*
X115958659Y-104536096D01*
X115958655Y-104536094D01*
X115730413Y-104474938D01*
X115730403Y-104474936D01*
X115495001Y-104454341D01*
X115494999Y-104454341D01*
X115259596Y-104474936D01*
X115259586Y-104474938D01*
X115031344Y-104536094D01*
X115031335Y-104536098D01*
X114817171Y-104635964D01*
X114817169Y-104635965D01*
X114623597Y-104771505D01*
X114456505Y-104938597D01*
X114320965Y-105132169D01*
X114320964Y-105132171D01*
X114221098Y-105346335D01*
X114221094Y-105346344D01*
X114159938Y-105574586D01*
X114159936Y-105574596D01*
X114139341Y-105809999D01*
X114139341Y-105810000D01*
X114159936Y-106045403D01*
X114159938Y-106045413D01*
X114221094Y-106273655D01*
X114221096Y-106273659D01*
X114221097Y-106273663D01*
X114301004Y-106445023D01*
X114320965Y-106487830D01*
X114320967Y-106487834D01*
X114429281Y-106642521D01*
X114456501Y-106681396D01*
X114456506Y-106681402D01*
X114623597Y-106848493D01*
X114623603Y-106848498D01*
X114809158Y-106978425D01*
X114852783Y-107033002D01*
X114859977Y-107102500D01*
X114828454Y-107164855D01*
X114809158Y-107181575D01*
X114623597Y-107311505D01*
X114456505Y-107478597D01*
X114320965Y-107672169D01*
X114320964Y-107672171D01*
X114221098Y-107886335D01*
X114221094Y-107886344D01*
X114159938Y-108114586D01*
X114159936Y-108114596D01*
X114139341Y-108349999D01*
X114139341Y-108350000D01*
X114159936Y-108585403D01*
X114159938Y-108585413D01*
X114221094Y-108813655D01*
X114221096Y-108813659D01*
X114221097Y-108813663D01*
X114255298Y-108887007D01*
X114320965Y-109027830D01*
X114320967Y-109027834D01*
X114403587Y-109145826D01*
X114456505Y-109221401D01*
X114623599Y-109388495D01*
X114720384Y-109456265D01*
X114817165Y-109524032D01*
X114817167Y-109524033D01*
X114817170Y-109524035D01*
X115031337Y-109623903D01*
X115259592Y-109685063D01*
X115447918Y-109701539D01*
X115494999Y-109705659D01*
X115495000Y-109705659D01*
X115495001Y-109705659D01*
X115534234Y-109702226D01*
X115730408Y-109685063D01*
X115958663Y-109623903D01*
X116172830Y-109524035D01*
X116366401Y-109388495D01*
X116533495Y-109221401D01*
X116663425Y-109035842D01*
X116718002Y-108992217D01*
X116787500Y-108985023D01*
X116849855Y-109016546D01*
X116866575Y-109035842D01*
X116996500Y-109221395D01*
X116996505Y-109221401D01*
X117163599Y-109388495D01*
X117260384Y-109456265D01*
X117357165Y-109524032D01*
X117357167Y-109524033D01*
X117357170Y-109524035D01*
X117571337Y-109623903D01*
X117799592Y-109685063D01*
X117987918Y-109701539D01*
X118034999Y-109705659D01*
X118035000Y-109705659D01*
X118035001Y-109705659D01*
X118074234Y-109702226D01*
X118270408Y-109685063D01*
X118498663Y-109623903D01*
X118712830Y-109524035D01*
X118906401Y-109388495D01*
X119073495Y-109221401D01*
X119203425Y-109035842D01*
X119258002Y-108992217D01*
X119327500Y-108985023D01*
X119389855Y-109016546D01*
X119406575Y-109035842D01*
X119536500Y-109221395D01*
X119536505Y-109221401D01*
X119703599Y-109388495D01*
X119800384Y-109456265D01*
X119897165Y-109524032D01*
X119897167Y-109524033D01*
X119897170Y-109524035D01*
X120111337Y-109623903D01*
X120339592Y-109685063D01*
X120527918Y-109701539D01*
X120574999Y-109705659D01*
X120575000Y-109705659D01*
X120575001Y-109705659D01*
X120614234Y-109702226D01*
X120810408Y-109685063D01*
X121038663Y-109623903D01*
X121252830Y-109524035D01*
X121446401Y-109388495D01*
X121613495Y-109221401D01*
X121743425Y-109035842D01*
X121798002Y-108992217D01*
X121867500Y-108985023D01*
X121929855Y-109016546D01*
X121946575Y-109035842D01*
X122076500Y-109221395D01*
X122076505Y-109221401D01*
X122243599Y-109388495D01*
X122371132Y-109477794D01*
X122441604Y-109527140D01*
X122440223Y-109529110D01*
X122481424Y-109572263D01*
X122494692Y-109640861D01*
X122468767Y-109705743D01*
X122458927Y-109716837D01*
X120037584Y-112138181D01*
X119976261Y-112171666D01*
X119949903Y-112174500D01*
X96382412Y-112174500D01*
X96315373Y-112154815D01*
X96305097Y-112147445D01*
X96302263Y-112145185D01*
X96302262Y-112145184D01*
X96245496Y-112109515D01*
X96149523Y-112049211D01*
X95979254Y-111989631D01*
X95979249Y-111989630D01*
X95800004Y-111969435D01*
X95799996Y-111969435D01*
X95620750Y-111989630D01*
X95620745Y-111989631D01*
X95450476Y-112049211D01*
X95297736Y-112145185D01*
X95294903Y-112147445D01*
X95292724Y-112148334D01*
X95291842Y-112148889D01*
X95291744Y-112148734D01*
X95230217Y-112173855D01*
X95217588Y-112174500D01*
X93882412Y-112174500D01*
X93815373Y-112154815D01*
X93805097Y-112147445D01*
X93802263Y-112145185D01*
X93802262Y-112145184D01*
X93745496Y-112109515D01*
X93649523Y-112049211D01*
X93479254Y-111989631D01*
X93479249Y-111989630D01*
X93300004Y-111969435D01*
X93299996Y-111969435D01*
X93120750Y-111989630D01*
X93120745Y-111989631D01*
X92950476Y-112049211D01*
X92797737Y-112145184D01*
X92670184Y-112272737D01*
X92574211Y-112425476D01*
X92514631Y-112595745D01*
X92514630Y-112595750D01*
X92494435Y-112774996D01*
X83955500Y-112774996D01*
X83955500Y-108182135D01*
X90819500Y-108182135D01*
X90819500Y-109977870D01*
X90819501Y-109977876D01*
X90825908Y-110037483D01*
X90876202Y-110172328D01*
X90876206Y-110172335D01*
X90962452Y-110287544D01*
X90962455Y-110287547D01*
X91077664Y-110373793D01*
X91077671Y-110373797D01*
X91212517Y-110424091D01*
X91212516Y-110424091D01*
X91219444Y-110424835D01*
X91272127Y-110430500D01*
X93067872Y-110430499D01*
X93127483Y-110424091D01*
X93262331Y-110373796D01*
X93377546Y-110287546D01*
X93463796Y-110172331D01*
X93513002Y-110040401D01*
X93554872Y-109984468D01*
X93620337Y-109960050D01*
X93688610Y-109974901D01*
X93716865Y-109996053D01*
X93838917Y-110118105D01*
X94032421Y-110253600D01*
X94246507Y-110353429D01*
X94246516Y-110353433D01*
X94460000Y-110410634D01*
X94460000Y-109513012D01*
X94517007Y-109545925D01*
X94644174Y-109580000D01*
X94775826Y-109580000D01*
X94902993Y-109545925D01*
X94960000Y-109513012D01*
X94960000Y-110410633D01*
X95173483Y-110353433D01*
X95173492Y-110353429D01*
X95387578Y-110253600D01*
X95581082Y-110118105D01*
X95748105Y-109951082D01*
X95878119Y-109765405D01*
X95932696Y-109721781D01*
X96002195Y-109714588D01*
X96064549Y-109746110D01*
X96081269Y-109765405D01*
X96211505Y-109951401D01*
X96378599Y-110118495D01*
X96466460Y-110180016D01*
X96572165Y-110254032D01*
X96572167Y-110254033D01*
X96572170Y-110254035D01*
X96786337Y-110353903D01*
X97014592Y-110415063D01*
X97191034Y-110430500D01*
X97249999Y-110435659D01*
X97250000Y-110435659D01*
X97250001Y-110435659D01*
X97308966Y-110430500D01*
X97485408Y-110415063D01*
X97713663Y-110353903D01*
X97927830Y-110254035D01*
X98121401Y-110118495D01*
X98288495Y-109951401D01*
X98418425Y-109765842D01*
X98473002Y-109722217D01*
X98542500Y-109715023D01*
X98604855Y-109746546D01*
X98621575Y-109765842D01*
X98751500Y-109951395D01*
X98751505Y-109951401D01*
X98918599Y-110118495D01*
X99006460Y-110180016D01*
X99112165Y-110254032D01*
X99112167Y-110254033D01*
X99112170Y-110254035D01*
X99326337Y-110353903D01*
X99554592Y-110415063D01*
X99731034Y-110430500D01*
X99789999Y-110435659D01*
X99790000Y-110435659D01*
X99790001Y-110435659D01*
X99848966Y-110430500D01*
X100025408Y-110415063D01*
X100253663Y-110353903D01*
X100467830Y-110254035D01*
X100661401Y-110118495D01*
X100828495Y-109951401D01*
X100964035Y-109757830D01*
X101063903Y-109543663D01*
X101125063Y-109315408D01*
X101145659Y-109080000D01*
X101125063Y-108844592D01*
X101063903Y-108616337D01*
X100964035Y-108402171D01*
X100958731Y-108394595D01*
X100828494Y-108208597D01*
X100661402Y-108041506D01*
X100661395Y-108041501D01*
X100467834Y-107905967D01*
X100467830Y-107905965D01*
X100407788Y-107877967D01*
X100253663Y-107806097D01*
X100253659Y-107806096D01*
X100253655Y-107806094D01*
X100025413Y-107744938D01*
X100025403Y-107744936D01*
X99790001Y-107724341D01*
X99789999Y-107724341D01*
X99554596Y-107744936D01*
X99554586Y-107744938D01*
X99326344Y-107806094D01*
X99326335Y-107806098D01*
X99112171Y-107905964D01*
X99112169Y-107905965D01*
X98918597Y-108041505D01*
X98751505Y-108208597D01*
X98621575Y-108394158D01*
X98566998Y-108437783D01*
X98497500Y-108444977D01*
X98435145Y-108413454D01*
X98418425Y-108394158D01*
X98288494Y-108208597D01*
X98121402Y-108041506D01*
X98121395Y-108041501D01*
X97927834Y-107905967D01*
X97927830Y-107905965D01*
X97867788Y-107877967D01*
X97713663Y-107806097D01*
X97713659Y-107806096D01*
X97713655Y-107806094D01*
X97485413Y-107744938D01*
X97485403Y-107744936D01*
X97250001Y-107724341D01*
X97249999Y-107724341D01*
X97014596Y-107744936D01*
X97014586Y-107744938D01*
X96786344Y-107806094D01*
X96786335Y-107806098D01*
X96572171Y-107905964D01*
X96572169Y-107905965D01*
X96378597Y-108041505D01*
X96211508Y-108208594D01*
X96081269Y-108394595D01*
X96026692Y-108438219D01*
X95957193Y-108445412D01*
X95894839Y-108413890D01*
X95878119Y-108394594D01*
X95748113Y-108208926D01*
X95748108Y-108208920D01*
X95581082Y-108041894D01*
X95387578Y-107906399D01*
X95173492Y-107806570D01*
X95173486Y-107806567D01*
X94960000Y-107749364D01*
X94960000Y-108646988D01*
X94902993Y-108614075D01*
X94775826Y-108580000D01*
X94644174Y-108580000D01*
X94517007Y-108614075D01*
X94460000Y-108646988D01*
X94460000Y-107749364D01*
X94459999Y-107749364D01*
X94246513Y-107806567D01*
X94246507Y-107806570D01*
X94032422Y-107906399D01*
X94032420Y-107906400D01*
X93838926Y-108041886D01*
X93716865Y-108163947D01*
X93655542Y-108197431D01*
X93585850Y-108192447D01*
X93529917Y-108150575D01*
X93513002Y-108119598D01*
X93511136Y-108114596D01*
X93463796Y-107987669D01*
X93463795Y-107987668D01*
X93463793Y-107987664D01*
X93377547Y-107872455D01*
X93377544Y-107872452D01*
X93262335Y-107786206D01*
X93262328Y-107786202D01*
X93127482Y-107735908D01*
X93127483Y-107735908D01*
X93067883Y-107729501D01*
X93067881Y-107729500D01*
X93067873Y-107729500D01*
X93067864Y-107729500D01*
X91272129Y-107729500D01*
X91272123Y-107729501D01*
X91212516Y-107735908D01*
X91077671Y-107786202D01*
X91077664Y-107786206D01*
X90962455Y-107872452D01*
X90962452Y-107872455D01*
X90876206Y-107987664D01*
X90876202Y-107987671D01*
X90825908Y-108122517D01*
X90819501Y-108182116D01*
X90819500Y-108182135D01*
X83955500Y-108182135D01*
X83955500Y-97152135D01*
X90824500Y-97152135D01*
X90824500Y-98947870D01*
X90824501Y-98947876D01*
X90830908Y-99007483D01*
X90881202Y-99142328D01*
X90881206Y-99142335D01*
X90967452Y-99257544D01*
X90967455Y-99257547D01*
X91082664Y-99343793D01*
X91082671Y-99343797D01*
X91217517Y-99394091D01*
X91217516Y-99394091D01*
X91224444Y-99394835D01*
X91277127Y-99400500D01*
X93072872Y-99400499D01*
X93132483Y-99394091D01*
X93267331Y-99343796D01*
X93382546Y-99257546D01*
X93468796Y-99142331D01*
X93468797Y-99142327D01*
X93468800Y-99142323D01*
X93510908Y-99029423D01*
X93518002Y-99010401D01*
X93559872Y-98954468D01*
X93625337Y-98930050D01*
X93693610Y-98944901D01*
X93721865Y-98966053D01*
X93843917Y-99088105D01*
X94037421Y-99223600D01*
X94251507Y-99323429D01*
X94251516Y-99323433D01*
X94465000Y-99380634D01*
X94465000Y-98483012D01*
X94522007Y-98515925D01*
X94649174Y-98550000D01*
X94780826Y-98550000D01*
X94907993Y-98515925D01*
X94965000Y-98483012D01*
X94965000Y-99380633D01*
X95178483Y-99323433D01*
X95178492Y-99323429D01*
X95392578Y-99223600D01*
X95586082Y-99088105D01*
X95753105Y-98921082D01*
X95883119Y-98735405D01*
X95937696Y-98691781D01*
X96007195Y-98684588D01*
X96069549Y-98716110D01*
X96086269Y-98735405D01*
X96216505Y-98921401D01*
X96383599Y-99088495D01*
X96480384Y-99156265D01*
X96577165Y-99224032D01*
X96577167Y-99224033D01*
X96577170Y-99224035D01*
X96791337Y-99323903D01*
X97019592Y-99385063D01*
X97196034Y-99400500D01*
X97254999Y-99405659D01*
X97255000Y-99405659D01*
X97255001Y-99405659D01*
X97313966Y-99400500D01*
X97490408Y-99385063D01*
X97718663Y-99323903D01*
X97932830Y-99224035D01*
X98126401Y-99088495D01*
X98293495Y-98921401D01*
X98423425Y-98735842D01*
X98478002Y-98692217D01*
X98547500Y-98685023D01*
X98609855Y-98716546D01*
X98626575Y-98735842D01*
X98756500Y-98921395D01*
X98756505Y-98921401D01*
X98923599Y-99088495D01*
X99020384Y-99156265D01*
X99117165Y-99224032D01*
X99117167Y-99224033D01*
X99117170Y-99224035D01*
X99331337Y-99323903D01*
X99559592Y-99385063D01*
X99736034Y-99400500D01*
X99794999Y-99405659D01*
X99795000Y-99405659D01*
X99795001Y-99405659D01*
X99853966Y-99400500D01*
X100030408Y-99385063D01*
X100258663Y-99323903D01*
X100472830Y-99224035D01*
X100666401Y-99088495D01*
X100833495Y-98921401D01*
X100969035Y-98727830D01*
X101068903Y-98513663D01*
X101130063Y-98285408D01*
X101146285Y-98099999D01*
X115799341Y-98099999D01*
X115799341Y-98100000D01*
X115819936Y-98335403D01*
X115819938Y-98335413D01*
X115881094Y-98563655D01*
X115881096Y-98563659D01*
X115881097Y-98563663D01*
X115961004Y-98735023D01*
X115980965Y-98777830D01*
X115980967Y-98777834D01*
X116081271Y-98921082D01*
X116116505Y-98971401D01*
X116283599Y-99138495D01*
X116380384Y-99206265D01*
X116477165Y-99274032D01*
X116477167Y-99274033D01*
X116477170Y-99274035D01*
X116691337Y-99373903D01*
X116691343Y-99373904D01*
X116691344Y-99373905D01*
X116732980Y-99385061D01*
X116919592Y-99435063D01*
X117096034Y-99450500D01*
X117154999Y-99455659D01*
X117155000Y-99455659D01*
X117155001Y-99455659D01*
X117213966Y-99450500D01*
X117390408Y-99435063D01*
X117618663Y-99373903D01*
X117832830Y-99274035D01*
X118026401Y-99138495D01*
X118193495Y-98971401D01*
X118323425Y-98785842D01*
X118378002Y-98742217D01*
X118447500Y-98735023D01*
X118509855Y-98766546D01*
X118526575Y-98785842D01*
X118656500Y-98971395D01*
X118656505Y-98971401D01*
X118823599Y-99138495D01*
X118920384Y-99206265D01*
X119017165Y-99274032D01*
X119017167Y-99274033D01*
X119017170Y-99274035D01*
X119231337Y-99373903D01*
X119231343Y-99373904D01*
X119231344Y-99373905D01*
X119272980Y-99385061D01*
X119459592Y-99435063D01*
X119636034Y-99450500D01*
X119694999Y-99455659D01*
X119695000Y-99455659D01*
X119695001Y-99455659D01*
X119753966Y-99450500D01*
X119930408Y-99435063D01*
X120158663Y-99373903D01*
X120372830Y-99274035D01*
X120566401Y-99138495D01*
X120733495Y-98971401D01*
X120863730Y-98785405D01*
X120918307Y-98741781D01*
X120987805Y-98734587D01*
X121050160Y-98766110D01*
X121066879Y-98785405D01*
X121196890Y-98971078D01*
X121363917Y-99138105D01*
X121557421Y-99273600D01*
X121771507Y-99373429D01*
X121771516Y-99373433D01*
X121985000Y-99430634D01*
X121985000Y-98533012D01*
X122042007Y-98565925D01*
X122169174Y-98600000D01*
X122300826Y-98600000D01*
X122427993Y-98565925D01*
X122485000Y-98533012D01*
X122485000Y-99430633D01*
X122698483Y-99373433D01*
X122698492Y-99373429D01*
X122912578Y-99273600D01*
X123106078Y-99138108D01*
X123228133Y-99016053D01*
X123289456Y-98982568D01*
X123359148Y-98987552D01*
X123415082Y-99029423D01*
X123431997Y-99060401D01*
X123481202Y-99192328D01*
X123481206Y-99192335D01*
X123567452Y-99307544D01*
X123567455Y-99307547D01*
X123682664Y-99393793D01*
X123682671Y-99393797D01*
X123817517Y-99444091D01*
X123817516Y-99444091D01*
X123824444Y-99444835D01*
X123877127Y-99450500D01*
X125672872Y-99450499D01*
X125732483Y-99444091D01*
X125867331Y-99393796D01*
X125982546Y-99307546D01*
X126068796Y-99192331D01*
X126119091Y-99057483D01*
X126125500Y-98997873D01*
X126125499Y-97202128D01*
X126119091Y-97142517D01*
X126118002Y-97139598D01*
X126068797Y-97007671D01*
X126068793Y-97007664D01*
X125982547Y-96892455D01*
X125982544Y-96892452D01*
X125867335Y-96806206D01*
X125867328Y-96806202D01*
X125732482Y-96755908D01*
X125732483Y-96755908D01*
X125672883Y-96749501D01*
X125672881Y-96749500D01*
X125672873Y-96749500D01*
X125672864Y-96749500D01*
X123877129Y-96749500D01*
X123877123Y-96749501D01*
X123817516Y-96755908D01*
X123682671Y-96806202D01*
X123682664Y-96806206D01*
X123567455Y-96892452D01*
X123567452Y-96892455D01*
X123481206Y-97007664D01*
X123481202Y-97007671D01*
X123431997Y-97139598D01*
X123390126Y-97195532D01*
X123324661Y-97219949D01*
X123256388Y-97205097D01*
X123228134Y-97183946D01*
X123106082Y-97061894D01*
X122912578Y-96926399D01*
X122698492Y-96826570D01*
X122698486Y-96826567D01*
X122485000Y-96769364D01*
X122485000Y-97666988D01*
X122427993Y-97634075D01*
X122300826Y-97600000D01*
X122169174Y-97600000D01*
X122042007Y-97634075D01*
X121985000Y-97666988D01*
X121985000Y-96769364D01*
X121984999Y-96769364D01*
X121771513Y-96826567D01*
X121771507Y-96826570D01*
X121557422Y-96926399D01*
X121557420Y-96926400D01*
X121363926Y-97061886D01*
X121363920Y-97061891D01*
X121196891Y-97228920D01*
X121196890Y-97228922D01*
X121066880Y-97414595D01*
X121012303Y-97458219D01*
X120942804Y-97465412D01*
X120880450Y-97433890D01*
X120863730Y-97414594D01*
X120733494Y-97228597D01*
X120566402Y-97061506D01*
X120566395Y-97061501D01*
X120372834Y-96925967D01*
X120372830Y-96925965D01*
X120372828Y-96925964D01*
X120158663Y-96826097D01*
X120158659Y-96826096D01*
X120158655Y-96826094D01*
X119930413Y-96764938D01*
X119930403Y-96764936D01*
X119695001Y-96744341D01*
X119694999Y-96744341D01*
X119459596Y-96764936D01*
X119459586Y-96764938D01*
X119231344Y-96826094D01*
X119231335Y-96826098D01*
X119017171Y-96925964D01*
X119017169Y-96925965D01*
X118823597Y-97061505D01*
X118656505Y-97228597D01*
X118526575Y-97414158D01*
X118471998Y-97457783D01*
X118402500Y-97464977D01*
X118340145Y-97433454D01*
X118323425Y-97414158D01*
X118193494Y-97228597D01*
X118026402Y-97061506D01*
X118026395Y-97061501D01*
X117832834Y-96925967D01*
X117832830Y-96925965D01*
X117832828Y-96925964D01*
X117618663Y-96826097D01*
X117618659Y-96826096D01*
X117618655Y-96826094D01*
X117390413Y-96764938D01*
X117390403Y-96764936D01*
X117155001Y-96744341D01*
X117154999Y-96744341D01*
X116919596Y-96764936D01*
X116919586Y-96764938D01*
X116691344Y-96826094D01*
X116691335Y-96826098D01*
X116477171Y-96925964D01*
X116477169Y-96925965D01*
X116283597Y-97061505D01*
X116116505Y-97228597D01*
X115980965Y-97422169D01*
X115980964Y-97422171D01*
X115881098Y-97636335D01*
X115881094Y-97636344D01*
X115819938Y-97864586D01*
X115819936Y-97864596D01*
X115799341Y-98099999D01*
X101146285Y-98099999D01*
X101150659Y-98050000D01*
X101130063Y-97814592D01*
X101068903Y-97586337D01*
X100969035Y-97372171D01*
X100963731Y-97364595D01*
X100833494Y-97178597D01*
X100666402Y-97011506D01*
X100666395Y-97011501D01*
X100660922Y-97007669D01*
X100589518Y-96957671D01*
X100472834Y-96875967D01*
X100472830Y-96875965D01*
X100472828Y-96875964D01*
X100258663Y-96776097D01*
X100258659Y-96776096D01*
X100258655Y-96776094D01*
X100030413Y-96714938D01*
X100030403Y-96714936D01*
X99795001Y-96694341D01*
X99794999Y-96694341D01*
X99559596Y-96714936D01*
X99559586Y-96714938D01*
X99331344Y-96776094D01*
X99331335Y-96776098D01*
X99117171Y-96875964D01*
X99117169Y-96875965D01*
X98923597Y-97011505D01*
X98756505Y-97178597D01*
X98626575Y-97364158D01*
X98571998Y-97407783D01*
X98502500Y-97414977D01*
X98440145Y-97383454D01*
X98423425Y-97364158D01*
X98293494Y-97178597D01*
X98126402Y-97011506D01*
X98126395Y-97011501D01*
X98120922Y-97007669D01*
X98049518Y-96957671D01*
X97932834Y-96875967D01*
X97932830Y-96875965D01*
X97932828Y-96875964D01*
X97718663Y-96776097D01*
X97718659Y-96776096D01*
X97718655Y-96776094D01*
X97490413Y-96714938D01*
X97490403Y-96714936D01*
X97255001Y-96694341D01*
X97254999Y-96694341D01*
X97019596Y-96714936D01*
X97019586Y-96714938D01*
X96791344Y-96776094D01*
X96791335Y-96776098D01*
X96577171Y-96875964D01*
X96577169Y-96875965D01*
X96383597Y-97011505D01*
X96216508Y-97178594D01*
X96086269Y-97364595D01*
X96031692Y-97408219D01*
X95962193Y-97415412D01*
X95899839Y-97383890D01*
X95883119Y-97364594D01*
X95753113Y-97178926D01*
X95753108Y-97178920D01*
X95586082Y-97011894D01*
X95392578Y-96876399D01*
X95178492Y-96776570D01*
X95178486Y-96776567D01*
X94965000Y-96719364D01*
X94965000Y-97616988D01*
X94907993Y-97584075D01*
X94780826Y-97550000D01*
X94649174Y-97550000D01*
X94522007Y-97584075D01*
X94465000Y-97616988D01*
X94465000Y-96719364D01*
X94464999Y-96719364D01*
X94251513Y-96776567D01*
X94251507Y-96776570D01*
X94037422Y-96876399D01*
X94037420Y-96876400D01*
X93843926Y-97011886D01*
X93721865Y-97133947D01*
X93660542Y-97167431D01*
X93590850Y-97162447D01*
X93534917Y-97120575D01*
X93518002Y-97089598D01*
X93507524Y-97061506D01*
X93468796Y-96957669D01*
X93468795Y-96957668D01*
X93468793Y-96957664D01*
X93382547Y-96842455D01*
X93382544Y-96842452D01*
X93267335Y-96756206D01*
X93267328Y-96756202D01*
X93132482Y-96705908D01*
X93132483Y-96705908D01*
X93072883Y-96699501D01*
X93072881Y-96699500D01*
X93072873Y-96699500D01*
X93072864Y-96699500D01*
X91277129Y-96699500D01*
X91277123Y-96699501D01*
X91217516Y-96705908D01*
X91082671Y-96756202D01*
X91082664Y-96756206D01*
X90967455Y-96842452D01*
X90967452Y-96842455D01*
X90881206Y-96957664D01*
X90881202Y-96957671D01*
X90830908Y-97092517D01*
X90824501Y-97152116D01*
X90824500Y-97152135D01*
X83955500Y-97152135D01*
X83955500Y-76177135D01*
X85749500Y-76177135D01*
X85749500Y-77972870D01*
X85749501Y-77972876D01*
X85755908Y-78032483D01*
X85806202Y-78167328D01*
X85806206Y-78167335D01*
X85892452Y-78282544D01*
X85892455Y-78282547D01*
X86007664Y-78368793D01*
X86007671Y-78368797D01*
X86142517Y-78419091D01*
X86142516Y-78419091D01*
X86149444Y-78419835D01*
X86202127Y-78425500D01*
X87997872Y-78425499D01*
X88057483Y-78419091D01*
X88192331Y-78368796D01*
X88307546Y-78282546D01*
X88393796Y-78167331D01*
X88443002Y-78035401D01*
X88484872Y-77979468D01*
X88550337Y-77955050D01*
X88618610Y-77969901D01*
X88646865Y-77991053D01*
X88768917Y-78113105D01*
X88962421Y-78248600D01*
X89176507Y-78348429D01*
X89176516Y-78348433D01*
X89390000Y-78405634D01*
X89390000Y-77508012D01*
X89447007Y-77540925D01*
X89574174Y-77575000D01*
X89705826Y-77575000D01*
X89832993Y-77540925D01*
X89890000Y-77508012D01*
X89890000Y-78405633D01*
X90103483Y-78348433D01*
X90103492Y-78348429D01*
X90317578Y-78248600D01*
X90511082Y-78113105D01*
X90678105Y-77946082D01*
X90808119Y-77760405D01*
X90862696Y-77716781D01*
X90932195Y-77709588D01*
X90994549Y-77741110D01*
X91011269Y-77760405D01*
X91141505Y-77946401D01*
X91308599Y-78113495D01*
X91405384Y-78181265D01*
X91502165Y-78249032D01*
X91502167Y-78249033D01*
X91502170Y-78249035D01*
X91716337Y-78348903D01*
X91944592Y-78410063D01*
X92121034Y-78425500D01*
X92179999Y-78430659D01*
X92180000Y-78430659D01*
X92180001Y-78430659D01*
X92238966Y-78425500D01*
X92415408Y-78410063D01*
X92643663Y-78348903D01*
X92857830Y-78249035D01*
X93051401Y-78113495D01*
X93218495Y-77946401D01*
X93348425Y-77760842D01*
X93403002Y-77717217D01*
X93472500Y-77710023D01*
X93534855Y-77741546D01*
X93551575Y-77760842D01*
X93681500Y-77946395D01*
X93681505Y-77946401D01*
X93848599Y-78113495D01*
X93945384Y-78181265D01*
X94042165Y-78249032D01*
X94042167Y-78249033D01*
X94042170Y-78249035D01*
X94256337Y-78348903D01*
X94484592Y-78410063D01*
X94661034Y-78425500D01*
X94719999Y-78430659D01*
X94720000Y-78430659D01*
X94720001Y-78430659D01*
X94778966Y-78425500D01*
X94955408Y-78410063D01*
X95183663Y-78348903D01*
X95397830Y-78249035D01*
X95591401Y-78113495D01*
X95758495Y-77946401D01*
X95888730Y-77760405D01*
X95943307Y-77716781D01*
X96012805Y-77709587D01*
X96075160Y-77741110D01*
X96091879Y-77760405D01*
X96221890Y-77946078D01*
X96388917Y-78113105D01*
X96582421Y-78248600D01*
X96796507Y-78348429D01*
X96796516Y-78348433D01*
X97010000Y-78405634D01*
X97010000Y-77508012D01*
X97067007Y-77540925D01*
X97194174Y-77575000D01*
X97325826Y-77575000D01*
X97452993Y-77540925D01*
X97510000Y-77508012D01*
X97510000Y-78405633D01*
X97723483Y-78348433D01*
X97723492Y-78348429D01*
X97937578Y-78248600D01*
X98131082Y-78113105D01*
X98298105Y-77946082D01*
X98428119Y-77760405D01*
X98482696Y-77716781D01*
X98552195Y-77709588D01*
X98614549Y-77741110D01*
X98631269Y-77760405D01*
X98761505Y-77946401D01*
X98928599Y-78113495D01*
X99025384Y-78181265D01*
X99122165Y-78249032D01*
X99122167Y-78249033D01*
X99122170Y-78249035D01*
X99127898Y-78251706D01*
X99180339Y-78297872D01*
X99199500Y-78364090D01*
X99199500Y-85758577D01*
X99179815Y-85825616D01*
X99127908Y-85870958D01*
X99117169Y-85875965D01*
X98923597Y-86011505D01*
X98756505Y-86178597D01*
X98626575Y-86364158D01*
X98571998Y-86407783D01*
X98502500Y-86414977D01*
X98440145Y-86383454D01*
X98423425Y-86364158D01*
X98293494Y-86178597D01*
X98126402Y-86011506D01*
X98126395Y-86011501D01*
X97932834Y-85875967D01*
X97932830Y-85875965D01*
X97870890Y-85847082D01*
X97718663Y-85776097D01*
X97718659Y-85776096D01*
X97718655Y-85776094D01*
X97490413Y-85714938D01*
X97490403Y-85714936D01*
X97255001Y-85694341D01*
X97254999Y-85694341D01*
X97019596Y-85714936D01*
X97019586Y-85714938D01*
X96791344Y-85776094D01*
X96791335Y-85776098D01*
X96577171Y-85875964D01*
X96577169Y-85875965D01*
X96383597Y-86011505D01*
X96216508Y-86178594D01*
X96086269Y-86364595D01*
X96031692Y-86408219D01*
X95962193Y-86415412D01*
X95899839Y-86383890D01*
X95883119Y-86364594D01*
X95753113Y-86178926D01*
X95753108Y-86178920D01*
X95586082Y-86011894D01*
X95392578Y-85876399D01*
X95178492Y-85776570D01*
X95178486Y-85776567D01*
X94965000Y-85719364D01*
X94965000Y-86616988D01*
X94907993Y-86584075D01*
X94780826Y-86550000D01*
X94649174Y-86550000D01*
X94522007Y-86584075D01*
X94465000Y-86616988D01*
X94465000Y-85719364D01*
X94464999Y-85719364D01*
X94251513Y-85776567D01*
X94251507Y-85776570D01*
X94037422Y-85876399D01*
X94037420Y-85876400D01*
X93843926Y-86011886D01*
X93721865Y-86133947D01*
X93660542Y-86167431D01*
X93590850Y-86162447D01*
X93534917Y-86120575D01*
X93518002Y-86089598D01*
X93468797Y-85957671D01*
X93468793Y-85957664D01*
X93382547Y-85842455D01*
X93382544Y-85842452D01*
X93267335Y-85756206D01*
X93267328Y-85756202D01*
X93132482Y-85705908D01*
X93132483Y-85705908D01*
X93072883Y-85699501D01*
X93072881Y-85699500D01*
X93072873Y-85699500D01*
X93072864Y-85699500D01*
X91277129Y-85699500D01*
X91277123Y-85699501D01*
X91217516Y-85705908D01*
X91082671Y-85756202D01*
X91082664Y-85756206D01*
X90967455Y-85842452D01*
X90967452Y-85842455D01*
X90881206Y-85957664D01*
X90881202Y-85957671D01*
X90830908Y-86092517D01*
X90824501Y-86152116D01*
X90824500Y-86152135D01*
X90824500Y-87947870D01*
X90824501Y-87947876D01*
X90830908Y-88007483D01*
X90881202Y-88142328D01*
X90881206Y-88142335D01*
X90967452Y-88257544D01*
X90967455Y-88257547D01*
X91082664Y-88343793D01*
X91082671Y-88343797D01*
X91217517Y-88394091D01*
X91217516Y-88394091D01*
X91224444Y-88394835D01*
X91277127Y-88400500D01*
X93072872Y-88400499D01*
X93132483Y-88394091D01*
X93267331Y-88343796D01*
X93382546Y-88257546D01*
X93468796Y-88142331D01*
X93479696Y-88113108D01*
X93488874Y-88088498D01*
X93518002Y-88010401D01*
X93559872Y-87954468D01*
X93625337Y-87930050D01*
X93693610Y-87944901D01*
X93721865Y-87966053D01*
X93843917Y-88088105D01*
X94037421Y-88223600D01*
X94251507Y-88323429D01*
X94251516Y-88323433D01*
X94465000Y-88380634D01*
X94465000Y-87483012D01*
X94522007Y-87515925D01*
X94649174Y-87550000D01*
X94780826Y-87550000D01*
X94907993Y-87515925D01*
X94965000Y-87483012D01*
X94965000Y-88380633D01*
X95178483Y-88323433D01*
X95178492Y-88323429D01*
X95392578Y-88223600D01*
X95586082Y-88088105D01*
X95753105Y-87921082D01*
X95883119Y-87735405D01*
X95937696Y-87691781D01*
X96007195Y-87684588D01*
X96069549Y-87716110D01*
X96086269Y-87735405D01*
X96216505Y-87921401D01*
X96383599Y-88088495D01*
X96479385Y-88155565D01*
X96577165Y-88224032D01*
X96577167Y-88224033D01*
X96577170Y-88224035D01*
X96791337Y-88323903D01*
X97019592Y-88385063D01*
X97196034Y-88400500D01*
X97254999Y-88405659D01*
X97255000Y-88405659D01*
X97255001Y-88405659D01*
X97313966Y-88400500D01*
X97490408Y-88385063D01*
X97718663Y-88323903D01*
X97932830Y-88224035D01*
X98126401Y-88088495D01*
X98293495Y-87921401D01*
X98423425Y-87735842D01*
X98478002Y-87692217D01*
X98547500Y-87685023D01*
X98609855Y-87716546D01*
X98626575Y-87735842D01*
X98756500Y-87921395D01*
X98756505Y-87921401D01*
X98923599Y-88088495D01*
X99019385Y-88155565D01*
X99117165Y-88224032D01*
X99117167Y-88224033D01*
X99117170Y-88224035D01*
X99331337Y-88323903D01*
X99559592Y-88385063D01*
X99736034Y-88400500D01*
X99794999Y-88405659D01*
X99795000Y-88405659D01*
X99795001Y-88405659D01*
X99853966Y-88400500D01*
X100030408Y-88385063D01*
X100258663Y-88323903D01*
X100472830Y-88224035D01*
X100666401Y-88088495D01*
X100833495Y-87921401D01*
X100969035Y-87727830D01*
X101068903Y-87513663D01*
X101130063Y-87285408D01*
X101150659Y-87050000D01*
X101130063Y-86814592D01*
X101109405Y-86737496D01*
X111031935Y-86737496D01*
X111031935Y-86737503D01*
X111052130Y-86916749D01*
X111052131Y-86916754D01*
X111111711Y-87087023D01*
X111207684Y-87239762D01*
X111335238Y-87367316D01*
X111487978Y-87463289D01*
X111658245Y-87522868D01*
X111689245Y-87526360D01*
X111753659Y-87553426D01*
X111792404Y-87608625D01*
X111824211Y-87699523D01*
X111824212Y-87699524D01*
X111846758Y-87735405D01*
X111920184Y-87852262D01*
X112047738Y-87979816D01*
X112200478Y-88075789D01*
X112307121Y-88113105D01*
X112370745Y-88135368D01*
X112370750Y-88135369D01*
X112549996Y-88155565D01*
X112550000Y-88155565D01*
X112550004Y-88155565D01*
X112729249Y-88135369D01*
X112729252Y-88135368D01*
X112729255Y-88135368D01*
X112899522Y-88075789D01*
X113052262Y-87979816D01*
X113179816Y-87852262D01*
X113275789Y-87699522D01*
X113335368Y-87529255D01*
X113345161Y-87442329D01*
X113372226Y-87377918D01*
X113380690Y-87368543D01*
X113393535Y-87355698D01*
X113454856Y-87322215D01*
X113467311Y-87320163D01*
X113554255Y-87310368D01*
X113724522Y-87250789D01*
X113877262Y-87154816D01*
X113957079Y-87074999D01*
X115799341Y-87074999D01*
X115799341Y-87075000D01*
X115819936Y-87310403D01*
X115819938Y-87310413D01*
X115881094Y-87538655D01*
X115881096Y-87538659D01*
X115881097Y-87538663D01*
X115964155Y-87716781D01*
X115980965Y-87752830D01*
X115980967Y-87752834D01*
X116050588Y-87852262D01*
X116116505Y-87946401D01*
X116283599Y-88113495D01*
X116380384Y-88181265D01*
X116477165Y-88249032D01*
X116477167Y-88249033D01*
X116477170Y-88249035D01*
X116691337Y-88348903D01*
X116919592Y-88410063D01*
X117096034Y-88425500D01*
X117154999Y-88430659D01*
X117155000Y-88430659D01*
X117155001Y-88430659D01*
X117213966Y-88425500D01*
X117390408Y-88410063D01*
X117618663Y-88348903D01*
X117832830Y-88249035D01*
X118026401Y-88113495D01*
X118193495Y-87946401D01*
X118323425Y-87760842D01*
X118378002Y-87717217D01*
X118447500Y-87710023D01*
X118509855Y-87741546D01*
X118526575Y-87760842D01*
X118656500Y-87946395D01*
X118656505Y-87946401D01*
X118823599Y-88113495D01*
X118920384Y-88181265D01*
X119017165Y-88249032D01*
X119017167Y-88249033D01*
X119017170Y-88249035D01*
X119231337Y-88348903D01*
X119459592Y-88410063D01*
X119636034Y-88425500D01*
X119694999Y-88430659D01*
X119695000Y-88430659D01*
X119695001Y-88430659D01*
X119753966Y-88425500D01*
X119930408Y-88410063D01*
X120158663Y-88348903D01*
X120372830Y-88249035D01*
X120566401Y-88113495D01*
X120733495Y-87946401D01*
X120863730Y-87760405D01*
X120918307Y-87716781D01*
X120987805Y-87709587D01*
X121050160Y-87741110D01*
X121066879Y-87760405D01*
X121196890Y-87946078D01*
X121363917Y-88113105D01*
X121557421Y-88248600D01*
X121771507Y-88348429D01*
X121771516Y-88348433D01*
X121985000Y-88405634D01*
X121985000Y-87508012D01*
X122042007Y-87540925D01*
X122169174Y-87575000D01*
X122300826Y-87575000D01*
X122427993Y-87540925D01*
X122485000Y-87508012D01*
X122485000Y-88405633D01*
X122698483Y-88348433D01*
X122698492Y-88348429D01*
X122912578Y-88248600D01*
X123106078Y-88113108D01*
X123228133Y-87991053D01*
X123289456Y-87957568D01*
X123359148Y-87962552D01*
X123415082Y-88004423D01*
X123431997Y-88035401D01*
X123481202Y-88167328D01*
X123481206Y-88167335D01*
X123567452Y-88282544D01*
X123567455Y-88282547D01*
X123682664Y-88368793D01*
X123682671Y-88368797D01*
X123817517Y-88419091D01*
X123817516Y-88419091D01*
X123824444Y-88419835D01*
X123877127Y-88425500D01*
X125672872Y-88425499D01*
X125732483Y-88419091D01*
X125867331Y-88368796D01*
X125982546Y-88282546D01*
X126068796Y-88167331D01*
X126119091Y-88032483D01*
X126125500Y-87972873D01*
X126125499Y-86177128D01*
X126119091Y-86117517D01*
X126118002Y-86114598D01*
X126068797Y-85982671D01*
X126068793Y-85982664D01*
X125982547Y-85867455D01*
X125982544Y-85867452D01*
X125867335Y-85781206D01*
X125867328Y-85781202D01*
X125732482Y-85730908D01*
X125732483Y-85730908D01*
X125672883Y-85724501D01*
X125672881Y-85724500D01*
X125672873Y-85724500D01*
X125672864Y-85724500D01*
X123877129Y-85724500D01*
X123877123Y-85724501D01*
X123817516Y-85730908D01*
X123682671Y-85781202D01*
X123682664Y-85781206D01*
X123567455Y-85867452D01*
X123567452Y-85867455D01*
X123481206Y-85982664D01*
X123481202Y-85982671D01*
X123431997Y-86114598D01*
X123390126Y-86170532D01*
X123324661Y-86194949D01*
X123256388Y-86180097D01*
X123228134Y-86158946D01*
X123106082Y-86036894D01*
X122912578Y-85901399D01*
X122698492Y-85801570D01*
X122698486Y-85801567D01*
X122485000Y-85744364D01*
X122485000Y-86641988D01*
X122427993Y-86609075D01*
X122300826Y-86575000D01*
X122169174Y-86575000D01*
X122042007Y-86609075D01*
X121985000Y-86641988D01*
X121985000Y-85744364D01*
X121984999Y-85744364D01*
X121771513Y-85801567D01*
X121771507Y-85801570D01*
X121557422Y-85901399D01*
X121557420Y-85901400D01*
X121363926Y-86036886D01*
X121363920Y-86036891D01*
X121196891Y-86203920D01*
X121196890Y-86203922D01*
X121066880Y-86389595D01*
X121012303Y-86433219D01*
X120942804Y-86440412D01*
X120880450Y-86408890D01*
X120863730Y-86389594D01*
X120733494Y-86203597D01*
X120566402Y-86036506D01*
X120566395Y-86036501D01*
X120372834Y-85900967D01*
X120372830Y-85900965D01*
X120320148Y-85876399D01*
X120158663Y-85801097D01*
X120158659Y-85801096D01*
X120158655Y-85801094D01*
X119930413Y-85739938D01*
X119930403Y-85739936D01*
X119695001Y-85719341D01*
X119694999Y-85719341D01*
X119459596Y-85739936D01*
X119459586Y-85739938D01*
X119231344Y-85801094D01*
X119231335Y-85801098D01*
X119017171Y-85900964D01*
X119017169Y-85900965D01*
X118823597Y-86036505D01*
X118656505Y-86203597D01*
X118526575Y-86389158D01*
X118471998Y-86432783D01*
X118402500Y-86439977D01*
X118340145Y-86408454D01*
X118323425Y-86389158D01*
X118193494Y-86203597D01*
X118026402Y-86036506D01*
X118026395Y-86036501D01*
X117832834Y-85900967D01*
X117832830Y-85900965D01*
X117780148Y-85876399D01*
X117618663Y-85801097D01*
X117618659Y-85801096D01*
X117618655Y-85801094D01*
X117390413Y-85739938D01*
X117390403Y-85739936D01*
X117155001Y-85719341D01*
X117154999Y-85719341D01*
X116919596Y-85739936D01*
X116919586Y-85739938D01*
X116691344Y-85801094D01*
X116691335Y-85801098D01*
X116477171Y-85900964D01*
X116477169Y-85900965D01*
X116283597Y-86036505D01*
X116116505Y-86203597D01*
X115980965Y-86397169D01*
X115980964Y-86397171D01*
X115881098Y-86611335D01*
X115881094Y-86611344D01*
X115819938Y-86839586D01*
X115819936Y-86839596D01*
X115799341Y-87074999D01*
X113957079Y-87074999D01*
X114004816Y-87027262D01*
X114100789Y-86874522D01*
X114160368Y-86704255D01*
X114170161Y-86617329D01*
X114197226Y-86552918D01*
X114205690Y-86543543D01*
X115862416Y-84886819D01*
X115923739Y-84853334D01*
X115950097Y-84850500D01*
X122388331Y-84850500D01*
X122388347Y-84850501D01*
X122395943Y-84850501D01*
X122554054Y-84850501D01*
X122554057Y-84850501D01*
X122706785Y-84809577D01*
X122756904Y-84780639D01*
X122843716Y-84730520D01*
X122955520Y-84618716D01*
X122955520Y-84618714D01*
X122965728Y-84608507D01*
X122965729Y-84608504D01*
X124743536Y-82830698D01*
X124804857Y-82797215D01*
X124817310Y-82795163D01*
X124904255Y-82785368D01*
X125074522Y-82725789D01*
X125227262Y-82629816D01*
X125354816Y-82502262D01*
X125450789Y-82349522D01*
X125510368Y-82179255D01*
X125517663Y-82114498D01*
X125544728Y-82050088D01*
X125602321Y-82010531D01*
X125626990Y-82005164D01*
X125691755Y-81997868D01*
X125862022Y-81938289D01*
X126014762Y-81842316D01*
X126142316Y-81714762D01*
X126238289Y-81562022D01*
X126297868Y-81391755D01*
X126299700Y-81375500D01*
X126318065Y-81212502D01*
X126318065Y-81212496D01*
X126297869Y-81033250D01*
X126297868Y-81033245D01*
X126249756Y-80895750D01*
X126238289Y-80862978D01*
X126142316Y-80710238D01*
X126014762Y-80582684D01*
X125989395Y-80566745D01*
X125862023Y-80486711D01*
X125691754Y-80427131D01*
X125691749Y-80427130D01*
X125579639Y-80414499D01*
X125515225Y-80387433D01*
X125475669Y-80329838D01*
X125471694Y-80311556D01*
X125470368Y-80305745D01*
X125415912Y-80150119D01*
X125410789Y-80135478D01*
X125314816Y-79982738D01*
X125187262Y-79855184D01*
X125177000Y-79848736D01*
X125034523Y-79759211D01*
X124864254Y-79699631D01*
X124864249Y-79699630D01*
X124685004Y-79679435D01*
X124684996Y-79679435D01*
X124505750Y-79699630D01*
X124505745Y-79699631D01*
X124335476Y-79759211D01*
X124182737Y-79855184D01*
X124055184Y-79982737D01*
X123959207Y-80135483D01*
X123956188Y-80141753D01*
X123953482Y-80140449D01*
X123920485Y-80186373D01*
X123855510Y-80212065D01*
X123786960Y-80198550D01*
X123736599Y-80150119D01*
X123727206Y-80129526D01*
X123725790Y-80125479D01*
X123653819Y-80010939D01*
X123629816Y-79972738D01*
X123629814Y-79972736D01*
X123629813Y-79972734D01*
X123627550Y-79969896D01*
X123626659Y-79967715D01*
X123626111Y-79966842D01*
X123626264Y-79966745D01*
X123601144Y-79905209D01*
X123600500Y-79892587D01*
X123600500Y-74139060D01*
X123600501Y-74139047D01*
X123600501Y-73970945D01*
X123600501Y-73970943D01*
X123559577Y-73818215D01*
X123480520Y-73681284D01*
X123424604Y-73625368D01*
X123391119Y-73564045D01*
X123396103Y-73494353D01*
X123437975Y-73438420D01*
X123471331Y-73420645D01*
X123481188Y-73417195D01*
X123599522Y-73375789D01*
X123752262Y-73279816D01*
X123879816Y-73152262D01*
X123975789Y-72999522D01*
X124035368Y-72829255D01*
X124051100Y-72689630D01*
X124055565Y-72650003D01*
X124055565Y-72649996D01*
X124035369Y-72470750D01*
X124035368Y-72470745D01*
X123982620Y-72320000D01*
X123975789Y-72300478D01*
X123879816Y-72147738D01*
X123752262Y-72020184D01*
X123599523Y-71924211D01*
X123429254Y-71864631D01*
X123429249Y-71864630D01*
X123250004Y-71844435D01*
X123249996Y-71844435D01*
X123070750Y-71864630D01*
X123070745Y-71864631D01*
X122900476Y-71924211D01*
X122747737Y-72020184D01*
X122620184Y-72147737D01*
X122524210Y-72300478D01*
X122464630Y-72470750D01*
X122454837Y-72557668D01*
X122427770Y-72622082D01*
X122419298Y-72631465D01*
X122406465Y-72644298D01*
X122345142Y-72677783D01*
X122332668Y-72679837D01*
X122245750Y-72689630D01*
X122075478Y-72749210D01*
X121922737Y-72845184D01*
X121795184Y-72972737D01*
X121699211Y-73125476D01*
X121639631Y-73295745D01*
X121639630Y-73295750D01*
X121619435Y-73474996D01*
X121619435Y-73475003D01*
X121639630Y-73654249D01*
X121639631Y-73654254D01*
X121699211Y-73824523D01*
X121791215Y-73970945D01*
X121795184Y-73977262D01*
X121922738Y-74104816D01*
X122075478Y-74200789D01*
X122245745Y-74260368D01*
X122289383Y-74265284D01*
X122353795Y-74292348D01*
X122393351Y-74349942D01*
X122399500Y-74388504D01*
X122399500Y-79892587D01*
X122379815Y-79959626D01*
X122372450Y-79969896D01*
X122370186Y-79972734D01*
X122274210Y-80125478D01*
X122214630Y-80295750D01*
X122204837Y-80382668D01*
X122177770Y-80447082D01*
X122169298Y-80456465D01*
X121946941Y-80678822D01*
X121885618Y-80712307D01*
X121873155Y-80714360D01*
X121870752Y-80714630D01*
X121870744Y-80714632D01*
X121700478Y-80774210D01*
X121547737Y-80870184D01*
X121420184Y-80997737D01*
X121324211Y-81150476D01*
X121264631Y-81320745D01*
X121264630Y-81320750D01*
X121244435Y-81499996D01*
X121244435Y-81500003D01*
X121264630Y-81679249D01*
X121264631Y-81679254D01*
X121324211Y-81849523D01*
X121379987Y-81938289D01*
X121420184Y-82002262D01*
X121547738Y-82129816D01*
X121659440Y-82200003D01*
X121700480Y-82225790D01*
X121810150Y-82264166D01*
X121866926Y-82304887D01*
X121892673Y-82369840D01*
X121879217Y-82438402D01*
X121856876Y-82468888D01*
X121537584Y-82788181D01*
X121476261Y-82821666D01*
X121449903Y-82824500D01*
X120472370Y-82824500D01*
X120405331Y-82804815D01*
X120359576Y-82752011D01*
X120349632Y-82682853D01*
X120367376Y-82634528D01*
X120370337Y-82629816D01*
X120420789Y-82549522D01*
X120480368Y-82379255D01*
X120483718Y-82349522D01*
X120500565Y-82200003D01*
X120500565Y-82199996D01*
X120480369Y-82020750D01*
X120480368Y-82020745D01*
X120420788Y-81850475D01*
X120357955Y-81750478D01*
X120328418Y-81703471D01*
X120309418Y-81636236D01*
X120328418Y-81571528D01*
X120420789Y-81424522D01*
X120480368Y-81254255D01*
X120480369Y-81254249D01*
X120500565Y-81075003D01*
X120500565Y-81074996D01*
X120480369Y-80895750D01*
X120480368Y-80895745D01*
X120450853Y-80811395D01*
X120420789Y-80725478D01*
X120411212Y-80710237D01*
X120358183Y-80625842D01*
X120324816Y-80572738D01*
X120324814Y-80572736D01*
X120324813Y-80572734D01*
X120322550Y-80569896D01*
X120321659Y-80567715D01*
X120321111Y-80566842D01*
X120321264Y-80566745D01*
X120296144Y-80505209D01*
X120295500Y-80492587D01*
X120295500Y-79865096D01*
X120315185Y-79798057D01*
X120331815Y-79777419D01*
X121033506Y-79075727D01*
X121033511Y-79075724D01*
X121043714Y-79065520D01*
X121043716Y-79065520D01*
X121155520Y-78953716D01*
X121214698Y-78851216D01*
X121234577Y-78816785D01*
X121275500Y-78664058D01*
X121275500Y-78505943D01*
X121275500Y-75745943D01*
X121275500Y-75745940D01*
X121273892Y-75739939D01*
X121273892Y-75739940D01*
X121268372Y-75719341D01*
X121234577Y-75593215D01*
X121202600Y-75537830D01*
X121155520Y-75456284D01*
X121043716Y-75344480D01*
X121043715Y-75344479D01*
X121039385Y-75340149D01*
X121039374Y-75340139D01*
X119312590Y-73613355D01*
X119312588Y-73613352D01*
X119193717Y-73494481D01*
X119193716Y-73494480D01*
X119091330Y-73435368D01*
X119091329Y-73435367D01*
X119078684Y-73428067D01*
X119056785Y-73415423D01*
X119056782Y-73415422D01*
X119056779Y-73415420D01*
X119014165Y-73404002D01*
X118954505Y-73367637D01*
X118923977Y-73304790D01*
X118929218Y-73243274D01*
X118960368Y-73154255D01*
X118960593Y-73152262D01*
X118980565Y-72975003D01*
X118980565Y-72974996D01*
X118960369Y-72795750D01*
X118960368Y-72795745D01*
X118916170Y-72669435D01*
X118900789Y-72625478D01*
X118804816Y-72472738D01*
X118677262Y-72345184D01*
X118637182Y-72320000D01*
X118524523Y-72249211D01*
X118354254Y-72189631D01*
X118354249Y-72189630D01*
X118175004Y-72169435D01*
X118174996Y-72169435D01*
X117995750Y-72189630D01*
X117995745Y-72189631D01*
X117825476Y-72249211D01*
X117672737Y-72345184D01*
X117545184Y-72472737D01*
X117449211Y-72625476D01*
X117389631Y-72795745D01*
X117389630Y-72795750D01*
X117369435Y-72974996D01*
X117369435Y-72975003D01*
X117389630Y-73154249D01*
X117389633Y-73154262D01*
X117449209Y-73324520D01*
X117502309Y-73409029D01*
X117521309Y-73476266D01*
X117502309Y-73540971D01*
X117449209Y-73625479D01*
X117389633Y-73795737D01*
X117389630Y-73795750D01*
X117369435Y-73974996D01*
X117369435Y-73975003D01*
X117389630Y-74154249D01*
X117389631Y-74154254D01*
X117449211Y-74324523D01*
X117545184Y-74477262D01*
X117672738Y-74604816D01*
X117704218Y-74624596D01*
X117800491Y-74685089D01*
X117825478Y-74700789D01*
X117978258Y-74754249D01*
X117995745Y-74760368D01*
X117995750Y-74760369D01*
X118174996Y-74780565D01*
X118175000Y-74780565D01*
X118175004Y-74780565D01*
X118354249Y-74760369D01*
X118354252Y-74760368D01*
X118354255Y-74760368D01*
X118524522Y-74700789D01*
X118549509Y-74685088D01*
X118616743Y-74666086D01*
X118683579Y-74686451D01*
X118703164Y-74702399D01*
X120038181Y-76037416D01*
X120071666Y-76098739D01*
X120074500Y-76125097D01*
X120074500Y-78284902D01*
X120054815Y-78351941D01*
X120038181Y-78372583D01*
X119214481Y-79196282D01*
X119214480Y-79196284D01*
X119166312Y-79279715D01*
X119164361Y-79283094D01*
X119164359Y-79283096D01*
X119135425Y-79333209D01*
X119135424Y-79333210D01*
X119135423Y-79333215D01*
X119094499Y-79485943D01*
X119094499Y-79485945D01*
X119094499Y-79654046D01*
X119094500Y-79654059D01*
X119094500Y-80492587D01*
X119074815Y-80559626D01*
X119067450Y-80569896D01*
X119065186Y-80572734D01*
X118969211Y-80725476D01*
X118909631Y-80895745D01*
X118909630Y-80895750D01*
X118889435Y-81074996D01*
X118889435Y-81075003D01*
X118909630Y-81254249D01*
X118909631Y-81254254D01*
X118969211Y-81424523D01*
X119061581Y-81571528D01*
X119080581Y-81638765D01*
X119061581Y-81703472D01*
X118969211Y-81850476D01*
X118909631Y-82020745D01*
X118909630Y-82020750D01*
X118889435Y-82199996D01*
X118889435Y-82200003D01*
X118909630Y-82379249D01*
X118909631Y-82379254D01*
X118940996Y-82468888D01*
X118969211Y-82549522D01*
X119019662Y-82629815D01*
X119022624Y-82634528D01*
X119041624Y-82701764D01*
X119021256Y-82768600D01*
X118967989Y-82813814D01*
X118917630Y-82824500D01*
X115229057Y-82824500D01*
X115070942Y-82824500D01*
X114918215Y-82865423D01*
X114890969Y-82881153D01*
X114883668Y-82885369D01*
X114883667Y-82885368D01*
X114781287Y-82944477D01*
X114781282Y-82944481D01*
X114669478Y-83056286D01*
X112681465Y-85044298D01*
X112620142Y-85077783D01*
X112607668Y-85079837D01*
X112520750Y-85089630D01*
X112350478Y-85149210D01*
X112197737Y-85245184D01*
X112070184Y-85372737D01*
X111974210Y-85525478D01*
X111914630Y-85695750D01*
X111904837Y-85782668D01*
X111877770Y-85847082D01*
X111869298Y-85856465D01*
X111818965Y-85906798D01*
X111757642Y-85940283D01*
X111745168Y-85942337D01*
X111658250Y-85952130D01*
X111487978Y-86011710D01*
X111335237Y-86107684D01*
X111207684Y-86235237D01*
X111111711Y-86387976D01*
X111052131Y-86558245D01*
X111052130Y-86558250D01*
X111031935Y-86737496D01*
X101109405Y-86737496D01*
X101068903Y-86586337D01*
X100969035Y-86372171D01*
X100963731Y-86364595D01*
X100833494Y-86178597D01*
X100666402Y-86011506D01*
X100666395Y-86011501D01*
X100472831Y-85875965D01*
X100472824Y-85875961D01*
X100472094Y-85875621D01*
X100471826Y-85875385D01*
X100468140Y-85873257D01*
X100468567Y-85872516D01*
X100419655Y-85829448D01*
X100400500Y-85763240D01*
X100400500Y-78364090D01*
X100420185Y-78297051D01*
X100472101Y-78251706D01*
X100477830Y-78249035D01*
X100671401Y-78113495D01*
X100838495Y-77946401D01*
X100968425Y-77760842D01*
X101023002Y-77717217D01*
X101092500Y-77710023D01*
X101154855Y-77741546D01*
X101171575Y-77760842D01*
X101301500Y-77946395D01*
X101301505Y-77946401D01*
X101468599Y-78113495D01*
X101565384Y-78181265D01*
X101662165Y-78249032D01*
X101662167Y-78249033D01*
X101662170Y-78249035D01*
X101667898Y-78251706D01*
X101720339Y-78297872D01*
X101739500Y-78364090D01*
X101739500Y-80003330D01*
X101739499Y-80003348D01*
X101739499Y-80169054D01*
X101739498Y-80169054D01*
X101739499Y-80169057D01*
X101780423Y-80321785D01*
X101780424Y-80321787D01*
X101780423Y-80321787D01*
X101796255Y-80349207D01*
X101796257Y-80349209D01*
X101796258Y-80349211D01*
X101827691Y-80403655D01*
X101859479Y-80458715D01*
X101978349Y-80577585D01*
X101978355Y-80577590D01*
X102638181Y-81237416D01*
X102671666Y-81298739D01*
X102674500Y-81325097D01*
X102674500Y-81517587D01*
X102654815Y-81584626D01*
X102647450Y-81594896D01*
X102645186Y-81597734D01*
X102549210Y-81750478D01*
X102489630Y-81920750D01*
X102479837Y-82007668D01*
X102452770Y-82072082D01*
X102444298Y-82081465D01*
X102118965Y-82406798D01*
X102057642Y-82440283D01*
X102045168Y-82442337D01*
X101958250Y-82452130D01*
X101787978Y-82511710D01*
X101635237Y-82607684D01*
X101507684Y-82735237D01*
X101411711Y-82887976D01*
X101352131Y-83058245D01*
X101352130Y-83058250D01*
X101331935Y-83237496D01*
X101331935Y-83237503D01*
X101352130Y-83416749D01*
X101352131Y-83416754D01*
X101411711Y-83587023D01*
X101507684Y-83739762D01*
X101635238Y-83867316D01*
X101787978Y-83963289D01*
X101958245Y-84022868D01*
X101958250Y-84022869D01*
X102137496Y-84043065D01*
X102137500Y-84043065D01*
X102137504Y-84043065D01*
X102316749Y-84022869D01*
X102316752Y-84022868D01*
X102316755Y-84022868D01*
X102487022Y-83963289D01*
X102639762Y-83867316D01*
X102767316Y-83739762D01*
X102863289Y-83587022D01*
X102922868Y-83416755D01*
X102932661Y-83329829D01*
X102959726Y-83265418D01*
X102968190Y-83256043D01*
X103293535Y-82930698D01*
X103354856Y-82897215D01*
X103367311Y-82895163D01*
X103454255Y-82885368D01*
X103624522Y-82825789D01*
X103777262Y-82729816D01*
X103777267Y-82729810D01*
X103780097Y-82727555D01*
X103782275Y-82726665D01*
X103783158Y-82726111D01*
X103783255Y-82726265D01*
X103844783Y-82701145D01*
X103857412Y-82700500D01*
X113353331Y-82700500D01*
X113353347Y-82700501D01*
X113360943Y-82700501D01*
X113519054Y-82700501D01*
X113519057Y-82700501D01*
X113671785Y-82659577D01*
X113671787Y-82659575D01*
X113671789Y-82659575D01*
X113671790Y-82659574D01*
X113732013Y-82624804D01*
X113808716Y-82580520D01*
X113920520Y-82468716D01*
X113920520Y-82468714D01*
X113930724Y-82458511D01*
X113930727Y-82458506D01*
X117076036Y-79313198D01*
X117137357Y-79279715D01*
X117149810Y-79277663D01*
X117236755Y-79267868D01*
X117407022Y-79208289D01*
X117559762Y-79112316D01*
X117687316Y-78984762D01*
X117783289Y-78832022D01*
X117807373Y-78763192D01*
X117848093Y-78706418D01*
X117910528Y-78680928D01*
X118004255Y-78670368D01*
X118174522Y-78610789D01*
X118327262Y-78514816D01*
X118454816Y-78387262D01*
X118550789Y-78234522D01*
X118610368Y-78064255D01*
X118618616Y-77991053D01*
X118630565Y-77885003D01*
X118630565Y-77884996D01*
X118610369Y-77705750D01*
X118610368Y-77705745D01*
X118551903Y-77538663D01*
X118550789Y-77535478D01*
X118454816Y-77382738D01*
X118327262Y-77255184D01*
X118174523Y-77159211D01*
X118004254Y-77099631D01*
X118004249Y-77099630D01*
X117825004Y-77079435D01*
X117824996Y-77079435D01*
X117645750Y-77099630D01*
X117645745Y-77099631D01*
X117475476Y-77159211D01*
X117322737Y-77255184D01*
X117195184Y-77382737D01*
X117099212Y-77535475D01*
X117099210Y-77535479D01*
X117078373Y-77595024D01*
X117049014Y-77641747D01*
X117038963Y-77651798D01*
X116977640Y-77685283D01*
X116965166Y-77687337D01*
X116878250Y-77697130D01*
X116707978Y-77756710D01*
X116555237Y-77852684D01*
X116427684Y-77980237D01*
X116331710Y-78132978D01*
X116272130Y-78303250D01*
X116262337Y-78390167D01*
X116235270Y-78454581D01*
X116226798Y-78463964D01*
X113227584Y-81463181D01*
X113166261Y-81496666D01*
X113139903Y-81499500D01*
X103999500Y-81499500D01*
X103932461Y-81479815D01*
X103886706Y-81427011D01*
X103875500Y-81375500D01*
X103875500Y-81114060D01*
X103875501Y-81114047D01*
X103875501Y-80945944D01*
X103863796Y-80902262D01*
X103834577Y-80793216D01*
X103809351Y-80749523D01*
X103755524Y-80656290D01*
X103755518Y-80656282D01*
X102976819Y-79877583D01*
X102943334Y-79816260D01*
X102940500Y-79789902D01*
X102940500Y-78364090D01*
X102960185Y-78297051D01*
X103012101Y-78251706D01*
X103017830Y-78249035D01*
X103211401Y-78113495D01*
X103378495Y-77946401D01*
X103514035Y-77752830D01*
X103613903Y-77538663D01*
X103675063Y-77310408D01*
X103695659Y-77075000D01*
X103675063Y-76839592D01*
X103613903Y-76611337D01*
X103514035Y-76397171D01*
X103508731Y-76389595D01*
X103378494Y-76203597D01*
X103211402Y-76036506D01*
X103211395Y-76036501D01*
X103199861Y-76028425D01*
X103134518Y-75982671D01*
X103017834Y-75900967D01*
X103017830Y-75900965D01*
X103017828Y-75900964D01*
X102803663Y-75801097D01*
X102803659Y-75801096D01*
X102803655Y-75801094D01*
X102575413Y-75739938D01*
X102575403Y-75739936D01*
X102340001Y-75719341D01*
X102339999Y-75719341D01*
X102104596Y-75739936D01*
X102104586Y-75739938D01*
X101876344Y-75801094D01*
X101876335Y-75801098D01*
X101662171Y-75900964D01*
X101662169Y-75900965D01*
X101468597Y-76036505D01*
X101301505Y-76203597D01*
X101171575Y-76389158D01*
X101116998Y-76432783D01*
X101047500Y-76439977D01*
X100985145Y-76408454D01*
X100968425Y-76389158D01*
X100838494Y-76203597D01*
X100671402Y-76036506D01*
X100671395Y-76036501D01*
X100659861Y-76028425D01*
X100594518Y-75982671D01*
X100477834Y-75900967D01*
X100477830Y-75900965D01*
X100477828Y-75900964D01*
X100263663Y-75801097D01*
X100263659Y-75801096D01*
X100263655Y-75801094D01*
X100035413Y-75739938D01*
X100035403Y-75739936D01*
X99800001Y-75719341D01*
X99799999Y-75719341D01*
X99564596Y-75739936D01*
X99564586Y-75739938D01*
X99336344Y-75801094D01*
X99336335Y-75801098D01*
X99122171Y-75900964D01*
X99122169Y-75900965D01*
X98928597Y-76036505D01*
X98761508Y-76203594D01*
X98631269Y-76389595D01*
X98576692Y-76433219D01*
X98507193Y-76440412D01*
X98444839Y-76408890D01*
X98428119Y-76389594D01*
X98298113Y-76203926D01*
X98298108Y-76203920D01*
X98131082Y-76036894D01*
X97937578Y-75901399D01*
X97723492Y-75801570D01*
X97723486Y-75801567D01*
X97510000Y-75744364D01*
X97510000Y-76641988D01*
X97452993Y-76609075D01*
X97325826Y-76575000D01*
X97194174Y-76575000D01*
X97067007Y-76609075D01*
X97010000Y-76641988D01*
X97010000Y-75744364D01*
X97009999Y-75744364D01*
X96796513Y-75801567D01*
X96796507Y-75801570D01*
X96582422Y-75901399D01*
X96582420Y-75901400D01*
X96388926Y-76036886D01*
X96388920Y-76036891D01*
X96221891Y-76203920D01*
X96221890Y-76203922D01*
X96091880Y-76389595D01*
X96037303Y-76433219D01*
X95967804Y-76440412D01*
X95905450Y-76408890D01*
X95888730Y-76389594D01*
X95758494Y-76203597D01*
X95591402Y-76036506D01*
X95591395Y-76036501D01*
X95579861Y-76028425D01*
X95514518Y-75982671D01*
X95397834Y-75900967D01*
X95397830Y-75900965D01*
X95397828Y-75900964D01*
X95183663Y-75801097D01*
X95183659Y-75801096D01*
X95183655Y-75801094D01*
X94955413Y-75739938D01*
X94955403Y-75739936D01*
X94720001Y-75719341D01*
X94719999Y-75719341D01*
X94484596Y-75739936D01*
X94484586Y-75739938D01*
X94256344Y-75801094D01*
X94256335Y-75801098D01*
X94042171Y-75900964D01*
X94042169Y-75900965D01*
X93848597Y-76036505D01*
X93681505Y-76203597D01*
X93551575Y-76389158D01*
X93496998Y-76432783D01*
X93427500Y-76439977D01*
X93365145Y-76408454D01*
X93348425Y-76389158D01*
X93218494Y-76203597D01*
X93051402Y-76036506D01*
X93051395Y-76036501D01*
X93039861Y-76028425D01*
X92974518Y-75982671D01*
X92857834Y-75900967D01*
X92857830Y-75900965D01*
X92857828Y-75900964D01*
X92643663Y-75801097D01*
X92643659Y-75801096D01*
X92643655Y-75801094D01*
X92415413Y-75739938D01*
X92415403Y-75739936D01*
X92180001Y-75719341D01*
X92179999Y-75719341D01*
X91944596Y-75739936D01*
X91944586Y-75739938D01*
X91716344Y-75801094D01*
X91716335Y-75801098D01*
X91502171Y-75900964D01*
X91502169Y-75900965D01*
X91308597Y-76036505D01*
X91141508Y-76203594D01*
X91011269Y-76389595D01*
X90956692Y-76433219D01*
X90887193Y-76440412D01*
X90824839Y-76408890D01*
X90808119Y-76389594D01*
X90678113Y-76203926D01*
X90678108Y-76203920D01*
X90511082Y-76036894D01*
X90317578Y-75901399D01*
X90103492Y-75801570D01*
X90103486Y-75801567D01*
X89890000Y-75744364D01*
X89890000Y-76641988D01*
X89832993Y-76609075D01*
X89705826Y-76575000D01*
X89574174Y-76575000D01*
X89447007Y-76609075D01*
X89390000Y-76641988D01*
X89390000Y-75744364D01*
X89389999Y-75744364D01*
X89176513Y-75801567D01*
X89176507Y-75801570D01*
X88962422Y-75901399D01*
X88962420Y-75901400D01*
X88768926Y-76036886D01*
X88646865Y-76158947D01*
X88585542Y-76192431D01*
X88515850Y-76187447D01*
X88459917Y-76145575D01*
X88443002Y-76114598D01*
X88393797Y-75982671D01*
X88393793Y-75982664D01*
X88307547Y-75867455D01*
X88307544Y-75867452D01*
X88192335Y-75781206D01*
X88192328Y-75781202D01*
X88057482Y-75730908D01*
X88057483Y-75730908D01*
X87997883Y-75724501D01*
X87997881Y-75724500D01*
X87997873Y-75724500D01*
X87997864Y-75724500D01*
X86202129Y-75724500D01*
X86202123Y-75724501D01*
X86142516Y-75730908D01*
X86007671Y-75781202D01*
X86007664Y-75781206D01*
X85892455Y-75867452D01*
X85892452Y-75867455D01*
X85806206Y-75982664D01*
X85806202Y-75982671D01*
X85755908Y-76117517D01*
X85749501Y-76177116D01*
X85749500Y-76177135D01*
X83955500Y-76177135D01*
X83955500Y-73474996D01*
X110269435Y-73474996D01*
X110269435Y-73475003D01*
X110289630Y-73654249D01*
X110289631Y-73654254D01*
X110349211Y-73824523D01*
X110433727Y-73959028D01*
X110452727Y-74026264D01*
X110433727Y-74090972D01*
X110349211Y-74225476D01*
X110289631Y-74395745D01*
X110289630Y-74395750D01*
X110269435Y-74574996D01*
X110269435Y-74575003D01*
X110289630Y-74754249D01*
X110289631Y-74754254D01*
X110349211Y-74924523D01*
X110445185Y-75077263D01*
X110447445Y-75080097D01*
X110448334Y-75082275D01*
X110448889Y-75083158D01*
X110448734Y-75083255D01*
X110473855Y-75144783D01*
X110474500Y-75157412D01*
X110474500Y-78717587D01*
X110454815Y-78784626D01*
X110447450Y-78794896D01*
X110445186Y-78797734D01*
X110349211Y-78950476D01*
X110289631Y-79120745D01*
X110289630Y-79120750D01*
X110269435Y-79299996D01*
X110269435Y-79300003D01*
X110289630Y-79479249D01*
X110289631Y-79479254D01*
X110349211Y-79649523D01*
X110433727Y-79784028D01*
X110452727Y-79851264D01*
X110433727Y-79915972D01*
X110349211Y-80050476D01*
X110289631Y-80220745D01*
X110289630Y-80220750D01*
X110269435Y-80399996D01*
X110269435Y-80400003D01*
X110289630Y-80579249D01*
X110289631Y-80579254D01*
X110349211Y-80749523D01*
X110420499Y-80862976D01*
X110445184Y-80902262D01*
X110572738Y-81029816D01*
X110644648Y-81075000D01*
X110706790Y-81114047D01*
X110725478Y-81125789D01*
X110895745Y-81185368D01*
X110895750Y-81185369D01*
X111074996Y-81205565D01*
X111075000Y-81205565D01*
X111075004Y-81205565D01*
X111254249Y-81185369D01*
X111254252Y-81185368D01*
X111254255Y-81185368D01*
X111424522Y-81125789D01*
X111577262Y-81029816D01*
X111704816Y-80902262D01*
X111800789Y-80749522D01*
X111860368Y-80579255D01*
X111860845Y-80575023D01*
X111880565Y-80400003D01*
X111880565Y-80399996D01*
X111860369Y-80220750D01*
X111860368Y-80220745D01*
X111800788Y-80050475D01*
X111750156Y-79969896D01*
X111716272Y-79915970D01*
X111697272Y-79848736D01*
X111716273Y-79784028D01*
X111797938Y-79654059D01*
X111800788Y-79649524D01*
X111858027Y-79485945D01*
X111860368Y-79479255D01*
X111876823Y-79333215D01*
X111880565Y-79300003D01*
X111880565Y-79299996D01*
X111860369Y-79120750D01*
X111860368Y-79120745D01*
X111801922Y-78953716D01*
X111800789Y-78950478D01*
X111704816Y-78797738D01*
X111704814Y-78797736D01*
X111704813Y-78797734D01*
X111702550Y-78794896D01*
X111701659Y-78792715D01*
X111701111Y-78791842D01*
X111701264Y-78791745D01*
X111676144Y-78730209D01*
X111675500Y-78717587D01*
X111675500Y-75157412D01*
X111695185Y-75090373D01*
X111702555Y-75080097D01*
X111704810Y-75077267D01*
X111704816Y-75077262D01*
X111800789Y-74924522D01*
X111860368Y-74754255D01*
X111866392Y-74700789D01*
X111880565Y-74575003D01*
X111880565Y-74574996D01*
X111860369Y-74395750D01*
X111860368Y-74395745D01*
X111800788Y-74225475D01*
X111740204Y-74129058D01*
X111716272Y-74090970D01*
X111697272Y-74023736D01*
X111716273Y-73959028D01*
X111800789Y-73824522D01*
X111860368Y-73654255D01*
X111860369Y-73654249D01*
X111880565Y-73475003D01*
X111880565Y-73474996D01*
X111860369Y-73295750D01*
X111860368Y-73295745D01*
X111810860Y-73154259D01*
X111800789Y-73125478D01*
X111704816Y-72972738D01*
X111577262Y-72845184D01*
X111551902Y-72829249D01*
X111424523Y-72749211D01*
X111254254Y-72689631D01*
X111254249Y-72689630D01*
X111075004Y-72669435D01*
X111074996Y-72669435D01*
X110895750Y-72689630D01*
X110895745Y-72689631D01*
X110725476Y-72749211D01*
X110572737Y-72845184D01*
X110445184Y-72972737D01*
X110349211Y-73125476D01*
X110289631Y-73295745D01*
X110289630Y-73295750D01*
X110269435Y-73474996D01*
X83955500Y-73474996D01*
X83955500Y-66924999D01*
X85569341Y-66924999D01*
X85569341Y-66925000D01*
X85589936Y-67160403D01*
X85589938Y-67160413D01*
X85651094Y-67388655D01*
X85651096Y-67388659D01*
X85651097Y-67388663D01*
X85724934Y-67547007D01*
X85750965Y-67602830D01*
X85750967Y-67602834D01*
X85859281Y-67757521D01*
X85886501Y-67796396D01*
X85886506Y-67796402D01*
X86008430Y-67918326D01*
X86041915Y-67979649D01*
X86036931Y-68049341D01*
X85995059Y-68105274D01*
X85964083Y-68122189D01*
X85832669Y-68171203D01*
X85832664Y-68171206D01*
X85717455Y-68257452D01*
X85717452Y-68257455D01*
X85631206Y-68372664D01*
X85631202Y-68372671D01*
X85580908Y-68507517D01*
X85574501Y-68567116D01*
X85574500Y-68567135D01*
X85574500Y-70362870D01*
X85574501Y-70362876D01*
X85580908Y-70422483D01*
X85631202Y-70557328D01*
X85631206Y-70557335D01*
X85717452Y-70672544D01*
X85717455Y-70672547D01*
X85832664Y-70758793D01*
X85832671Y-70758797D01*
X85967517Y-70809091D01*
X85967516Y-70809091D01*
X85974444Y-70809835D01*
X86027127Y-70815500D01*
X87822872Y-70815499D01*
X87882483Y-70809091D01*
X88017331Y-70758796D01*
X88132546Y-70672546D01*
X88218796Y-70557331D01*
X88269091Y-70422483D01*
X88275500Y-70362873D01*
X88275499Y-70150883D01*
X88295183Y-70083845D01*
X88347987Y-70038090D01*
X88367397Y-70031111D01*
X88391785Y-70024577D01*
X88465845Y-69981818D01*
X88528716Y-69945520D01*
X88640520Y-69833716D01*
X88640520Y-69833714D01*
X88649239Y-69824996D01*
X101794435Y-69824996D01*
X101794435Y-69825003D01*
X101814630Y-70004249D01*
X101814631Y-70004254D01*
X101874211Y-70174523D01*
X101922914Y-70252032D01*
X101970184Y-70327262D01*
X102097738Y-70454816D01*
X102250478Y-70550789D01*
X102420745Y-70610368D01*
X102420750Y-70610369D01*
X102599996Y-70630565D01*
X102600000Y-70630565D01*
X102600004Y-70630565D01*
X102779249Y-70610369D01*
X102779252Y-70610368D01*
X102779255Y-70610368D01*
X102949522Y-70550789D01*
X103084029Y-70466272D01*
X103151264Y-70447272D01*
X103215970Y-70466272D01*
X103280720Y-70506957D01*
X103350475Y-70550788D01*
X103520745Y-70610368D01*
X103520750Y-70610369D01*
X103699996Y-70630565D01*
X103700000Y-70630565D01*
X103700004Y-70630565D01*
X103879249Y-70610369D01*
X103879252Y-70610368D01*
X103879255Y-70610368D01*
X104049522Y-70550789D01*
X104202262Y-70454816D01*
X104202267Y-70454810D01*
X104205097Y-70452555D01*
X104207275Y-70451665D01*
X104208158Y-70451111D01*
X104208255Y-70451265D01*
X104269783Y-70426145D01*
X104282412Y-70425500D01*
X126688777Y-70425500D01*
X126755816Y-70445185D01*
X126790352Y-70478377D01*
X126911501Y-70651396D01*
X126911506Y-70651402D01*
X127078597Y-70818493D01*
X127078603Y-70818498D01*
X127264158Y-70948425D01*
X127307783Y-71003002D01*
X127314977Y-71072500D01*
X127283454Y-71134855D01*
X127264158Y-71151575D01*
X127078597Y-71281505D01*
X126911505Y-71448597D01*
X126775965Y-71642169D01*
X126775964Y-71642171D01*
X126676098Y-71856335D01*
X126676094Y-71856344D01*
X126614938Y-72084586D01*
X126614936Y-72084596D01*
X126594341Y-72319999D01*
X126594341Y-72320000D01*
X126614936Y-72555403D01*
X126614938Y-72555413D01*
X126676094Y-72783655D01*
X126676096Y-72783659D01*
X126676097Y-72783663D01*
X126697357Y-72829255D01*
X126775965Y-72997830D01*
X126775967Y-72997834D01*
X126865344Y-73125476D01*
X126911501Y-73191396D01*
X126911506Y-73191402D01*
X127078597Y-73358493D01*
X127078603Y-73358498D01*
X127264158Y-73488425D01*
X127307783Y-73543002D01*
X127314977Y-73612500D01*
X127283454Y-73674855D01*
X127264158Y-73691575D01*
X127078597Y-73821505D01*
X126911505Y-73988597D01*
X126775965Y-74182169D01*
X126775964Y-74182171D01*
X126676098Y-74396335D01*
X126676094Y-74396344D01*
X126614938Y-74624586D01*
X126614936Y-74624596D01*
X126594341Y-74859999D01*
X126594341Y-74860000D01*
X126614936Y-75095403D01*
X126614938Y-75095413D01*
X126676094Y-75323655D01*
X126676096Y-75323659D01*
X126676097Y-75323663D01*
X126775965Y-75537830D01*
X126911501Y-75731396D01*
X126911506Y-75731402D01*
X127078597Y-75898493D01*
X127078603Y-75898498D01*
X127264158Y-76028425D01*
X127307783Y-76083002D01*
X127314977Y-76152500D01*
X127283454Y-76214855D01*
X127264158Y-76231575D01*
X127078597Y-76361505D01*
X126911505Y-76528597D01*
X126775965Y-76722169D01*
X126775964Y-76722171D01*
X126676098Y-76936335D01*
X126676094Y-76936344D01*
X126614938Y-77164586D01*
X126614936Y-77164596D01*
X126594341Y-77399999D01*
X126594341Y-77400000D01*
X126614936Y-77635403D01*
X126614938Y-77635413D01*
X126676094Y-77863655D01*
X126676096Y-77863659D01*
X126676097Y-77863663D01*
X126759358Y-78042217D01*
X126775965Y-78077830D01*
X126775967Y-78077834D01*
X126838632Y-78167328D01*
X126911501Y-78271396D01*
X126911506Y-78271402D01*
X127078597Y-78438493D01*
X127078603Y-78438498D01*
X127264158Y-78568425D01*
X127307783Y-78623002D01*
X127314977Y-78692500D01*
X127283454Y-78754855D01*
X127264158Y-78771575D01*
X127078597Y-78901505D01*
X126911505Y-79068597D01*
X126775965Y-79262169D01*
X126775964Y-79262171D01*
X126676098Y-79476335D01*
X126676094Y-79476344D01*
X126614938Y-79704586D01*
X126614936Y-79704596D01*
X126594341Y-79939999D01*
X126594341Y-79940000D01*
X126614936Y-80175403D01*
X126614938Y-80175413D01*
X126676094Y-80403655D01*
X126676096Y-80403659D01*
X126676097Y-80403663D01*
X126754936Y-80572734D01*
X126775965Y-80617830D01*
X126775967Y-80617834D01*
X126884281Y-80772521D01*
X126911505Y-80811401D01*
X127078599Y-80978495D01*
X127151893Y-81029816D01*
X127272165Y-81114032D01*
X127272167Y-81114033D01*
X127272170Y-81114035D01*
X127486337Y-81213903D01*
X127714592Y-81275063D01*
X127902918Y-81291539D01*
X127949999Y-81295659D01*
X127950000Y-81295659D01*
X127950001Y-81295659D01*
X127989234Y-81292226D01*
X128185408Y-81275063D01*
X128413663Y-81213903D01*
X128627830Y-81114035D01*
X128821401Y-80978495D01*
X128988495Y-80811401D01*
X129118425Y-80625842D01*
X129173002Y-80582217D01*
X129242500Y-80575023D01*
X129304855Y-80606546D01*
X129321575Y-80625842D01*
X129451500Y-80811395D01*
X129451505Y-80811401D01*
X129618599Y-80978495D01*
X129691893Y-81029816D01*
X129812165Y-81114032D01*
X129812167Y-81114033D01*
X129812170Y-81114035D01*
X130026337Y-81213903D01*
X130254592Y-81275063D01*
X130442918Y-81291539D01*
X130489999Y-81295659D01*
X130490000Y-81295659D01*
X130490001Y-81295659D01*
X130529234Y-81292226D01*
X130725408Y-81275063D01*
X130953663Y-81213903D01*
X131167830Y-81114035D01*
X131361401Y-80978495D01*
X131528495Y-80811401D01*
X131664035Y-80617830D01*
X131763903Y-80403663D01*
X131825063Y-80175408D01*
X131845659Y-79940000D01*
X131825063Y-79704592D01*
X131778626Y-79531285D01*
X131763905Y-79476344D01*
X131763904Y-79476343D01*
X131763903Y-79476337D01*
X131664035Y-79262171D01*
X131658425Y-79254158D01*
X131528494Y-79068597D01*
X131361402Y-78901506D01*
X131361396Y-78901501D01*
X131175842Y-78771575D01*
X131132217Y-78716998D01*
X131125023Y-78647500D01*
X131156546Y-78585145D01*
X131175842Y-78568425D01*
X131265075Y-78505943D01*
X131361401Y-78438495D01*
X131528495Y-78271401D01*
X131664035Y-78077830D01*
X131763903Y-77863663D01*
X131825063Y-77635408D01*
X131845659Y-77400000D01*
X131825063Y-77164592D01*
X131763903Y-76936337D01*
X131664035Y-76722171D01*
X131658425Y-76714158D01*
X131528494Y-76528597D01*
X131361402Y-76361506D01*
X131361396Y-76361501D01*
X131175842Y-76231575D01*
X131132217Y-76176998D01*
X131125023Y-76107500D01*
X131156546Y-76045145D01*
X131175842Y-76028425D01*
X131357252Y-75901400D01*
X131361401Y-75898495D01*
X131528495Y-75731401D01*
X131664035Y-75537830D01*
X131763903Y-75323663D01*
X131825063Y-75095408D01*
X131845659Y-74860000D01*
X131825063Y-74624592D01*
X131763903Y-74396337D01*
X131664035Y-74182171D01*
X131658425Y-74174158D01*
X131528494Y-73988597D01*
X131361402Y-73821506D01*
X131361396Y-73821501D01*
X131175842Y-73691575D01*
X131132217Y-73636998D01*
X131125023Y-73567500D01*
X131156546Y-73505145D01*
X131175842Y-73488425D01*
X131247256Y-73438420D01*
X131361401Y-73358495D01*
X131528495Y-73191401D01*
X131664035Y-72997830D01*
X131763903Y-72783663D01*
X131825063Y-72555408D01*
X131845659Y-72320000D01*
X131825063Y-72084592D01*
X131763903Y-71856337D01*
X131664035Y-71642171D01*
X131658425Y-71634158D01*
X131528494Y-71448597D01*
X131361402Y-71281506D01*
X131361396Y-71281501D01*
X131175842Y-71151575D01*
X131132217Y-71096998D01*
X131125023Y-71027500D01*
X131156546Y-70965145D01*
X131175842Y-70948425D01*
X131198026Y-70932891D01*
X131361401Y-70818495D01*
X131528495Y-70651401D01*
X131664035Y-70457830D01*
X131763903Y-70243663D01*
X131825063Y-70015408D01*
X131845659Y-69780000D01*
X131825063Y-69544592D01*
X131763903Y-69316337D01*
X131664035Y-69102171D01*
X131661963Y-69099211D01*
X131528494Y-68908597D01*
X131361402Y-68741506D01*
X131361401Y-68741505D01*
X131175405Y-68611269D01*
X131131781Y-68556692D01*
X131124588Y-68487193D01*
X131156110Y-68424839D01*
X131175405Y-68408119D01*
X131361082Y-68278105D01*
X131528105Y-68111082D01*
X131663600Y-67917578D01*
X131763429Y-67703492D01*
X131763432Y-67703486D01*
X131820636Y-67490000D01*
X130923012Y-67490000D01*
X130955925Y-67432993D01*
X130990000Y-67305826D01*
X130990000Y-67174174D01*
X130955925Y-67047007D01*
X130923012Y-66990000D01*
X131820636Y-66990000D01*
X131820635Y-66989999D01*
X131763432Y-66776513D01*
X131763429Y-66776507D01*
X131663600Y-66562422D01*
X131663599Y-66562420D01*
X131528113Y-66368926D01*
X131528108Y-66368920D01*
X131406053Y-66246865D01*
X131372568Y-66185542D01*
X131377552Y-66115850D01*
X131419424Y-66059917D01*
X131450400Y-66043002D01*
X131582331Y-65993796D01*
X131697546Y-65907546D01*
X131783796Y-65792331D01*
X131834091Y-65657483D01*
X131840500Y-65597873D01*
X131840499Y-63802128D01*
X131834091Y-63742517D01*
X131832810Y-63739083D01*
X131783797Y-63607671D01*
X131783793Y-63607664D01*
X131697547Y-63492455D01*
X131697544Y-63492452D01*
X131582335Y-63406206D01*
X131582328Y-63406202D01*
X131447482Y-63355908D01*
X131447483Y-63355908D01*
X131387883Y-63349501D01*
X131387881Y-63349500D01*
X131387873Y-63349500D01*
X131387864Y-63349500D01*
X129592129Y-63349500D01*
X129592123Y-63349501D01*
X129532516Y-63355908D01*
X129397671Y-63406202D01*
X129397664Y-63406206D01*
X129282455Y-63492452D01*
X129282452Y-63492455D01*
X129196206Y-63607664D01*
X129196203Y-63607669D01*
X129147189Y-63739083D01*
X129105317Y-63795016D01*
X129039853Y-63819433D01*
X128971580Y-63804581D01*
X128943326Y-63783430D01*
X128821402Y-63661506D01*
X128821395Y-63661501D01*
X128627834Y-63525967D01*
X128627830Y-63525965D01*
X128627828Y-63525964D01*
X128413663Y-63426097D01*
X128413659Y-63426096D01*
X128413655Y-63426094D01*
X128185413Y-63364938D01*
X128185403Y-63364936D01*
X127950001Y-63344341D01*
X127949999Y-63344341D01*
X127714596Y-63364936D01*
X127714586Y-63364938D01*
X127486344Y-63426094D01*
X127486335Y-63426098D01*
X127272171Y-63525964D01*
X127272169Y-63525965D01*
X127078597Y-63661505D01*
X126911505Y-63828597D01*
X126775965Y-64022169D01*
X126775964Y-64022171D01*
X126676098Y-64236335D01*
X126676094Y-64236344D01*
X126614938Y-64464586D01*
X126614936Y-64464596D01*
X126594341Y-64699999D01*
X126594341Y-64700000D01*
X126614936Y-64935403D01*
X126614938Y-64935413D01*
X126676094Y-65163655D01*
X126676096Y-65163659D01*
X126676097Y-65163663D01*
X126760499Y-65344663D01*
X126775965Y-65377830D01*
X126775967Y-65377834D01*
X126911501Y-65571395D01*
X126911506Y-65571402D01*
X127078597Y-65738493D01*
X127078603Y-65738498D01*
X127264594Y-65868730D01*
X127308219Y-65923307D01*
X127315413Y-65992805D01*
X127283890Y-66055160D01*
X127264595Y-66071880D01*
X127078922Y-66201890D01*
X127078920Y-66201891D01*
X126911891Y-66368920D01*
X126911886Y-66368926D01*
X126776400Y-66562420D01*
X126776399Y-66562422D01*
X126676570Y-66776507D01*
X126676567Y-66776513D01*
X126619364Y-66989999D01*
X126619364Y-66990000D01*
X127516988Y-66990000D01*
X127484075Y-67047007D01*
X127450000Y-67174174D01*
X127450000Y-67305826D01*
X127484075Y-67432993D01*
X127516988Y-67490000D01*
X126619364Y-67490000D01*
X126676567Y-67703486D01*
X126676570Y-67703492D01*
X126776399Y-67917578D01*
X126911894Y-68111082D01*
X127078917Y-68278105D01*
X127264595Y-68408119D01*
X127308219Y-68462696D01*
X127315412Y-68532195D01*
X127283890Y-68594549D01*
X127264595Y-68611269D01*
X127078594Y-68741508D01*
X126911506Y-68908596D01*
X126775966Y-69102169D01*
X126752307Y-69152906D01*
X126706134Y-69205345D01*
X126639925Y-69224500D01*
X104282412Y-69224500D01*
X104215373Y-69204815D01*
X104205097Y-69197445D01*
X104202263Y-69195185D01*
X104202262Y-69195184D01*
X104072190Y-69113454D01*
X104049523Y-69099211D01*
X103879254Y-69039631D01*
X103879249Y-69039630D01*
X103700004Y-69019435D01*
X103699996Y-69019435D01*
X103520750Y-69039630D01*
X103520745Y-69039631D01*
X103350476Y-69099211D01*
X103215972Y-69183727D01*
X103148736Y-69202727D01*
X103084028Y-69183727D01*
X102949523Y-69099211D01*
X102779254Y-69039631D01*
X102779249Y-69039630D01*
X102600004Y-69019435D01*
X102599996Y-69019435D01*
X102420750Y-69039630D01*
X102420745Y-69039631D01*
X102250476Y-69099211D01*
X102097737Y-69195184D01*
X101970184Y-69322737D01*
X101874211Y-69475476D01*
X101814631Y-69645745D01*
X101814630Y-69645750D01*
X101794435Y-69824996D01*
X88649239Y-69824996D01*
X88650724Y-69823511D01*
X88650728Y-69823506D01*
X93618713Y-64855521D01*
X93618716Y-64855520D01*
X93730520Y-64743716D01*
X93780639Y-64656904D01*
X93809577Y-64606785D01*
X93850501Y-64454057D01*
X93850501Y-64295943D01*
X93850501Y-64288348D01*
X93850500Y-64288330D01*
X93850500Y-63175557D01*
X93870185Y-63108518D01*
X93922989Y-63062763D01*
X93992147Y-63052819D01*
X94015446Y-63058513D01*
X94020745Y-63060368D01*
X94020752Y-63060368D01*
X94020753Y-63060369D01*
X94199996Y-63080565D01*
X94200000Y-63080565D01*
X94200004Y-63080565D01*
X94379249Y-63060369D01*
X94379252Y-63060368D01*
X94379255Y-63060368D01*
X94549522Y-63000789D01*
X94702262Y-62904816D01*
X94829816Y-62777262D01*
X94925789Y-62624522D01*
X94985368Y-62454255D01*
X95002748Y-62300003D01*
X95005565Y-62275003D01*
X95005565Y-62274996D01*
X101594435Y-62274996D01*
X101594435Y-62275003D01*
X101614630Y-62454249D01*
X101614631Y-62454254D01*
X101674211Y-62624523D01*
X101689920Y-62649523D01*
X101770184Y-62777262D01*
X101897738Y-62904816D01*
X102050478Y-63000789D01*
X102121924Y-63025789D01*
X102220745Y-63060368D01*
X102220750Y-63060369D01*
X102399996Y-63080565D01*
X102400000Y-63080565D01*
X102400004Y-63080565D01*
X102579249Y-63060369D01*
X102579252Y-63060368D01*
X102579255Y-63060368D01*
X102749522Y-63000789D01*
X102834027Y-62947691D01*
X102901264Y-62928690D01*
X102965973Y-62947691D01*
X103050475Y-63000788D01*
X103220745Y-63060368D01*
X103220750Y-63060369D01*
X103399996Y-63080565D01*
X103400000Y-63080565D01*
X103400004Y-63080565D01*
X103579249Y-63060369D01*
X103579252Y-63060368D01*
X103579255Y-63060368D01*
X103749522Y-63000789D01*
X103902262Y-62904816D01*
X103902267Y-62904810D01*
X103905097Y-62902555D01*
X103907275Y-62901665D01*
X103908158Y-62901111D01*
X103908255Y-62901265D01*
X103969783Y-62876145D01*
X103982412Y-62875500D01*
X112992060Y-62875500D01*
X113059099Y-62895185D01*
X113079741Y-62911819D01*
X113097738Y-62929816D01*
X113250478Y-63025789D01*
X113344012Y-63058518D01*
X113420745Y-63085368D01*
X113420750Y-63085369D01*
X113599996Y-63105565D01*
X113600000Y-63105565D01*
X113600004Y-63105565D01*
X113779249Y-63085369D01*
X113779252Y-63085368D01*
X113779255Y-63085368D01*
X113949522Y-63025789D01*
X113971529Y-63011960D01*
X114038762Y-62992960D01*
X114103470Y-63011960D01*
X114125478Y-63025789D01*
X114231144Y-63062763D01*
X114295745Y-63085368D01*
X114295750Y-63085369D01*
X114474996Y-63105565D01*
X114475000Y-63105565D01*
X114475004Y-63105565D01*
X114654249Y-63085369D01*
X114654252Y-63085368D01*
X114654255Y-63085368D01*
X114824522Y-63025789D01*
X114977262Y-62929816D01*
X115104816Y-62802262D01*
X115200789Y-62649522D01*
X115260368Y-62479255D01*
X115263185Y-62454254D01*
X115280565Y-62300003D01*
X115280565Y-62299996D01*
X115260369Y-62120750D01*
X115260368Y-62120745D01*
X115200788Y-61950476D01*
X115104815Y-61797737D01*
X114977262Y-61670184D01*
X114824523Y-61574211D01*
X114654254Y-61514631D01*
X114654249Y-61514630D01*
X114475004Y-61494435D01*
X114474996Y-61494435D01*
X114295750Y-61514630D01*
X114295737Y-61514633D01*
X114125480Y-61574209D01*
X114103470Y-61588039D01*
X114036233Y-61607038D01*
X113971530Y-61588039D01*
X113949519Y-61574209D01*
X113779262Y-61514633D01*
X113779249Y-61514630D01*
X113600004Y-61494435D01*
X113599996Y-61494435D01*
X113420750Y-61514630D01*
X113420745Y-61514631D01*
X113250476Y-61574211D01*
X113121117Y-61655494D01*
X113055145Y-61674500D01*
X103982412Y-61674500D01*
X103915373Y-61654815D01*
X103905097Y-61647445D01*
X103902263Y-61645185D01*
X103902262Y-61645184D01*
X103841553Y-61607038D01*
X103749523Y-61549211D01*
X103579254Y-61489631D01*
X103579249Y-61489630D01*
X103400004Y-61469435D01*
X103399996Y-61469435D01*
X103220750Y-61489630D01*
X103220737Y-61489633D01*
X103050479Y-61549209D01*
X102965971Y-61602309D01*
X102898734Y-61621309D01*
X102834029Y-61602309D01*
X102749520Y-61549209D01*
X102579262Y-61489633D01*
X102579249Y-61489630D01*
X102400004Y-61469435D01*
X102399996Y-61469435D01*
X102220750Y-61489630D01*
X102220745Y-61489631D01*
X102050476Y-61549211D01*
X101897737Y-61645184D01*
X101770184Y-61772737D01*
X101674211Y-61925476D01*
X101614631Y-62095745D01*
X101614630Y-62095750D01*
X101594435Y-62274996D01*
X95005565Y-62274996D01*
X94985369Y-62095750D01*
X94985368Y-62095745D01*
X94925789Y-61925478D01*
X94829816Y-61772738D01*
X94702262Y-61645184D01*
X94642798Y-61607820D01*
X94549523Y-61549211D01*
X94379254Y-61489631D01*
X94379249Y-61489630D01*
X94200004Y-61469435D01*
X94199996Y-61469435D01*
X94020750Y-61489630D01*
X94020745Y-61489631D01*
X93850474Y-61549212D01*
X93790971Y-61586600D01*
X93723734Y-61605600D01*
X93659029Y-61586600D01*
X93599525Y-61549212D01*
X93429254Y-61489631D01*
X93429249Y-61489630D01*
X93250004Y-61469435D01*
X93249996Y-61469435D01*
X93070750Y-61489630D01*
X93070745Y-61489631D01*
X92900476Y-61549211D01*
X92747737Y-61645184D01*
X92620184Y-61772737D01*
X92524211Y-61925476D01*
X92464631Y-62095745D01*
X92464630Y-62095750D01*
X92444435Y-62274996D01*
X92444435Y-62275003D01*
X92464630Y-62454249D01*
X92464631Y-62454254D01*
X92524211Y-62624523D01*
X92620185Y-62777263D01*
X92622445Y-62780097D01*
X92623334Y-62782275D01*
X92623889Y-62783158D01*
X92623734Y-62783255D01*
X92648855Y-62844783D01*
X92649500Y-62857412D01*
X92649500Y-64074902D01*
X92629815Y-64141941D01*
X92613181Y-64162583D01*
X88398885Y-68376878D01*
X88337562Y-68410363D01*
X88267870Y-68405379D01*
X88211939Y-68363509D01*
X88132546Y-68257454D01*
X88132544Y-68257452D01*
X88132543Y-68257451D01*
X88017335Y-68171206D01*
X88017328Y-68171202D01*
X87885917Y-68122189D01*
X87829983Y-68080318D01*
X87805566Y-68014853D01*
X87820418Y-67946580D01*
X87841563Y-67918332D01*
X87963495Y-67796401D01*
X88099035Y-67602830D01*
X88198903Y-67388663D01*
X88260063Y-67160408D01*
X88280659Y-66925000D01*
X88260063Y-66689592D01*
X88198903Y-66461337D01*
X88099035Y-66247171D01*
X88079037Y-66218610D01*
X87963494Y-66053597D01*
X87796402Y-65886506D01*
X87796395Y-65886501D01*
X87602834Y-65750967D01*
X87602830Y-65750965D01*
X87602828Y-65750964D01*
X87388663Y-65651097D01*
X87388659Y-65651096D01*
X87388655Y-65651094D01*
X87160413Y-65589938D01*
X87160403Y-65589936D01*
X86925001Y-65569341D01*
X86924999Y-65569341D01*
X86689596Y-65589936D01*
X86689586Y-65589938D01*
X86461344Y-65651094D01*
X86461335Y-65651098D01*
X86247171Y-65750964D01*
X86247169Y-65750965D01*
X86053597Y-65886505D01*
X85886505Y-66053597D01*
X85750965Y-66247169D01*
X85750964Y-66247171D01*
X85651098Y-66461335D01*
X85651094Y-66461344D01*
X85589938Y-66689586D01*
X85589936Y-66689596D01*
X85569341Y-66924999D01*
X83955500Y-66924999D01*
X83955500Y-60793713D01*
X84249500Y-60793713D01*
X84249500Y-61006286D01*
X84282753Y-61216239D01*
X84348444Y-61418414D01*
X84444951Y-61607820D01*
X84569890Y-61779786D01*
X84720213Y-61930109D01*
X84892179Y-62055048D01*
X84892181Y-62055049D01*
X84892184Y-62055051D01*
X85081588Y-62151557D01*
X85283757Y-62217246D01*
X85493713Y-62250500D01*
X85493714Y-62250500D01*
X85706286Y-62250500D01*
X85706287Y-62250500D01*
X85916243Y-62217246D01*
X86118412Y-62151557D01*
X86307816Y-62055051D01*
X86329789Y-62039086D01*
X86479786Y-61930109D01*
X86479788Y-61930106D01*
X86479792Y-61930104D01*
X86630104Y-61779792D01*
X86630106Y-61779788D01*
X86630109Y-61779786D01*
X86755048Y-61607820D01*
X86755047Y-61607820D01*
X86755051Y-61607816D01*
X86851557Y-61418412D01*
X86917246Y-61216243D01*
X86950500Y-61006287D01*
X86950500Y-60793713D01*
X129949500Y-60793713D01*
X129949500Y-61006286D01*
X129982753Y-61216239D01*
X130048444Y-61418414D01*
X130144951Y-61607820D01*
X130269890Y-61779786D01*
X130420213Y-61930109D01*
X130592179Y-62055048D01*
X130592181Y-62055049D01*
X130592184Y-62055051D01*
X130781588Y-62151557D01*
X130983757Y-62217246D01*
X131193713Y-62250500D01*
X131193714Y-62250500D01*
X131406286Y-62250500D01*
X131406287Y-62250500D01*
X131616243Y-62217246D01*
X131818412Y-62151557D01*
X132007816Y-62055051D01*
X132029789Y-62039086D01*
X132179786Y-61930109D01*
X132179788Y-61930106D01*
X132179792Y-61930104D01*
X132330104Y-61779792D01*
X132330106Y-61779788D01*
X132330109Y-61779786D01*
X132455048Y-61607820D01*
X132455047Y-61607820D01*
X132455051Y-61607816D01*
X132551557Y-61418412D01*
X132617246Y-61216243D01*
X132650500Y-61006287D01*
X132650500Y-60793713D01*
X132617246Y-60583757D01*
X132551557Y-60381588D01*
X132455051Y-60192184D01*
X132455049Y-60192181D01*
X132455048Y-60192179D01*
X132330109Y-60020213D01*
X132179786Y-59869890D01*
X132007820Y-59744951D01*
X131818414Y-59648444D01*
X131818413Y-59648443D01*
X131818412Y-59648443D01*
X131616243Y-59582754D01*
X131616241Y-59582753D01*
X131616240Y-59582753D01*
X131454957Y-59557208D01*
X131406287Y-59549500D01*
X131193713Y-59549500D01*
X131145042Y-59557208D01*
X130983760Y-59582753D01*
X130781585Y-59648444D01*
X130592179Y-59744951D01*
X130420213Y-59869890D01*
X130269890Y-60020213D01*
X130144951Y-60192179D01*
X130048444Y-60381585D01*
X129982753Y-60583760D01*
X129949500Y-60793713D01*
X86950500Y-60793713D01*
X86917246Y-60583757D01*
X86851557Y-60381588D01*
X86755051Y-60192184D01*
X86755049Y-60192181D01*
X86755048Y-60192179D01*
X86630109Y-60020213D01*
X86479786Y-59869890D01*
X86307820Y-59744951D01*
X86118414Y-59648444D01*
X86118413Y-59648443D01*
X86118412Y-59648443D01*
X85916243Y-59582754D01*
X85916241Y-59582753D01*
X85916240Y-59582753D01*
X85754957Y-59557208D01*
X85706287Y-59549500D01*
X85493713Y-59549500D01*
X85445042Y-59557208D01*
X85283760Y-59582753D01*
X85081585Y-59648444D01*
X84892179Y-59744951D01*
X84720213Y-59869890D01*
X84569890Y-60020213D01*
X84444951Y-60192179D01*
X84348444Y-60381585D01*
X84282753Y-60583760D01*
X84249500Y-60793713D01*
X83955500Y-60793713D01*
X83955500Y-59324500D01*
X83975185Y-59257461D01*
X84027989Y-59211706D01*
X84079500Y-59200500D01*
X132830500Y-59200500D01*
X132897539Y-59220185D01*
G37*
G04 #@! TD.AperFunction*
M02*
