solid ASCII
  facet normal 9.238795e-01 0.000000e+00 -3.826834e-01
    outer loop
      vertex   1.722500e+02 2.385000e+01 1.135000e+02
      vertex   1.722500e+02 6.515000e+01 1.135000e+02
      vertex   1.724257e+02 2.367426e+01 1.139243e+02
    endloop
  endfacet
  facet normal 9.238795e-01 -2.611316e-16 -3.826834e-01
    outer loop
      vertex   1.724257e+02 2.367426e+01 1.139243e+02
      vertex   1.722500e+02 6.515000e+01 1.135000e+02
      vertex   1.724257e+02 6.532574e+01 1.139243e+02
    endloop
  endfacet
  facet normal 7.071068e-01 4.825084e-16 7.071068e-01
    outer loop
      vertex   1.724257e+02 2.367426e+01 1.139243e+02
      vertex   1.724257e+02 6.532574e+01 1.139243e+02
      vertex   1.716000e+02 2.450000e+01 1.147500e+02
    endloop
  endfacet
  facet normal 7.071068e-01 -0.000000e+00 7.071068e-01
    outer loop
      vertex   1.716000e+02 2.450000e+01 1.147500e+02
      vertex   1.724257e+02 6.532574e+01 1.139243e+02
      vertex   1.716000e+02 6.450000e+01 1.147500e+02
    endloop
  endfacet
  facet normal -9.238795e-01 2.955129e-17 -3.826834e-01
    outer loop
      vertex   2.574264e+00 6.532574e+01 1.139243e+02
      vertex   2.750000e+00 6.515000e+01 1.135000e+02
      vertex   2.574264e+00 2.367426e+01 1.139243e+02
    endloop
  endfacet
  facet normal -9.238795e-01 0.000000e+00 -3.826834e-01
    outer loop
      vertex   2.574264e+00 2.367426e+01 1.139243e+02
      vertex   2.750000e+00 6.515000e+01 1.135000e+02
      vertex   2.750000e+00 2.385000e+01 1.135000e+02
    endloop
  endfacet
  facet normal -7.071068e-01 2.261758e-17 7.071068e-01
    outer loop
      vertex   2.574264e+00 6.532574e+01 1.139243e+02
      vertex   2.574264e+00 2.367426e+01 1.139243e+02
      vertex   3.400000e+00 6.450000e+01 1.147500e+02
    endloop
  endfacet
  facet normal -7.071068e-01 7.850462e-18 7.071068e-01
    outer loop
      vertex   3.400000e+00 6.450000e+01 1.147500e+02
      vertex   2.574264e+00 2.367426e+01 1.139243e+02
      vertex   3.400000e+00 2.450000e+01 1.147500e+02
    endloop
  endfacet
  facet normal 0.000000e+00 0.000000e+00 -1.000000e+00
    outer loop
      vertex   3.350000e+00 6.624706e+01 1.160000e+02
      vertex   3.350000e+00 8.565000e+01 1.160000e+02
      vertex   3.847056e+00 6.575000e+01 1.160000e+02
    endloop
  endfacet
  facet normal 0.000000e+00 0.000000e+00 -1.000000e+00
    outer loop
      vertex   3.847056e+00 6.575000e+01 1.160000e+02
      vertex   3.350000e+00 8.565000e+01 1.160000e+02
      vertex   1.711529e+02 6.575000e+01 1.160000e+02
    endloop
  endfacet
  facet normal 0.000000e+00 -0.000000e+00 -1.000000e+00
    outer loop
      vertex   3.847056e+00 6.575000e+01 1.160000e+02
      vertex   1.711529e+02 6.575000e+01 1.160000e+02
      vertex   3.847056e+00 2.325000e+01 1.160000e+02
    endloop
  endfacet
  facet normal 0.000000e+00 0.000000e+00 -1.000000e+00
    outer loop
      vertex   3.847056e+00 2.325000e+01 1.160000e+02
      vertex   1.711529e+02 6.575000e+01 1.160000e+02
      vertex   1.711529e+02 2.325000e+01 1.160000e+02
    endloop
  endfacet
  facet normal 0.000000e+00 -0.000000e+00 -1.000000e+00
    outer loop
      vertex   3.847056e+00 2.325000e+01 1.160000e+02
      vertex   1.711529e+02 2.325000e+01 1.160000e+02
      vertex   3.350000e+00 3.350000e+00 1.160000e+02
    endloop
  endfacet
  facet normal 0.000000e+00 0.000000e+00 -1.000000e+00
    outer loop
      vertex   3.350000e+00 3.350000e+00 1.160000e+02
      vertex   1.711529e+02 2.325000e+01 1.160000e+02
      vertex   1.716500e+02 3.350000e+00 1.160000e+02
    endloop
  endfacet
  facet normal 0.000000e+00 0.000000e+00 -1.000000e+00
    outer loop
      vertex   1.716500e+02 3.350000e+00 1.160000e+02
      vertex   1.711529e+02 2.325000e+01 1.160000e+02
      vertex   1.716500e+02 2.275294e+01 1.160000e+02
    endloop
  endfacet
  facet normal 0.000000e+00 0.000000e+00 -1.000000e+00
    outer loop
      vertex   3.350000e+00 8.565000e+01 1.160000e+02
      vertex   1.716500e+02 8.565000e+01 1.160000e+02
      vertex   1.711529e+02 6.575000e+01 1.160000e+02
    endloop
  endfacet
  facet normal 0.000000e+00 0.000000e+00 -1.000000e+00
    outer loop
      vertex   1.711529e+02 6.575000e+01 1.160000e+02
      vertex   1.716500e+02 8.565000e+01 1.160000e+02
      vertex   1.716500e+02 6.624706e+01 1.160000e+02
    endloop
  endfacet
  facet normal 0.000000e+00 0.000000e+00 -1.000000e+00
    outer loop
      vertex   3.350000e+00 3.350000e+00 1.160000e+02
      vertex   3.350000e+00 2.275294e+01 1.160000e+02
      vertex   3.847056e+00 2.325000e+01 1.160000e+02
    endloop
  endfacet
  facet normal 7.071068e-01 -2.290488e-16 7.071068e-01
    outer loop
      vertex   3.847056e+00 6.575000e+01 1.160000e+02
      vertex   3.847056e+00 2.325000e+01 1.160000e+02
      vertex   5.097056e+00 6.450000e+01 1.147500e+02
    endloop
  endfacet
  facet normal 7.071068e-01 7.379435e-16 7.071068e-01
    outer loop
      vertex   5.097056e+00 6.450000e+01 1.147500e+02
      vertex   3.847056e+00 2.325000e+01 1.160000e+02
      vertex   5.097056e+00 2.450000e+01 1.147500e+02
    endloop
  endfacet
  facet normal 7.071068e-01 -7.071068e-01 -4.773081e-15
    outer loop
      vertex   3.350000e+00 2.275294e+01 1.160000e+02
      vertex   3.350000e+00 2.275294e+01 1.135000e+02
      vertex   3.847056e+00 2.325000e+01 1.160000e+02
    endloop
  endfacet
  facet normal 7.071068e-01 -7.071068e-01 -4.145044e-15
    outer loop
      vertex   3.847056e+00 2.325000e+01 1.160000e+02
      vertex   3.350000e+00 2.275294e+01 1.135000e+02
      vertex   3.847056e+00 2.325000e+01 1.135000e+02
    endloop
  endfacet
  facet normal 7.071068e-01 -7.071068e-01 -4.145044e-15
    outer loop
      vertex   3.847056e+00 2.325000e+01 1.160000e+02
      vertex   3.847056e+00 2.325000e+01 1.135000e+02
      vertex   5.097056e+00 2.450000e+01 1.147500e+02
    endloop
  endfacet
  facet normal 1.000000e+00 9.155089e-16 1.776357e-15
    outer loop
      vertex   3.350000e+00 2.275294e+01 1.160000e+02
      vertex   3.350000e+00 3.350000e+00 1.160000e+02
      vertex   3.350000e+00 2.275294e+01 1.135000e+02
    endloop
  endfacet
  facet normal 1.000000e+00 1.373263e-16 -4.263256e-15
    outer loop
      vertex   3.350000e+00 2.275294e+01 1.135000e+02
      vertex   3.350000e+00 3.350000e+00 1.160000e+02
      vertex   3.350000e+00 3.350000e+00 1.135000e+02
    endloop
  endfacet
  facet normal -3.694147e-17 1.000000e+00 -7.105427e-16
    outer loop
      vertex   3.350000e+00 3.350000e+00 1.160000e+02
      vertex   1.716500e+02 3.350000e+00 1.160000e+02
      vertex   3.350000e+00 3.350000e+00 1.135000e+02
    endloop
  endfacet
  facet normal -2.110941e-17 1.000000e+00 -1.776357e-15
    outer loop
      vertex   3.350000e+00 3.350000e+00 1.135000e+02
      vertex   1.716500e+02 3.350000e+00 1.160000e+02
      vertex   1.716500e+02 3.350000e+00 1.135000e+02
    endloop
  endfacet
  facet normal -1.000000e+00 0.000000e+00 2.273737e-14
    outer loop
      vertex   1.716500e+02 3.350000e+00 1.160000e+02
      vertex   1.716500e+02 2.275294e+01 1.160000e+02
      vertex   1.716500e+02 3.350000e+00 1.135000e+02
    endloop
  endfacet
  facet normal -1.000000e+00 2.929629e-15 1.665301e-29
    outer loop
      vertex   1.716500e+02 3.350000e+00 1.135000e+02
      vertex   1.716500e+02 2.275294e+01 1.160000e+02
      vertex   1.716500e+02 2.275294e+01 1.135000e+02
    endloop
  endfacet
  facet normal -7.071068e-01 -7.071068e-01 -4.019437e-15
    outer loop
      vertex   1.716500e+02 2.275294e+01 1.135000e+02
      vertex   1.716500e+02 2.275294e+01 1.160000e+02
      vertex   1.711529e+02 2.325000e+01 1.135000e+02
    endloop
  endfacet
  facet normal -7.071068e-01 -7.071068e-01 -6.029155e-15
    outer loop
      vertex   1.711529e+02 2.325000e+01 1.135000e+02
      vertex   1.716500e+02 2.275294e+01 1.160000e+02
      vertex   1.711529e+02 2.325000e+01 1.160000e+02
    endloop
  endfacet
  facet normal -7.071068e-01 -7.071068e-01 -6.029155e-15
    outer loop
      vertex   1.711529e+02 2.325000e+01 1.135000e+02
      vertex   1.711529e+02 2.325000e+01 1.160000e+02
      vertex   1.699029e+02 2.450000e+01 1.147500e+02
    endloop
  endfacet
  facet normal -8.443764e-17 -1.000000e+00 1.136868e-14
    outer loop
      vertex   1.716500e+02 8.565000e+01 1.160000e+02
      vertex   3.350000e+00 8.565000e+01 1.160000e+02
      vertex   1.716500e+02 8.565000e+01 1.135000e+02
    endloop
  endfacet
  facet normal -2.533129e-16 -1.000000e+00 0.000000e+00
    outer loop
      vertex   1.716500e+02 8.565000e+01 1.135000e+02
      vertex   3.350000e+00 8.565000e+01 1.160000e+02
      vertex   3.350000e+00 8.565000e+01 1.135000e+02
    endloop
  endfacet
  facet normal -1.000000e+00 0.000000e+00 0.000000e+00
    outer loop
      vertex   1.716500e+02 6.624706e+01 1.160000e+02
      vertex   1.716500e+02 8.565000e+01 1.160000e+02
      vertex   1.716500e+02 6.624706e+01 1.135000e+02
    endloop
  endfacet
  facet normal -1.000000e+00 -2.929628e-15 2.273737e-14
    outer loop
      vertex   1.716500e+02 6.624706e+01 1.135000e+02
      vertex   1.716500e+02 8.565000e+01 1.160000e+02
      vertex   1.716500e+02 8.565000e+01 1.135000e+02
    endloop
  endfacet
  facet normal -7.071068e-01 0.000000e+00 7.071068e-01
    outer loop
      vertex   1.711529e+02 2.325000e+01 1.160000e+02
      vertex   1.711529e+02 6.575000e+01 1.160000e+02
      vertex   1.699029e+02 2.450000e+01 1.147500e+02
    endloop
  endfacet
  facet normal -7.071068e-01 0.000000e+00 7.071068e-01
    outer loop
      vertex   1.699029e+02 2.450000e+01 1.147500e+02
      vertex   1.711529e+02 6.575000e+01 1.160000e+02
      vertex   1.699029e+02 6.450000e+01 1.147500e+02
    endloop
  endfacet
  facet normal -7.071068e-01 7.071068e-01 4.019437e-15
    outer loop
      vertex   1.716500e+02 6.624706e+01 1.160000e+02
      vertex   1.716500e+02 6.624706e+01 1.135000e+02
      vertex   1.711529e+02 6.575000e+01 1.160000e+02
    endloop
  endfacet
  facet normal -7.071068e-01 7.071068e-01 4.019437e-15
    outer loop
      vertex   1.711529e+02 6.575000e+01 1.160000e+02
      vertex   1.716500e+02 6.624706e+01 1.135000e+02
      vertex   1.711529e+02 6.575000e+01 1.135000e+02
    endloop
  endfacet
  facet normal -7.071068e-01 7.071068e-01 4.019437e-15
    outer loop
      vertex   1.711529e+02 6.575000e+01 1.160000e+02
      vertex   1.711529e+02 6.575000e+01 1.135000e+02
      vertex   1.699029e+02 6.450000e+01 1.147500e+02
    endloop
  endfacet
  facet normal -7.071068e-01 0.000000e+00 -7.071068e-01
    outer loop
      vertex   1.699029e+02 2.450000e+01 1.147500e+02
      vertex   1.699029e+02 6.450000e+01 1.147500e+02
      vertex   1.711529e+02 2.325000e+01 1.135000e+02
    endloop
  endfacet
  facet normal -7.071068e-01 0.000000e+00 -7.071068e-01
    outer loop
      vertex   1.711529e+02 2.325000e+01 1.135000e+02
      vertex   1.699029e+02 6.450000e+01 1.147500e+02
      vertex   1.711529e+02 6.575000e+01 1.135000e+02
    endloop
  endfacet
  facet normal 7.071068e-01 7.071068e-01 -0.000000e+00
    outer loop
      vertex   3.350000e+00 6.624706e+01 1.135000e+02
      vertex   3.350000e+00 6.624706e+01 1.160000e+02
      vertex   3.847056e+00 6.575000e+01 1.135000e+02
    endloop
  endfacet
  facet normal 7.071068e-01 7.071068e-01 -6.280370e-16
    outer loop
      vertex   3.847056e+00 6.575000e+01 1.135000e+02
      vertex   3.350000e+00 6.624706e+01 1.160000e+02
      vertex   3.847056e+00 6.575000e+01 1.160000e+02
    endloop
  endfacet
  facet normal 7.071068e-01 7.071068e-01 -6.280370e-16
    outer loop
      vertex   3.847056e+00 6.575000e+01 1.135000e+02
      vertex   3.847056e+00 6.575000e+01 1.160000e+02
      vertex   5.097056e+00 6.450000e+01 1.147500e+02
    endloop
  endfacet
  facet normal 7.071068e-01 -7.693453e-16 -7.071068e-01
    outer loop
      vertex   5.097056e+00 6.450000e+01 1.147500e+02
      vertex   5.097056e+00 2.450000e+01 1.147500e+02
      vertex   3.847056e+00 6.575000e+01 1.135000e+02
    endloop
  endfacet
  facet normal 7.071068e-01 -8.127537e-17 -7.071068e-01
    outer loop
      vertex   3.847056e+00 6.575000e+01 1.135000e+02
      vertex   5.097056e+00 2.450000e+01 1.147500e+02
      vertex   3.847056e+00 2.325000e+01 1.135000e+02
    endloop
  endfacet
  facet normal 1.000000e+00 -2.975404e-16 -8.881784e-16
    outer loop
      vertex   3.350000e+00 8.565000e+01 1.160000e+02
      vertex   3.350000e+00 6.624706e+01 1.160000e+02
      vertex   3.350000e+00 8.565000e+01 1.135000e+02
    endloop
  endfacet
  facet normal 1.000000e+00 -1.831018e-16 0.000000e+00
    outer loop
      vertex   3.350000e+00 8.565000e+01 1.135000e+02
      vertex   3.350000e+00 6.624706e+01 1.160000e+02
      vertex   3.350000e+00 6.624706e+01 1.135000e+02
    endloop
  endfacet
  facet normal 7.071068e-01 7.071068e-01 7.605785e-15
    outer loop
      vertex   1.716000e+02 2.450000e+01 1.147500e+02
      vertex   1.728500e+02 2.325000e+01 1.160000e+02
      vertex   1.724257e+02 2.367426e+01 1.139243e+02
    endloop
  endfacet
  facet normal 7.071068e-01 7.071068e-01 5.014507e-15
    outer loop
      vertex   1.724257e+02 2.367426e+01 1.139243e+02
      vertex   1.728500e+02 2.325000e+01 1.160000e+02
      vertex   1.728500e+02 2.325000e+01 1.135000e+02
    endloop
  endfacet
  facet normal 7.071068e-01 7.071068e-01 1.676899e-14
    outer loop
      vertex   1.724257e+02 2.367426e+01 1.139243e+02
      vertex   1.728500e+02 2.325000e+01 1.135000e+02
      vertex   1.722500e+02 2.385000e+01 1.135000e+02
    endloop
  endfacet
  facet normal 7.071068e-01 0.000000e+00 -7.071068e-01
    outer loop
      vertex   1.728500e+02 6.575000e+01 1.160000e+02
      vertex   1.728500e+02 2.325000e+01 1.160000e+02
      vertex   1.716000e+02 6.450000e+01 1.147500e+02
    endloop
  endfacet
  facet normal 7.071068e-01 0.000000e+00 -7.071068e-01
    outer loop
      vertex   1.716000e+02 6.450000e+01 1.147500e+02
      vertex   1.728500e+02 2.325000e+01 1.160000e+02
      vertex   1.716000e+02 2.450000e+01 1.147500e+02
    endloop
  endfacet
  facet normal 7.071068e-01 -7.071068e-01 6.084628e-15
    outer loop
      vertex   1.716000e+02 6.450000e+01 1.147500e+02
      vertex   1.724257e+02 6.532574e+01 1.139243e+02
      vertex   1.728500e+02 6.575000e+01 1.160000e+02
    endloop
  endfacet
  facet normal 7.071068e-01 -7.071068e-01 0.000000e+00
    outer loop
      vertex   1.728500e+02 6.575000e+01 1.160000e+02
      vertex   1.724257e+02 6.532574e+01 1.139243e+02
      vertex   1.728500e+02 6.575000e+01 1.135000e+02
    endloop
  endfacet
  facet normal 7.071068e-01 -7.071068e-01 9.868649e-15
    outer loop
      vertex   1.728500e+02 6.575000e+01 1.135000e+02
      vertex   1.724257e+02 6.532574e+01 1.139243e+02
      vertex   1.722500e+02 6.515000e+01 1.135000e+02
    endloop
  endfacet
  facet normal 1.000000e+00 1.403541e-15 9.972760e-30
    outer loop
      vertex   1.728500e+02 2.325000e+01 1.160000e+02
      vertex   1.728500e+02 3.000000e+00 1.160000e+02
      vertex   1.728500e+02 2.325000e+01 1.135000e+02
    endloop
  endfacet
  facet normal 1.000000e+00 1.403541e-15 0.000000e+00
    outer loop
      vertex   1.728500e+02 2.325000e+01 1.135000e+02
      vertex   1.728500e+02 3.000000e+00 1.160000e+02
      vertex   1.728500e+02 3.000000e+00 1.135000e+02
    endloop
  endfacet
  facet normal 1.000000e+00 -1.403541e-15 0.000000e+00
    outer loop
      vertex   1.728500e+02 6.575000e+01 1.135000e+02
      vertex   1.728500e+02 8.600000e+01 1.135000e+02
      vertex   1.728500e+02 6.575000e+01 1.160000e+02
    endloop
  endfacet
  facet normal 1.000000e+00 -1.403541e-15 0.000000e+00
    outer loop
      vertex   1.728500e+02 6.575000e+01 1.160000e+02
      vertex   1.728500e+02 8.600000e+01 1.135000e+02
      vertex   1.728500e+02 8.600000e+01 1.160000e+02
    endloop
  endfacet
  facet normal -7.071068e-01 7.071068e-01 4.086237e-15
    outer loop
      vertex   2.750000e+00 2.385000e+01 1.135000e+02
      vertex   2.150000e+00 2.325000e+01 1.135000e+02
      vertex   2.574264e+00 2.367426e+01 1.139243e+02
    endloop
  endfacet
  facet normal -7.071068e-01 7.071068e-01 5.014507e-15
    outer loop
      vertex   2.574264e+00 2.367426e+01 1.139243e+02
      vertex   2.150000e+00 2.325000e+01 1.135000e+02
      vertex   2.150000e+00 2.325000e+01 1.160000e+02
    endloop
  endfacet
  facet normal -7.071068e-01 7.071068e-01 3.783878e-15
    outer loop
      vertex   2.574264e+00 2.367426e+01 1.139243e+02
      vertex   2.150000e+00 2.325000e+01 1.160000e+02
      vertex   3.400000e+00 2.450000e+01 1.147500e+02
    endloop
  endfacet
  facet normal -7.071068e-01 7.850462e-18 -7.071068e-01
    outer loop
      vertex   3.400000e+00 6.450000e+01 1.147500e+02
      vertex   3.400000e+00 2.450000e+01 1.147500e+02
      vertex   2.150000e+00 6.575000e+01 1.160000e+02
    endloop
  endfacet
  facet normal -7.071068e-01 -0.000000e+00 -7.071068e-01
    outer loop
      vertex   2.150000e+00 6.575000e+01 1.160000e+02
      vertex   3.400000e+00 2.450000e+01 1.147500e+02
      vertex   2.150000e+00 2.325000e+01 1.160000e+02
    endloop
  endfacet
  facet normal -7.071068e-01 -7.071068e-01 3.270488e-15
    outer loop
      vertex   3.400000e+00 6.450000e+01 1.147500e+02
      vertex   2.150000e+00 6.575000e+01 1.160000e+02
      vertex   2.574264e+00 6.532574e+01 1.139243e+02
    endloop
  endfacet
  facet normal -7.071068e-01 -7.071068e-01 0.000000e+00
    outer loop
      vertex   2.574264e+00 6.532574e+01 1.139243e+02
      vertex   2.150000e+00 6.575000e+01 1.160000e+02
      vertex   2.150000e+00 6.575000e+01 1.135000e+02
    endloop
  endfacet
  facet normal -7.071068e-01 -7.071068e-01 -1.908196e-14
    outer loop
      vertex   2.574264e+00 6.532574e+01 1.139243e+02
      vertex   2.150000e+00 6.575000e+01 1.135000e+02
      vertex   2.750000e+00 6.515000e+01 1.135000e+02
    endloop
  endfacet
  facet normal -1.000000e+00 -1.471720e-09 -1.045720e-23
    outer loop
      vertex   2.150000e+00 2.325000e+01 1.135000e+02
      vertex   2.150000e+00 3.000000e+00 1.135000e+02
      vertex   2.150000e+00 2.325000e+01 1.160000e+02
    endloop
  endfacet
  facet normal -1.000000e+00 -1.471719e-09 -1.421085e-15
    outer loop
      vertex   2.150000e+00 2.325000e+01 1.160000e+02
      vertex   2.150000e+00 3.000000e+00 1.135000e+02
      vertex   2.150000e+00 3.000000e+00 1.160000e+02
    endloop
  endfacet
  facet normal -1.000000e+00 1.471719e-09 0.000000e+00
    outer loop
      vertex   2.150000e+00 6.575000e+01 1.160000e+02
      vertex   2.150000e+00 8.600000e+01 1.160000e+02
      vertex   2.150000e+00 6.575000e+01 1.135000e+02
    endloop
  endfacet
  facet normal -1.000000e+00 1.471720e-09 -3.552714e-16
    outer loop
      vertex   2.150000e+00 6.575000e+01 1.135000e+02
      vertex   2.150000e+00 8.600000e+01 1.160000e+02
      vertex   2.150000e+00 8.600000e+01 1.135000e+02
    endloop
  endfacet
  facet normal -4.590914e-18 -7.071068e-01 7.071068e-01
    outer loop
      vertex   1.730000e+02 1.000000e+00 1.180000e+02
      vertex   2.000000e+00 1.000000e+00 1.180000e+02
      vertex   1.730000e+02 5.551115e-16 1.170000e+02
    endloop
  endfacet
  facet normal -4.590914e-18 -7.071068e-01 7.071068e-01
    outer loop
      vertex   1.730000e+02 5.551115e-16 1.170000e+02
      vertex   2.000000e+00 1.000000e+00 1.180000e+02
      vertex   2.000000e+00 1.665335e-15 1.170000e+02
    endloop
  endfacet
  facet normal 7.040626e-01 -9.269160e-02 7.040626e-01
    outer loop
      vertex   1.750000e+02 2.000000e+00 1.170000e+02
      vertex   1.740000e+02 2.000000e+00 1.180000e+02
      vertex   1.749319e+02 1.482362e+00 1.170000e+02
    endloop
  endfacet
  facet normal 7.040626e-01 -9.269160e-02 7.040626e-01
    outer loop
      vertex   1.749319e+02 1.482362e+00 1.170000e+02
      vertex   1.740000e+02 2.000000e+00 1.180000e+02
      vertex   1.739659e+02 1.741181e+00 1.180000e+02
    endloop
  endfacet
  facet normal 6.560819e-01 -2.717580e-01 7.040626e-01
    outer loop
      vertex   1.749319e+02 1.482362e+00 1.170000e+02
      vertex   1.739659e+02 1.741181e+00 1.180000e+02
      vertex   1.747321e+02 1.000000e+00 1.170000e+02
    endloop
  endfacet
  facet normal 6.560819e-01 -2.717580e-01 7.040626e-01
    outer loop
      vertex   1.747321e+02 1.000000e+00 1.170000e+02
      vertex   1.739659e+02 1.741181e+00 1.180000e+02
      vertex   1.738660e+02 1.500000e+00 1.180000e+02
    endloop
  endfacet
  facet normal 5.633903e-01 -4.323046e-01 7.040626e-01
    outer loop
      vertex   1.747321e+02 1.000000e+00 1.170000e+02
      vertex   1.738660e+02 1.500000e+00 1.180000e+02
      vertex   1.744142e+02 5.857864e-01 1.170000e+02
    endloop
  endfacet
  facet normal 5.633903e-01 -4.323046e-01 7.040626e-01
    outer loop
      vertex   1.744142e+02 5.857864e-01 1.170000e+02
      vertex   1.738660e+02 1.500000e+00 1.180000e+02
      vertex   1.737071e+02 1.292893e+00 1.180000e+02
    endloop
  endfacet
  facet normal 4.323046e-01 -5.633903e-01 7.040626e-01
    outer loop
      vertex   1.744142e+02 5.857864e-01 1.170000e+02
      vertex   1.737071e+02 1.292893e+00 1.180000e+02
      vertex   1.740000e+02 2.679492e-01 1.170000e+02
    endloop
  endfacet
  facet normal 4.323046e-01 -5.633903e-01 7.040626e-01
    outer loop
      vertex   1.740000e+02 2.679492e-01 1.170000e+02
      vertex   1.737071e+02 1.292893e+00 1.180000e+02
      vertex   1.735000e+02 1.133975e+00 1.180000e+02
    endloop
  endfacet
  facet normal 2.717580e-01 -6.560819e-01 7.040626e-01
    outer loop
      vertex   1.740000e+02 2.679492e-01 1.170000e+02
      vertex   1.735000e+02 1.133975e+00 1.180000e+02
      vertex   1.735176e+02 6.814835e-02 1.170000e+02
    endloop
  endfacet
  facet normal 2.717580e-01 -6.560819e-01 7.040626e-01
    outer loop
      vertex   1.735176e+02 6.814835e-02 1.170000e+02
      vertex   1.735000e+02 1.133975e+00 1.180000e+02
      vertex   1.732588e+02 1.034074e+00 1.180000e+02
    endloop
  endfacet
  facet normal 9.269160e-02 -7.040626e-01 7.040626e-01
    outer loop
      vertex   1.735176e+02 6.814835e-02 1.170000e+02
      vertex   1.732588e+02 1.034074e+00 1.180000e+02
      vertex   1.730000e+02 5.551115e-16 1.170000e+02
    endloop
  endfacet
  facet normal 9.269160e-02 -7.040626e-01 7.040626e-01
    outer loop
      vertex   1.730000e+02 5.551115e-16 1.170000e+02
      vertex   1.732588e+02 1.034074e+00 1.180000e+02
      vertex   1.730000e+02 1.000000e+00 1.180000e+02
    endloop
  endfacet
  facet normal 7.071068e-01 -1.130961e-16 7.071068e-01
    outer loop
      vertex   1.750000e+02 9.085000e+01 1.170000e+02
      vertex   1.740000e+02 9.085000e+01 1.180000e+02
      vertex   1.750000e+02 2.000000e+00 1.170000e+02
    endloop
  endfacet
  facet normal 7.071068e-01 2.261923e-16 7.071068e-01
    outer loop
      vertex   1.750000e+02 2.000000e+00 1.170000e+02
      vertex   1.740000e+02 9.085000e+01 1.180000e+02
      vertex   1.740000e+02 2.000000e+00 1.180000e+02
    endloop
  endfacet
  facet normal 9.269160e-02 7.040626e-01 7.040626e-01
    outer loop
      vertex   1.730000e+02 9.285000e+01 1.170000e+02
      vertex   1.730000e+02 9.185000e+01 1.180000e+02
      vertex   1.735176e+02 9.278185e+01 1.170000e+02
    endloop
  endfacet
  facet normal 9.269160e-02 7.040626e-01 7.040626e-01
    outer loop
      vertex   1.735176e+02 9.278185e+01 1.170000e+02
      vertex   1.730000e+02 9.185000e+01 1.180000e+02
      vertex   1.732588e+02 9.181593e+01 1.180000e+02
    endloop
  endfacet
  facet normal 2.717580e-01 6.560819e-01 7.040626e-01
    outer loop
      vertex   1.735176e+02 9.278185e+01 1.170000e+02
      vertex   1.732588e+02 9.181593e+01 1.180000e+02
      vertex   1.740000e+02 9.258205e+01 1.170000e+02
    endloop
  endfacet
  facet normal 2.717580e-01 6.560819e-01 7.040626e-01
    outer loop
      vertex   1.740000e+02 9.258205e+01 1.170000e+02
      vertex   1.732588e+02 9.181593e+01 1.180000e+02
      vertex   1.735000e+02 9.171603e+01 1.180000e+02
    endloop
  endfacet
  facet normal 4.323046e-01 5.633903e-01 7.040626e-01
    outer loop
      vertex   1.740000e+02 9.258205e+01 1.170000e+02
      vertex   1.735000e+02 9.171603e+01 1.180000e+02
      vertex   1.744142e+02 9.226421e+01 1.170000e+02
    endloop
  endfacet
  facet normal 4.323046e-01 5.633903e-01 7.040626e-01
    outer loop
      vertex   1.744142e+02 9.226421e+01 1.170000e+02
      vertex   1.735000e+02 9.171603e+01 1.180000e+02
      vertex   1.737071e+02 9.155711e+01 1.180000e+02
    endloop
  endfacet
  facet normal 5.633903e-01 4.323046e-01 7.040626e-01
    outer loop
      vertex   1.744142e+02 9.226421e+01 1.170000e+02
      vertex   1.737071e+02 9.155711e+01 1.180000e+02
      vertex   1.747321e+02 9.185000e+01 1.170000e+02
    endloop
  endfacet
  facet normal 5.633903e-01 4.323046e-01 7.040626e-01
    outer loop
      vertex   1.747321e+02 9.185000e+01 1.170000e+02
      vertex   1.737071e+02 9.155711e+01 1.180000e+02
      vertex   1.738660e+02 9.135000e+01 1.180000e+02
    endloop
  endfacet
  facet normal 6.560819e-01 2.717580e-01 7.040626e-01
    outer loop
      vertex   1.747321e+02 9.185000e+01 1.170000e+02
      vertex   1.738660e+02 9.135000e+01 1.180000e+02
      vertex   1.749319e+02 9.136764e+01 1.170000e+02
    endloop
  endfacet
  facet normal 6.560819e-01 2.717580e-01 7.040626e-01
    outer loop
      vertex   1.749319e+02 9.136764e+01 1.170000e+02
      vertex   1.738660e+02 9.135000e+01 1.180000e+02
      vertex   1.739659e+02 9.110882e+01 1.180000e+02
    endloop
  endfacet
  facet normal 7.040626e-01 9.269160e-02 7.040626e-01
    outer loop
      vertex   1.749319e+02 9.136764e+01 1.170000e+02
      vertex   1.739659e+02 9.110882e+01 1.180000e+02
      vertex   1.750000e+02 9.085000e+01 1.170000e+02
    endloop
  endfacet
  facet normal 7.040626e-01 9.269160e-02 7.040626e-01
    outer loop
      vertex   1.750000e+02 9.085000e+01 1.170000e+02
      vertex   1.739659e+02 9.110882e+01 1.180000e+02
      vertex   1.740000e+02 9.085000e+01 1.180000e+02
    endloop
  endfacet
  facet normal -0.000000e+00 7.071068e-01 7.071068e-01
    outer loop
      vertex   2.000000e+00 9.185000e+01 1.180000e+02
      vertex   1.730000e+02 9.185000e+01 1.180000e+02
      vertex   2.000000e+00 9.285000e+01 1.170000e+02
    endloop
  endfacet
  facet normal 5.876369e-17 7.071068e-01 7.071068e-01
    outer loop
      vertex   2.000000e+00 9.285000e+01 1.170000e+02
      vertex   1.730000e+02 9.185000e+01 1.180000e+02
      vertex   1.730000e+02 9.285000e+01 1.170000e+02
    endloop
  endfacet
  facet normal -7.040626e-01 9.269160e-02 7.040626e-01
    outer loop
      vertex   -5.551115e-16 9.085000e+01 1.170000e+02
      vertex   1.000000e+00 9.085000e+01 1.180000e+02
      vertex   6.814835e-02 9.136764e+01 1.170000e+02
    endloop
  endfacet
  facet normal -7.040626e-01 9.269160e-02 7.040626e-01
    outer loop
      vertex   6.814835e-02 9.136764e+01 1.170000e+02
      vertex   1.000000e+00 9.085000e+01 1.180000e+02
      vertex   1.034074e+00 9.110882e+01 1.180000e+02
    endloop
  endfacet
  facet normal -6.560819e-01 2.717580e-01 7.040626e-01
    outer loop
      vertex   6.814835e-02 9.136764e+01 1.170000e+02
      vertex   1.034074e+00 9.110882e+01 1.180000e+02
      vertex   2.679492e-01 9.185000e+01 1.170000e+02
    endloop
  endfacet
  facet normal -6.560819e-01 2.717580e-01 7.040626e-01
    outer loop
      vertex   2.679492e-01 9.185000e+01 1.170000e+02
      vertex   1.034074e+00 9.110882e+01 1.180000e+02
      vertex   1.133975e+00 9.135000e+01 1.180000e+02
    endloop
  endfacet
  facet normal -5.633903e-01 4.323046e-01 7.040626e-01
    outer loop
      vertex   2.679492e-01 9.185000e+01 1.170000e+02
      vertex   1.133975e+00 9.135000e+01 1.180000e+02
      vertex   5.857864e-01 9.226421e+01 1.170000e+02
    endloop
  endfacet
  facet normal -5.633903e-01 4.323046e-01 7.040626e-01
    outer loop
      vertex   5.857864e-01 9.226421e+01 1.170000e+02
      vertex   1.133975e+00 9.135000e+01 1.180000e+02
      vertex   1.292893e+00 9.155711e+01 1.180000e+02
    endloop
  endfacet
  facet normal -4.323046e-01 5.633903e-01 7.040626e-01
    outer loop
      vertex   5.857864e-01 9.226421e+01 1.170000e+02
      vertex   1.292893e+00 9.155711e+01 1.180000e+02
      vertex   1.000000e+00 9.258205e+01 1.170000e+02
    endloop
  endfacet
  facet normal -4.323046e-01 5.633903e-01 7.040626e-01
    outer loop
      vertex   1.000000e+00 9.258205e+01 1.170000e+02
      vertex   1.292893e+00 9.155711e+01 1.180000e+02
      vertex   1.500000e+00 9.171603e+01 1.180000e+02
    endloop
  endfacet
  facet normal -2.717580e-01 6.560819e-01 7.040626e-01
    outer loop
      vertex   1.000000e+00 9.258205e+01 1.170000e+02
      vertex   1.500000e+00 9.171603e+01 1.180000e+02
      vertex   1.482362e+00 9.278185e+01 1.170000e+02
    endloop
  endfacet
  facet normal -2.717580e-01 6.560819e-01 7.040626e-01
    outer loop
      vertex   1.482362e+00 9.278185e+01 1.170000e+02
      vertex   1.500000e+00 9.171603e+01 1.180000e+02
      vertex   1.741181e+00 9.181593e+01 1.180000e+02
    endloop
  endfacet
  facet normal -9.269160e-02 7.040626e-01 7.040626e-01
    outer loop
      vertex   1.482362e+00 9.278185e+01 1.170000e+02
      vertex   1.741181e+00 9.181593e+01 1.180000e+02
      vertex   2.000000e+00 9.285000e+01 1.170000e+02
    endloop
  endfacet
  facet normal -9.269160e-02 7.040626e-01 7.040626e-01
    outer loop
      vertex   2.000000e+00 9.285000e+01 1.170000e+02
      vertex   1.741181e+00 9.181593e+01 1.180000e+02
      vertex   2.000000e+00 9.185000e+01 1.180000e+02
    endloop
  endfacet
  facet normal -7.071068e-01 1.086783e-16 7.071068e-01
    outer loop
      vertex   0.000000e+00 2.000000e+00 1.170000e+02
      vertex   1.000000e+00 2.000000e+00 1.180000e+02
      vertex   -5.551115e-16 9.085000e+01 1.170000e+02
    endloop
  endfacet
  facet normal -7.071068e-01 5.301381e-18 7.071068e-01
    outer loop
      vertex   -5.551115e-16 9.085000e+01 1.170000e+02
      vertex   1.000000e+00 2.000000e+00 1.180000e+02
      vertex   1.000000e+00 9.085000e+01 1.180000e+02
    endloop
  endfacet
  facet normal -9.269160e-02 -7.040626e-01 7.040626e-01
    outer loop
      vertex   2.000000e+00 1.665335e-15 1.170000e+02
      vertex   2.000000e+00 1.000000e+00 1.180000e+02
      vertex   1.482362e+00 6.814835e-02 1.170000e+02
    endloop
  endfacet
  facet normal -9.269160e-02 -7.040626e-01 7.040626e-01
    outer loop
      vertex   1.482362e+00 6.814835e-02 1.170000e+02
      vertex   2.000000e+00 1.000000e+00 1.180000e+02
      vertex   1.741181e+00 1.034074e+00 1.180000e+02
    endloop
  endfacet
  facet normal -2.717580e-01 -6.560819e-01 7.040626e-01
    outer loop
      vertex   1.482362e+00 6.814835e-02 1.170000e+02
      vertex   1.741181e+00 1.034074e+00 1.180000e+02
      vertex   1.000000e+00 2.679492e-01 1.170000e+02
    endloop
  endfacet
  facet normal -2.717580e-01 -6.560819e-01 7.040626e-01
    outer loop
      vertex   1.000000e+00 2.679492e-01 1.170000e+02
      vertex   1.741181e+00 1.034074e+00 1.180000e+02
      vertex   1.500000e+00 1.133975e+00 1.180000e+02
    endloop
  endfacet
  facet normal -4.323046e-01 -5.633903e-01 7.040626e-01
    outer loop
      vertex   1.000000e+00 2.679492e-01 1.170000e+02
      vertex   1.500000e+00 1.133975e+00 1.180000e+02
      vertex   5.857864e-01 5.857864e-01 1.170000e+02
    endloop
  endfacet
  facet normal -4.323046e-01 -5.633903e-01 7.040626e-01
    outer loop
      vertex   5.857864e-01 5.857864e-01 1.170000e+02
      vertex   1.500000e+00 1.133975e+00 1.180000e+02
      vertex   1.292893e+00 1.292893e+00 1.180000e+02
    endloop
  endfacet
  facet normal -5.633903e-01 -4.323046e-01 7.040626e-01
    outer loop
      vertex   5.857864e-01 5.857864e-01 1.170000e+02
      vertex   1.292893e+00 1.292893e+00 1.180000e+02
      vertex   2.679492e-01 1.000000e+00 1.170000e+02
    endloop
  endfacet
  facet normal -5.633903e-01 -4.323046e-01 7.040626e-01
    outer loop
      vertex   2.679492e-01 1.000000e+00 1.170000e+02
      vertex   1.292893e+00 1.292893e+00 1.180000e+02
      vertex   1.133975e+00 1.500000e+00 1.180000e+02
    endloop
  endfacet
  facet normal -6.560819e-01 -2.717580e-01 7.040626e-01
    outer loop
      vertex   2.679492e-01 1.000000e+00 1.170000e+02
      vertex   1.133975e+00 1.500000e+00 1.180000e+02
      vertex   6.814835e-02 1.482362e+00 1.170000e+02
    endloop
  endfacet
  facet normal -6.560819e-01 -2.717580e-01 7.040626e-01
    outer loop
      vertex   6.814835e-02 1.482362e+00 1.170000e+02
      vertex   1.133975e+00 1.500000e+00 1.180000e+02
      vertex   1.034074e+00 1.741181e+00 1.180000e+02
    endloop
  endfacet
  facet normal -7.040626e-01 -9.269160e-02 7.040626e-01
    outer loop
      vertex   6.814835e-02 1.482362e+00 1.170000e+02
      vertex   1.034074e+00 1.741181e+00 1.180000e+02
      vertex   0.000000e+00 2.000000e+00 1.170000e+02
    endloop
  endfacet
  facet normal -7.040626e-01 -9.269160e-02 7.040626e-01
    outer loop
      vertex   0.000000e+00 2.000000e+00 1.170000e+02
      vertex   1.034074e+00 1.741181e+00 1.180000e+02
      vertex   1.000000e+00 2.000000e+00 1.180000e+02
    endloop
  endfacet
  facet normal 1.305262e-01 9.914449e-01 -0.000000e+00
    outer loop
      vertex   1.730000e+02 9.285000e+01 1.160000e+02
      vertex   1.730000e+02 9.285000e+01 1.170000e+02
      vertex   1.735176e+02 9.278185e+01 1.160000e+02
    endloop
  endfacet
  facet normal 1.305262e-01 9.914449e-01 -0.000000e+00
    outer loop
      vertex   1.735176e+02 9.278185e+01 1.160000e+02
      vertex   1.730000e+02 9.285000e+01 1.170000e+02
      vertex   1.735176e+02 9.278185e+01 1.170000e+02
    endloop
  endfacet
  facet normal 3.826834e-01 9.238795e-01 -0.000000e+00
    outer loop
      vertex   1.735176e+02 9.278185e+01 1.160000e+02
      vertex   1.735176e+02 9.278185e+01 1.170000e+02
      vertex   1.740000e+02 9.258205e+01 1.160000e+02
    endloop
  endfacet
  facet normal 3.826834e-01 9.238795e-01 -0.000000e+00
    outer loop
      vertex   1.740000e+02 9.258205e+01 1.160000e+02
      vertex   1.735176e+02 9.278185e+01 1.170000e+02
      vertex   1.740000e+02 9.258205e+01 1.170000e+02
    endloop
  endfacet
  facet normal 6.087614e-01 7.933533e-01 -0.000000e+00
    outer loop
      vertex   1.740000e+02 9.258205e+01 1.160000e+02
      vertex   1.740000e+02 9.258205e+01 1.170000e+02
      vertex   1.744142e+02 9.226421e+01 1.160000e+02
    endloop
  endfacet
  facet normal 6.087614e-01 7.933533e-01 -0.000000e+00
    outer loop
      vertex   1.744142e+02 9.226421e+01 1.160000e+02
      vertex   1.740000e+02 9.258205e+01 1.170000e+02
      vertex   1.744142e+02 9.226421e+01 1.170000e+02
    endloop
  endfacet
  facet normal 7.933533e-01 6.087614e-01 -0.000000e+00
    outer loop
      vertex   1.744142e+02 9.226421e+01 1.160000e+02
      vertex   1.744142e+02 9.226421e+01 1.170000e+02
      vertex   1.747321e+02 9.185000e+01 1.160000e+02
    endloop
  endfacet
  facet normal 7.933533e-01 6.087614e-01 -0.000000e+00
    outer loop
      vertex   1.747321e+02 9.185000e+01 1.160000e+02
      vertex   1.744142e+02 9.226421e+01 1.170000e+02
      vertex   1.747321e+02 9.185000e+01 1.170000e+02
    endloop
  endfacet
  facet normal 9.238795e-01 3.826834e-01 -0.000000e+00
    outer loop
      vertex   1.747321e+02 9.185000e+01 1.160000e+02
      vertex   1.747321e+02 9.185000e+01 1.170000e+02
      vertex   1.749319e+02 9.136764e+01 1.160000e+02
    endloop
  endfacet
  facet normal 9.238795e-01 3.826834e-01 -0.000000e+00
    outer loop
      vertex   1.749319e+02 9.136764e+01 1.160000e+02
      vertex   1.747321e+02 9.185000e+01 1.170000e+02
      vertex   1.749319e+02 9.136764e+01 1.170000e+02
    endloop
  endfacet
  facet normal 9.914449e-01 1.305262e-01 -0.000000e+00
    outer loop
      vertex   1.749319e+02 9.136764e+01 1.160000e+02
      vertex   1.749319e+02 9.136764e+01 1.170000e+02
      vertex   1.750000e+02 9.085000e+01 1.160000e+02
    endloop
  endfacet
  facet normal 9.914449e-01 1.305262e-01 -0.000000e+00
    outer loop
      vertex   1.750000e+02 9.085000e+01 1.160000e+02
      vertex   1.749319e+02 9.136764e+01 1.170000e+02
      vertex   1.750000e+02 9.085000e+01 1.170000e+02
    endloop
  endfacet
  facet normal 1.000000e+00 0.000000e+00 0.000000e+00
    outer loop
      vertex   1.750000e+02 9.085000e+01 1.170000e+02
      vertex   1.750000e+02 2.000000e+00 1.170000e+02
      vertex   1.750000e+02 9.085000e+01 1.160000e+02
    endloop
  endfacet
  facet normal 1.000000e+00 0.000000e+00 0.000000e+00
    outer loop
      vertex   1.750000e+02 9.085000e+01 1.160000e+02
      vertex   1.750000e+02 2.000000e+00 1.170000e+02
      vertex   1.750000e+02 2.000000e+00 1.160000e+02
    endloop
  endfacet
  facet normal 9.914449e-01 -1.305262e-01 0.000000e+00
    outer loop
      vertex   1.750000e+02 2.000000e+00 1.160000e+02
      vertex   1.750000e+02 2.000000e+00 1.170000e+02
      vertex   1.749319e+02 1.482362e+00 1.160000e+02
    endloop
  endfacet
  facet normal 9.914449e-01 -1.305262e-01 0.000000e+00
    outer loop
      vertex   1.749319e+02 1.482362e+00 1.160000e+02
      vertex   1.750000e+02 2.000000e+00 1.170000e+02
      vertex   1.749319e+02 1.482362e+00 1.170000e+02
    endloop
  endfacet
  facet normal 9.238795e-01 -3.826834e-01 0.000000e+00
    outer loop
      vertex   1.749319e+02 1.482362e+00 1.160000e+02
      vertex   1.749319e+02 1.482362e+00 1.170000e+02
      vertex   1.747321e+02 1.000000e+00 1.160000e+02
    endloop
  endfacet
  facet normal 9.238795e-01 -3.826834e-01 0.000000e+00
    outer loop
      vertex   1.747321e+02 1.000000e+00 1.160000e+02
      vertex   1.749319e+02 1.482362e+00 1.170000e+02
      vertex   1.747321e+02 1.000000e+00 1.170000e+02
    endloop
  endfacet
  facet normal 7.933533e-01 -6.087614e-01 0.000000e+00
    outer loop
      vertex   1.747321e+02 1.000000e+00 1.160000e+02
      vertex   1.747321e+02 1.000000e+00 1.170000e+02
      vertex   1.744142e+02 5.857864e-01 1.160000e+02
    endloop
  endfacet
  facet normal 7.933533e-01 -6.087614e-01 0.000000e+00
    outer loop
      vertex   1.744142e+02 5.857864e-01 1.160000e+02
      vertex   1.747321e+02 1.000000e+00 1.170000e+02
      vertex   1.744142e+02 5.857864e-01 1.170000e+02
    endloop
  endfacet
  facet normal 6.087614e-01 -7.933533e-01 0.000000e+00
    outer loop
      vertex   1.744142e+02 5.857864e-01 1.160000e+02
      vertex   1.744142e+02 5.857864e-01 1.170000e+02
      vertex   1.740000e+02 2.679492e-01 1.160000e+02
    endloop
  endfacet
  facet normal 6.087614e-01 -7.933533e-01 0.000000e+00
    outer loop
      vertex   1.740000e+02 2.679492e-01 1.160000e+02
      vertex   1.744142e+02 5.857864e-01 1.170000e+02
      vertex   1.740000e+02 2.679492e-01 1.170000e+02
    endloop
  endfacet
  facet normal 3.826834e-01 -9.238795e-01 0.000000e+00
    outer loop
      vertex   1.740000e+02 2.679492e-01 1.160000e+02
      vertex   1.740000e+02 2.679492e-01 1.170000e+02
      vertex   1.735176e+02 6.814835e-02 1.160000e+02
    endloop
  endfacet
  facet normal 3.826834e-01 -9.238795e-01 0.000000e+00
    outer loop
      vertex   1.735176e+02 6.814835e-02 1.160000e+02
      vertex   1.740000e+02 2.679492e-01 1.170000e+02
      vertex   1.735176e+02 6.814835e-02 1.170000e+02
    endloop
  endfacet
  facet normal 1.305262e-01 -9.914449e-01 0.000000e+00
    outer loop
      vertex   1.735176e+02 6.814835e-02 1.160000e+02
      vertex   1.735176e+02 6.814835e-02 1.170000e+02
      vertex   1.730000e+02 5.551115e-16 1.160000e+02
    endloop
  endfacet
  facet normal 1.305262e-01 -9.914449e-01 0.000000e+00
    outer loop
      vertex   1.730000e+02 5.551115e-16 1.160000e+02
      vertex   1.735176e+02 6.814835e-02 1.170000e+02
      vertex   1.730000e+02 5.551115e-16 1.170000e+02
    endloop
  endfacet
  facet normal -6.492532e-18 -1.000000e+00 -0.000000e+00
    outer loop
      vertex   1.730000e+02 5.551115e-16 1.170000e+02
      vertex   2.000000e+00 1.665335e-15 1.170000e+02
      vertex   1.730000e+02 5.551115e-16 1.160000e+02
    endloop
  endfacet
  facet normal -6.492532e-18 -1.000000e+00 0.000000e+00
    outer loop
      vertex   1.730000e+02 5.551115e-16 1.160000e+02
      vertex   2.000000e+00 1.665335e-15 1.170000e+02
      vertex   2.000000e+00 1.665335e-15 1.160000e+02
    endloop
  endfacet
  facet normal 0.000000e+00 0.000000e+00 1.000000e+00
    outer loop
      vertex   1.730000e+02 1.000000e+00 1.180000e+02
      vertex   1.000000e+00 2.000000e+00 1.180000e+02
      vertex   2.000000e+00 1.000000e+00 1.180000e+02
    endloop
  endfacet
  facet normal 0.000000e+00 0.000000e+00 1.000000e+00
    outer loop
      vertex   2.000000e+00 1.000000e+00 1.180000e+02
      vertex   1.000000e+00 2.000000e+00 1.180000e+02
      vertex   1.034074e+00 1.741181e+00 1.180000e+02
    endloop
  endfacet
  facet normal 0.000000e+00 0.000000e+00 1.000000e+00
    outer loop
      vertex   2.000000e+00 1.000000e+00 1.180000e+02
      vertex   1.034074e+00 1.741181e+00 1.180000e+02
      vertex   1.133975e+00 1.500000e+00 1.180000e+02
    endloop
  endfacet
  facet normal 0.000000e+00 -0.000000e+00 1.000000e+00
    outer loop
      vertex   1.732588e+02 1.034074e+00 1.180000e+02
      vertex   1.735000e+02 1.133975e+00 1.180000e+02
      vertex   1.730000e+02 1.000000e+00 1.180000e+02
    endloop
  endfacet
  facet normal 0.000000e+00 0.000000e+00 1.000000e+00
    outer loop
      vertex   1.730000e+02 1.000000e+00 1.180000e+02
      vertex   1.735000e+02 1.133975e+00 1.180000e+02
      vertex   1.737071e+02 1.292893e+00 1.180000e+02
    endloop
  endfacet
  facet normal 0.000000e+00 0.000000e+00 1.000000e+00
    outer loop
      vertex   1.730000e+02 1.000000e+00 1.180000e+02
      vertex   1.737071e+02 1.292893e+00 1.180000e+02
      vertex   1.738660e+02 1.500000e+00 1.180000e+02
    endloop
  endfacet
  facet normal 0.000000e+00 -0.000000e+00 1.000000e+00
    outer loop
      vertex   1.738660e+02 1.500000e+00 1.180000e+02
      vertex   1.739659e+02 1.741181e+00 1.180000e+02
      vertex   1.730000e+02 1.000000e+00 1.180000e+02
    endloop
  endfacet
  facet normal 0.000000e+00 0.000000e+00 1.000000e+00
    outer loop
      vertex   1.730000e+02 1.000000e+00 1.180000e+02
      vertex   1.739659e+02 1.741181e+00 1.180000e+02
      vertex   1.740000e+02 2.000000e+00 1.180000e+02
    endloop
  endfacet
  facet normal 0.000000e+00 -0.000000e+00 1.000000e+00
    outer loop
      vertex   1.730000e+02 1.000000e+00 1.180000e+02
      vertex   1.740000e+02 2.000000e+00 1.180000e+02
      vertex   1.000000e+00 2.000000e+00 1.180000e+02
    endloop
  endfacet
  facet normal -0.000000e+00 0.000000e+00 1.000000e+00
    outer loop
      vertex   1.000000e+00 2.000000e+00 1.180000e+02
      vertex   1.740000e+02 2.000000e+00 1.180000e+02
      vertex   1.000000e+00 9.085000e+01 1.180000e+02
    endloop
  endfacet
  facet normal -0.000000e+00 0.000000e+00 1.000000e+00
    outer loop
      vertex   1.000000e+00 9.085000e+01 1.180000e+02
      vertex   1.740000e+02 2.000000e+00 1.180000e+02
      vertex   1.740000e+02 9.085000e+01 1.180000e+02
    endloop
  endfacet
  facet normal 0.000000e+00 0.000000e+00 1.000000e+00
    outer loop
      vertex   1.000000e+00 9.085000e+01 1.180000e+02
      vertex   1.740000e+02 9.085000e+01 1.180000e+02
      vertex   2.000000e+00 9.185000e+01 1.180000e+02
    endloop
  endfacet
  facet normal -0.000000e+00 0.000000e+00 1.000000e+00
    outer loop
      vertex   2.000000e+00 9.185000e+01 1.180000e+02
      vertex   1.740000e+02 9.085000e+01 1.180000e+02
      vertex   1.730000e+02 9.185000e+01 1.180000e+02
    endloop
  endfacet
  facet normal 0.000000e+00 0.000000e+00 1.000000e+00
    outer loop
      vertex   1.730000e+02 9.185000e+01 1.180000e+02
      vertex   1.740000e+02 9.085000e+01 1.180000e+02
      vertex   1.739659e+02 9.110882e+01 1.180000e+02
    endloop
  endfacet
  facet normal 0.000000e+00 0.000000e+00 1.000000e+00
    outer loop
      vertex   1.730000e+02 9.185000e+01 1.180000e+02
      vertex   1.739659e+02 9.110882e+01 1.180000e+02
      vertex   1.738660e+02 9.135000e+01 1.180000e+02
    endloop
  endfacet
  facet normal 0.000000e+00 0.000000e+00 1.000000e+00
    outer loop
      vertex   1.738660e+02 9.135000e+01 1.180000e+02
      vertex   1.737071e+02 9.155711e+01 1.180000e+02
      vertex   1.730000e+02 9.185000e+01 1.180000e+02
    endloop
  endfacet
  facet normal 0.000000e+00 0.000000e+00 1.000000e+00
    outer loop
      vertex   1.730000e+02 9.185000e+01 1.180000e+02
      vertex   1.737071e+02 9.155711e+01 1.180000e+02
      vertex   1.735000e+02 9.171603e+01 1.180000e+02
    endloop
  endfacet
  facet normal 0.000000e+00 0.000000e+00 1.000000e+00
    outer loop
      vertex   1.730000e+02 9.185000e+01 1.180000e+02
      vertex   1.735000e+02 9.171603e+01 1.180000e+02
      vertex   1.732588e+02 9.181593e+01 1.180000e+02
    endloop
  endfacet
  facet normal -0.000000e+00 0.000000e+00 1.000000e+00
    outer loop
      vertex   1.741181e+00 9.181593e+01 1.180000e+02
      vertex   1.500000e+00 9.171603e+01 1.180000e+02
      vertex   2.000000e+00 9.185000e+01 1.180000e+02
    endloop
  endfacet
  facet normal 0.000000e+00 0.000000e+00 1.000000e+00
    outer loop
      vertex   2.000000e+00 9.185000e+01 1.180000e+02
      vertex   1.500000e+00 9.171603e+01 1.180000e+02
      vertex   1.292893e+00 9.155711e+01 1.180000e+02
    endloop
  endfacet
  facet normal 0.000000e+00 0.000000e+00 1.000000e+00
    outer loop
      vertex   2.000000e+00 9.185000e+01 1.180000e+02
      vertex   1.292893e+00 9.155711e+01 1.180000e+02
      vertex   1.133975e+00 9.135000e+01 1.180000e+02
    endloop
  endfacet
  facet normal -0.000000e+00 0.000000e+00 1.000000e+00
    outer loop
      vertex   1.133975e+00 9.135000e+01 1.180000e+02
      vertex   1.034074e+00 9.110882e+01 1.180000e+02
      vertex   2.000000e+00 9.185000e+01 1.180000e+02
    endloop
  endfacet
  facet normal 0.000000e+00 0.000000e+00 1.000000e+00
    outer loop
      vertex   2.000000e+00 9.185000e+01 1.180000e+02
      vertex   1.034074e+00 9.110882e+01 1.180000e+02
      vertex   1.000000e+00 9.085000e+01 1.180000e+02
    endloop
  endfacet
  facet normal 0.000000e+00 0.000000e+00 1.000000e+00
    outer loop
      vertex   1.133975e+00 1.500000e+00 1.180000e+02
      vertex   1.292893e+00 1.292893e+00 1.180000e+02
      vertex   2.000000e+00 1.000000e+00 1.180000e+02
    endloop
  endfacet
  facet normal 0.000000e+00 0.000000e+00 1.000000e+00
    outer loop
      vertex   2.000000e+00 1.000000e+00 1.180000e+02
      vertex   1.292893e+00 1.292893e+00 1.180000e+02
      vertex   1.500000e+00 1.133975e+00 1.180000e+02
    endloop
  endfacet
  facet normal 0.000000e+00 0.000000e+00 1.000000e+00
    outer loop
      vertex   2.000000e+00 1.000000e+00 1.180000e+02
      vertex   1.500000e+00 1.133975e+00 1.180000e+02
      vertex   1.741181e+00 1.034074e+00 1.180000e+02
    endloop
  endfacet
  facet normal 1.305262e-01 9.914449e-01 -0.000000e+00
    outer loop
      vertex   1.720000e+02 8.685000e+01 1.135000e+02
      vertex   1.720000e+02 8.685000e+01 1.160000e+02
      vertex   1.722200e+02 8.682104e+01 1.135000e+02
    endloop
  endfacet
  facet normal 1.305262e-01 9.914449e-01 -0.000000e+00
    outer loop
      vertex   1.722200e+02 8.682104e+01 1.135000e+02
      vertex   1.720000e+02 8.685000e+01 1.160000e+02
      vertex   1.722200e+02 8.682104e+01 1.160000e+02
    endloop
  endfacet
  facet normal 3.826834e-01 9.238795e-01 -0.000000e+00
    outer loop
      vertex   1.722200e+02 8.682104e+01 1.135000e+02
      vertex   1.722200e+02 8.682104e+01 1.160000e+02
      vertex   1.724250e+02 8.673612e+01 1.135000e+02
    endloop
  endfacet
  facet normal 3.826834e-01 9.238795e-01 -0.000000e+00
    outer loop
      vertex   1.724250e+02 8.673612e+01 1.135000e+02
      vertex   1.722200e+02 8.682104e+01 1.160000e+02
      vertex   1.724250e+02 8.673612e+01 1.160000e+02
    endloop
  endfacet
  facet normal 6.087614e-01 7.933533e-01 -0.000000e+00
    outer loop
      vertex   1.724250e+02 8.673612e+01 1.135000e+02
      vertex   1.724250e+02 8.673612e+01 1.160000e+02
      vertex   1.726010e+02 8.660104e+01 1.135000e+02
    endloop
  endfacet
  facet normal 6.087614e-01 7.933533e-01 -0.000000e+00
    outer loop
      vertex   1.726010e+02 8.660104e+01 1.135000e+02
      vertex   1.724250e+02 8.673612e+01 1.160000e+02
      vertex   1.726010e+02 8.660104e+01 1.160000e+02
    endloop
  endfacet
  facet normal 7.933533e-01 6.087614e-01 -0.000000e+00
    outer loop
      vertex   1.726010e+02 8.660104e+01 1.135000e+02
      vertex   1.726010e+02 8.660104e+01 1.160000e+02
      vertex   1.727361e+02 8.642500e+01 1.135000e+02
    endloop
  endfacet
  facet normal 7.933533e-01 6.087614e-01 -0.000000e+00
    outer loop
      vertex   1.727361e+02 8.642500e+01 1.135000e+02
      vertex   1.726010e+02 8.660104e+01 1.160000e+02
      vertex   1.727361e+02 8.642500e+01 1.160000e+02
    endloop
  endfacet
  facet normal 9.238795e-01 3.826834e-01 -0.000000e+00
    outer loop
      vertex   1.727361e+02 8.642500e+01 1.135000e+02
      vertex   1.727361e+02 8.642500e+01 1.160000e+02
      vertex   1.728210e+02 8.622000e+01 1.135000e+02
    endloop
  endfacet
  facet normal 9.238795e-01 3.826834e-01 -0.000000e+00
    outer loop
      vertex   1.728210e+02 8.622000e+01 1.135000e+02
      vertex   1.727361e+02 8.642500e+01 1.160000e+02
      vertex   1.728210e+02 8.622000e+01 1.160000e+02
    endloop
  endfacet
  facet normal 9.914449e-01 1.305262e-01 -0.000000e+00
    outer loop
      vertex   1.728210e+02 8.622000e+01 1.135000e+02
      vertex   1.728210e+02 8.622000e+01 1.160000e+02
      vertex   1.728500e+02 8.600000e+01 1.135000e+02
    endloop
  endfacet
  facet normal 9.914449e-01 1.305262e-01 -0.000000e+00
    outer loop
      vertex   1.728500e+02 8.600000e+01 1.135000e+02
      vertex   1.728210e+02 8.622000e+01 1.160000e+02
      vertex   1.728500e+02 8.600000e+01 1.160000e+02
    endloop
  endfacet
  facet normal 8.408790e-17 1.000000e+00 4.779844e-31
    outer loop
      vertex   3.000000e+00 8.685000e+01 1.160000e+02
      vertex   1.720000e+02 8.685000e+01 1.160000e+02
      vertex   3.000000e+00 8.685000e+01 1.135000e+02
    endloop
  endfacet
  facet normal 8.408790e-17 1.000000e+00 0.000000e+00
    outer loop
      vertex   3.000000e+00 8.685000e+01 1.135000e+02
      vertex   1.720000e+02 8.685000e+01 1.160000e+02
      vertex   1.720000e+02 8.685000e+01 1.135000e+02
    endloop
  endfacet
  facet normal -9.914449e-01 1.305262e-01 -3.522320e-16
    outer loop
      vertex   2.150000e+00 8.600000e+01 1.135000e+02
      vertex   2.150000e+00 8.600000e+01 1.160000e+02
      vertex   2.178963e+00 8.622000e+01 1.135000e+02
    endloop
  endfacet
  facet normal -9.914449e-01 1.305262e-01 0.000000e+00
    outer loop
      vertex   2.178963e+00 8.622000e+01 1.135000e+02
      vertex   2.150000e+00 8.600000e+01 1.160000e+02
      vertex   2.178963e+00 8.622000e+01 1.160000e+02
    endloop
  endfacet
  facet normal -9.238795e-01 3.826834e-01 0.000000e+00
    outer loop
      vertex   2.178963e+00 8.622000e+01 1.135000e+02
      vertex   2.178963e+00 8.622000e+01 1.160000e+02
      vertex   2.263878e+00 8.642500e+01 1.135000e+02
    endloop
  endfacet
  facet normal -9.238795e-01 3.826834e-01 0.000000e+00
    outer loop
      vertex   2.263878e+00 8.642500e+01 1.135000e+02
      vertex   2.178963e+00 8.622000e+01 1.160000e+02
      vertex   2.263878e+00 8.642500e+01 1.160000e+02
    endloop
  endfacet
  facet normal -7.933533e-01 6.087614e-01 0.000000e+00
    outer loop
      vertex   2.263878e+00 8.642500e+01 1.135000e+02
      vertex   2.263878e+00 8.642500e+01 1.160000e+02
      vertex   2.398959e+00 8.660104e+01 1.135000e+02
    endloop
  endfacet
  facet normal -7.933533e-01 6.087614e-01 0.000000e+00
    outer loop
      vertex   2.398959e+00 8.660104e+01 1.135000e+02
      vertex   2.263878e+00 8.642500e+01 1.160000e+02
      vertex   2.398959e+00 8.660104e+01 1.160000e+02
    endloop
  endfacet
  facet normal -6.087614e-01 7.933533e-01 0.000000e+00
    outer loop
      vertex   2.398959e+00 8.660104e+01 1.135000e+02
      vertex   2.398959e+00 8.660104e+01 1.160000e+02
      vertex   2.575000e+00 8.673612e+01 1.135000e+02
    endloop
  endfacet
  facet normal -6.087614e-01 7.933533e-01 0.000000e+00
    outer loop
      vertex   2.575000e+00 8.673612e+01 1.135000e+02
      vertex   2.398959e+00 8.660104e+01 1.160000e+02
      vertex   2.575000e+00 8.673612e+01 1.160000e+02
    endloop
  endfacet
  facet normal -3.826834e-01 9.238795e-01 0.000000e+00
    outer loop
      vertex   2.575000e+00 8.673612e+01 1.135000e+02
      vertex   2.575000e+00 8.673612e+01 1.160000e+02
      vertex   2.780004e+00 8.682104e+01 1.135000e+02
    endloop
  endfacet
  facet normal -3.826834e-01 9.238795e-01 0.000000e+00
    outer loop
      vertex   2.780004e+00 8.682104e+01 1.135000e+02
      vertex   2.575000e+00 8.673612e+01 1.160000e+02
      vertex   2.780004e+00 8.682104e+01 1.160000e+02
    endloop
  endfacet
  facet normal -1.305262e-01 9.914449e-01 0.000000e+00
    outer loop
      vertex   2.780004e+00 8.682104e+01 1.135000e+02
      vertex   2.780004e+00 8.682104e+01 1.160000e+02
      vertex   3.000000e+00 8.685000e+01 1.135000e+02
    endloop
  endfacet
  facet normal -1.305262e-01 9.914449e-01 -7.419555e-16
    outer loop
      vertex   3.000000e+00 8.685000e+01 1.135000e+02
      vertex   2.780004e+00 8.682104e+01 1.160000e+02
      vertex   3.000000e+00 8.685000e+01 1.160000e+02
    endloop
  endfacet
  facet normal -1.305262e-01 -9.914449e-01 -1.937276e-15
    outer loop
      vertex   3.000000e+00 2.150000e+00 1.135000e+02
      vertex   3.000000e+00 2.150000e+00 1.160000e+02
      vertex   2.780004e+00 2.178963e+00 1.135000e+02
    endloop
  endfacet
  facet normal -1.305262e-01 -9.914449e-01 0.000000e+00
    outer loop
      vertex   2.780004e+00 2.178963e+00 1.135000e+02
      vertex   3.000000e+00 2.150000e+00 1.160000e+02
      vertex   2.780004e+00 2.178963e+00 1.160000e+02
    endloop
  endfacet
  facet normal -3.826834e-01 -9.238795e-01 0.000000e+00
    outer loop
      vertex   2.780004e+00 2.178963e+00 1.135000e+02
      vertex   2.780004e+00 2.178963e+00 1.160000e+02
      vertex   2.575000e+00 2.263878e+00 1.135000e+02
    endloop
  endfacet
  facet normal -3.826834e-01 -9.238795e-01 0.000000e+00
    outer loop
      vertex   2.575000e+00 2.263878e+00 1.135000e+02
      vertex   2.780004e+00 2.178963e+00 1.160000e+02
      vertex   2.575000e+00 2.263878e+00 1.160000e+02
    endloop
  endfacet
  facet normal -6.087614e-01 -7.933533e-01 0.000000e+00
    outer loop
      vertex   2.575000e+00 2.263878e+00 1.135000e+02
      vertex   2.575000e+00 2.263878e+00 1.160000e+02
      vertex   2.398959e+00 2.398959e+00 1.135000e+02
    endloop
  endfacet
  facet normal -6.087614e-01 -7.933533e-01 0.000000e+00
    outer loop
      vertex   2.398959e+00 2.398959e+00 1.135000e+02
      vertex   2.575000e+00 2.263878e+00 1.160000e+02
      vertex   2.398959e+00 2.398959e+00 1.160000e+02
    endloop
  endfacet
  facet normal -7.933533e-01 -6.087614e-01 0.000000e+00
    outer loop
      vertex   2.398959e+00 2.398959e+00 1.135000e+02
      vertex   2.398959e+00 2.398959e+00 1.160000e+02
      vertex   2.263878e+00 2.575000e+00 1.135000e+02
    endloop
  endfacet
  facet normal -7.933533e-01 -6.087614e-01 -1.081378e-16
    outer loop
      vertex   2.263878e+00 2.575000e+00 1.135000e+02
      vertex   2.398959e+00 2.398959e+00 1.160000e+02
      vertex   2.263878e+00 2.575000e+00 1.160000e+02
    endloop
  endfacet
  facet normal -9.238795e-01 -3.826834e-01 -6.797823e-17
    outer loop
      vertex   2.263878e+00 2.575000e+00 1.135000e+02
      vertex   2.263878e+00 2.575000e+00 1.160000e+02
      vertex   2.178963e+00 2.780004e+00 1.135000e+02
    endloop
  endfacet
  facet normal -9.238795e-01 -3.826834e-01 0.000000e+00
    outer loop
      vertex   2.178963e+00 2.780004e+00 1.135000e+02
      vertex   2.263878e+00 2.575000e+00 1.160000e+02
      vertex   2.178963e+00 2.780004e+00 1.160000e+02
    endloop
  endfacet
  facet normal -9.914449e-01 -1.305262e-01 0.000000e+00
    outer loop
      vertex   2.178963e+00 2.780004e+00 1.135000e+02
      vertex   2.178963e+00 2.780004e+00 1.160000e+02
      vertex   2.150000e+00 3.000000e+00 1.135000e+02
    endloop
  endfacet
  facet normal -9.914449e-01 -1.305262e-01 -1.292997e-15
    outer loop
      vertex   2.150000e+00 3.000000e+00 1.135000e+02
      vertex   2.178963e+00 2.780004e+00 1.160000e+02
      vertex   2.150000e+00 3.000000e+00 1.160000e+02
    endloop
  endfacet
  facet normal 1.839423e-17 -1.000000e+00 -7.105427e-16
    outer loop
      vertex   1.720000e+02 2.150000e+00 1.160000e+02
      vertex   3.000000e+00 2.150000e+00 1.160000e+02
      vertex   1.720000e+02 2.150000e+00 1.135000e+02
    endloop
  endfacet
  facet normal -0.000000e+00 -1.000000e+00 -1.953993e-15
    outer loop
      vertex   1.720000e+02 2.150000e+00 1.135000e+02
      vertex   3.000000e+00 2.150000e+00 1.160000e+02
      vertex   3.000000e+00 2.150000e+00 1.135000e+02
    endloop
  endfacet
  facet normal 9.914449e-01 -1.305262e-01 0.000000e+00
    outer loop
      vertex   1.728500e+02 3.000000e+00 1.135000e+02
      vertex   1.728500e+02 3.000000e+00 1.160000e+02
      vertex   1.728210e+02 2.780004e+00 1.135000e+02
    endloop
  endfacet
  facet normal 9.914449e-01 -1.305262e-01 0.000000e+00
    outer loop
      vertex   1.728210e+02 2.780004e+00 1.135000e+02
      vertex   1.728500e+02 3.000000e+00 1.160000e+02
      vertex   1.728210e+02 2.780004e+00 1.160000e+02
    endloop
  endfacet
  facet normal 9.238795e-01 -3.826834e-01 0.000000e+00
    outer loop
      vertex   1.728210e+02 2.780004e+00 1.135000e+02
      vertex   1.728210e+02 2.780004e+00 1.160000e+02
      vertex   1.727361e+02 2.575000e+00 1.135000e+02
    endloop
  endfacet
  facet normal 9.238795e-01 -3.826834e-01 0.000000e+00
    outer loop
      vertex   1.727361e+02 2.575000e+00 1.135000e+02
      vertex   1.728210e+02 2.780004e+00 1.160000e+02
      vertex   1.727361e+02 2.575000e+00 1.160000e+02
    endloop
  endfacet
  facet normal 7.933533e-01 -6.087614e-01 0.000000e+00
    outer loop
      vertex   1.727361e+02 2.575000e+00 1.135000e+02
      vertex   1.727361e+02 2.575000e+00 1.160000e+02
      vertex   1.726010e+02 2.398959e+00 1.135000e+02
    endloop
  endfacet
  facet normal 7.933533e-01 -6.087614e-01 0.000000e+00
    outer loop
      vertex   1.726010e+02 2.398959e+00 1.135000e+02
      vertex   1.727361e+02 2.575000e+00 1.160000e+02
      vertex   1.726010e+02 2.398959e+00 1.160000e+02
    endloop
  endfacet
  facet normal 6.087614e-01 -7.933533e-01 0.000000e+00
    outer loop
      vertex   1.726010e+02 2.398959e+00 1.135000e+02
      vertex   1.726010e+02 2.398959e+00 1.160000e+02
      vertex   1.724250e+02 2.263878e+00 1.135000e+02
    endloop
  endfacet
  facet normal 6.087614e-01 -7.933533e-01 0.000000e+00
    outer loop
      vertex   1.724250e+02 2.263878e+00 1.135000e+02
      vertex   1.726010e+02 2.398959e+00 1.160000e+02
      vertex   1.724250e+02 2.263878e+00 1.160000e+02
    endloop
  endfacet
  facet normal 3.826834e-01 -9.238795e-01 0.000000e+00
    outer loop
      vertex   1.724250e+02 2.263878e+00 1.135000e+02
      vertex   1.724250e+02 2.263878e+00 1.160000e+02
      vertex   1.722200e+02 2.178963e+00 1.135000e+02
    endloop
  endfacet
  facet normal 3.826834e-01 -9.238795e-01 0.000000e+00
    outer loop
      vertex   1.722200e+02 2.178963e+00 1.135000e+02
      vertex   1.724250e+02 2.263878e+00 1.160000e+02
      vertex   1.722200e+02 2.178963e+00 1.160000e+02
    endloop
  endfacet
  facet normal 1.305262e-01 -9.914449e-01 0.000000e+00
    outer loop
      vertex   1.722200e+02 2.178963e+00 1.135000e+02
      vertex   1.722200e+02 2.178963e+00 1.160000e+02
      vertex   1.720000e+02 2.150000e+00 1.135000e+02
    endloop
  endfacet
  facet normal 1.305262e-01 -9.914449e-01 -7.044639e-16
    outer loop
      vertex   1.720000e+02 2.150000e+00 1.135000e+02
      vertex   1.722200e+02 2.178963e+00 1.160000e+02
      vertex   1.720000e+02 2.150000e+00 1.160000e+02
    endloop
  endfacet
  facet normal 0.000000e+00 0.000000e+00 -1.000000e+00
    outer loop
      vertex   1.728500e+02 2.325000e+01 1.135000e+02
      vertex   1.711529e+02 2.325000e+01 1.135000e+02
      vertex   1.722500e+02 2.385000e+01 1.135000e+02
    endloop
  endfacet
  facet normal -0.000000e+00 0.000000e+00 -1.000000e+00
    outer loop
      vertex   1.722500e+02 2.385000e+01 1.135000e+02
      vertex   1.711529e+02 2.325000e+01 1.135000e+02
      vertex   1.711529e+02 6.575000e+01 1.135000e+02
    endloop
  endfacet
  facet normal 0.000000e+00 0.000000e+00 -1.000000e+00
    outer loop
      vertex   1.722500e+02 2.385000e+01 1.135000e+02
      vertex   1.711529e+02 6.575000e+01 1.135000e+02
      vertex   1.722500e+02 6.515000e+01 1.135000e+02
    endloop
  endfacet
  facet normal 0.000000e+00 0.000000e+00 -1.000000e+00
    outer loop
      vertex   1.722500e+02 6.515000e+01 1.135000e+02
      vertex   1.711529e+02 6.575000e+01 1.135000e+02
      vertex   1.728500e+02 6.575000e+01 1.135000e+02
    endloop
  endfacet
  facet normal 0.000000e+00 0.000000e+00 -1.000000e+00
    outer loop
      vertex   1.728500e+02 6.575000e+01 1.135000e+02
      vertex   1.711529e+02 6.575000e+01 1.135000e+02
      vertex   1.716500e+02 6.624706e+01 1.135000e+02
    endloop
  endfacet
  facet normal 0.000000e+00 0.000000e+00 -1.000000e+00
    outer loop
      vertex   1.728500e+02 6.575000e+01 1.135000e+02
      vertex   1.716500e+02 6.624706e+01 1.135000e+02
      vertex   1.728500e+02 8.600000e+01 1.135000e+02
    endloop
  endfacet
  facet normal 0.000000e+00 0.000000e+00 -1.000000e+00
    outer loop
      vertex   1.728500e+02 8.600000e+01 1.135000e+02
      vertex   1.716500e+02 6.624706e+01 1.135000e+02
      vertex   1.716500e+02 8.565000e+01 1.135000e+02
    endloop
  endfacet
  facet normal -0.000000e+00 0.000000e+00 -1.000000e+00
    outer loop
      vertex   1.728500e+02 8.600000e+01 1.135000e+02
      vertex   1.716500e+02 8.565000e+01 1.135000e+02
      vertex   1.728210e+02 8.622000e+01 1.135000e+02
    endloop
  endfacet
  facet normal -0.000000e+00 0.000000e+00 -1.000000e+00
    outer loop
      vertex   1.728210e+02 8.622000e+01 1.135000e+02
      vertex   1.716500e+02 8.565000e+01 1.135000e+02
      vertex   1.727361e+02 8.642500e+01 1.135000e+02
    endloop
  endfacet
  facet normal -0.000000e+00 0.000000e+00 -1.000000e+00
    outer loop
      vertex   1.727361e+02 8.642500e+01 1.135000e+02
      vertex   1.716500e+02 8.565000e+01 1.135000e+02
      vertex   1.720000e+02 8.685000e+01 1.135000e+02
    endloop
  endfacet
  facet normal 0.000000e+00 0.000000e+00 -1.000000e+00
    outer loop
      vertex   1.727361e+02 8.642500e+01 1.135000e+02
      vertex   1.720000e+02 8.685000e+01 1.135000e+02
      vertex   1.726010e+02 8.660104e+01 1.135000e+02
    endloop
  endfacet
  facet normal 0.000000e+00 0.000000e+00 -1.000000e+00
    outer loop
      vertex   1.726010e+02 8.660104e+01 1.135000e+02
      vertex   1.720000e+02 8.685000e+01 1.135000e+02
      vertex   1.724250e+02 8.673612e+01 1.135000e+02
    endloop
  endfacet
  facet normal 0.000000e+00 0.000000e+00 -1.000000e+00
    outer loop
      vertex   1.724250e+02 8.673612e+01 1.135000e+02
      vertex   1.720000e+02 8.685000e+01 1.135000e+02
      vertex   1.722200e+02 8.682104e+01 1.135000e+02
    endloop
  endfacet
  facet normal 0.000000e+00 0.000000e+00 -1.000000e+00
    outer loop
      vertex   1.711529e+02 2.325000e+01 1.135000e+02
      vertex   1.728500e+02 2.325000e+01 1.135000e+02
      vertex   1.716500e+02 2.275294e+01 1.135000e+02
    endloop
  endfacet
  facet normal 0.000000e+00 0.000000e+00 -1.000000e+00
    outer loop
      vertex   1.716500e+02 2.275294e+01 1.135000e+02
      vertex   1.728500e+02 2.325000e+01 1.135000e+02
      vertex   1.728500e+02 3.000000e+00 1.135000e+02
    endloop
  endfacet
  facet normal 0.000000e+00 -0.000000e+00 -1.000000e+00
    outer loop
      vertex   1.716500e+02 2.275294e+01 1.135000e+02
      vertex   1.728500e+02 3.000000e+00 1.135000e+02
      vertex   1.716500e+02 3.350000e+00 1.135000e+02
    endloop
  endfacet
  facet normal 0.000000e+00 0.000000e+00 -1.000000e+00
    outer loop
      vertex   1.716500e+02 3.350000e+00 1.135000e+02
      vertex   1.728500e+02 3.000000e+00 1.135000e+02
      vertex   1.728210e+02 2.780004e+00 1.135000e+02
    endloop
  endfacet
  facet normal 0.000000e+00 0.000000e+00 -1.000000e+00
    outer loop
      vertex   1.716500e+02 3.350000e+00 1.135000e+02
      vertex   1.728210e+02 2.780004e+00 1.135000e+02
      vertex   1.727361e+02 2.575000e+00 1.135000e+02
    endloop
  endfacet
  facet normal 0.000000e+00 0.000000e+00 -1.000000e+00
    outer loop
      vertex   1.716500e+02 3.350000e+00 1.135000e+02
      vertex   1.727361e+02 2.575000e+00 1.135000e+02
      vertex   1.720000e+02 2.150000e+00 1.135000e+02
    endloop
  endfacet
  facet normal 0.000000e+00 0.000000e+00 -1.000000e+00
    outer loop
      vertex   1.720000e+02 2.150000e+00 1.135000e+02
      vertex   1.727361e+02 2.575000e+00 1.135000e+02
      vertex   1.726010e+02 2.398959e+00 1.135000e+02
    endloop
  endfacet
  facet normal 0.000000e+00 0.000000e+00 -1.000000e+00
    outer loop
      vertex   1.720000e+02 2.150000e+00 1.135000e+02
      vertex   1.726010e+02 2.398959e+00 1.135000e+02
      vertex   1.724250e+02 2.263878e+00 1.135000e+02
    endloop
  endfacet
  facet normal 0.000000e+00 0.000000e+00 -1.000000e+00
    outer loop
      vertex   1.724250e+02 2.263878e+00 1.135000e+02
      vertex   1.722200e+02 2.178963e+00 1.135000e+02
      vertex   1.720000e+02 2.150000e+00 1.135000e+02
    endloop
  endfacet
  facet normal 0.000000e+00 0.000000e+00 -1.000000e+00
    outer loop
      vertex   1.720000e+02 2.150000e+00 1.135000e+02
      vertex   3.000000e+00 2.150000e+00 1.135000e+02
      vertex   1.716500e+02 3.350000e+00 1.135000e+02
    endloop
  endfacet
  facet normal 0.000000e+00 0.000000e+00 -1.000000e+00
    outer loop
      vertex   1.716500e+02 3.350000e+00 1.135000e+02
      vertex   3.000000e+00 2.150000e+00 1.135000e+02
      vertex   3.350000e+00 3.350000e+00 1.135000e+02
    endloop
  endfacet
  facet normal 0.000000e+00 0.000000e+00 -1.000000e+00
    outer loop
      vertex   3.350000e+00 3.350000e+00 1.135000e+02
      vertex   3.000000e+00 2.150000e+00 1.135000e+02
      vertex   2.263878e+00 2.575000e+00 1.135000e+02
    endloop
  endfacet
  facet normal 0.000000e+00 0.000000e+00 -1.000000e+00
    outer loop
      vertex   3.350000e+00 3.350000e+00 1.135000e+02
      vertex   2.263878e+00 2.575000e+00 1.135000e+02
      vertex   2.178963e+00 2.780004e+00 1.135000e+02
    endloop
  endfacet
  facet normal 0.000000e+00 0.000000e+00 -1.000000e+00
    outer loop
      vertex   2.780004e+00 2.178963e+00 1.135000e+02
      vertex   2.575000e+00 2.263878e+00 1.135000e+02
      vertex   3.000000e+00 2.150000e+00 1.135000e+02
    endloop
  endfacet
  facet normal 0.000000e+00 0.000000e+00 -1.000000e+00
    outer loop
      vertex   3.000000e+00 2.150000e+00 1.135000e+02
      vertex   2.575000e+00 2.263878e+00 1.135000e+02
      vertex   2.398959e+00 2.398959e+00 1.135000e+02
    endloop
  endfacet
  facet normal 0.000000e+00 0.000000e+00 -1.000000e+00
    outer loop
      vertex   3.000000e+00 2.150000e+00 1.135000e+02
      vertex   2.398959e+00 2.398959e+00 1.135000e+02
      vertex   2.263878e+00 2.575000e+00 1.135000e+02
    endloop
  endfacet
  facet normal 0.000000e+00 0.000000e+00 -1.000000e+00
    outer loop
      vertex   2.178963e+00 2.780004e+00 1.135000e+02
      vertex   2.150000e+00 3.000000e+00 1.135000e+02
      vertex   3.350000e+00 3.350000e+00 1.135000e+02
    endloop
  endfacet
  facet normal -0.000000e+00 0.000000e+00 -1.000000e+00
    outer loop
      vertex   3.350000e+00 3.350000e+00 1.135000e+02
      vertex   2.150000e+00 3.000000e+00 1.135000e+02
      vertex   3.350000e+00 2.275294e+01 1.135000e+02
    endloop
  endfacet
  facet normal -0.000000e+00 0.000000e+00 -1.000000e+00
    outer loop
      vertex   3.350000e+00 2.275294e+01 1.135000e+02
      vertex   2.150000e+00 3.000000e+00 1.135000e+02
      vertex   2.150000e+00 2.325000e+01 1.135000e+02
    endloop
  endfacet
  facet normal 8.373826e-15 2.021621e-14 -1.000000e+00
    outer loop
      vertex   3.350000e+00 2.275294e+01 1.135000e+02
      vertex   2.150000e+00 2.325000e+01 1.135000e+02
      vertex   3.847056e+00 2.325000e+01 1.135000e+02
    endloop
  endfacet
  facet normal 8.373826e-15 -8.373826e-15 -1.000000e+00
    outer loop
      vertex   3.847056e+00 2.325000e+01 1.135000e+02
      vertex   2.150000e+00 2.325000e+01 1.135000e+02
      vertex   2.750000e+00 2.385000e+01 1.135000e+02
    endloop
  endfacet
  facet normal 1.295362e-14 -1.488899e-30 -1.000000e+00
    outer loop
      vertex   3.847056e+00 2.325000e+01 1.135000e+02
      vertex   2.750000e+00 2.385000e+01 1.135000e+02
      vertex   3.847056e+00 6.575000e+01 1.135000e+02
    endloop
  endfacet
  facet normal 1.295362e-14 0.000000e+00 -1.000000e+00
    outer loop
      vertex   3.847056e+00 6.575000e+01 1.135000e+02
      vertex   2.750000e+00 2.385000e+01 1.135000e+02
      vertex   2.750000e+00 6.515000e+01 1.135000e+02
    endloop
  endfacet
  facet normal 8.373826e-15 8.373826e-15 -1.000000e+00
    outer loop
      vertex   3.847056e+00 6.575000e+01 1.135000e+02
      vertex   2.750000e+00 6.515000e+01 1.135000e+02
      vertex   2.150000e+00 6.575000e+01 1.135000e+02
    endloop
  endfacet
  facet normal 8.373826e-15 -2.021621e-14 -1.000000e+00
    outer loop
      vertex   3.847056e+00 6.575000e+01 1.135000e+02
      vertex   2.150000e+00 6.575000e+01 1.135000e+02
      vertex   3.350000e+00 6.624706e+01 1.135000e+02
    endloop
  endfacet
  facet normal -0.000000e+00 0.000000e+00 -1.000000e+00
    outer loop
      vertex   3.350000e+00 6.624706e+01 1.135000e+02
      vertex   2.150000e+00 6.575000e+01 1.135000e+02
      vertex   2.150000e+00 8.600000e+01 1.135000e+02
    endloop
  endfacet
  facet normal 0.000000e+00 0.000000e+00 -1.000000e+00
    outer loop
      vertex   3.350000e+00 6.624706e+01 1.135000e+02
      vertex   2.150000e+00 8.600000e+01 1.135000e+02
      vertex   3.350000e+00 8.565000e+01 1.135000e+02
    endloop
  endfacet
  facet normal 0.000000e+00 0.000000e+00 -1.000000e+00
    outer loop
      vertex   3.350000e+00 8.565000e+01 1.135000e+02
      vertex   2.150000e+00 8.600000e+01 1.135000e+02
      vertex   2.178963e+00 8.622000e+01 1.135000e+02
    endloop
  endfacet
  facet normal 0.000000e+00 0.000000e+00 -1.000000e+00
    outer loop
      vertex   3.350000e+00 8.565000e+01 1.135000e+02
      vertex   2.178963e+00 8.622000e+01 1.135000e+02
      vertex   2.263878e+00 8.642500e+01 1.135000e+02
    endloop
  endfacet
  facet normal 0.000000e+00 0.000000e+00 -1.000000e+00
    outer loop
      vertex   3.350000e+00 8.565000e+01 1.135000e+02
      vertex   2.263878e+00 8.642500e+01 1.135000e+02
      vertex   3.000000e+00 8.685000e+01 1.135000e+02
    endloop
  endfacet
  facet normal 0.000000e+00 0.000000e+00 -1.000000e+00
    outer loop
      vertex   3.000000e+00 8.685000e+01 1.135000e+02
      vertex   2.263878e+00 8.642500e+01 1.135000e+02
      vertex   2.398959e+00 8.660104e+01 1.135000e+02
    endloop
  endfacet
  facet normal 0.000000e+00 0.000000e+00 -1.000000e+00
    outer loop
      vertex   3.000000e+00 8.685000e+01 1.135000e+02
      vertex   2.398959e+00 8.660104e+01 1.135000e+02
      vertex   2.575000e+00 8.673612e+01 1.135000e+02
    endloop
  endfacet
  facet normal 0.000000e+00 0.000000e+00 -1.000000e+00
    outer loop
      vertex   2.575000e+00 8.673612e+01 1.135000e+02
      vertex   2.780004e+00 8.682104e+01 1.135000e+02
      vertex   3.000000e+00 8.685000e+01 1.135000e+02
    endloop
  endfacet
  facet normal 0.000000e+00 0.000000e+00 -1.000000e+00
    outer loop
      vertex   3.000000e+00 8.685000e+01 1.135000e+02
      vertex   1.720000e+02 8.685000e+01 1.135000e+02
      vertex   3.350000e+00 8.565000e+01 1.135000e+02
    endloop
  endfacet
  facet normal 0.000000e+00 0.000000e+00 -1.000000e+00
    outer loop
      vertex   3.350000e+00 8.565000e+01 1.135000e+02
      vertex   1.720000e+02 8.685000e+01 1.135000e+02
      vertex   1.716500e+02 8.565000e+01 1.135000e+02
    endloop
  endfacet
  facet normal 1.000000e+00 0.000000e+00 0.000000e+00
    outer loop
      vertex   1.698500e+02 9.285000e+01 1.160000e+02
      vertex   1.698500e+02 9.085000e+01 1.160000e+02
      vertex   1.698500e+02 9.285000e+01 1.122000e+02
    endloop
  endfacet
  facet normal 1.000000e+00 0.000000e+00 0.000000e+00
    outer loop
      vertex   1.698500e+02 9.285000e+01 1.122000e+02
      vertex   1.698500e+02 9.085000e+01 1.160000e+02
      vertex   1.698500e+02 9.085000e+01 1.122000e+02
    endloop
  endfacet
  facet normal -1.000000e+00 0.000000e+00 0.000000e+00
    outer loop
      vertex   5.150000e+00 9.085000e+01 1.160000e+02
      vertex   5.150000e+00 9.285000e+01 1.160000e+02
      vertex   5.150000e+00 9.085000e+01 1.122000e+02
    endloop
  endfacet
  facet normal -1.000000e+00 0.000000e+00 0.000000e+00
    outer loop
      vertex   5.150000e+00 9.085000e+01 1.122000e+02
      vertex   5.150000e+00 9.285000e+01 1.160000e+02
      vertex   5.150000e+00 9.285000e+01 1.122000e+02
    endloop
  endfacet
  facet normal -0.000000e+00 -1.000000e+00 -0.000000e+00
    outer loop
      vertex   1.698500e+02 9.085000e+01 1.160000e+02
      vertex   5.150000e+00 9.085000e+01 1.160000e+02
      vertex   1.698500e+02 9.085000e+01 1.122000e+02
    endloop
  endfacet
  facet normal 0.000000e+00 -1.000000e+00 0.000000e+00
    outer loop
      vertex   1.698500e+02 9.085000e+01 1.122000e+02
      vertex   5.150000e+00 9.085000e+01 1.160000e+02
      vertex   5.150000e+00 9.085000e+01 1.122000e+02
    endloop
  endfacet
  facet normal 0.000000e+00 0.000000e+00 -1.000000e+00
    outer loop
      vertex   1.698500e+02 9.085000e+01 1.122000e+02
      vertex   5.150000e+00 9.085000e+01 1.122000e+02
      vertex   1.698500e+02 9.285000e+01 1.122000e+02
    endloop
  endfacet
  facet normal -0.000000e+00 0.000000e+00 -1.000000e+00
    outer loop
      vertex   1.698500e+02 9.285000e+01 1.122000e+02
      vertex   5.150000e+00 9.085000e+01 1.122000e+02
      vertex   5.150000e+00 9.285000e+01 1.122000e+02
    endloop
  endfacet
  facet normal 0.000000e+00 0.000000e+00 -1.000000e+00
    outer loop
      vertex   1.728500e+02 6.575000e+01 1.160000e+02
      vertex   1.728500e+02 8.600000e+01 1.160000e+02
      vertex   1.750000e+02 9.085000e+01 1.160000e+02
    endloop
  endfacet
  facet normal 0.000000e+00 0.000000e+00 -1.000000e+00
    outer loop
      vertex   1.750000e+02 9.085000e+01 1.160000e+02
      vertex   1.728500e+02 8.600000e+01 1.160000e+02
      vertex   1.728210e+02 8.622000e+01 1.160000e+02
    endloop
  endfacet
  facet normal 0.000000e+00 0.000000e+00 -1.000000e+00
    outer loop
      vertex   1.750000e+02 9.085000e+01 1.160000e+02
      vertex   1.728210e+02 8.622000e+01 1.160000e+02
      vertex   1.727361e+02 8.642500e+01 1.160000e+02
    endloop
  endfacet
  facet normal 0.000000e+00 0.000000e+00 -1.000000e+00
    outer loop
      vertex   1.727361e+02 8.642500e+01 1.160000e+02
      vertex   1.726010e+02 8.660104e+01 1.160000e+02
      vertex   1.750000e+02 9.085000e+01 1.160000e+02
    endloop
  endfacet
  facet normal 0.000000e+00 0.000000e+00 -1.000000e+00
    outer loop
      vertex   1.750000e+02 9.085000e+01 1.160000e+02
      vertex   1.726010e+02 8.660104e+01 1.160000e+02
      vertex   1.724250e+02 8.673612e+01 1.160000e+02
    endloop
  endfacet
  facet normal 0.000000e+00 0.000000e+00 -1.000000e+00
    outer loop
      vertex   1.750000e+02 9.085000e+01 1.160000e+02
      vertex   1.724250e+02 8.673612e+01 1.160000e+02
      vertex   1.722200e+02 8.682104e+01 1.160000e+02
    endloop
  endfacet
  facet normal 0.000000e+00 0.000000e+00 -1.000000e+00
    outer loop
      vertex   1.722200e+02 8.682104e+01 1.160000e+02
      vertex   1.720000e+02 8.685000e+01 1.160000e+02
      vertex   1.750000e+02 9.085000e+01 1.160000e+02
    endloop
  endfacet
  facet normal -0.000000e+00 0.000000e+00 -1.000000e+00
    outer loop
      vertex   1.750000e+02 9.085000e+01 1.160000e+02
      vertex   1.720000e+02 8.685000e+01 1.160000e+02
      vertex   1.698500e+02 9.085000e+01 1.160000e+02
    endloop
  endfacet
  facet normal 0.000000e+00 0.000000e+00 -1.000000e+00
    outer loop
      vertex   1.750000e+02 9.085000e+01 1.160000e+02
      vertex   1.698500e+02 9.085000e+01 1.160000e+02
      vertex   1.749319e+02 9.136764e+01 1.160000e+02
    endloop
  endfacet
  facet normal -0.000000e+00 0.000000e+00 -1.000000e+00
    outer loop
      vertex   1.749319e+02 9.136764e+01 1.160000e+02
      vertex   1.698500e+02 9.085000e+01 1.160000e+02
      vertex   1.747321e+02 9.185000e+01 1.160000e+02
    endloop
  endfacet
  facet normal -0.000000e+00 0.000000e+00 -1.000000e+00
    outer loop
      vertex   1.747321e+02 9.185000e+01 1.160000e+02
      vertex   1.698500e+02 9.085000e+01 1.160000e+02
      vertex   1.744142e+02 9.226421e+01 1.160000e+02
    endloop
  endfacet
  facet normal -0.000000e+00 0.000000e+00 -1.000000e+00
    outer loop
      vertex   1.744142e+02 9.226421e+01 1.160000e+02
      vertex   1.698500e+02 9.085000e+01 1.160000e+02
      vertex   1.730000e+02 9.285000e+01 1.160000e+02
    endloop
  endfacet
  facet normal 0.000000e+00 0.000000e+00 -1.000000e+00
    outer loop
      vertex   1.744142e+02 9.226421e+01 1.160000e+02
      vertex   1.730000e+02 9.285000e+01 1.160000e+02
      vertex   1.740000e+02 9.258205e+01 1.160000e+02
    endloop
  endfacet
  facet normal 0.000000e+00 0.000000e+00 -1.000000e+00
    outer loop
      vertex   1.740000e+02 9.258205e+01 1.160000e+02
      vertex   1.730000e+02 9.285000e+01 1.160000e+02
      vertex   1.735176e+02 9.278185e+01 1.160000e+02
    endloop
  endfacet
  facet normal 0.000000e+00 0.000000e+00 -1.000000e+00
    outer loop
      vertex   1.720000e+02 8.685000e+01 1.160000e+02
      vertex   3.000000e+00 8.685000e+01 1.160000e+02
      vertex   1.698500e+02 9.085000e+01 1.160000e+02
    endloop
  endfacet
  facet normal -0.000000e+00 0.000000e+00 -1.000000e+00
    outer loop
      vertex   1.698500e+02 9.085000e+01 1.160000e+02
      vertex   3.000000e+00 8.685000e+01 1.160000e+02
      vertex   5.150000e+00 9.085000e+01 1.160000e+02
    endloop
  endfacet
  facet normal -0.000000e+00 0.000000e+00 -1.000000e+00
    outer loop
      vertex   5.150000e+00 9.085000e+01 1.160000e+02
      vertex   3.000000e+00 8.685000e+01 1.160000e+02
      vertex   -5.551115e-16 9.085000e+01 1.160000e+02
    endloop
  endfacet
  facet normal 0.000000e+00 0.000000e+00 -1.000000e+00
    outer loop
      vertex   5.150000e+00 9.085000e+01 1.160000e+02
      vertex   -5.551115e-16 9.085000e+01 1.160000e+02
      vertex   6.814835e-02 9.136764e+01 1.160000e+02
    endloop
  endfacet
  facet normal -0.000000e+00 0.000000e+00 -1.000000e+00
    outer loop
      vertex   3.000000e+00 8.685000e+01 1.160000e+02
      vertex   2.780004e+00 8.682104e+01 1.160000e+02
      vertex   -5.551115e-16 9.085000e+01 1.160000e+02
    endloop
  endfacet
  facet normal 0.000000e+00 0.000000e+00 -1.000000e+00
    outer loop
      vertex   -5.551115e-16 9.085000e+01 1.160000e+02
      vertex   2.780004e+00 8.682104e+01 1.160000e+02
      vertex   2.575000e+00 8.673612e+01 1.160000e+02
    endloop
  endfacet
  facet normal 0.000000e+00 0.000000e+00 -1.000000e+00
    outer loop
      vertex   -5.551115e-16 9.085000e+01 1.160000e+02
      vertex   2.575000e+00 8.673612e+01 1.160000e+02
      vertex   2.398959e+00 8.660104e+01 1.160000e+02
    endloop
  endfacet
  facet normal -0.000000e+00 0.000000e+00 -1.000000e+00
    outer loop
      vertex   2.398959e+00 8.660104e+01 1.160000e+02
      vertex   2.263878e+00 8.642500e+01 1.160000e+02
      vertex   -5.551115e-16 9.085000e+01 1.160000e+02
    endloop
  endfacet
  facet normal 0.000000e+00 0.000000e+00 -1.000000e+00
    outer loop
      vertex   -5.551115e-16 9.085000e+01 1.160000e+02
      vertex   2.263878e+00 8.642500e+01 1.160000e+02
      vertex   2.178963e+00 8.622000e+01 1.160000e+02
    endloop
  endfacet
  facet normal 0.000000e+00 0.000000e+00 -1.000000e+00
    outer loop
      vertex   -5.551115e-16 9.085000e+01 1.160000e+02
      vertex   2.178963e+00 8.622000e+01 1.160000e+02
      vertex   2.150000e+00 8.600000e+01 1.160000e+02
    endloop
  endfacet
  facet normal -0.000000e+00 0.000000e+00 -1.000000e+00
    outer loop
      vertex   2.150000e+00 8.600000e+01 1.160000e+02
      vertex   2.150000e+00 6.575000e+01 1.160000e+02
      vertex   -5.551115e-16 9.085000e+01 1.160000e+02
    endloop
  endfacet
  facet normal 0.000000e+00 0.000000e+00 -1.000000e+00
    outer loop
      vertex   -5.551115e-16 9.085000e+01 1.160000e+02
      vertex   2.150000e+00 6.575000e+01 1.160000e+02
      vertex   0.000000e+00 2.000000e+00 1.160000e+02
    endloop
  endfacet
  facet normal 0.000000e+00 0.000000e+00 -1.000000e+00
    outer loop
      vertex   0.000000e+00 2.000000e+00 1.160000e+02
      vertex   2.150000e+00 6.575000e+01 1.160000e+02
      vertex   2.150000e+00 2.325000e+01 1.160000e+02
    endloop
  endfacet
  facet normal 0.000000e+00 0.000000e+00 -1.000000e+00
    outer loop
      vertex   0.000000e+00 2.000000e+00 1.160000e+02
      vertex   2.150000e+00 2.325000e+01 1.160000e+02
      vertex   2.150000e+00 3.000000e+00 1.160000e+02
    endloop
  endfacet
  facet normal 0.000000e+00 -0.000000e+00 -1.000000e+00
    outer loop
      vertex   2.150000e+00 3.000000e+00 1.160000e+02
      vertex   2.178963e+00 2.780004e+00 1.160000e+02
      vertex   0.000000e+00 2.000000e+00 1.160000e+02
    endloop
  endfacet
  facet normal 0.000000e+00 0.000000e+00 -1.000000e+00
    outer loop
      vertex   0.000000e+00 2.000000e+00 1.160000e+02
      vertex   2.178963e+00 2.780004e+00 1.160000e+02
      vertex   2.263878e+00 2.575000e+00 1.160000e+02
    endloop
  endfacet
  facet normal 0.000000e+00 0.000000e+00 -1.000000e+00
    outer loop
      vertex   0.000000e+00 2.000000e+00 1.160000e+02
      vertex   2.263878e+00 2.575000e+00 1.160000e+02
      vertex   2.398959e+00 2.398959e+00 1.160000e+02
    endloop
  endfacet
  facet normal 0.000000e+00 -0.000000e+00 -1.000000e+00
    outer loop
      vertex   2.398959e+00 2.398959e+00 1.160000e+02
      vertex   2.575000e+00 2.263878e+00 1.160000e+02
      vertex   0.000000e+00 2.000000e+00 1.160000e+02
    endloop
  endfacet
  facet normal 0.000000e+00 0.000000e+00 -1.000000e+00
    outer loop
      vertex   0.000000e+00 2.000000e+00 1.160000e+02
      vertex   2.575000e+00 2.263878e+00 1.160000e+02
      vertex   6.814835e-02 1.482362e+00 1.160000e+02
    endloop
  endfacet
  facet normal 0.000000e+00 0.000000e+00 -1.000000e+00
    outer loop
      vertex   6.814835e-02 1.482362e+00 1.160000e+02
      vertex   2.575000e+00 2.263878e+00 1.160000e+02
      vertex   2.780004e+00 2.178963e+00 1.160000e+02
    endloop
  endfacet
  facet normal 0.000000e+00 0.000000e+00 -1.000000e+00
    outer loop
      vertex   6.814835e-02 1.482362e+00 1.160000e+02
      vertex   2.780004e+00 2.178963e+00 1.160000e+02
      vertex   2.679492e-01 1.000000e+00 1.160000e+02
    endloop
  endfacet
  facet normal 0.000000e+00 0.000000e+00 -1.000000e+00
    outer loop
      vertex   2.679492e-01 1.000000e+00 1.160000e+02
      vertex   2.780004e+00 2.178963e+00 1.160000e+02
      vertex   5.857864e-01 5.857864e-01 1.160000e+02
    endloop
  endfacet
  facet normal 0.000000e+00 0.000000e+00 -1.000000e+00
    outer loop
      vertex   5.857864e-01 5.857864e-01 1.160000e+02
      vertex   2.780004e+00 2.178963e+00 1.160000e+02
      vertex   3.000000e+00 2.150000e+00 1.160000e+02
    endloop
  endfacet
  facet normal 0.000000e+00 0.000000e+00 -1.000000e+00
    outer loop
      vertex   5.857864e-01 5.857864e-01 1.160000e+02
      vertex   3.000000e+00 2.150000e+00 1.160000e+02
      vertex   1.000000e+00 2.679492e-01 1.160000e+02
    endloop
  endfacet
  facet normal 0.000000e+00 0.000000e+00 -1.000000e+00
    outer loop
      vertex   1.000000e+00 2.679492e-01 1.160000e+02
      vertex   3.000000e+00 2.150000e+00 1.160000e+02
      vertex   2.000000e+00 1.665335e-15 1.160000e+02
    endloop
  endfacet
  facet normal 0.000000e+00 0.000000e+00 -1.000000e+00
    outer loop
      vertex   1.000000e+00 2.679492e-01 1.160000e+02
      vertex   2.000000e+00 1.665335e-15 1.160000e+02
      vertex   1.482362e+00 6.814835e-02 1.160000e+02
    endloop
  endfacet
  facet normal 0.000000e+00 -0.000000e+00 -1.000000e+00
    outer loop
      vertex   3.000000e+00 2.150000e+00 1.160000e+02
      vertex   1.720000e+02 2.150000e+00 1.160000e+02
      vertex   2.000000e+00 1.665335e-15 1.160000e+02
    endloop
  endfacet
  facet normal 0.000000e+00 0.000000e+00 -1.000000e+00
    outer loop
      vertex   2.000000e+00 1.665335e-15 1.160000e+02
      vertex   1.720000e+02 2.150000e+00 1.160000e+02
      vertex   1.730000e+02 5.551115e-16 1.160000e+02
    endloop
  endfacet
  facet normal 0.000000e+00 0.000000e+00 -1.000000e+00
    outer loop
      vertex   1.730000e+02 5.551115e-16 1.160000e+02
      vertex   1.720000e+02 2.150000e+00 1.160000e+02
      vertex   1.740000e+02 2.679492e-01 1.160000e+02
    endloop
  endfacet
  facet normal 0.000000e+00 0.000000e+00 -1.000000e+00
    outer loop
      vertex   1.730000e+02 5.551115e-16 1.160000e+02
      vertex   1.740000e+02 2.679492e-01 1.160000e+02
      vertex   1.735176e+02 6.814835e-02 1.160000e+02
    endloop
  endfacet
  facet normal 0.000000e+00 0.000000e+00 -1.000000e+00
    outer loop
      vertex   1.740000e+02 2.679492e-01 1.160000e+02
      vertex   1.720000e+02 2.150000e+00 1.160000e+02
      vertex   1.744142e+02 5.857864e-01 1.160000e+02
    endloop
  endfacet
  facet normal 0.000000e+00 0.000000e+00 -1.000000e+00
    outer loop
      vertex   1.744142e+02 5.857864e-01 1.160000e+02
      vertex   1.720000e+02 2.150000e+00 1.160000e+02
      vertex   1.722200e+02 2.178963e+00 1.160000e+02
    endloop
  endfacet
  facet normal 0.000000e+00 0.000000e+00 -1.000000e+00
    outer loop
      vertex   1.744142e+02 5.857864e-01 1.160000e+02
      vertex   1.722200e+02 2.178963e+00 1.160000e+02
      vertex   1.747321e+02 1.000000e+00 1.160000e+02
    endloop
  endfacet
  facet normal 0.000000e+00 0.000000e+00 -1.000000e+00
    outer loop
      vertex   1.747321e+02 1.000000e+00 1.160000e+02
      vertex   1.722200e+02 2.178963e+00 1.160000e+02
      vertex   1.749319e+02 1.482362e+00 1.160000e+02
    endloop
  endfacet
  facet normal 0.000000e+00 0.000000e+00 -1.000000e+00
    outer loop
      vertex   1.749319e+02 1.482362e+00 1.160000e+02
      vertex   1.722200e+02 2.178963e+00 1.160000e+02
      vertex   1.724250e+02 2.263878e+00 1.160000e+02
    endloop
  endfacet
  facet normal 0.000000e+00 0.000000e+00 -1.000000e+00
    outer loop
      vertex   1.749319e+02 1.482362e+00 1.160000e+02
      vertex   1.724250e+02 2.263878e+00 1.160000e+02
      vertex   1.750000e+02 2.000000e+00 1.160000e+02
    endloop
  endfacet
  facet normal 0.000000e+00 0.000000e+00 -1.000000e+00
    outer loop
      vertex   1.750000e+02 2.000000e+00 1.160000e+02
      vertex   1.724250e+02 2.263878e+00 1.160000e+02
      vertex   1.726010e+02 2.398959e+00 1.160000e+02
    endloop
  endfacet
  facet normal 0.000000e+00 0.000000e+00 -1.000000e+00
    outer loop
      vertex   1.750000e+02 2.000000e+00 1.160000e+02
      vertex   1.726010e+02 2.398959e+00 1.160000e+02
      vertex   1.727361e+02 2.575000e+00 1.160000e+02
    endloop
  endfacet
  facet normal 0.000000e+00 0.000000e+00 -1.000000e+00
    outer loop
      vertex   1.727361e+02 2.575000e+00 1.160000e+02
      vertex   1.728210e+02 2.780004e+00 1.160000e+02
      vertex   1.750000e+02 2.000000e+00 1.160000e+02
    endloop
  endfacet
  facet normal 0.000000e+00 0.000000e+00 -1.000000e+00
    outer loop
      vertex   1.750000e+02 2.000000e+00 1.160000e+02
      vertex   1.728210e+02 2.780004e+00 1.160000e+02
      vertex   1.728500e+02 3.000000e+00 1.160000e+02
    endloop
  endfacet
  facet normal 0.000000e+00 0.000000e+00 -1.000000e+00
    outer loop
      vertex   1.750000e+02 2.000000e+00 1.160000e+02
      vertex   1.728500e+02 3.000000e+00 1.160000e+02
      vertex   1.728500e+02 2.325000e+01 1.160000e+02
    endloop
  endfacet
  facet normal 0.000000e+00 0.000000e+00 -1.000000e+00
    outer loop
      vertex   1.728500e+02 2.325000e+01 1.160000e+02
      vertex   1.728500e+02 6.575000e+01 1.160000e+02
      vertex   1.750000e+02 2.000000e+00 1.160000e+02
    endloop
  endfacet
  facet normal 0.000000e+00 0.000000e+00 -1.000000e+00
    outer loop
      vertex   1.750000e+02 2.000000e+00 1.160000e+02
      vertex   1.728500e+02 6.575000e+01 1.160000e+02
      vertex   1.750000e+02 9.085000e+01 1.160000e+02
    endloop
  endfacet
  facet normal -0.000000e+00 -0.000000e+00 -1.000000e+00
    outer loop
      vertex   5.150000e+00 9.285000e+01 1.160000e+02
      vertex   5.150000e+00 9.085000e+01 1.160000e+02
      vertex   2.000000e+00 9.285000e+01 1.160000e+02
    endloop
  endfacet
  facet normal 0.000000e+00 -0.000000e+00 -1.000000e+00
    outer loop
      vertex   2.000000e+00 9.285000e+01 1.160000e+02
      vertex   5.150000e+00 9.085000e+01 1.160000e+02
      vertex   5.857864e-01 9.226421e+01 1.160000e+02
    endloop
  endfacet
  facet normal 0.000000e+00 0.000000e+00 -1.000000e+00
    outer loop
      vertex   2.000000e+00 9.285000e+01 1.160000e+02
      vertex   5.857864e-01 9.226421e+01 1.160000e+02
      vertex   1.000000e+00 9.258205e+01 1.160000e+02
    endloop
  endfacet
  facet normal 0.000000e+00 0.000000e+00 -1.000000e+00
    outer loop
      vertex   1.698500e+02 9.085000e+01 1.160000e+02
      vertex   1.698500e+02 9.285000e+01 1.160000e+02
      vertex   1.730000e+02 9.285000e+01 1.160000e+02
    endloop
  endfacet
  facet normal 0.000000e+00 0.000000e+00 -1.000000e+00
    outer loop
      vertex   6.814835e-02 9.136764e+01 1.160000e+02
      vertex   2.679492e-01 9.185000e+01 1.160000e+02
      vertex   5.150000e+00 9.085000e+01 1.160000e+02
    endloop
  endfacet
  facet normal 0.000000e+00 0.000000e+00 -1.000000e+00
    outer loop
      vertex   5.150000e+00 9.085000e+01 1.160000e+02
      vertex   2.679492e-01 9.185000e+01 1.160000e+02
      vertex   5.857864e-01 9.226421e+01 1.160000e+02
    endloop
  endfacet
  facet normal 0.000000e+00 0.000000e+00 -1.000000e+00
    outer loop
      vertex   1.000000e+00 9.258205e+01 1.160000e+02
      vertex   1.482362e+00 9.278185e+01 1.160000e+02
      vertex   2.000000e+00 9.285000e+01 1.160000e+02
    endloop
  endfacet
  facet normal -1.305262e-01 -9.914449e-01 0.000000e+00
    outer loop
      vertex   2.000000e+00 1.665335e-15 1.160000e+02
      vertex   2.000000e+00 1.665335e-15 1.170000e+02
      vertex   1.482362e+00 6.814835e-02 1.160000e+02
    endloop
  endfacet
  facet normal -1.305262e-01 -9.914449e-01 0.000000e+00
    outer loop
      vertex   1.482362e+00 6.814835e-02 1.160000e+02
      vertex   2.000000e+00 1.665335e-15 1.170000e+02
      vertex   1.482362e+00 6.814835e-02 1.170000e+02
    endloop
  endfacet
  facet normal -3.826834e-01 -9.238795e-01 0.000000e+00
    outer loop
      vertex   1.482362e+00 6.814835e-02 1.160000e+02
      vertex   1.482362e+00 6.814835e-02 1.170000e+02
      vertex   1.000000e+00 2.679492e-01 1.160000e+02
    endloop
  endfacet
  facet normal -3.826834e-01 -9.238795e-01 0.000000e+00
    outer loop
      vertex   1.000000e+00 2.679492e-01 1.160000e+02
      vertex   1.482362e+00 6.814835e-02 1.170000e+02
      vertex   1.000000e+00 2.679492e-01 1.170000e+02
    endloop
  endfacet
  facet normal -6.087614e-01 -7.933533e-01 0.000000e+00
    outer loop
      vertex   1.000000e+00 2.679492e-01 1.160000e+02
      vertex   1.000000e+00 2.679492e-01 1.170000e+02
      vertex   5.857864e-01 5.857864e-01 1.160000e+02
    endloop
  endfacet
  facet normal -6.087614e-01 -7.933533e-01 0.000000e+00
    outer loop
      vertex   5.857864e-01 5.857864e-01 1.160000e+02
      vertex   1.000000e+00 2.679492e-01 1.170000e+02
      vertex   5.857864e-01 5.857864e-01 1.170000e+02
    endloop
  endfacet
  facet normal -7.933533e-01 -6.087614e-01 0.000000e+00
    outer loop
      vertex   5.857864e-01 5.857864e-01 1.160000e+02
      vertex   5.857864e-01 5.857864e-01 1.170000e+02
      vertex   2.679492e-01 1.000000e+00 1.160000e+02
    endloop
  endfacet
  facet normal -7.933533e-01 -6.087614e-01 0.000000e+00
    outer loop
      vertex   2.679492e-01 1.000000e+00 1.160000e+02
      vertex   5.857864e-01 5.857864e-01 1.170000e+02
      vertex   2.679492e-01 1.000000e+00 1.170000e+02
    endloop
  endfacet
  facet normal -9.238795e-01 -3.826834e-01 0.000000e+00
    outer loop
      vertex   2.679492e-01 1.000000e+00 1.160000e+02
      vertex   2.679492e-01 1.000000e+00 1.170000e+02
      vertex   6.814835e-02 1.482362e+00 1.160000e+02
    endloop
  endfacet
  facet normal -9.238795e-01 -3.826834e-01 0.000000e+00
    outer loop
      vertex   6.814835e-02 1.482362e+00 1.160000e+02
      vertex   2.679492e-01 1.000000e+00 1.170000e+02
      vertex   6.814835e-02 1.482362e+00 1.170000e+02
    endloop
  endfacet
  facet normal -9.914449e-01 -1.305262e-01 0.000000e+00
    outer loop
      vertex   6.814835e-02 1.482362e+00 1.160000e+02
      vertex   6.814835e-02 1.482362e+00 1.170000e+02
      vertex   0.000000e+00 2.000000e+00 1.160000e+02
    endloop
  endfacet
  facet normal -9.914449e-01 -1.305262e-01 0.000000e+00
    outer loop
      vertex   0.000000e+00 2.000000e+00 1.160000e+02
      vertex   6.814835e-02 1.482362e+00 1.170000e+02
      vertex   0.000000e+00 2.000000e+00 1.170000e+02
    endloop
  endfacet
  facet normal -1.000000e+00 -6.247738e-18 -0.000000e+00
    outer loop
      vertex   0.000000e+00 2.000000e+00 1.170000e+02
      vertex   -5.551115e-16 9.085000e+01 1.170000e+02
      vertex   0.000000e+00 2.000000e+00 1.160000e+02
    endloop
  endfacet
  facet normal -1.000000e+00 -6.247738e-18 0.000000e+00
    outer loop
      vertex   0.000000e+00 2.000000e+00 1.160000e+02
      vertex   -5.551115e-16 9.085000e+01 1.170000e+02
      vertex   -5.551115e-16 9.085000e+01 1.160000e+02
    endloop
  endfacet
  facet normal -9.914449e-01 1.305262e-01 0.000000e+00
    outer loop
      vertex   -5.551115e-16 9.085000e+01 1.160000e+02
      vertex   -5.551115e-16 9.085000e+01 1.170000e+02
      vertex   6.814835e-02 9.136764e+01 1.160000e+02
    endloop
  endfacet
  facet normal -9.914449e-01 1.305262e-01 0.000000e+00
    outer loop
      vertex   6.814835e-02 9.136764e+01 1.160000e+02
      vertex   -5.551115e-16 9.085000e+01 1.170000e+02
      vertex   6.814835e-02 9.136764e+01 1.170000e+02
    endloop
  endfacet
  facet normal -9.238795e-01 3.826834e-01 0.000000e+00
    outer loop
      vertex   6.814835e-02 9.136764e+01 1.160000e+02
      vertex   6.814835e-02 9.136764e+01 1.170000e+02
      vertex   2.679492e-01 9.185000e+01 1.160000e+02
    endloop
  endfacet
  facet normal -9.238795e-01 3.826834e-01 0.000000e+00
    outer loop
      vertex   2.679492e-01 9.185000e+01 1.160000e+02
      vertex   6.814835e-02 9.136764e+01 1.170000e+02
      vertex   2.679492e-01 9.185000e+01 1.170000e+02
    endloop
  endfacet
  facet normal -7.933533e-01 6.087614e-01 0.000000e+00
    outer loop
      vertex   2.679492e-01 9.185000e+01 1.160000e+02
      vertex   2.679492e-01 9.185000e+01 1.170000e+02
      vertex   5.857864e-01 9.226421e+01 1.160000e+02
    endloop
  endfacet
  facet normal -7.933533e-01 6.087614e-01 0.000000e+00
    outer loop
      vertex   5.857864e-01 9.226421e+01 1.160000e+02
      vertex   2.679492e-01 9.185000e+01 1.170000e+02
      vertex   5.857864e-01 9.226421e+01 1.170000e+02
    endloop
  endfacet
  facet normal -6.087614e-01 7.933533e-01 0.000000e+00
    outer loop
      vertex   5.857864e-01 9.226421e+01 1.160000e+02
      vertex   5.857864e-01 9.226421e+01 1.170000e+02
      vertex   1.000000e+00 9.258205e+01 1.160000e+02
    endloop
  endfacet
  facet normal -6.087614e-01 7.933533e-01 0.000000e+00
    outer loop
      vertex   1.000000e+00 9.258205e+01 1.160000e+02
      vertex   5.857864e-01 9.226421e+01 1.170000e+02
      vertex   1.000000e+00 9.258205e+01 1.170000e+02
    endloop
  endfacet
  facet normal -3.826834e-01 9.238795e-01 0.000000e+00
    outer loop
      vertex   1.000000e+00 9.258205e+01 1.160000e+02
      vertex   1.000000e+00 9.258205e+01 1.170000e+02
      vertex   1.482362e+00 9.278185e+01 1.160000e+02
    endloop
  endfacet
  facet normal -3.826834e-01 9.238795e-01 0.000000e+00
    outer loop
      vertex   1.482362e+00 9.278185e+01 1.160000e+02
      vertex   1.000000e+00 9.258205e+01 1.170000e+02
      vertex   1.482362e+00 9.278185e+01 1.170000e+02
    endloop
  endfacet
  facet normal -1.305262e-01 9.914449e-01 0.000000e+00
    outer loop
      vertex   1.482362e+00 9.278185e+01 1.160000e+02
      vertex   1.482362e+00 9.278185e+01 1.170000e+02
      vertex   2.000000e+00 9.285000e+01 1.160000e+02
    endloop
  endfacet
  facet normal -1.305262e-01 9.914449e-01 0.000000e+00
    outer loop
      vertex   2.000000e+00 9.285000e+01 1.160000e+02
      vertex   1.482362e+00 9.278185e+01 1.170000e+02
      vertex   2.000000e+00 9.285000e+01 1.170000e+02
    endloop
  endfacet
  facet normal 0.000000e+00 1.000000e+00 0.000000e+00
    outer loop
      vertex   2.000000e+00 9.285000e+01 1.160000e+02
      vertex   2.000000e+00 9.285000e+01 1.170000e+02
      vertex   5.150000e+00 9.285000e+01 1.160000e+02
    endloop
  endfacet
  facet normal 0.000000e+00 1.000000e+00 -0.000000e+00
    outer loop
      vertex   5.150000e+00 9.285000e+01 1.160000e+02
      vertex   2.000000e+00 9.285000e+01 1.170000e+02
      vertex   1.730000e+02 9.285000e+01 1.170000e+02
    endloop
  endfacet
  facet normal 0.000000e+00 1.000000e+00 0.000000e+00
    outer loop
      vertex   5.150000e+00 9.285000e+01 1.160000e+02
      vertex   1.730000e+02 9.285000e+01 1.170000e+02
      vertex   1.698500e+02 9.285000e+01 1.160000e+02
    endloop
  endfacet
  facet normal 0.000000e+00 1.000000e+00 0.000000e+00
    outer loop
      vertex   1.698500e+02 9.285000e+01 1.160000e+02
      vertex   1.730000e+02 9.285000e+01 1.170000e+02
      vertex   1.730000e+02 9.285000e+01 1.160000e+02
    endloop
  endfacet
  facet normal 0.000000e+00 1.000000e+00 -0.000000e+00
    outer loop
      vertex   1.698500e+02 9.285000e+01 1.122000e+02
      vertex   5.150000e+00 9.285000e+01 1.122000e+02
      vertex   1.698500e+02 9.285000e+01 1.160000e+02
    endloop
  endfacet
  facet normal 0.000000e+00 1.000000e+00 0.000000e+00
    outer loop
      vertex   1.698500e+02 9.285000e+01 1.160000e+02
      vertex   5.150000e+00 9.285000e+01 1.122000e+02
      vertex   5.150000e+00 9.285000e+01 1.160000e+02
    endloop
  endfacet
endsolid
