G04 #@! TF.GenerationSoftware,KiCad,Pcbnew,8.0.8*
G04 #@! TF.CreationDate,2025-01-30T19:33:48+01:00*
G04 #@! TF.ProjectId,HAMS_node,48414d53-5f6e-46f6-9465-2e6b69636164,rev?*
G04 #@! TF.SameCoordinates,Original*
G04 #@! TF.FileFunction,Paste,Top*
G04 #@! TF.FilePolarity,Positive*
%FSLAX46Y46*%
G04 Gerber Fmt 4.6, Leading zero omitted, Abs format (unit mm)*
G04 Created by KiCad (PCBNEW 8.0.8) date 2025-01-30 19:33:48*
%MOMM*%
%LPD*%
G01*
G04 APERTURE LIST*
G04 Aperture macros list*
%AMRoundRect*
0 Rectangle with rounded corners*
0 $1 Rounding radius*
0 $2 $3 $4 $5 $6 $7 $8 $9 X,Y pos of 4 corners*
0 Add a 4 corners polygon primitive as box body*
4,1,4,$2,$3,$4,$5,$6,$7,$8,$9,$2,$3,0*
0 Add four circle primitives for the rounded corners*
1,1,$1+$1,$2,$3*
1,1,$1+$1,$4,$5*
1,1,$1+$1,$6,$7*
1,1,$1+$1,$8,$9*
0 Add four rect primitives between the rounded corners*
20,1,$1+$1,$2,$3,$4,$5,0*
20,1,$1+$1,$4,$5,$6,$7,0*
20,1,$1+$1,$6,$7,$8,$9,0*
20,1,$1+$1,$8,$9,$2,$3,0*%
G04 Aperture macros list end*
%ADD10RoundRect,0.350000X0.450000X0.350000X-0.450000X0.350000X-0.450000X-0.350000X0.450000X-0.350000X0*%
%ADD11RoundRect,0.237500X0.250000X0.237500X-0.250000X0.237500X-0.250000X-0.237500X0.250000X-0.237500X0*%
%ADD12RoundRect,0.237500X0.300000X0.237500X-0.300000X0.237500X-0.300000X-0.237500X0.300000X-0.237500X0*%
%ADD13RoundRect,0.250000X0.350000X-0.275000X0.350000X0.275000X-0.350000X0.275000X-0.350000X-0.275000X0*%
%ADD14RoundRect,0.237500X-0.250000X-0.237500X0.250000X-0.237500X0.250000X0.237500X-0.250000X0.237500X0*%
%ADD15RoundRect,0.300000X0.300000X-0.450000X0.300000X0.450000X-0.300000X0.450000X-0.300000X-0.450000X0*%
%ADD16RoundRect,0.125000X-0.625000X-0.125000X0.625000X-0.125000X0.625000X0.125000X-0.625000X0.125000X0*%
%ADD17RoundRect,0.125000X-0.125000X-0.625000X0.125000X-0.625000X0.125000X0.625000X-0.125000X0.625000X0*%
%ADD18RoundRect,0.237500X-0.237500X0.300000X-0.237500X-0.300000X0.237500X-0.300000X0.237500X0.300000X0*%
%ADD19RoundRect,0.237500X-0.300000X-0.237500X0.300000X-0.237500X0.300000X0.237500X-0.300000X0.237500X0*%
%ADD20RoundRect,0.237500X0.237500X-0.250000X0.237500X0.250000X-0.237500X0.250000X-0.237500X-0.250000X0*%
%ADD21R,0.600000X1.200000*%
%ADD22RoundRect,0.237500X0.237500X-0.300000X0.237500X0.300000X-0.237500X0.300000X-0.237500X-0.300000X0*%
%ADD23RoundRect,0.200000X-0.200000X0.250000X-0.200000X-0.250000X0.200000X-0.250000X0.200000X0.250000X0*%
%ADD24RoundRect,0.237500X-0.237500X0.250000X-0.237500X-0.250000X0.237500X-0.250000X0.237500X0.250000X0*%
%ADD25RoundRect,0.250000X0.750000X-0.250000X0.750000X0.250000X-0.750000X0.250000X-0.750000X-0.250000X0*%
%ADD26R,2.400000X0.740000*%
G04 APERTURE END LIST*
D10*
X183400000Y-101650000D03*
X190600000Y-101650000D03*
X183400000Y-104650000D03*
X190600000Y-104650000D03*
D11*
X187962500Y-98300000D03*
X186137500Y-98300000D03*
D12*
X199525000Y-99625000D03*
X197800000Y-99625000D03*
D13*
X187700000Y-89900000D03*
X187700000Y-88250000D03*
D14*
X170412500Y-89300000D03*
X172237500Y-89300000D03*
D15*
X175650000Y-97525000D03*
X178050000Y-97525000D03*
D12*
X170262500Y-101600000D03*
X168537500Y-101600000D03*
D16*
X190875000Y-87925000D03*
X190875000Y-88725000D03*
X190875000Y-89525000D03*
X190875000Y-90325000D03*
X190875000Y-91125000D03*
X190875000Y-91925000D03*
X190875000Y-92725000D03*
X190875000Y-93525000D03*
D17*
X192250000Y-94900000D03*
X193050000Y-94900000D03*
X193850000Y-94900000D03*
X194650000Y-94900000D03*
X195450000Y-94900000D03*
X196250000Y-94900000D03*
X197050000Y-94900000D03*
X197850000Y-94900000D03*
D16*
X199225000Y-93525000D03*
X199225000Y-92725000D03*
X199225000Y-91925000D03*
X199225000Y-91125000D03*
X199225000Y-90325000D03*
X199225000Y-89525000D03*
X199225000Y-88725000D03*
X199225000Y-87925000D03*
D17*
X197850000Y-86550000D03*
X197050000Y-86550000D03*
X196250000Y-86550000D03*
X195450000Y-86550000D03*
X194650000Y-86550000D03*
X193850000Y-86550000D03*
X193050000Y-86550000D03*
X192250000Y-86550000D03*
D18*
X187900000Y-93012500D03*
X187900000Y-94737500D03*
D19*
X203537500Y-63800000D03*
X205262500Y-63800000D03*
D12*
X199525000Y-97374000D03*
X197800000Y-97374000D03*
D19*
X190487500Y-83825000D03*
X192212500Y-83825000D03*
D12*
X188050000Y-86100000D03*
X186325000Y-86100000D03*
X185512500Y-89975000D03*
X183787500Y-89975000D03*
D20*
X193575000Y-99225000D03*
X193575000Y-97400000D03*
D21*
X195600000Y-102325000D03*
X195600000Y-104125000D03*
X194650000Y-104125000D03*
X194650000Y-102325000D03*
D20*
X203400000Y-87962500D03*
X203400000Y-86137500D03*
D10*
X180000000Y-104650000D03*
X172800000Y-104650000D03*
X180000000Y-101650000D03*
X172800000Y-101650000D03*
D20*
X180150000Y-94150000D03*
X180150000Y-92325000D03*
X195600000Y-99212500D03*
X195600000Y-97387500D03*
D18*
X188375000Y-72875000D03*
X188375000Y-74600000D03*
D22*
X206925000Y-86212500D03*
X206925000Y-84487500D03*
D23*
X176750000Y-94150000D03*
X175800000Y-92150000D03*
X177700000Y-92150000D03*
D12*
X193625000Y-78800000D03*
X191900000Y-78800000D03*
D24*
X203425000Y-83737500D03*
X203425000Y-81912500D03*
D25*
X185250000Y-74095000D03*
X185250000Y-72825000D03*
X185250000Y-71555000D03*
X185250000Y-70285000D03*
X185250000Y-69015000D03*
X185250000Y-67745000D03*
X185250000Y-66475000D03*
X185250000Y-65205000D03*
D24*
X184900000Y-92962500D03*
X184900000Y-94787500D03*
D12*
X185525000Y-88200000D03*
X183800000Y-88200000D03*
D14*
X192212500Y-81575000D03*
X194037500Y-81575000D03*
D26*
X170350000Y-79420000D03*
X174250000Y-79420000D03*
X170350000Y-80690000D03*
X174250000Y-80690000D03*
X170350000Y-81960000D03*
X174250000Y-81960000D03*
X170350000Y-83230000D03*
X174250000Y-83230000D03*
X170350000Y-84500000D03*
X174250000Y-84500000D03*
X170350000Y-85770000D03*
X174250000Y-85770000D03*
X170350000Y-87040000D03*
X174250000Y-87040000D03*
M02*
