%TF.GenerationSoftware,KiCad,Pcbnew,8.0.8*%
%TF.CreationDate,2025-01-30T19:33:52+01:00*%
%TF.ProjectId,HAMS_node,48414d53-5f6e-46f6-9465-2e6b69636164,rev?*%
%TF.SameCoordinates,Original*%
%TF.FileFunction,Drillmap*%
%TF.FilePolarity,Positive*%
%FSLAX45Y45*%
G04 Gerber Fmt 4.5, Leading zero omitted, Abs format (unit mm)*
G04 Created by KiCad (PCBNEW 8.0.8) date 2025-01-30 19:33:52*
%MOMM*%
%LPD*%
G01*
G04 APERTURE LIST*
%ADD10C,0.050000*%
%ADD11C,0.200000*%
%ADD12C,0.120000*%
%ADD13C,0.220000*%
G04 APERTURE END LIST*
D10*
X16660000Y-5760000D02*
X21410000Y-5760000D01*
X21410000Y-10760000D01*
X16660000Y-10760000D01*
X16660000Y-5760000D01*
D11*
D12*
X17147500Y-9695000D02*
X17267500Y-9815000D01*
X17267500Y-9695000D02*
X17147500Y-9815000D01*
D13*
X16990000Y-5980000D02*
G75*
G02*
X16770000Y-5980000I-110000J0D01*
G01*
X16770000Y-5980000D02*
G75*
G02*
X16990000Y-5980000I110000J0D01*
G01*
X16990000Y-10540000D02*
G75*
G02*
X16770000Y-10540000I-110000J0D01*
G01*
X16770000Y-10540000D02*
G75*
G02*
X16990000Y-10540000I110000J0D01*
G01*
X21300000Y-5980000D02*
G75*
G02*
X21080000Y-5980000I-110000J0D01*
G01*
X21080000Y-5980000D02*
G75*
G02*
X21300000Y-5980000I110000J0D01*
G01*
X21300000Y-10540000D02*
G75*
G02*
X21080000Y-10540000I-110000J0D01*
G01*
X21080000Y-10540000D02*
G75*
G02*
X21300000Y-10540000I110000J0D01*
G01*
D11*
X16918277Y-11073984D02*
X16918277Y-10873984D01*
X16918277Y-10873984D02*
X16965896Y-10873984D01*
X16965896Y-10873984D02*
X16994467Y-10883508D01*
X16994467Y-10883508D02*
X17013515Y-10902555D01*
X17013515Y-10902555D02*
X17023039Y-10921603D01*
X17023039Y-10921603D02*
X17032563Y-10959698D01*
X17032563Y-10959698D02*
X17032563Y-10988270D01*
X17032563Y-10988270D02*
X17023039Y-11026365D01*
X17023039Y-11026365D02*
X17013515Y-11045412D01*
X17013515Y-11045412D02*
X16994467Y-11064460D01*
X16994467Y-11064460D02*
X16965896Y-11073984D01*
X16965896Y-11073984D02*
X16918277Y-11073984D01*
X17118277Y-11073984D02*
X17118277Y-10940650D01*
X17118277Y-10978746D02*
X17127801Y-10959698D01*
X17127801Y-10959698D02*
X17137324Y-10950174D01*
X17137324Y-10950174D02*
X17156372Y-10940650D01*
X17156372Y-10940650D02*
X17175420Y-10940650D01*
X17242086Y-11073984D02*
X17242086Y-10940650D01*
X17242086Y-10873984D02*
X17232563Y-10883508D01*
X17232563Y-10883508D02*
X17242086Y-10893031D01*
X17242086Y-10893031D02*
X17251610Y-10883508D01*
X17251610Y-10883508D02*
X17242086Y-10873984D01*
X17242086Y-10873984D02*
X17242086Y-10893031D01*
X17365896Y-11073984D02*
X17346848Y-11064460D01*
X17346848Y-11064460D02*
X17337324Y-11045412D01*
X17337324Y-11045412D02*
X17337324Y-10873984D01*
X17470658Y-11073984D02*
X17451610Y-11064460D01*
X17451610Y-11064460D02*
X17442086Y-11045412D01*
X17442086Y-11045412D02*
X17442086Y-10873984D01*
X17699229Y-11073984D02*
X17699229Y-10873984D01*
X17699229Y-10873984D02*
X17765896Y-11016841D01*
X17765896Y-11016841D02*
X17832563Y-10873984D01*
X17832563Y-10873984D02*
X17832563Y-11073984D01*
X18013515Y-11073984D02*
X18013515Y-10969222D01*
X18013515Y-10969222D02*
X18003991Y-10950174D01*
X18003991Y-10950174D02*
X17984944Y-10940650D01*
X17984944Y-10940650D02*
X17946848Y-10940650D01*
X17946848Y-10940650D02*
X17927801Y-10950174D01*
X18013515Y-11064460D02*
X17994467Y-11073984D01*
X17994467Y-11073984D02*
X17946848Y-11073984D01*
X17946848Y-11073984D02*
X17927801Y-11064460D01*
X17927801Y-11064460D02*
X17918277Y-11045412D01*
X17918277Y-11045412D02*
X17918277Y-11026365D01*
X17918277Y-11026365D02*
X17927801Y-11007317D01*
X17927801Y-11007317D02*
X17946848Y-10997793D01*
X17946848Y-10997793D02*
X17994467Y-10997793D01*
X17994467Y-10997793D02*
X18013515Y-10988270D01*
X18108753Y-10940650D02*
X18108753Y-11140650D01*
X18108753Y-10950174D02*
X18127801Y-10940650D01*
X18127801Y-10940650D02*
X18165896Y-10940650D01*
X18165896Y-10940650D02*
X18184944Y-10950174D01*
X18184944Y-10950174D02*
X18194467Y-10959698D01*
X18194467Y-10959698D02*
X18203991Y-10978746D01*
X18203991Y-10978746D02*
X18203991Y-11035889D01*
X18203991Y-11035889D02*
X18194467Y-11054936D01*
X18194467Y-11054936D02*
X18184944Y-11064460D01*
X18184944Y-11064460D02*
X18165896Y-11073984D01*
X18165896Y-11073984D02*
X18127801Y-11073984D01*
X18127801Y-11073984D02*
X18108753Y-11064460D01*
X18289705Y-11054936D02*
X18299229Y-11064460D01*
X18299229Y-11064460D02*
X18289705Y-11073984D01*
X18289705Y-11073984D02*
X18280182Y-11064460D01*
X18280182Y-11064460D02*
X18289705Y-11054936D01*
X18289705Y-11054936D02*
X18289705Y-11073984D01*
X18289705Y-10950174D02*
X18299229Y-10959698D01*
X18299229Y-10959698D02*
X18289705Y-10969222D01*
X18289705Y-10969222D02*
X18280182Y-10959698D01*
X18280182Y-10959698D02*
X18289705Y-10950174D01*
X18289705Y-10950174D02*
X18289705Y-10969222D01*
D12*
X16537500Y-11342500D02*
X16657500Y-11462500D01*
X16657500Y-11342500D02*
X16537500Y-11462500D01*
D11*
X17023039Y-11493984D02*
X16908753Y-11493984D01*
X16965896Y-11493984D02*
X16965896Y-11293984D01*
X16965896Y-11293984D02*
X16946848Y-11322555D01*
X16946848Y-11322555D02*
X16927801Y-11341603D01*
X16927801Y-11341603D02*
X16908753Y-11351127D01*
X17108753Y-11474936D02*
X17118277Y-11484460D01*
X17118277Y-11484460D02*
X17108753Y-11493984D01*
X17108753Y-11493984D02*
X17099229Y-11484460D01*
X17099229Y-11484460D02*
X17108753Y-11474936D01*
X17108753Y-11474936D02*
X17108753Y-11493984D01*
X17194467Y-11313031D02*
X17203991Y-11303508D01*
X17203991Y-11303508D02*
X17223039Y-11293984D01*
X17223039Y-11293984D02*
X17270658Y-11293984D01*
X17270658Y-11293984D02*
X17289705Y-11303508D01*
X17289705Y-11303508D02*
X17299229Y-11313031D01*
X17299229Y-11313031D02*
X17308753Y-11332079D01*
X17308753Y-11332079D02*
X17308753Y-11351127D01*
X17308753Y-11351127D02*
X17299229Y-11379698D01*
X17299229Y-11379698D02*
X17184944Y-11493984D01*
X17184944Y-11493984D02*
X17308753Y-11493984D01*
X17432563Y-11293984D02*
X17451610Y-11293984D01*
X17451610Y-11293984D02*
X17470658Y-11303508D01*
X17470658Y-11303508D02*
X17480182Y-11313031D01*
X17480182Y-11313031D02*
X17489705Y-11332079D01*
X17489705Y-11332079D02*
X17499229Y-11370174D01*
X17499229Y-11370174D02*
X17499229Y-11417793D01*
X17499229Y-11417793D02*
X17489705Y-11455888D01*
X17489705Y-11455888D02*
X17480182Y-11474936D01*
X17480182Y-11474936D02*
X17470658Y-11484460D01*
X17470658Y-11484460D02*
X17451610Y-11493984D01*
X17451610Y-11493984D02*
X17432563Y-11493984D01*
X17432563Y-11493984D02*
X17413515Y-11484460D01*
X17413515Y-11484460D02*
X17403991Y-11474936D01*
X17403991Y-11474936D02*
X17394467Y-11455888D01*
X17394467Y-11455888D02*
X17384944Y-11417793D01*
X17384944Y-11417793D02*
X17384944Y-11370174D01*
X17384944Y-11370174D02*
X17394467Y-11332079D01*
X17394467Y-11332079D02*
X17403991Y-11313031D01*
X17403991Y-11313031D02*
X17413515Y-11303508D01*
X17413515Y-11303508D02*
X17432563Y-11293984D01*
X17623039Y-11293984D02*
X17642086Y-11293984D01*
X17642086Y-11293984D02*
X17661134Y-11303508D01*
X17661134Y-11303508D02*
X17670658Y-11313031D01*
X17670658Y-11313031D02*
X17680182Y-11332079D01*
X17680182Y-11332079D02*
X17689705Y-11370174D01*
X17689705Y-11370174D02*
X17689705Y-11417793D01*
X17689705Y-11417793D02*
X17680182Y-11455888D01*
X17680182Y-11455888D02*
X17670658Y-11474936D01*
X17670658Y-11474936D02*
X17661134Y-11484460D01*
X17661134Y-11484460D02*
X17642086Y-11493984D01*
X17642086Y-11493984D02*
X17623039Y-11493984D01*
X17623039Y-11493984D02*
X17603991Y-11484460D01*
X17603991Y-11484460D02*
X17594467Y-11474936D01*
X17594467Y-11474936D02*
X17584944Y-11455888D01*
X17584944Y-11455888D02*
X17575420Y-11417793D01*
X17575420Y-11417793D02*
X17575420Y-11370174D01*
X17575420Y-11370174D02*
X17584944Y-11332079D01*
X17584944Y-11332079D02*
X17594467Y-11313031D01*
X17594467Y-11313031D02*
X17603991Y-11303508D01*
X17603991Y-11303508D02*
X17623039Y-11293984D01*
X17775420Y-11493984D02*
X17775420Y-11360650D01*
X17775420Y-11379698D02*
X17784944Y-11370174D01*
X17784944Y-11370174D02*
X17803991Y-11360650D01*
X17803991Y-11360650D02*
X17832563Y-11360650D01*
X17832563Y-11360650D02*
X17851610Y-11370174D01*
X17851610Y-11370174D02*
X17861134Y-11389222D01*
X17861134Y-11389222D02*
X17861134Y-11493984D01*
X17861134Y-11389222D02*
X17870658Y-11370174D01*
X17870658Y-11370174D02*
X17889705Y-11360650D01*
X17889705Y-11360650D02*
X17918277Y-11360650D01*
X17918277Y-11360650D02*
X17937325Y-11370174D01*
X17937325Y-11370174D02*
X17946848Y-11389222D01*
X17946848Y-11389222D02*
X17946848Y-11493984D01*
X18042086Y-11493984D02*
X18042086Y-11360650D01*
X18042086Y-11379698D02*
X18051610Y-11370174D01*
X18051610Y-11370174D02*
X18070658Y-11360650D01*
X18070658Y-11360650D02*
X18099229Y-11360650D01*
X18099229Y-11360650D02*
X18118277Y-11370174D01*
X18118277Y-11370174D02*
X18127801Y-11389222D01*
X18127801Y-11389222D02*
X18127801Y-11493984D01*
X18127801Y-11389222D02*
X18137325Y-11370174D01*
X18137325Y-11370174D02*
X18156372Y-11360650D01*
X18156372Y-11360650D02*
X18184944Y-11360650D01*
X18184944Y-11360650D02*
X18203991Y-11370174D01*
X18203991Y-11370174D02*
X18213515Y-11389222D01*
X18213515Y-11389222D02*
X18213515Y-11493984D01*
X18603991Y-11284460D02*
X18432563Y-11541603D01*
X18861134Y-11293984D02*
X18880182Y-11293984D01*
X18880182Y-11293984D02*
X18899229Y-11303508D01*
X18899229Y-11303508D02*
X18908753Y-11313031D01*
X18908753Y-11313031D02*
X18918277Y-11332079D01*
X18918277Y-11332079D02*
X18927801Y-11370174D01*
X18927801Y-11370174D02*
X18927801Y-11417793D01*
X18927801Y-11417793D02*
X18918277Y-11455888D01*
X18918277Y-11455888D02*
X18908753Y-11474936D01*
X18908753Y-11474936D02*
X18899229Y-11484460D01*
X18899229Y-11484460D02*
X18880182Y-11493984D01*
X18880182Y-11493984D02*
X18861134Y-11493984D01*
X18861134Y-11493984D02*
X18842087Y-11484460D01*
X18842087Y-11484460D02*
X18832563Y-11474936D01*
X18832563Y-11474936D02*
X18823039Y-11455888D01*
X18823039Y-11455888D02*
X18813515Y-11417793D01*
X18813515Y-11417793D02*
X18813515Y-11370174D01*
X18813515Y-11370174D02*
X18823039Y-11332079D01*
X18823039Y-11332079D02*
X18832563Y-11313031D01*
X18832563Y-11313031D02*
X18842087Y-11303508D01*
X18842087Y-11303508D02*
X18861134Y-11293984D01*
X19013515Y-11474936D02*
X19023039Y-11484460D01*
X19023039Y-11484460D02*
X19013515Y-11493984D01*
X19013515Y-11493984D02*
X19003991Y-11484460D01*
X19003991Y-11484460D02*
X19013515Y-11474936D01*
X19013515Y-11474936D02*
X19013515Y-11493984D01*
X19146848Y-11293984D02*
X19165896Y-11293984D01*
X19165896Y-11293984D02*
X19184944Y-11303508D01*
X19184944Y-11303508D02*
X19194468Y-11313031D01*
X19194468Y-11313031D02*
X19203991Y-11332079D01*
X19203991Y-11332079D02*
X19213515Y-11370174D01*
X19213515Y-11370174D02*
X19213515Y-11417793D01*
X19213515Y-11417793D02*
X19203991Y-11455888D01*
X19203991Y-11455888D02*
X19194468Y-11474936D01*
X19194468Y-11474936D02*
X19184944Y-11484460D01*
X19184944Y-11484460D02*
X19165896Y-11493984D01*
X19165896Y-11493984D02*
X19146848Y-11493984D01*
X19146848Y-11493984D02*
X19127801Y-11484460D01*
X19127801Y-11484460D02*
X19118277Y-11474936D01*
X19118277Y-11474936D02*
X19108753Y-11455888D01*
X19108753Y-11455888D02*
X19099229Y-11417793D01*
X19099229Y-11417793D02*
X19099229Y-11370174D01*
X19099229Y-11370174D02*
X19108753Y-11332079D01*
X19108753Y-11332079D02*
X19118277Y-11313031D01*
X19118277Y-11313031D02*
X19127801Y-11303508D01*
X19127801Y-11303508D02*
X19146848Y-11293984D01*
X19384944Y-11360650D02*
X19384944Y-11493984D01*
X19337325Y-11284460D02*
X19289706Y-11427317D01*
X19289706Y-11427317D02*
X19413515Y-11427317D01*
X19470658Y-11293984D02*
X19603991Y-11293984D01*
X19603991Y-11293984D02*
X19518277Y-11493984D01*
X19670658Y-11313031D02*
X19680182Y-11303508D01*
X19680182Y-11303508D02*
X19699229Y-11293984D01*
X19699229Y-11293984D02*
X19746849Y-11293984D01*
X19746849Y-11293984D02*
X19765896Y-11303508D01*
X19765896Y-11303508D02*
X19775420Y-11313031D01*
X19775420Y-11313031D02*
X19784944Y-11332079D01*
X19784944Y-11332079D02*
X19784944Y-11351127D01*
X19784944Y-11351127D02*
X19775420Y-11379698D01*
X19775420Y-11379698D02*
X19661134Y-11493984D01*
X19661134Y-11493984D02*
X19784944Y-11493984D01*
X19861134Y-11293984D02*
X19861134Y-11332079D01*
X19937325Y-11293984D02*
X19937325Y-11332079D01*
X20232563Y-11570174D02*
X20223039Y-11560650D01*
X20223039Y-11560650D02*
X20203991Y-11532079D01*
X20203991Y-11532079D02*
X20194468Y-11513031D01*
X20194468Y-11513031D02*
X20184944Y-11484460D01*
X20184944Y-11484460D02*
X20175420Y-11436841D01*
X20175420Y-11436841D02*
X20175420Y-11398746D01*
X20175420Y-11398746D02*
X20184944Y-11351127D01*
X20184944Y-11351127D02*
X20194468Y-11322555D01*
X20194468Y-11322555D02*
X20203991Y-11303508D01*
X20203991Y-11303508D02*
X20223039Y-11274936D01*
X20223039Y-11274936D02*
X20232563Y-11265412D01*
X20413515Y-11493984D02*
X20299230Y-11493984D01*
X20356372Y-11493984D02*
X20356372Y-11293984D01*
X20356372Y-11293984D02*
X20337325Y-11322555D01*
X20337325Y-11322555D02*
X20318277Y-11341603D01*
X20318277Y-11341603D02*
X20299230Y-11351127D01*
X20651611Y-11493984D02*
X20651611Y-11293984D01*
X20737325Y-11493984D02*
X20737325Y-11389222D01*
X20737325Y-11389222D02*
X20727801Y-11370174D01*
X20727801Y-11370174D02*
X20708753Y-11360650D01*
X20708753Y-11360650D02*
X20680182Y-11360650D01*
X20680182Y-11360650D02*
X20661134Y-11370174D01*
X20661134Y-11370174D02*
X20651611Y-11379698D01*
X20861134Y-11493984D02*
X20842087Y-11484460D01*
X20842087Y-11484460D02*
X20832563Y-11474936D01*
X20832563Y-11474936D02*
X20823039Y-11455888D01*
X20823039Y-11455888D02*
X20823039Y-11398746D01*
X20823039Y-11398746D02*
X20832563Y-11379698D01*
X20832563Y-11379698D02*
X20842087Y-11370174D01*
X20842087Y-11370174D02*
X20861134Y-11360650D01*
X20861134Y-11360650D02*
X20889706Y-11360650D01*
X20889706Y-11360650D02*
X20908753Y-11370174D01*
X20908753Y-11370174D02*
X20918277Y-11379698D01*
X20918277Y-11379698D02*
X20927801Y-11398746D01*
X20927801Y-11398746D02*
X20927801Y-11455888D01*
X20927801Y-11455888D02*
X20918277Y-11474936D01*
X20918277Y-11474936D02*
X20908753Y-11484460D01*
X20908753Y-11484460D02*
X20889706Y-11493984D01*
X20889706Y-11493984D02*
X20861134Y-11493984D01*
X21042087Y-11493984D02*
X21023039Y-11484460D01*
X21023039Y-11484460D02*
X21013515Y-11465412D01*
X21013515Y-11465412D02*
X21013515Y-11293984D01*
X21194468Y-11484460D02*
X21175420Y-11493984D01*
X21175420Y-11493984D02*
X21137325Y-11493984D01*
X21137325Y-11493984D02*
X21118277Y-11484460D01*
X21118277Y-11484460D02*
X21108753Y-11465412D01*
X21108753Y-11465412D02*
X21108753Y-11389222D01*
X21108753Y-11389222D02*
X21118277Y-11370174D01*
X21118277Y-11370174D02*
X21137325Y-11360650D01*
X21137325Y-11360650D02*
X21175420Y-11360650D01*
X21175420Y-11360650D02*
X21194468Y-11370174D01*
X21194468Y-11370174D02*
X21203992Y-11389222D01*
X21203992Y-11389222D02*
X21203992Y-11408269D01*
X21203992Y-11408269D02*
X21108753Y-11427317D01*
X21270658Y-11570174D02*
X21280182Y-11560650D01*
X21280182Y-11560650D02*
X21299230Y-11532079D01*
X21299230Y-11532079D02*
X21308753Y-11513031D01*
X21308753Y-11513031D02*
X21318277Y-11484460D01*
X21318277Y-11484460D02*
X21327801Y-11436841D01*
X21327801Y-11436841D02*
X21327801Y-11398746D01*
X21327801Y-11398746D02*
X21318277Y-11351127D01*
X21318277Y-11351127D02*
X21308753Y-11322555D01*
X21308753Y-11322555D02*
X21299230Y-11303508D01*
X21299230Y-11303508D02*
X21280182Y-11274936D01*
X21280182Y-11274936D02*
X21270658Y-11265412D01*
X21632563Y-11570174D02*
X21623039Y-11560650D01*
X21623039Y-11560650D02*
X21603992Y-11532079D01*
X21603992Y-11532079D02*
X21594468Y-11513031D01*
X21594468Y-11513031D02*
X21584944Y-11484460D01*
X21584944Y-11484460D02*
X21575420Y-11436841D01*
X21575420Y-11436841D02*
X21575420Y-11398746D01*
X21575420Y-11398746D02*
X21584944Y-11351127D01*
X21584944Y-11351127D02*
X21594468Y-11322555D01*
X21594468Y-11322555D02*
X21603992Y-11303508D01*
X21603992Y-11303508D02*
X21623039Y-11274936D01*
X21623039Y-11274936D02*
X21632563Y-11265412D01*
X21708753Y-11360650D02*
X21708753Y-11493984D01*
X21708753Y-11379698D02*
X21718277Y-11370174D01*
X21718277Y-11370174D02*
X21737325Y-11360650D01*
X21737325Y-11360650D02*
X21765896Y-11360650D01*
X21765896Y-11360650D02*
X21784944Y-11370174D01*
X21784944Y-11370174D02*
X21794468Y-11389222D01*
X21794468Y-11389222D02*
X21794468Y-11493984D01*
X21918277Y-11493984D02*
X21899230Y-11484460D01*
X21899230Y-11484460D02*
X21889706Y-11474936D01*
X21889706Y-11474936D02*
X21880182Y-11455888D01*
X21880182Y-11455888D02*
X21880182Y-11398746D01*
X21880182Y-11398746D02*
X21889706Y-11379698D01*
X21889706Y-11379698D02*
X21899230Y-11370174D01*
X21899230Y-11370174D02*
X21918277Y-11360650D01*
X21918277Y-11360650D02*
X21946849Y-11360650D01*
X21946849Y-11360650D02*
X21965896Y-11370174D01*
X21965896Y-11370174D02*
X21975420Y-11379698D01*
X21975420Y-11379698D02*
X21984944Y-11398746D01*
X21984944Y-11398746D02*
X21984944Y-11455888D01*
X21984944Y-11455888D02*
X21975420Y-11474936D01*
X21975420Y-11474936D02*
X21965896Y-11484460D01*
X21965896Y-11484460D02*
X21946849Y-11493984D01*
X21946849Y-11493984D02*
X21918277Y-11493984D01*
X22042087Y-11360650D02*
X22118277Y-11360650D01*
X22070658Y-11293984D02*
X22070658Y-11465412D01*
X22070658Y-11465412D02*
X22080182Y-11484460D01*
X22080182Y-11484460D02*
X22099230Y-11493984D01*
X22099230Y-11493984D02*
X22118277Y-11493984D01*
X22337325Y-11360650D02*
X22337325Y-11560650D01*
X22337325Y-11370174D02*
X22356373Y-11360650D01*
X22356373Y-11360650D02*
X22394468Y-11360650D01*
X22394468Y-11360650D02*
X22413515Y-11370174D01*
X22413515Y-11370174D02*
X22423039Y-11379698D01*
X22423039Y-11379698D02*
X22432563Y-11398746D01*
X22432563Y-11398746D02*
X22432563Y-11455888D01*
X22432563Y-11455888D02*
X22423039Y-11474936D01*
X22423039Y-11474936D02*
X22413515Y-11484460D01*
X22413515Y-11484460D02*
X22394468Y-11493984D01*
X22394468Y-11493984D02*
X22356373Y-11493984D01*
X22356373Y-11493984D02*
X22337325Y-11484460D01*
X22546849Y-11493984D02*
X22527801Y-11484460D01*
X22527801Y-11484460D02*
X22518277Y-11465412D01*
X22518277Y-11465412D02*
X22518277Y-11293984D01*
X22708753Y-11493984D02*
X22708753Y-11389222D01*
X22708753Y-11389222D02*
X22699230Y-11370174D01*
X22699230Y-11370174D02*
X22680182Y-11360650D01*
X22680182Y-11360650D02*
X22642087Y-11360650D01*
X22642087Y-11360650D02*
X22623039Y-11370174D01*
X22708753Y-11484460D02*
X22689706Y-11493984D01*
X22689706Y-11493984D02*
X22642087Y-11493984D01*
X22642087Y-11493984D02*
X22623039Y-11484460D01*
X22623039Y-11484460D02*
X22613515Y-11465412D01*
X22613515Y-11465412D02*
X22613515Y-11446365D01*
X22613515Y-11446365D02*
X22623039Y-11427317D01*
X22623039Y-11427317D02*
X22642087Y-11417793D01*
X22642087Y-11417793D02*
X22689706Y-11417793D01*
X22689706Y-11417793D02*
X22708753Y-11408269D01*
X22775420Y-11360650D02*
X22851611Y-11360650D01*
X22803992Y-11293984D02*
X22803992Y-11465412D01*
X22803992Y-11465412D02*
X22813515Y-11484460D01*
X22813515Y-11484460D02*
X22832563Y-11493984D01*
X22832563Y-11493984D02*
X22851611Y-11493984D01*
X22994468Y-11484460D02*
X22975420Y-11493984D01*
X22975420Y-11493984D02*
X22937325Y-11493984D01*
X22937325Y-11493984D02*
X22918277Y-11484460D01*
X22918277Y-11484460D02*
X22908753Y-11465412D01*
X22908753Y-11465412D02*
X22908753Y-11389222D01*
X22908753Y-11389222D02*
X22918277Y-11370174D01*
X22918277Y-11370174D02*
X22937325Y-11360650D01*
X22937325Y-11360650D02*
X22975420Y-11360650D01*
X22975420Y-11360650D02*
X22994468Y-11370174D01*
X22994468Y-11370174D02*
X23003992Y-11389222D01*
X23003992Y-11389222D02*
X23003992Y-11408269D01*
X23003992Y-11408269D02*
X22908753Y-11427317D01*
X23175420Y-11493984D02*
X23175420Y-11293984D01*
X23175420Y-11484460D02*
X23156373Y-11493984D01*
X23156373Y-11493984D02*
X23118277Y-11493984D01*
X23118277Y-11493984D02*
X23099230Y-11484460D01*
X23099230Y-11484460D02*
X23089706Y-11474936D01*
X23089706Y-11474936D02*
X23080182Y-11455888D01*
X23080182Y-11455888D02*
X23080182Y-11398746D01*
X23080182Y-11398746D02*
X23089706Y-11379698D01*
X23089706Y-11379698D02*
X23099230Y-11370174D01*
X23099230Y-11370174D02*
X23118277Y-11360650D01*
X23118277Y-11360650D02*
X23156373Y-11360650D01*
X23156373Y-11360650D02*
X23175420Y-11370174D01*
X23251611Y-11570174D02*
X23261134Y-11560650D01*
X23261134Y-11560650D02*
X23280182Y-11532079D01*
X23280182Y-11532079D02*
X23289706Y-11513031D01*
X23289706Y-11513031D02*
X23299230Y-11484460D01*
X23299230Y-11484460D02*
X23308753Y-11436841D01*
X23308753Y-11436841D02*
X23308753Y-11398746D01*
X23308753Y-11398746D02*
X23299230Y-11351127D01*
X23299230Y-11351127D02*
X23289706Y-11322555D01*
X23289706Y-11322555D02*
X23280182Y-11303508D01*
X23280182Y-11303508D02*
X23261134Y-11274936D01*
X23261134Y-11274936D02*
X23251611Y-11265412D01*
X16657500Y-11666500D02*
G75*
G02*
X16457500Y-11666500I-100000J0D01*
G01*
X16457500Y-11666500D02*
G75*
G02*
X16657500Y-11666500I100000J0D01*
G01*
X16908753Y-11577031D02*
X16918277Y-11567508D01*
X16918277Y-11567508D02*
X16937324Y-11557984D01*
X16937324Y-11557984D02*
X16984944Y-11557984D01*
X16984944Y-11557984D02*
X17003991Y-11567508D01*
X17003991Y-11567508D02*
X17013515Y-11577031D01*
X17013515Y-11577031D02*
X17023039Y-11596079D01*
X17023039Y-11596079D02*
X17023039Y-11615127D01*
X17023039Y-11615127D02*
X17013515Y-11643698D01*
X17013515Y-11643698D02*
X16899229Y-11757984D01*
X16899229Y-11757984D02*
X17023039Y-11757984D01*
X17108753Y-11738936D02*
X17118277Y-11748460D01*
X17118277Y-11748460D02*
X17108753Y-11757984D01*
X17108753Y-11757984D02*
X17099229Y-11748460D01*
X17099229Y-11748460D02*
X17108753Y-11738936D01*
X17108753Y-11738936D02*
X17108753Y-11757984D01*
X17194467Y-11577031D02*
X17203991Y-11567508D01*
X17203991Y-11567508D02*
X17223039Y-11557984D01*
X17223039Y-11557984D02*
X17270658Y-11557984D01*
X17270658Y-11557984D02*
X17289705Y-11567508D01*
X17289705Y-11567508D02*
X17299229Y-11577031D01*
X17299229Y-11577031D02*
X17308753Y-11596079D01*
X17308753Y-11596079D02*
X17308753Y-11615127D01*
X17308753Y-11615127D02*
X17299229Y-11643698D01*
X17299229Y-11643698D02*
X17184944Y-11757984D01*
X17184944Y-11757984D02*
X17308753Y-11757984D01*
X17432563Y-11557984D02*
X17451610Y-11557984D01*
X17451610Y-11557984D02*
X17470658Y-11567508D01*
X17470658Y-11567508D02*
X17480182Y-11577031D01*
X17480182Y-11577031D02*
X17489705Y-11596079D01*
X17489705Y-11596079D02*
X17499229Y-11634174D01*
X17499229Y-11634174D02*
X17499229Y-11681793D01*
X17499229Y-11681793D02*
X17489705Y-11719888D01*
X17489705Y-11719888D02*
X17480182Y-11738936D01*
X17480182Y-11738936D02*
X17470658Y-11748460D01*
X17470658Y-11748460D02*
X17451610Y-11757984D01*
X17451610Y-11757984D02*
X17432563Y-11757984D01*
X17432563Y-11757984D02*
X17413515Y-11748460D01*
X17413515Y-11748460D02*
X17403991Y-11738936D01*
X17403991Y-11738936D02*
X17394467Y-11719888D01*
X17394467Y-11719888D02*
X17384944Y-11681793D01*
X17384944Y-11681793D02*
X17384944Y-11634174D01*
X17384944Y-11634174D02*
X17394467Y-11596079D01*
X17394467Y-11596079D02*
X17403991Y-11577031D01*
X17403991Y-11577031D02*
X17413515Y-11567508D01*
X17413515Y-11567508D02*
X17432563Y-11557984D01*
X17623039Y-11557984D02*
X17642086Y-11557984D01*
X17642086Y-11557984D02*
X17661134Y-11567508D01*
X17661134Y-11567508D02*
X17670658Y-11577031D01*
X17670658Y-11577031D02*
X17680182Y-11596079D01*
X17680182Y-11596079D02*
X17689705Y-11634174D01*
X17689705Y-11634174D02*
X17689705Y-11681793D01*
X17689705Y-11681793D02*
X17680182Y-11719888D01*
X17680182Y-11719888D02*
X17670658Y-11738936D01*
X17670658Y-11738936D02*
X17661134Y-11748460D01*
X17661134Y-11748460D02*
X17642086Y-11757984D01*
X17642086Y-11757984D02*
X17623039Y-11757984D01*
X17623039Y-11757984D02*
X17603991Y-11748460D01*
X17603991Y-11748460D02*
X17594467Y-11738936D01*
X17594467Y-11738936D02*
X17584944Y-11719888D01*
X17584944Y-11719888D02*
X17575420Y-11681793D01*
X17575420Y-11681793D02*
X17575420Y-11634174D01*
X17575420Y-11634174D02*
X17584944Y-11596079D01*
X17584944Y-11596079D02*
X17594467Y-11577031D01*
X17594467Y-11577031D02*
X17603991Y-11567508D01*
X17603991Y-11567508D02*
X17623039Y-11557984D01*
X17775420Y-11757984D02*
X17775420Y-11624650D01*
X17775420Y-11643698D02*
X17784944Y-11634174D01*
X17784944Y-11634174D02*
X17803991Y-11624650D01*
X17803991Y-11624650D02*
X17832563Y-11624650D01*
X17832563Y-11624650D02*
X17851610Y-11634174D01*
X17851610Y-11634174D02*
X17861134Y-11653222D01*
X17861134Y-11653222D02*
X17861134Y-11757984D01*
X17861134Y-11653222D02*
X17870658Y-11634174D01*
X17870658Y-11634174D02*
X17889705Y-11624650D01*
X17889705Y-11624650D02*
X17918277Y-11624650D01*
X17918277Y-11624650D02*
X17937325Y-11634174D01*
X17937325Y-11634174D02*
X17946848Y-11653222D01*
X17946848Y-11653222D02*
X17946848Y-11757984D01*
X18042086Y-11757984D02*
X18042086Y-11624650D01*
X18042086Y-11643698D02*
X18051610Y-11634174D01*
X18051610Y-11634174D02*
X18070658Y-11624650D01*
X18070658Y-11624650D02*
X18099229Y-11624650D01*
X18099229Y-11624650D02*
X18118277Y-11634174D01*
X18118277Y-11634174D02*
X18127801Y-11653222D01*
X18127801Y-11653222D02*
X18127801Y-11757984D01*
X18127801Y-11653222D02*
X18137325Y-11634174D01*
X18137325Y-11634174D02*
X18156372Y-11624650D01*
X18156372Y-11624650D02*
X18184944Y-11624650D01*
X18184944Y-11624650D02*
X18203991Y-11634174D01*
X18203991Y-11634174D02*
X18213515Y-11653222D01*
X18213515Y-11653222D02*
X18213515Y-11757984D01*
X18603991Y-11548460D02*
X18432563Y-11805603D01*
X18861134Y-11557984D02*
X18880182Y-11557984D01*
X18880182Y-11557984D02*
X18899229Y-11567508D01*
X18899229Y-11567508D02*
X18908753Y-11577031D01*
X18908753Y-11577031D02*
X18918277Y-11596079D01*
X18918277Y-11596079D02*
X18927801Y-11634174D01*
X18927801Y-11634174D02*
X18927801Y-11681793D01*
X18927801Y-11681793D02*
X18918277Y-11719888D01*
X18918277Y-11719888D02*
X18908753Y-11738936D01*
X18908753Y-11738936D02*
X18899229Y-11748460D01*
X18899229Y-11748460D02*
X18880182Y-11757984D01*
X18880182Y-11757984D02*
X18861134Y-11757984D01*
X18861134Y-11757984D02*
X18842087Y-11748460D01*
X18842087Y-11748460D02*
X18832563Y-11738936D01*
X18832563Y-11738936D02*
X18823039Y-11719888D01*
X18823039Y-11719888D02*
X18813515Y-11681793D01*
X18813515Y-11681793D02*
X18813515Y-11634174D01*
X18813515Y-11634174D02*
X18823039Y-11596079D01*
X18823039Y-11596079D02*
X18832563Y-11577031D01*
X18832563Y-11577031D02*
X18842087Y-11567508D01*
X18842087Y-11567508D02*
X18861134Y-11557984D01*
X19013515Y-11738936D02*
X19023039Y-11748460D01*
X19023039Y-11748460D02*
X19013515Y-11757984D01*
X19013515Y-11757984D02*
X19003991Y-11748460D01*
X19003991Y-11748460D02*
X19013515Y-11738936D01*
X19013515Y-11738936D02*
X19013515Y-11757984D01*
X19146848Y-11557984D02*
X19165896Y-11557984D01*
X19165896Y-11557984D02*
X19184944Y-11567508D01*
X19184944Y-11567508D02*
X19194468Y-11577031D01*
X19194468Y-11577031D02*
X19203991Y-11596079D01*
X19203991Y-11596079D02*
X19213515Y-11634174D01*
X19213515Y-11634174D02*
X19213515Y-11681793D01*
X19213515Y-11681793D02*
X19203991Y-11719888D01*
X19203991Y-11719888D02*
X19194468Y-11738936D01*
X19194468Y-11738936D02*
X19184944Y-11748460D01*
X19184944Y-11748460D02*
X19165896Y-11757984D01*
X19165896Y-11757984D02*
X19146848Y-11757984D01*
X19146848Y-11757984D02*
X19127801Y-11748460D01*
X19127801Y-11748460D02*
X19118277Y-11738936D01*
X19118277Y-11738936D02*
X19108753Y-11719888D01*
X19108753Y-11719888D02*
X19099229Y-11681793D01*
X19099229Y-11681793D02*
X19099229Y-11634174D01*
X19099229Y-11634174D02*
X19108753Y-11596079D01*
X19108753Y-11596079D02*
X19118277Y-11577031D01*
X19118277Y-11577031D02*
X19127801Y-11567508D01*
X19127801Y-11567508D02*
X19146848Y-11557984D01*
X19327801Y-11643698D02*
X19308753Y-11634174D01*
X19308753Y-11634174D02*
X19299229Y-11624650D01*
X19299229Y-11624650D02*
X19289706Y-11605603D01*
X19289706Y-11605603D02*
X19289706Y-11596079D01*
X19289706Y-11596079D02*
X19299229Y-11577031D01*
X19299229Y-11577031D02*
X19308753Y-11567508D01*
X19308753Y-11567508D02*
X19327801Y-11557984D01*
X19327801Y-11557984D02*
X19365896Y-11557984D01*
X19365896Y-11557984D02*
X19384944Y-11567508D01*
X19384944Y-11567508D02*
X19394468Y-11577031D01*
X19394468Y-11577031D02*
X19403991Y-11596079D01*
X19403991Y-11596079D02*
X19403991Y-11605603D01*
X19403991Y-11605603D02*
X19394468Y-11624650D01*
X19394468Y-11624650D02*
X19384944Y-11634174D01*
X19384944Y-11634174D02*
X19365896Y-11643698D01*
X19365896Y-11643698D02*
X19327801Y-11643698D01*
X19327801Y-11643698D02*
X19308753Y-11653222D01*
X19308753Y-11653222D02*
X19299229Y-11662746D01*
X19299229Y-11662746D02*
X19289706Y-11681793D01*
X19289706Y-11681793D02*
X19289706Y-11719888D01*
X19289706Y-11719888D02*
X19299229Y-11738936D01*
X19299229Y-11738936D02*
X19308753Y-11748460D01*
X19308753Y-11748460D02*
X19327801Y-11757984D01*
X19327801Y-11757984D02*
X19365896Y-11757984D01*
X19365896Y-11757984D02*
X19384944Y-11748460D01*
X19384944Y-11748460D02*
X19394468Y-11738936D01*
X19394468Y-11738936D02*
X19403991Y-11719888D01*
X19403991Y-11719888D02*
X19403991Y-11681793D01*
X19403991Y-11681793D02*
X19394468Y-11662746D01*
X19394468Y-11662746D02*
X19384944Y-11653222D01*
X19384944Y-11653222D02*
X19365896Y-11643698D01*
X19575420Y-11557984D02*
X19537325Y-11557984D01*
X19537325Y-11557984D02*
X19518277Y-11567508D01*
X19518277Y-11567508D02*
X19508753Y-11577031D01*
X19508753Y-11577031D02*
X19489706Y-11605603D01*
X19489706Y-11605603D02*
X19480182Y-11643698D01*
X19480182Y-11643698D02*
X19480182Y-11719888D01*
X19480182Y-11719888D02*
X19489706Y-11738936D01*
X19489706Y-11738936D02*
X19499229Y-11748460D01*
X19499229Y-11748460D02*
X19518277Y-11757984D01*
X19518277Y-11757984D02*
X19556372Y-11757984D01*
X19556372Y-11757984D02*
X19575420Y-11748460D01*
X19575420Y-11748460D02*
X19584944Y-11738936D01*
X19584944Y-11738936D02*
X19594468Y-11719888D01*
X19594468Y-11719888D02*
X19594468Y-11672269D01*
X19594468Y-11672269D02*
X19584944Y-11653222D01*
X19584944Y-11653222D02*
X19575420Y-11643698D01*
X19575420Y-11643698D02*
X19556372Y-11634174D01*
X19556372Y-11634174D02*
X19518277Y-11634174D01*
X19518277Y-11634174D02*
X19499229Y-11643698D01*
X19499229Y-11643698D02*
X19489706Y-11653222D01*
X19489706Y-11653222D02*
X19480182Y-11672269D01*
X19765896Y-11557984D02*
X19727801Y-11557984D01*
X19727801Y-11557984D02*
X19708753Y-11567508D01*
X19708753Y-11567508D02*
X19699229Y-11577031D01*
X19699229Y-11577031D02*
X19680182Y-11605603D01*
X19680182Y-11605603D02*
X19670658Y-11643698D01*
X19670658Y-11643698D02*
X19670658Y-11719888D01*
X19670658Y-11719888D02*
X19680182Y-11738936D01*
X19680182Y-11738936D02*
X19689706Y-11748460D01*
X19689706Y-11748460D02*
X19708753Y-11757984D01*
X19708753Y-11757984D02*
X19746849Y-11757984D01*
X19746849Y-11757984D02*
X19765896Y-11748460D01*
X19765896Y-11748460D02*
X19775420Y-11738936D01*
X19775420Y-11738936D02*
X19784944Y-11719888D01*
X19784944Y-11719888D02*
X19784944Y-11672269D01*
X19784944Y-11672269D02*
X19775420Y-11653222D01*
X19775420Y-11653222D02*
X19765896Y-11643698D01*
X19765896Y-11643698D02*
X19746849Y-11634174D01*
X19746849Y-11634174D02*
X19708753Y-11634174D01*
X19708753Y-11634174D02*
X19689706Y-11643698D01*
X19689706Y-11643698D02*
X19680182Y-11653222D01*
X19680182Y-11653222D02*
X19670658Y-11672269D01*
X19861134Y-11557984D02*
X19861134Y-11596079D01*
X19937325Y-11557984D02*
X19937325Y-11596079D01*
X20232563Y-11834174D02*
X20223039Y-11824650D01*
X20223039Y-11824650D02*
X20203991Y-11796079D01*
X20203991Y-11796079D02*
X20194468Y-11777031D01*
X20194468Y-11777031D02*
X20184944Y-11748460D01*
X20184944Y-11748460D02*
X20175420Y-11700841D01*
X20175420Y-11700841D02*
X20175420Y-11662746D01*
X20175420Y-11662746D02*
X20184944Y-11615127D01*
X20184944Y-11615127D02*
X20194468Y-11586555D01*
X20194468Y-11586555D02*
X20203991Y-11567508D01*
X20203991Y-11567508D02*
X20223039Y-11538936D01*
X20223039Y-11538936D02*
X20232563Y-11529412D01*
X20394468Y-11624650D02*
X20394468Y-11757984D01*
X20346849Y-11548460D02*
X20299230Y-11691317D01*
X20299230Y-11691317D02*
X20423039Y-11691317D01*
X20651611Y-11757984D02*
X20651611Y-11557984D01*
X20737325Y-11757984D02*
X20737325Y-11653222D01*
X20737325Y-11653222D02*
X20727801Y-11634174D01*
X20727801Y-11634174D02*
X20708753Y-11624650D01*
X20708753Y-11624650D02*
X20680182Y-11624650D01*
X20680182Y-11624650D02*
X20661134Y-11634174D01*
X20661134Y-11634174D02*
X20651611Y-11643698D01*
X20861134Y-11757984D02*
X20842087Y-11748460D01*
X20842087Y-11748460D02*
X20832563Y-11738936D01*
X20832563Y-11738936D02*
X20823039Y-11719888D01*
X20823039Y-11719888D02*
X20823039Y-11662746D01*
X20823039Y-11662746D02*
X20832563Y-11643698D01*
X20832563Y-11643698D02*
X20842087Y-11634174D01*
X20842087Y-11634174D02*
X20861134Y-11624650D01*
X20861134Y-11624650D02*
X20889706Y-11624650D01*
X20889706Y-11624650D02*
X20908753Y-11634174D01*
X20908753Y-11634174D02*
X20918277Y-11643698D01*
X20918277Y-11643698D02*
X20927801Y-11662746D01*
X20927801Y-11662746D02*
X20927801Y-11719888D01*
X20927801Y-11719888D02*
X20918277Y-11738936D01*
X20918277Y-11738936D02*
X20908753Y-11748460D01*
X20908753Y-11748460D02*
X20889706Y-11757984D01*
X20889706Y-11757984D02*
X20861134Y-11757984D01*
X21042087Y-11757984D02*
X21023039Y-11748460D01*
X21023039Y-11748460D02*
X21013515Y-11729412D01*
X21013515Y-11729412D02*
X21013515Y-11557984D01*
X21194468Y-11748460D02*
X21175420Y-11757984D01*
X21175420Y-11757984D02*
X21137325Y-11757984D01*
X21137325Y-11757984D02*
X21118277Y-11748460D01*
X21118277Y-11748460D02*
X21108753Y-11729412D01*
X21108753Y-11729412D02*
X21108753Y-11653222D01*
X21108753Y-11653222D02*
X21118277Y-11634174D01*
X21118277Y-11634174D02*
X21137325Y-11624650D01*
X21137325Y-11624650D02*
X21175420Y-11624650D01*
X21175420Y-11624650D02*
X21194468Y-11634174D01*
X21194468Y-11634174D02*
X21203992Y-11653222D01*
X21203992Y-11653222D02*
X21203992Y-11672269D01*
X21203992Y-11672269D02*
X21108753Y-11691317D01*
X21280182Y-11748460D02*
X21299230Y-11757984D01*
X21299230Y-11757984D02*
X21337325Y-11757984D01*
X21337325Y-11757984D02*
X21356373Y-11748460D01*
X21356373Y-11748460D02*
X21365896Y-11729412D01*
X21365896Y-11729412D02*
X21365896Y-11719888D01*
X21365896Y-11719888D02*
X21356373Y-11700841D01*
X21356373Y-11700841D02*
X21337325Y-11691317D01*
X21337325Y-11691317D02*
X21308753Y-11691317D01*
X21308753Y-11691317D02*
X21289706Y-11681793D01*
X21289706Y-11681793D02*
X21280182Y-11662746D01*
X21280182Y-11662746D02*
X21280182Y-11653222D01*
X21280182Y-11653222D02*
X21289706Y-11634174D01*
X21289706Y-11634174D02*
X21308753Y-11624650D01*
X21308753Y-11624650D02*
X21337325Y-11624650D01*
X21337325Y-11624650D02*
X21356373Y-11634174D01*
X21432563Y-11834174D02*
X21442087Y-11824650D01*
X21442087Y-11824650D02*
X21461134Y-11796079D01*
X21461134Y-11796079D02*
X21470658Y-11777031D01*
X21470658Y-11777031D02*
X21480182Y-11748460D01*
X21480182Y-11748460D02*
X21489706Y-11700841D01*
X21489706Y-11700841D02*
X21489706Y-11662746D01*
X21489706Y-11662746D02*
X21480182Y-11615127D01*
X21480182Y-11615127D02*
X21470658Y-11586555D01*
X21470658Y-11586555D02*
X21461134Y-11567508D01*
X21461134Y-11567508D02*
X21442087Y-11538936D01*
X21442087Y-11538936D02*
X21432563Y-11529412D01*
X21794468Y-11834174D02*
X21784944Y-11824650D01*
X21784944Y-11824650D02*
X21765896Y-11796079D01*
X21765896Y-11796079D02*
X21756373Y-11777031D01*
X21756373Y-11777031D02*
X21746849Y-11748460D01*
X21746849Y-11748460D02*
X21737325Y-11700841D01*
X21737325Y-11700841D02*
X21737325Y-11662746D01*
X21737325Y-11662746D02*
X21746849Y-11615127D01*
X21746849Y-11615127D02*
X21756373Y-11586555D01*
X21756373Y-11586555D02*
X21765896Y-11567508D01*
X21765896Y-11567508D02*
X21784944Y-11538936D01*
X21784944Y-11538936D02*
X21794468Y-11529412D01*
X21870658Y-11624650D02*
X21870658Y-11757984D01*
X21870658Y-11643698D02*
X21880182Y-11634174D01*
X21880182Y-11634174D02*
X21899230Y-11624650D01*
X21899230Y-11624650D02*
X21927801Y-11624650D01*
X21927801Y-11624650D02*
X21946849Y-11634174D01*
X21946849Y-11634174D02*
X21956373Y-11653222D01*
X21956373Y-11653222D02*
X21956373Y-11757984D01*
X22080182Y-11757984D02*
X22061134Y-11748460D01*
X22061134Y-11748460D02*
X22051611Y-11738936D01*
X22051611Y-11738936D02*
X22042087Y-11719888D01*
X22042087Y-11719888D02*
X22042087Y-11662746D01*
X22042087Y-11662746D02*
X22051611Y-11643698D01*
X22051611Y-11643698D02*
X22061134Y-11634174D01*
X22061134Y-11634174D02*
X22080182Y-11624650D01*
X22080182Y-11624650D02*
X22108754Y-11624650D01*
X22108754Y-11624650D02*
X22127801Y-11634174D01*
X22127801Y-11634174D02*
X22137325Y-11643698D01*
X22137325Y-11643698D02*
X22146849Y-11662746D01*
X22146849Y-11662746D02*
X22146849Y-11719888D01*
X22146849Y-11719888D02*
X22137325Y-11738936D01*
X22137325Y-11738936D02*
X22127801Y-11748460D01*
X22127801Y-11748460D02*
X22108754Y-11757984D01*
X22108754Y-11757984D02*
X22080182Y-11757984D01*
X22203992Y-11624650D02*
X22280182Y-11624650D01*
X22232563Y-11557984D02*
X22232563Y-11729412D01*
X22232563Y-11729412D02*
X22242087Y-11748460D01*
X22242087Y-11748460D02*
X22261134Y-11757984D01*
X22261134Y-11757984D02*
X22280182Y-11757984D01*
X22499230Y-11624650D02*
X22499230Y-11824650D01*
X22499230Y-11634174D02*
X22518277Y-11624650D01*
X22518277Y-11624650D02*
X22556373Y-11624650D01*
X22556373Y-11624650D02*
X22575420Y-11634174D01*
X22575420Y-11634174D02*
X22584944Y-11643698D01*
X22584944Y-11643698D02*
X22594468Y-11662746D01*
X22594468Y-11662746D02*
X22594468Y-11719888D01*
X22594468Y-11719888D02*
X22584944Y-11738936D01*
X22584944Y-11738936D02*
X22575420Y-11748460D01*
X22575420Y-11748460D02*
X22556373Y-11757984D01*
X22556373Y-11757984D02*
X22518277Y-11757984D01*
X22518277Y-11757984D02*
X22499230Y-11748460D01*
X22708753Y-11757984D02*
X22689706Y-11748460D01*
X22689706Y-11748460D02*
X22680182Y-11729412D01*
X22680182Y-11729412D02*
X22680182Y-11557984D01*
X22870658Y-11757984D02*
X22870658Y-11653222D01*
X22870658Y-11653222D02*
X22861134Y-11634174D01*
X22861134Y-11634174D02*
X22842087Y-11624650D01*
X22842087Y-11624650D02*
X22803992Y-11624650D01*
X22803992Y-11624650D02*
X22784944Y-11634174D01*
X22870658Y-11748460D02*
X22851611Y-11757984D01*
X22851611Y-11757984D02*
X22803992Y-11757984D01*
X22803992Y-11757984D02*
X22784944Y-11748460D01*
X22784944Y-11748460D02*
X22775420Y-11729412D01*
X22775420Y-11729412D02*
X22775420Y-11710365D01*
X22775420Y-11710365D02*
X22784944Y-11691317D01*
X22784944Y-11691317D02*
X22803992Y-11681793D01*
X22803992Y-11681793D02*
X22851611Y-11681793D01*
X22851611Y-11681793D02*
X22870658Y-11672269D01*
X22937325Y-11624650D02*
X23013515Y-11624650D01*
X22965896Y-11557984D02*
X22965896Y-11729412D01*
X22965896Y-11729412D02*
X22975420Y-11748460D01*
X22975420Y-11748460D02*
X22994468Y-11757984D01*
X22994468Y-11757984D02*
X23013515Y-11757984D01*
X23156373Y-11748460D02*
X23137325Y-11757984D01*
X23137325Y-11757984D02*
X23099230Y-11757984D01*
X23099230Y-11757984D02*
X23080182Y-11748460D01*
X23080182Y-11748460D02*
X23070658Y-11729412D01*
X23070658Y-11729412D02*
X23070658Y-11653222D01*
X23070658Y-11653222D02*
X23080182Y-11634174D01*
X23080182Y-11634174D02*
X23099230Y-11624650D01*
X23099230Y-11624650D02*
X23137325Y-11624650D01*
X23137325Y-11624650D02*
X23156373Y-11634174D01*
X23156373Y-11634174D02*
X23165896Y-11653222D01*
X23165896Y-11653222D02*
X23165896Y-11672269D01*
X23165896Y-11672269D02*
X23070658Y-11691317D01*
X23337325Y-11757984D02*
X23337325Y-11557984D01*
X23337325Y-11748460D02*
X23318277Y-11757984D01*
X23318277Y-11757984D02*
X23280182Y-11757984D01*
X23280182Y-11757984D02*
X23261134Y-11748460D01*
X23261134Y-11748460D02*
X23251611Y-11738936D01*
X23251611Y-11738936D02*
X23242087Y-11719888D01*
X23242087Y-11719888D02*
X23242087Y-11662746D01*
X23242087Y-11662746D02*
X23251611Y-11643698D01*
X23251611Y-11643698D02*
X23261134Y-11634174D01*
X23261134Y-11634174D02*
X23280182Y-11624650D01*
X23280182Y-11624650D02*
X23318277Y-11624650D01*
X23318277Y-11624650D02*
X23337325Y-11634174D01*
X23413515Y-11834174D02*
X23423039Y-11824650D01*
X23423039Y-11824650D02*
X23442087Y-11796079D01*
X23442087Y-11796079D02*
X23451611Y-11777031D01*
X23451611Y-11777031D02*
X23461134Y-11748460D01*
X23461134Y-11748460D02*
X23470658Y-11700841D01*
X23470658Y-11700841D02*
X23470658Y-11662746D01*
X23470658Y-11662746D02*
X23461134Y-11615127D01*
X23461134Y-11615127D02*
X23451611Y-11586555D01*
X23451611Y-11586555D02*
X23442087Y-11567508D01*
X23442087Y-11567508D02*
X23423039Y-11538936D01*
X23423039Y-11538936D02*
X23413515Y-11529412D01*
M02*
