G04 #@! TF.GenerationSoftware,KiCad,Pcbnew,8.0.8*
G04 #@! TF.CreationDate,2025-01-30T19:33:48+01:00*
G04 #@! TF.ProjectId,HAMS_node,48414d53-5f6e-46f6-9465-2e6b69636164,rev?*
G04 #@! TF.SameCoordinates,Original*
G04 #@! TF.FileFunction,Copper,L2,Bot*
G04 #@! TF.FilePolarity,Positive*
%FSLAX46Y46*%
G04 Gerber Fmt 4.6, Leading zero omitted, Abs format (unit mm)*
G04 Created by KiCad (PCBNEW 8.0.8) date 2025-01-30 19:33:48*
%MOMM*%
%LPD*%
G01*
G04 APERTURE LIST*
G04 Aperture macros list*
%AMRoundRect*
0 Rectangle with rounded corners*
0 $1 Rounding radius*
0 $2 $3 $4 $5 $6 $7 $8 $9 X,Y pos of 4 corners*
0 Add a 4 corners polygon primitive as box body*
4,1,4,$2,$3,$4,$5,$6,$7,$8,$9,$2,$3,0*
0 Add four circle primitives for the rounded corners*
1,1,$1+$1,$2,$3*
1,1,$1+$1,$4,$5*
1,1,$1+$1,$6,$7*
1,1,$1+$1,$8,$9*
0 Add four rect primitives between the rounded corners*
20,1,$1+$1,$2,$3,$4,$5,0*
20,1,$1+$1,$4,$5,$6,$7,0*
20,1,$1+$1,$6,$7,$8,$9,0*
20,1,$1+$1,$8,$9,$2,$3,0*%
G04 Aperture macros list end*
G04 #@! TA.AperFunction,ComponentPad*
%ADD10R,1.000000X1.000000*%
G04 #@! TD*
G04 #@! TA.AperFunction,ComponentPad*
%ADD11O,1.000000X1.000000*%
G04 #@! TD*
G04 #@! TA.AperFunction,ComponentPad*
%ADD12O,2.000000X1.700000*%
G04 #@! TD*
G04 #@! TA.AperFunction,ComponentPad*
%ADD13RoundRect,0.250000X0.750000X-0.600000X0.750000X0.600000X-0.750000X0.600000X-0.750000X-0.600000X0*%
G04 #@! TD*
G04 #@! TA.AperFunction,ComponentPad*
%ADD14R,1.700000X1.700000*%
G04 #@! TD*
G04 #@! TA.AperFunction,ComponentPad*
%ADD15O,1.700000X1.700000*%
G04 #@! TD*
G04 #@! TA.AperFunction,ComponentPad*
%ADD16C,1.700000*%
G04 #@! TD*
G04 #@! TA.AperFunction,ViaPad*
%ADD17C,0.600000*%
G04 #@! TD*
G04 #@! TA.AperFunction,Conductor*
%ADD18C,0.200000*%
G04 #@! TD*
G04 APERTURE END LIST*
D10*
X202700000Y-78850000D03*
D11*
X203970000Y-78850000D03*
X185595000Y-80100000D03*
D10*
X184325000Y-80100000D03*
X179825000Y-89850000D03*
D11*
X179825000Y-88580000D03*
D10*
X179800000Y-80945000D03*
D11*
X179800000Y-79675000D03*
D12*
X170075000Y-93450000D03*
D13*
X170075000Y-95950000D03*
D14*
X203410000Y-98520000D03*
D15*
X203410000Y-95980000D03*
X203410000Y-93440000D03*
X203410000Y-90900000D03*
D14*
X206030000Y-59750000D03*
D15*
X203490000Y-59750000D03*
X200950000Y-59750000D03*
X198410000Y-59750000D03*
D14*
X210050000Y-86180000D03*
D15*
X210050000Y-83640000D03*
X210050000Y-81100000D03*
X210050000Y-78560000D03*
D14*
X203460000Y-74300000D03*
D15*
X203460000Y-71760000D03*
X203460000Y-69220000D03*
X203460000Y-66680000D03*
D14*
X174700000Y-59700000D03*
D15*
X177240000Y-59700000D03*
X179780000Y-59700000D03*
X182320000Y-59700000D03*
X184860000Y-59700000D03*
X187400000Y-59700000D03*
X189940000Y-59700000D03*
X192480000Y-59700000D03*
D14*
X194439500Y-75420000D03*
D16*
X191899500Y-75420000D03*
X194439500Y-72880000D03*
X191899500Y-72880000D03*
X194439500Y-70340000D03*
X191899500Y-70340000D03*
X194439500Y-67800000D03*
X191899500Y-67800000D03*
D17*
X187000000Y-70285000D03*
X189200000Y-92800000D03*
X188700000Y-66900000D03*
X188000000Y-65925000D03*
X186300000Y-62700000D03*
X180355000Y-71200000D03*
X189900000Y-70340000D03*
X198000000Y-80700000D03*
X197950000Y-83650000D03*
X204400000Y-80700000D03*
X188300000Y-82000000D03*
X185800000Y-96450000D03*
X175200000Y-88200000D03*
X173100000Y-91150000D03*
X177100000Y-85770000D03*
X181775000Y-87400000D03*
X187937500Y-83462500D03*
X193900000Y-89100000D03*
X196700000Y-90100000D03*
X210575000Y-90175000D03*
X207800000Y-92000000D03*
X180800000Y-95700000D03*
X176700000Y-95800000D03*
X177000000Y-80700000D03*
X172300000Y-79725000D03*
X179800000Y-84850000D03*
X204800000Y-81900000D03*
X199550000Y-98500000D03*
X198850000Y-96000000D03*
X177375000Y-88000000D03*
X183150000Y-94975000D03*
X186275000Y-95075000D03*
X195600000Y-77900000D03*
X207325000Y-82525000D03*
X180550000Y-99225000D03*
X212400000Y-96000000D03*
X196550000Y-96350000D03*
X171850000Y-99400000D03*
X199900000Y-76850000D03*
X211500000Y-71900000D03*
X172750000Y-106525000D03*
X169050000Y-97750000D03*
X183800000Y-99650000D03*
X191650000Y-80150000D03*
X181550000Y-72800000D03*
X199900000Y-80750000D03*
X195300000Y-89500000D03*
X186200000Y-91350000D03*
X168000000Y-85800000D03*
X207600000Y-63800000D03*
X202250000Y-63750000D03*
X191150000Y-106500000D03*
X174150000Y-89475000D03*
X199900000Y-79800000D03*
X205350000Y-70100000D03*
X196800000Y-101075000D03*
X177275000Y-84125000D03*
X179225000Y-68725000D03*
X172000000Y-61225000D03*
X194400000Y-92000000D03*
X168875000Y-88175000D03*
X194400000Y-63700000D03*
X189600000Y-80150000D03*
X172025000Y-58675000D03*
X177400000Y-79200000D03*
X191250000Y-85150000D03*
X168525000Y-99700000D03*
X205600000Y-95700000D03*
X211500000Y-66550000D03*
X189700000Y-97325000D03*
X182650000Y-91275000D03*
X191150000Y-63700000D03*
X201000000Y-94700000D03*
X211500000Y-69200000D03*
X192600000Y-93200000D03*
X172000000Y-94650000D03*
X180000000Y-106475000D03*
X183600000Y-85750000D03*
X168000000Y-78400000D03*
X190800000Y-74250000D03*
X189875000Y-94875000D03*
X179225000Y-64275000D03*
X192900000Y-77200000D03*
X207225000Y-79550000D03*
X190950000Y-86100000D03*
X189000000Y-83000000D03*
X201225000Y-100850000D03*
X189900000Y-77100000D03*
X200000000Y-61550000D03*
X183000000Y-72800000D03*
X168000000Y-81950000D03*
X201150000Y-97200000D03*
X168000000Y-83250000D03*
X201975000Y-81250000D03*
X199900000Y-77850000D03*
X199850000Y-84850000D03*
X182800000Y-76800000D03*
X189850000Y-73675000D03*
X181700000Y-103025000D03*
X178075000Y-99275000D03*
X179225000Y-71825000D03*
X205600000Y-92600000D03*
X212400000Y-93400000D03*
X212400000Y-91000000D03*
X197500000Y-91200000D03*
X185175000Y-84175000D03*
X179225000Y-75125000D03*
X205000000Y-76850000D03*
X202200000Y-61600000D03*
X193141794Y-88324000D03*
X172000000Y-92450000D03*
X182325000Y-84100000D03*
X207350000Y-87950000D03*
X182250000Y-71250000D03*
X202350000Y-76500000D03*
X196300000Y-93200000D03*
X195375000Y-79875000D03*
X171000000Y-103100000D03*
X189300000Y-87200000D03*
X191250000Y-99575000D03*
X183350000Y-106525000D03*
X196100000Y-59800000D03*
X173800000Y-99400000D03*
X195400000Y-81225000D03*
X207600000Y-62400000D03*
X186242500Y-63592500D03*
X180355000Y-70375000D03*
X178150000Y-86325000D03*
X181775000Y-86325000D03*
X172300000Y-80700000D03*
X177900000Y-80700000D03*
X179800000Y-83900000D03*
X190400000Y-78800000D03*
X189350000Y-78800000D03*
X186650000Y-96450000D03*
X174375000Y-91150000D03*
X194491794Y-88274000D03*
X188925000Y-84450000D03*
X187400000Y-82000000D03*
X197375000Y-89400000D03*
X175950000Y-88950000D03*
X189250000Y-93550000D03*
X207800000Y-93400000D03*
X209850000Y-90900000D03*
X198000000Y-81500000D03*
X198500000Y-83100000D03*
X187900000Y-70300000D03*
X187350000Y-66475000D03*
X188450000Y-67750000D03*
X189050000Y-70100000D03*
D18*
X186300000Y-63535000D02*
X186242500Y-63592500D01*
X186300000Y-62700000D02*
X186300000Y-63535000D01*
X204400000Y-80700000D02*
X204800000Y-81100000D01*
X204800000Y-81100000D02*
X210050000Y-81100000D01*
X187885000Y-70285000D02*
X187900000Y-70300000D01*
X187000000Y-70285000D02*
X187885000Y-70285000D01*
X187900000Y-70710000D02*
X190070000Y-72880000D01*
X187900000Y-70300000D02*
X187900000Y-70710000D01*
X190070000Y-72880000D02*
X191899500Y-72880000D01*
X189200000Y-92800000D02*
X189200000Y-93500000D01*
X189200000Y-93500000D02*
X189250000Y-93550000D01*
X188700000Y-66900000D02*
X188450000Y-67150000D01*
X188450000Y-67150000D02*
X188450000Y-67750000D01*
X187450000Y-66475000D02*
X188000000Y-65925000D01*
X187350000Y-66475000D02*
X187450000Y-66475000D01*
X188000000Y-65925000D02*
X192564500Y-65925000D01*
X180355000Y-71200000D02*
X180355000Y-70375000D01*
X189290000Y-70340000D02*
X189050000Y-70100000D01*
X189900000Y-70340000D02*
X189290000Y-70340000D01*
X198500000Y-83100000D02*
X197950000Y-83650000D01*
X198000000Y-80700000D02*
X198000000Y-81500000D01*
X204800000Y-81100000D02*
X204800000Y-81900000D01*
X196600000Y-88625000D02*
X197375000Y-89400000D01*
X188300000Y-82000000D02*
X191100000Y-82000000D01*
X187400000Y-82000000D02*
X188300000Y-82000000D01*
X196600000Y-87500000D02*
X196600000Y-88625000D01*
X191100000Y-82000000D02*
X196600000Y-87500000D01*
X185800000Y-96450000D02*
X186650000Y-96450000D01*
X175200000Y-88200000D02*
X175950000Y-88950000D01*
X173100000Y-91150000D02*
X174375000Y-91150000D01*
X177100000Y-85770000D02*
X177595000Y-85770000D01*
X177595000Y-85770000D02*
X178150000Y-86325000D01*
X181775000Y-87400000D02*
X181775000Y-86325000D01*
X187937500Y-83462500D02*
X188925000Y-84450000D01*
X194491794Y-88508206D02*
X193900000Y-89100000D01*
X194491794Y-88274000D02*
X194491794Y-88508206D01*
X197375000Y-89425000D02*
X196700000Y-90100000D01*
X197375000Y-89400000D02*
X197375000Y-89425000D01*
X210575000Y-90175000D02*
X209850000Y-90900000D01*
X207800000Y-92000000D02*
X207800000Y-93400000D01*
X179675000Y-96450000D02*
X185800000Y-96450000D01*
X174375000Y-91150000D02*
X179675000Y-96450000D01*
X177900000Y-80700000D02*
X177000000Y-80700000D01*
X177000000Y-80700000D02*
X172300000Y-80700000D01*
X179800000Y-83900000D02*
X179800000Y-80945000D01*
X193266794Y-87049000D02*
X194491794Y-88274000D01*
X188925000Y-85325000D02*
X190649000Y-87049000D01*
X188925000Y-84450000D02*
X188925000Y-85325000D01*
X190649000Y-87049000D02*
X193266794Y-87049000D01*
X172300000Y-79725000D02*
X172300000Y-80700000D01*
X178150000Y-86325000D02*
X181775000Y-86325000D01*
X179800000Y-83900000D02*
X179800000Y-84850000D01*
X206260000Y-71760000D02*
X203460000Y-71760000D01*
X211650000Y-77150000D02*
X206260000Y-71760000D01*
X211650000Y-79500000D02*
X211650000Y-77150000D01*
X210050000Y-81100000D02*
X211650000Y-79500000D01*
X180400000Y-93550000D02*
X189250000Y-93550000D01*
X175950000Y-89100000D02*
X180400000Y-93550000D01*
X175950000Y-88950000D02*
X175950000Y-89100000D01*
X194439500Y-75420000D02*
X192950000Y-73930500D01*
X192950000Y-73930500D02*
X192950000Y-73900000D01*
X186242500Y-63592500D02*
X180355000Y-69480000D01*
X180355000Y-69480000D02*
X180355000Y-70375000D01*
X189350000Y-78800000D02*
X190400000Y-78800000D01*
X190450000Y-78850000D02*
X190400000Y-78800000D01*
X201650000Y-78850000D02*
X202700000Y-78850000D01*
X201650000Y-78850000D02*
X190450000Y-78850000D01*
X207800000Y-93400000D02*
X207760000Y-93440000D01*
X207760000Y-93440000D02*
X203410000Y-93440000D01*
X209850000Y-90900000D02*
X203410000Y-90900000D01*
X205790000Y-74300000D02*
X203460000Y-74300000D01*
X210050000Y-78560000D02*
X205790000Y-74300000D01*
X198500000Y-82000000D02*
X198000000Y-81500000D01*
X198500000Y-83100000D02*
X198500000Y-82000000D01*
X192564500Y-65925000D02*
X194439500Y-67800000D01*
X188450000Y-69500000D02*
X189050000Y-70100000D01*
X188450000Y-67750000D02*
X188450000Y-69500000D01*
G04 #@! TA.AperFunction,Conductor*
G36*
X213742539Y-57920185D02*
G01*
X213788294Y-57972989D01*
X213799500Y-58024500D01*
X213799500Y-107175500D01*
X213779815Y-107242539D01*
X213727011Y-107288294D01*
X213675500Y-107299500D01*
X167024500Y-107299500D01*
X166957461Y-107279815D01*
X166911706Y-107227011D01*
X166900500Y-107175500D01*
X166900500Y-105293713D01*
X167449500Y-105293713D01*
X167449500Y-105506286D01*
X167482753Y-105716239D01*
X167548444Y-105918414D01*
X167644951Y-106107820D01*
X167769890Y-106279786D01*
X167920213Y-106430109D01*
X168092179Y-106555048D01*
X168092181Y-106555049D01*
X168092184Y-106555051D01*
X168281588Y-106651557D01*
X168483757Y-106717246D01*
X168693713Y-106750500D01*
X168693714Y-106750500D01*
X168906286Y-106750500D01*
X168906287Y-106750500D01*
X169116243Y-106717246D01*
X169318412Y-106651557D01*
X169507816Y-106555051D01*
X169529789Y-106539086D01*
X169679786Y-106430109D01*
X169679788Y-106430106D01*
X169679792Y-106430104D01*
X169830104Y-106279792D01*
X169830106Y-106279788D01*
X169830109Y-106279786D01*
X169955048Y-106107820D01*
X169955047Y-106107820D01*
X169955051Y-106107816D01*
X170051557Y-105918412D01*
X170117246Y-105716243D01*
X170150500Y-105506287D01*
X170150500Y-105293713D01*
X210549500Y-105293713D01*
X210549500Y-105506286D01*
X210582753Y-105716239D01*
X210648444Y-105918414D01*
X210744951Y-106107820D01*
X210869890Y-106279786D01*
X211020213Y-106430109D01*
X211192179Y-106555048D01*
X211192181Y-106555049D01*
X211192184Y-106555051D01*
X211381588Y-106651557D01*
X211583757Y-106717246D01*
X211793713Y-106750500D01*
X211793714Y-106750500D01*
X212006286Y-106750500D01*
X212006287Y-106750500D01*
X212216243Y-106717246D01*
X212418412Y-106651557D01*
X212607816Y-106555051D01*
X212629789Y-106539086D01*
X212779786Y-106430109D01*
X212779788Y-106430106D01*
X212779792Y-106430104D01*
X212930104Y-106279792D01*
X212930106Y-106279788D01*
X212930109Y-106279786D01*
X213055048Y-106107820D01*
X213055047Y-106107820D01*
X213055051Y-106107816D01*
X213151557Y-105918412D01*
X213217246Y-105716243D01*
X213250500Y-105506287D01*
X213250500Y-105293713D01*
X213217246Y-105083757D01*
X213151557Y-104881588D01*
X213055051Y-104692184D01*
X213055049Y-104692181D01*
X213055048Y-104692179D01*
X212930109Y-104520213D01*
X212779786Y-104369890D01*
X212607820Y-104244951D01*
X212418414Y-104148444D01*
X212418413Y-104148443D01*
X212418412Y-104148443D01*
X212216243Y-104082754D01*
X212216241Y-104082753D01*
X212216240Y-104082753D01*
X212054957Y-104057208D01*
X212006287Y-104049500D01*
X211793713Y-104049500D01*
X211745042Y-104057208D01*
X211583760Y-104082753D01*
X211381585Y-104148444D01*
X211192179Y-104244951D01*
X211020213Y-104369890D01*
X210869890Y-104520213D01*
X210744951Y-104692179D01*
X210648444Y-104881585D01*
X210582753Y-105083760D01*
X210549500Y-105293713D01*
X170150500Y-105293713D01*
X170117246Y-105083757D01*
X170051557Y-104881588D01*
X169955051Y-104692184D01*
X169955049Y-104692181D01*
X169955048Y-104692179D01*
X169830109Y-104520213D01*
X169679786Y-104369890D01*
X169507820Y-104244951D01*
X169318414Y-104148444D01*
X169318413Y-104148443D01*
X169318412Y-104148443D01*
X169116243Y-104082754D01*
X169116241Y-104082753D01*
X169116240Y-104082753D01*
X168954957Y-104057208D01*
X168906287Y-104049500D01*
X168693713Y-104049500D01*
X168645042Y-104057208D01*
X168483760Y-104082753D01*
X168281585Y-104148444D01*
X168092179Y-104244951D01*
X167920213Y-104369890D01*
X167769890Y-104520213D01*
X167644951Y-104692179D01*
X167548444Y-104881585D01*
X167482753Y-105083760D01*
X167449500Y-105293713D01*
X166900500Y-105293713D01*
X166900500Y-97466228D01*
X171224500Y-97466228D01*
X171224500Y-97633771D01*
X171257182Y-97798074D01*
X171257184Y-97798082D01*
X171321295Y-97952860D01*
X171414373Y-98092162D01*
X171532837Y-98210626D01*
X171625494Y-98272537D01*
X171672137Y-98303703D01*
X171826918Y-98367816D01*
X171991228Y-98400499D01*
X171991232Y-98400500D01*
X171991233Y-98400500D01*
X172158768Y-98400500D01*
X172158769Y-98400499D01*
X172323082Y-98367816D01*
X172477863Y-98303703D01*
X172617162Y-98210626D01*
X172735626Y-98092162D01*
X172828703Y-97952863D01*
X172892816Y-97798082D01*
X172925500Y-97633767D01*
X172925500Y-97466233D01*
X172892816Y-97301918D01*
X172828703Y-97147137D01*
X172797537Y-97100494D01*
X172735626Y-97007837D01*
X172617162Y-96889373D01*
X172477860Y-96796295D01*
X172323082Y-96732184D01*
X172323074Y-96732182D01*
X172158771Y-96699500D01*
X172158767Y-96699500D01*
X171991233Y-96699500D01*
X171991228Y-96699500D01*
X171826925Y-96732182D01*
X171826917Y-96732184D01*
X171672139Y-96796295D01*
X171532837Y-96889373D01*
X171414373Y-97007837D01*
X171321295Y-97147139D01*
X171257184Y-97301917D01*
X171257182Y-97301925D01*
X171224500Y-97466228D01*
X166900500Y-97466228D01*
X166900500Y-93200000D01*
X168597769Y-93200000D01*
X169641988Y-93200000D01*
X169609075Y-93257007D01*
X169575000Y-93384174D01*
X169575000Y-93515826D01*
X169609075Y-93642993D01*
X169641988Y-93700000D01*
X168597769Y-93700000D01*
X168608242Y-93766126D01*
X168608242Y-93766129D01*
X168673904Y-93968217D01*
X168770379Y-94157557D01*
X168895272Y-94329459D01*
X168895276Y-94329464D01*
X169045535Y-94479723D01*
X169045540Y-94479727D01*
X169217442Y-94604620D01*
X169335971Y-94665015D01*
X169386767Y-94712990D01*
X169403562Y-94780811D01*
X169381024Y-94846946D01*
X169326309Y-94890397D01*
X169279676Y-94899500D01*
X169270730Y-94899500D01*
X169240300Y-94902353D01*
X169240298Y-94902353D01*
X169112119Y-94947206D01*
X169112117Y-94947207D01*
X169002850Y-95027850D01*
X168922207Y-95137117D01*
X168922206Y-95137119D01*
X168877353Y-95265298D01*
X168877353Y-95265300D01*
X168874500Y-95295730D01*
X168874500Y-96604269D01*
X168877353Y-96634699D01*
X168877353Y-96634701D01*
X168911465Y-96732184D01*
X168922207Y-96762882D01*
X169002850Y-96872150D01*
X169112118Y-96952793D01*
X169154845Y-96967744D01*
X169240299Y-96997646D01*
X169270730Y-97000500D01*
X169270734Y-97000500D01*
X170879270Y-97000500D01*
X170909699Y-96997646D01*
X170909701Y-96997646D01*
X170973790Y-96975219D01*
X171037882Y-96952793D01*
X171147150Y-96872150D01*
X171227793Y-96762882D01*
X171253133Y-96690464D01*
X171272646Y-96634701D01*
X171272646Y-96634699D01*
X171275500Y-96604269D01*
X171275500Y-95295730D01*
X171272646Y-95265300D01*
X171272646Y-95265298D01*
X171227793Y-95137119D01*
X171227792Y-95137117D01*
X171206982Y-95108920D01*
X171147150Y-95027850D01*
X171037882Y-94947207D01*
X171037880Y-94947206D01*
X170909700Y-94902353D01*
X170879270Y-94899500D01*
X170879266Y-94899500D01*
X170870324Y-94899500D01*
X170803285Y-94879815D01*
X170757530Y-94827011D01*
X170747586Y-94757853D01*
X170776611Y-94694297D01*
X170814029Y-94665015D01*
X170932557Y-94604620D01*
X171104459Y-94479727D01*
X171104464Y-94479723D01*
X171254723Y-94329464D01*
X171254727Y-94329459D01*
X171379620Y-94157557D01*
X171476095Y-93968217D01*
X171541757Y-93766129D01*
X171541757Y-93766126D01*
X171552231Y-93700000D01*
X170508012Y-93700000D01*
X170540925Y-93642993D01*
X170575000Y-93515826D01*
X170575000Y-93384174D01*
X170540925Y-93257007D01*
X170508012Y-93200000D01*
X171552231Y-93200000D01*
X171541757Y-93133873D01*
X171541757Y-93133870D01*
X171476095Y-92931782D01*
X171379620Y-92742442D01*
X171254727Y-92570540D01*
X171254723Y-92570535D01*
X171104464Y-92420276D01*
X171104459Y-92420272D01*
X170932557Y-92295379D01*
X170743217Y-92198904D01*
X170541129Y-92133242D01*
X170331246Y-92100000D01*
X170325000Y-92100000D01*
X170325000Y-93016988D01*
X170267993Y-92984075D01*
X170140826Y-92950000D01*
X170009174Y-92950000D01*
X169882007Y-92984075D01*
X169825000Y-93016988D01*
X169825000Y-92100000D01*
X169818754Y-92100000D01*
X169608872Y-92133242D01*
X169608869Y-92133242D01*
X169406782Y-92198904D01*
X169217442Y-92295379D01*
X169045540Y-92420272D01*
X169045535Y-92420276D01*
X168895276Y-92570535D01*
X168895272Y-92570540D01*
X168770379Y-92742442D01*
X168673904Y-92931782D01*
X168608242Y-93133870D01*
X168608242Y-93133873D01*
X168597769Y-93200000D01*
X166900500Y-93200000D01*
X166900500Y-91150000D01*
X172594353Y-91150000D01*
X172614834Y-91292456D01*
X172645660Y-91359954D01*
X172674623Y-91423373D01*
X172768872Y-91532143D01*
X172889947Y-91609953D01*
X172889950Y-91609954D01*
X172889949Y-91609954D01*
X172997107Y-91641417D01*
X173025280Y-91649690D01*
X173028036Y-91650499D01*
X173028038Y-91650500D01*
X173028039Y-91650500D01*
X173171962Y-91650500D01*
X173171962Y-91650499D01*
X173310053Y-91609953D01*
X173431128Y-91532143D01*
X173464788Y-91493296D01*
X173523567Y-91455523D01*
X173558501Y-91450500D01*
X173916499Y-91450500D01*
X173983538Y-91470185D01*
X174010211Y-91493296D01*
X174043872Y-91532143D01*
X174164947Y-91609953D01*
X174164950Y-91609954D01*
X174164949Y-91609954D01*
X174272107Y-91641417D01*
X174300280Y-91649690D01*
X174303036Y-91650499D01*
X174303038Y-91650500D01*
X174399167Y-91650500D01*
X174466206Y-91670185D01*
X174486848Y-91686819D01*
X179434540Y-96634511D01*
X179490489Y-96690460D01*
X179490491Y-96690461D01*
X179490495Y-96690464D01*
X179547493Y-96723371D01*
X179559011Y-96730021D01*
X179635438Y-96750500D01*
X179714562Y-96750500D01*
X185341499Y-96750500D01*
X185408538Y-96770185D01*
X185435211Y-96793296D01*
X185468872Y-96832143D01*
X185589947Y-96909953D01*
X185589950Y-96909954D01*
X185589949Y-96909954D01*
X185728036Y-96950499D01*
X185728038Y-96950500D01*
X185728039Y-96950500D01*
X185871962Y-96950500D01*
X185871962Y-96950499D01*
X186010053Y-96909953D01*
X186131128Y-96832143D01*
X186131285Y-96831961D01*
X186131486Y-96831832D01*
X186137828Y-96826337D01*
X186138617Y-96827248D01*
X186190059Y-96794186D01*
X186259929Y-96794182D01*
X186311384Y-96827246D01*
X186312172Y-96826337D01*
X186318492Y-96831813D01*
X186318705Y-96831950D01*
X186318872Y-96832143D01*
X186318873Y-96832144D01*
X186348342Y-96851082D01*
X186439947Y-96909953D01*
X186439950Y-96909954D01*
X186439949Y-96909954D01*
X186578036Y-96950499D01*
X186578038Y-96950500D01*
X186578039Y-96950500D01*
X186721962Y-96950500D01*
X186721962Y-96950499D01*
X186860053Y-96909953D01*
X186981128Y-96832143D01*
X187075377Y-96723373D01*
X187135165Y-96592457D01*
X187155647Y-96450000D01*
X187135165Y-96307543D01*
X187075377Y-96176627D01*
X186981128Y-96067857D01*
X186860053Y-95990047D01*
X186860051Y-95990046D01*
X186860049Y-95990045D01*
X186860050Y-95990045D01*
X186721963Y-95949500D01*
X186721961Y-95949500D01*
X186578039Y-95949500D01*
X186578036Y-95949500D01*
X186439949Y-95990045D01*
X186318872Y-96067857D01*
X186318711Y-96068043D01*
X186318504Y-96068175D01*
X186312172Y-96073663D01*
X186311382Y-96072752D01*
X186259932Y-96105816D01*
X186190063Y-96105814D01*
X186138617Y-96072752D01*
X186137828Y-96073663D01*
X186131495Y-96068175D01*
X186131289Y-96068043D01*
X186131128Y-96067857D01*
X186010053Y-95990047D01*
X186010051Y-95990046D01*
X186010049Y-95990045D01*
X186010050Y-95990045D01*
X185871963Y-95949500D01*
X185871961Y-95949500D01*
X185728039Y-95949500D01*
X185728036Y-95949500D01*
X185589949Y-95990045D01*
X185468873Y-96067856D01*
X185468872Y-96067856D01*
X185468872Y-96067857D01*
X185435981Y-96105816D01*
X185435212Y-96106703D01*
X185376433Y-96144477D01*
X185341499Y-96149500D01*
X179850833Y-96149500D01*
X179783794Y-96129815D01*
X179763152Y-96113181D01*
X179379970Y-95729999D01*
X202079364Y-95729999D01*
X202079364Y-95730000D01*
X202976988Y-95730000D01*
X202944075Y-95787007D01*
X202910000Y-95914174D01*
X202910000Y-96045826D01*
X202944075Y-96172993D01*
X202976988Y-96230000D01*
X202079364Y-96230000D01*
X202136567Y-96443486D01*
X202136570Y-96443492D01*
X202236399Y-96657578D01*
X202371894Y-96851082D01*
X202538917Y-97018105D01*
X202732421Y-97153600D01*
X202902948Y-97233118D01*
X202955387Y-97279290D01*
X202974539Y-97346484D01*
X202954323Y-97413365D01*
X202901158Y-97458700D01*
X202850543Y-97469500D01*
X202540247Y-97469500D01*
X202481770Y-97481131D01*
X202481769Y-97481132D01*
X202415447Y-97525447D01*
X202371132Y-97591769D01*
X202371131Y-97591770D01*
X202359500Y-97650247D01*
X202359500Y-99389752D01*
X202371131Y-99448229D01*
X202371132Y-99448230D01*
X202415447Y-99514552D01*
X202481769Y-99558867D01*
X202481770Y-99558868D01*
X202540247Y-99570499D01*
X202540250Y-99570500D01*
X202540252Y-99570500D01*
X204279750Y-99570500D01*
X204279751Y-99570499D01*
X204294568Y-99567552D01*
X204338229Y-99558868D01*
X204338229Y-99558867D01*
X204338231Y-99558867D01*
X204404552Y-99514552D01*
X204448867Y-99448231D01*
X204448867Y-99448229D01*
X204448868Y-99448229D01*
X204460499Y-99389752D01*
X204460500Y-99389750D01*
X204460500Y-97650249D01*
X204460499Y-97650247D01*
X204448868Y-97591770D01*
X204448867Y-97591769D01*
X204404552Y-97525447D01*
X204338230Y-97481132D01*
X204338229Y-97481131D01*
X204279752Y-97469500D01*
X204279748Y-97469500D01*
X203969457Y-97469500D01*
X203902418Y-97449815D01*
X203856663Y-97397011D01*
X203846719Y-97327853D01*
X203875744Y-97264297D01*
X203917052Y-97233118D01*
X204087578Y-97153600D01*
X204281082Y-97018105D01*
X204448105Y-96851082D01*
X204583600Y-96657578D01*
X204683429Y-96443492D01*
X204683432Y-96443486D01*
X204740636Y-96230000D01*
X203843012Y-96230000D01*
X203875925Y-96172993D01*
X203910000Y-96045826D01*
X203910000Y-95914174D01*
X203875925Y-95787007D01*
X203843012Y-95730000D01*
X204740636Y-95730000D01*
X204740635Y-95729999D01*
X204683432Y-95516513D01*
X204683429Y-95516507D01*
X204583600Y-95302422D01*
X204583599Y-95302420D01*
X204448113Y-95108926D01*
X204448108Y-95108920D01*
X204281082Y-94941894D01*
X204087578Y-94806399D01*
X203873492Y-94706570D01*
X203873486Y-94706567D01*
X203751349Y-94673841D01*
X203691689Y-94637476D01*
X203661160Y-94574629D01*
X203669455Y-94505253D01*
X203713940Y-94451375D01*
X203747444Y-94435407D01*
X203813954Y-94415232D01*
X203996450Y-94317685D01*
X204156410Y-94186410D01*
X204287685Y-94026450D01*
X204385232Y-93843954D01*
X204389919Y-93828503D01*
X204428217Y-93770065D01*
X204492030Y-93741609D01*
X204508579Y-93740500D01*
X207376160Y-93740500D01*
X207443199Y-93760185D01*
X207462029Y-93776501D01*
X207462172Y-93776337D01*
X207468868Y-93782138D01*
X207468872Y-93782143D01*
X207589947Y-93859953D01*
X207589950Y-93859954D01*
X207589949Y-93859954D01*
X207728036Y-93900499D01*
X207728038Y-93900500D01*
X207728039Y-93900500D01*
X207871962Y-93900500D01*
X207871962Y-93900499D01*
X208010053Y-93859953D01*
X208131128Y-93782143D01*
X208225377Y-93673373D01*
X208285165Y-93542457D01*
X208305647Y-93400000D01*
X208285165Y-93257543D01*
X208225377Y-93126627D01*
X208225375Y-93126625D01*
X208225374Y-93126622D01*
X208130787Y-93017462D01*
X208101762Y-92953906D01*
X208100500Y-92936260D01*
X208100500Y-92463738D01*
X208120185Y-92396699D01*
X208130787Y-92382535D01*
X208131124Y-92382144D01*
X208131128Y-92382143D01*
X208225377Y-92273373D01*
X208285165Y-92142457D01*
X208305647Y-92000000D01*
X208285165Y-91857543D01*
X208225377Y-91726627D01*
X208131128Y-91617857D01*
X208010053Y-91540047D01*
X208010051Y-91540046D01*
X208010049Y-91540045D01*
X208010050Y-91540045D01*
X207871963Y-91499500D01*
X207871961Y-91499500D01*
X207728039Y-91499500D01*
X207728036Y-91499500D01*
X207589949Y-91540045D01*
X207468873Y-91617856D01*
X207374623Y-91726626D01*
X207374622Y-91726628D01*
X207314834Y-91857543D01*
X207294353Y-92000000D01*
X207314834Y-92142456D01*
X207374622Y-92273371D01*
X207374623Y-92273373D01*
X207468872Y-92382143D01*
X207468875Y-92382144D01*
X207469213Y-92382535D01*
X207498238Y-92446091D01*
X207499500Y-92463738D01*
X207499500Y-92936260D01*
X207479815Y-93003299D01*
X207469213Y-93017462D01*
X207400552Y-93096702D01*
X207341775Y-93134477D01*
X207306839Y-93139500D01*
X204508579Y-93139500D01*
X204441540Y-93119815D01*
X204395785Y-93067011D01*
X204389919Y-93051497D01*
X204389435Y-93049901D01*
X204385232Y-93036046D01*
X204287685Y-92853550D01*
X204196502Y-92742442D01*
X204156410Y-92693589D01*
X203996452Y-92562317D01*
X203996453Y-92562317D01*
X203996450Y-92562315D01*
X203813954Y-92464768D01*
X203615934Y-92404700D01*
X203615932Y-92404699D01*
X203615934Y-92404699D01*
X203410000Y-92384417D01*
X203204067Y-92404699D01*
X203028692Y-92457898D01*
X203009442Y-92463738D01*
X203006043Y-92464769D01*
X202895898Y-92523643D01*
X202823550Y-92562315D01*
X202823548Y-92562316D01*
X202823547Y-92562317D01*
X202663589Y-92693589D01*
X202532317Y-92853547D01*
X202434769Y-93036043D01*
X202374699Y-93234067D01*
X202354417Y-93440000D01*
X202374699Y-93645932D01*
X202401569Y-93734511D01*
X202434768Y-93843954D01*
X202532315Y-94026450D01*
X202552052Y-94050500D01*
X202663589Y-94186410D01*
X202760209Y-94265702D01*
X202823550Y-94317685D01*
X203006046Y-94415232D01*
X203072551Y-94435405D01*
X203130989Y-94473702D01*
X203159446Y-94537514D01*
X203148887Y-94606581D01*
X203102663Y-94658975D01*
X203068650Y-94673841D01*
X202946514Y-94706567D01*
X202946507Y-94706570D01*
X202732422Y-94806399D01*
X202732420Y-94806400D01*
X202538926Y-94941886D01*
X202538920Y-94941891D01*
X202371891Y-95108920D01*
X202371886Y-95108926D01*
X202236400Y-95302420D01*
X202236399Y-95302422D01*
X202136570Y-95516507D01*
X202136567Y-95516513D01*
X202079364Y-95729999D01*
X179379970Y-95729999D01*
X174914395Y-91264424D01*
X174880910Y-91203101D01*
X174879339Y-91159094D01*
X174880647Y-91150000D01*
X174860165Y-91007543D01*
X174800377Y-90876627D01*
X174706128Y-90767857D01*
X174585053Y-90690047D01*
X174585051Y-90690046D01*
X174585049Y-90690045D01*
X174585050Y-90690045D01*
X174446963Y-90649500D01*
X174446961Y-90649500D01*
X174303039Y-90649500D01*
X174303036Y-90649500D01*
X174164949Y-90690045D01*
X174043873Y-90767856D01*
X174010212Y-90806703D01*
X173951433Y-90844477D01*
X173916499Y-90849500D01*
X173558501Y-90849500D01*
X173491462Y-90829815D01*
X173464788Y-90806703D01*
X173431128Y-90767857D01*
X173310053Y-90690047D01*
X173310051Y-90690046D01*
X173310049Y-90690045D01*
X173310050Y-90690045D01*
X173171963Y-90649500D01*
X173171961Y-90649500D01*
X173028039Y-90649500D01*
X173028036Y-90649500D01*
X172889949Y-90690045D01*
X172768873Y-90767856D01*
X172674623Y-90876626D01*
X172674622Y-90876628D01*
X172614834Y-91007543D01*
X172594353Y-91150000D01*
X166900500Y-91150000D01*
X166900500Y-88200000D01*
X174694353Y-88200000D01*
X174714834Y-88342456D01*
X174763568Y-88449167D01*
X174774623Y-88473373D01*
X174868872Y-88582143D01*
X174989947Y-88659953D01*
X174989950Y-88659954D01*
X174989949Y-88659954D01*
X175046737Y-88676628D01*
X175125280Y-88699690D01*
X175128036Y-88700499D01*
X175128038Y-88700500D01*
X175224167Y-88700500D01*
X175291206Y-88720185D01*
X175311848Y-88736819D01*
X175410604Y-88835575D01*
X175444089Y-88896898D01*
X175445661Y-88940902D01*
X175444353Y-88949999D01*
X175464834Y-89092456D01*
X175501368Y-89172453D01*
X175524623Y-89223373D01*
X175618872Y-89332143D01*
X175739947Y-89409953D01*
X175844119Y-89440540D01*
X175896864Y-89471835D01*
X180159540Y-93734511D01*
X180215489Y-93790460D01*
X180215491Y-93790461D01*
X180215495Y-93790464D01*
X180272493Y-93823371D01*
X180284011Y-93830021D01*
X180360438Y-93850500D01*
X180439562Y-93850500D01*
X188791499Y-93850500D01*
X188858538Y-93870185D01*
X188885211Y-93893296D01*
X188918872Y-93932143D01*
X189039947Y-94009953D01*
X189039950Y-94009954D01*
X189039949Y-94009954D01*
X189178036Y-94050499D01*
X189178038Y-94050500D01*
X189178039Y-94050500D01*
X189321962Y-94050500D01*
X189321962Y-94050499D01*
X189460053Y-94009953D01*
X189581128Y-93932143D01*
X189675377Y-93823373D01*
X189735165Y-93692457D01*
X189755647Y-93550000D01*
X189735165Y-93407543D01*
X189675377Y-93276627D01*
X189632456Y-93227093D01*
X189603432Y-93163539D01*
X189613376Y-93094381D01*
X189621858Y-93078847D01*
X189625368Y-93073382D01*
X189625377Y-93073373D01*
X189685165Y-92942457D01*
X189705647Y-92800000D01*
X189685165Y-92657543D01*
X189625377Y-92526627D01*
X189531128Y-92417857D01*
X189410053Y-92340047D01*
X189410051Y-92340046D01*
X189410049Y-92340045D01*
X189410050Y-92340045D01*
X189271963Y-92299500D01*
X189271961Y-92299500D01*
X189128039Y-92299500D01*
X189128036Y-92299500D01*
X188989949Y-92340045D01*
X188868873Y-92417856D01*
X188868872Y-92417856D01*
X188868872Y-92417857D01*
X188866776Y-92420276D01*
X188774623Y-92526626D01*
X188774622Y-92526628D01*
X188714834Y-92657543D01*
X188694353Y-92800000D01*
X188714834Y-92942456D01*
X188774904Y-93073988D01*
X188784848Y-93143147D01*
X188755823Y-93206702D01*
X188697045Y-93244477D01*
X188662110Y-93249500D01*
X180575833Y-93249500D01*
X180508794Y-93229815D01*
X180488152Y-93213181D01*
X178174971Y-90900000D01*
X202354417Y-90900000D01*
X202374699Y-91105932D01*
X202395157Y-91173373D01*
X202434768Y-91303954D01*
X202532315Y-91486450D01*
X202532317Y-91486452D01*
X202663589Y-91646410D01*
X202760209Y-91725702D01*
X202823550Y-91777685D01*
X203006046Y-91875232D01*
X203204066Y-91935300D01*
X203204065Y-91935300D01*
X203222529Y-91937118D01*
X203410000Y-91955583D01*
X203615934Y-91935300D01*
X203813954Y-91875232D01*
X203996450Y-91777685D01*
X204156410Y-91646410D01*
X204287685Y-91486450D01*
X204385232Y-91303954D01*
X204389919Y-91288503D01*
X204428217Y-91230065D01*
X204492030Y-91201609D01*
X204508579Y-91200500D01*
X209391499Y-91200500D01*
X209458538Y-91220185D01*
X209485211Y-91243296D01*
X209518872Y-91282143D01*
X209639947Y-91359953D01*
X209639950Y-91359954D01*
X209639949Y-91359954D01*
X209778036Y-91400499D01*
X209778038Y-91400500D01*
X209778039Y-91400500D01*
X209921962Y-91400500D01*
X209921962Y-91400499D01*
X210060053Y-91359953D01*
X210181128Y-91282143D01*
X210275377Y-91173373D01*
X210335165Y-91042457D01*
X210355647Y-90900000D01*
X210354339Y-90890905D01*
X210364279Y-90821749D01*
X210389390Y-90785579D01*
X210463153Y-90711816D01*
X210524475Y-90678334D01*
X210550832Y-90675500D01*
X210646962Y-90675500D01*
X210646962Y-90675499D01*
X210785053Y-90634953D01*
X210906128Y-90557143D01*
X211000377Y-90448373D01*
X211060165Y-90317457D01*
X211080647Y-90175000D01*
X211060165Y-90032543D01*
X211000377Y-89901627D01*
X210906128Y-89792857D01*
X210785053Y-89715047D01*
X210785051Y-89715046D01*
X210785049Y-89715045D01*
X210785050Y-89715045D01*
X210646963Y-89674500D01*
X210646961Y-89674500D01*
X210503039Y-89674500D01*
X210503036Y-89674500D01*
X210364949Y-89715045D01*
X210243873Y-89792856D01*
X210149623Y-89901626D01*
X210149622Y-89901628D01*
X210089834Y-90032543D01*
X210069353Y-90175000D01*
X210069353Y-90175001D01*
X210070661Y-90184103D01*
X210060713Y-90253261D01*
X210035604Y-90289424D01*
X209961845Y-90363182D01*
X209900525Y-90396666D01*
X209874166Y-90399500D01*
X209778036Y-90399500D01*
X209639949Y-90440045D01*
X209518873Y-90517856D01*
X209485212Y-90556703D01*
X209426433Y-90594477D01*
X209391499Y-90599500D01*
X204508579Y-90599500D01*
X204441540Y-90579815D01*
X204395785Y-90527011D01*
X204389919Y-90511497D01*
X204389677Y-90510701D01*
X204385232Y-90496046D01*
X204287685Y-90313550D01*
X204229340Y-90242456D01*
X204156410Y-90153589D01*
X203996452Y-90022317D01*
X203996453Y-90022317D01*
X203996450Y-90022315D01*
X203813954Y-89924768D01*
X203615934Y-89864700D01*
X203615932Y-89864699D01*
X203615934Y-89864699D01*
X203410000Y-89844417D01*
X203204067Y-89864699D01*
X203006043Y-89924769D01*
X202895898Y-89983643D01*
X202823550Y-90022315D01*
X202823548Y-90022316D01*
X202823547Y-90022317D01*
X202663589Y-90153589D01*
X202532317Y-90313547D01*
X202532315Y-90313550D01*
X202502276Y-90369748D01*
X202434769Y-90496043D01*
X202374699Y-90694067D01*
X202354417Y-90900000D01*
X178174971Y-90900000D01*
X176470540Y-89195569D01*
X176437055Y-89134246D01*
X176435483Y-89090244D01*
X176455647Y-88950000D01*
X176435165Y-88807543D01*
X176375377Y-88676627D01*
X176291650Y-88580000D01*
X179119355Y-88580000D01*
X179139859Y-88748869D01*
X179139860Y-88748874D01*
X179195998Y-88896898D01*
X179200182Y-88907930D01*
X179262983Y-88998913D01*
X179284866Y-89065266D01*
X179267401Y-89132918D01*
X179229826Y-89172453D01*
X179180447Y-89205447D01*
X179136132Y-89271769D01*
X179136131Y-89271770D01*
X179124500Y-89330247D01*
X179124500Y-90369752D01*
X179136131Y-90428229D01*
X179136132Y-90428230D01*
X179180447Y-90494552D01*
X179246769Y-90538867D01*
X179246770Y-90538868D01*
X179305247Y-90550499D01*
X179305250Y-90550500D01*
X179305252Y-90550500D01*
X180344750Y-90550500D01*
X180344751Y-90550499D01*
X180359568Y-90547552D01*
X180403229Y-90538868D01*
X180403229Y-90538867D01*
X180403231Y-90538867D01*
X180469552Y-90494552D01*
X180513867Y-90428231D01*
X180513867Y-90428229D01*
X180513868Y-90428229D01*
X180525499Y-90369752D01*
X180525500Y-90369750D01*
X180525500Y-89330249D01*
X180525499Y-89330247D01*
X180513868Y-89271770D01*
X180513867Y-89271769D01*
X180469551Y-89205446D01*
X180420174Y-89172453D01*
X180375370Y-89118841D01*
X180366663Y-89049516D01*
X180387015Y-88998914D01*
X180449818Y-88907930D01*
X180510140Y-88748872D01*
X180530645Y-88580000D01*
X180510140Y-88411128D01*
X180449818Y-88252070D01*
X180428301Y-88220898D01*
X180385973Y-88159575D01*
X180353183Y-88112071D01*
X180258316Y-88028026D01*
X180225849Y-87999263D01*
X180075226Y-87920210D01*
X179910056Y-87879500D01*
X179739944Y-87879500D01*
X179574773Y-87920210D01*
X179424150Y-87999263D01*
X179296816Y-88112072D01*
X179200182Y-88252068D01*
X179139860Y-88411125D01*
X179139859Y-88411130D01*
X179119355Y-88580000D01*
X176291650Y-88580000D01*
X176281128Y-88567857D01*
X176160053Y-88490047D01*
X176160051Y-88490046D01*
X176160049Y-88490045D01*
X176160050Y-88490045D01*
X176021963Y-88449500D01*
X176021961Y-88449500D01*
X175925833Y-88449500D01*
X175858794Y-88429815D01*
X175838152Y-88413181D01*
X175739395Y-88314424D01*
X175705910Y-88253101D01*
X175704339Y-88209094D01*
X175705647Y-88200000D01*
X175685165Y-88057543D01*
X175625377Y-87926627D01*
X175531128Y-87817857D01*
X175410053Y-87740047D01*
X175410051Y-87740046D01*
X175410049Y-87740045D01*
X175410050Y-87740045D01*
X175271963Y-87699500D01*
X175271961Y-87699500D01*
X175128039Y-87699500D01*
X175128036Y-87699500D01*
X174989949Y-87740045D01*
X174868873Y-87817856D01*
X174774623Y-87926626D01*
X174774622Y-87926628D01*
X174714834Y-88057543D01*
X174694353Y-88200000D01*
X166900500Y-88200000D01*
X166900500Y-85770000D01*
X176594353Y-85770000D01*
X176614834Y-85912456D01*
X176628718Y-85942857D01*
X176674623Y-86043373D01*
X176768872Y-86152143D01*
X176889947Y-86229953D01*
X176889950Y-86229954D01*
X176889949Y-86229954D01*
X177028036Y-86270499D01*
X177028038Y-86270500D01*
X177028039Y-86270500D01*
X177171962Y-86270500D01*
X177171962Y-86270499D01*
X177310050Y-86229954D01*
X177310051Y-86229954D01*
X177310053Y-86229953D01*
X177420755Y-86158808D01*
X177487791Y-86139125D01*
X177554831Y-86158809D01*
X177575473Y-86175444D01*
X177610604Y-86210575D01*
X177644089Y-86271898D01*
X177645661Y-86315902D01*
X177644353Y-86324999D01*
X177664834Y-86467456D01*
X177724622Y-86598371D01*
X177724623Y-86598373D01*
X177818872Y-86707143D01*
X177939947Y-86784953D01*
X177939950Y-86784954D01*
X177939949Y-86784954D01*
X178078036Y-86825499D01*
X178078038Y-86825500D01*
X178078039Y-86825500D01*
X178221962Y-86825500D01*
X178221962Y-86825499D01*
X178329121Y-86794035D01*
X178360050Y-86784954D01*
X178360050Y-86784953D01*
X178360053Y-86784953D01*
X178481128Y-86707143D01*
X178514788Y-86668296D01*
X178573567Y-86630523D01*
X178608501Y-86625500D01*
X181316499Y-86625500D01*
X181383538Y-86645185D01*
X181410210Y-86668295D01*
X181443872Y-86707143D01*
X181443874Y-86707144D01*
X181444212Y-86707534D01*
X181473238Y-86771089D01*
X181474500Y-86788738D01*
X181474500Y-86936260D01*
X181454815Y-87003299D01*
X181444213Y-87017462D01*
X181349625Y-87126622D01*
X181349622Y-87126628D01*
X181289834Y-87257543D01*
X181269353Y-87400000D01*
X181289834Y-87542456D01*
X181310703Y-87588152D01*
X181349623Y-87673373D01*
X181443872Y-87782143D01*
X181564947Y-87859953D01*
X181564950Y-87859954D01*
X181564949Y-87859954D01*
X181703036Y-87900499D01*
X181703038Y-87900500D01*
X181703039Y-87900500D01*
X181846962Y-87900500D01*
X181846962Y-87900499D01*
X181985053Y-87859953D01*
X182106128Y-87782143D01*
X182200377Y-87673373D01*
X182260165Y-87542457D01*
X182280647Y-87400000D01*
X182260165Y-87257543D01*
X182200377Y-87126627D01*
X182200375Y-87126625D01*
X182200374Y-87126622D01*
X182105787Y-87017462D01*
X182076762Y-86953906D01*
X182075500Y-86936260D01*
X182075500Y-86788738D01*
X182095185Y-86721699D01*
X182105787Y-86707535D01*
X182106124Y-86707144D01*
X182106128Y-86707143D01*
X182200377Y-86598373D01*
X182260165Y-86467457D01*
X182280647Y-86325000D01*
X182260165Y-86182543D01*
X182200377Y-86051627D01*
X182106128Y-85942857D01*
X181985053Y-85865047D01*
X181985051Y-85865046D01*
X181985049Y-85865045D01*
X181985050Y-85865045D01*
X181846963Y-85824500D01*
X181846961Y-85824500D01*
X181703039Y-85824500D01*
X181703036Y-85824500D01*
X181564949Y-85865045D01*
X181443873Y-85942856D01*
X181410212Y-85981703D01*
X181351433Y-86019477D01*
X181316499Y-86024500D01*
X178608501Y-86024500D01*
X178541462Y-86004815D01*
X178514788Y-85981703D01*
X178481128Y-85942857D01*
X178360053Y-85865047D01*
X178360051Y-85865046D01*
X178360049Y-85865045D01*
X178360050Y-85865045D01*
X178221963Y-85824500D01*
X178221961Y-85824500D01*
X178125833Y-85824500D01*
X178058794Y-85804815D01*
X178038152Y-85788181D01*
X177779512Y-85529541D01*
X177779511Y-85529540D01*
X177754181Y-85514916D01*
X177754181Y-85514914D01*
X177754178Y-85514914D01*
X177710994Y-85489981D01*
X177710991Y-85489979D01*
X177672775Y-85479739D01*
X177634562Y-85469500D01*
X177634560Y-85469500D01*
X177558501Y-85469500D01*
X177491462Y-85449815D01*
X177464788Y-85426703D01*
X177431128Y-85387857D01*
X177310053Y-85310047D01*
X177310051Y-85310046D01*
X177310049Y-85310045D01*
X177310050Y-85310045D01*
X177171963Y-85269500D01*
X177171961Y-85269500D01*
X177028039Y-85269500D01*
X177028036Y-85269500D01*
X176889949Y-85310045D01*
X176768873Y-85387856D01*
X176674623Y-85496626D01*
X176674622Y-85496628D01*
X176614834Y-85627543D01*
X176594353Y-85770000D01*
X166900500Y-85770000D01*
X166900500Y-79725000D01*
X171794353Y-79725000D01*
X171814834Y-79867456D01*
X171874622Y-79998371D01*
X171874623Y-79998373D01*
X171968872Y-80107143D01*
X171968875Y-80107144D01*
X171969213Y-80107535D01*
X171998238Y-80171091D01*
X171999500Y-80188738D01*
X171999500Y-80236260D01*
X171979815Y-80303299D01*
X171969213Y-80317462D01*
X171874625Y-80426622D01*
X171874622Y-80426628D01*
X171814834Y-80557543D01*
X171794353Y-80700000D01*
X171814834Y-80842456D01*
X171874622Y-80973371D01*
X171874623Y-80973373D01*
X171968872Y-81082143D01*
X172089947Y-81159953D01*
X172089950Y-81159954D01*
X172089949Y-81159954D01*
X172197107Y-81191417D01*
X172225280Y-81199690D01*
X172228036Y-81200499D01*
X172228038Y-81200500D01*
X172228039Y-81200500D01*
X172371962Y-81200500D01*
X172371962Y-81200499D01*
X172510053Y-81159953D01*
X172631128Y-81082143D01*
X172664788Y-81043296D01*
X172723567Y-81005523D01*
X172758501Y-81000500D01*
X176541499Y-81000500D01*
X176608538Y-81020185D01*
X176635211Y-81043296D01*
X176668872Y-81082143D01*
X176789947Y-81159953D01*
X176789950Y-81159954D01*
X176789949Y-81159954D01*
X176897107Y-81191417D01*
X176925280Y-81199690D01*
X176928036Y-81200499D01*
X176928038Y-81200500D01*
X176928039Y-81200500D01*
X177071962Y-81200500D01*
X177071962Y-81200499D01*
X177210053Y-81159953D01*
X177331128Y-81082143D01*
X177356288Y-81053105D01*
X177415065Y-81015333D01*
X177484935Y-81015333D01*
X177543711Y-81053105D01*
X177568872Y-81082143D01*
X177689947Y-81159953D01*
X177689950Y-81159954D01*
X177689949Y-81159954D01*
X177797107Y-81191417D01*
X177825280Y-81199690D01*
X177828036Y-81200499D01*
X177828038Y-81200500D01*
X177828039Y-81200500D01*
X177971962Y-81200500D01*
X177971962Y-81200499D01*
X178110053Y-81159953D01*
X178231128Y-81082143D01*
X178325377Y-80973373D01*
X178385165Y-80842457D01*
X178405647Y-80700000D01*
X178385165Y-80557543D01*
X178325377Y-80426627D01*
X178231128Y-80317857D01*
X178110053Y-80240047D01*
X178110051Y-80240046D01*
X178110049Y-80240045D01*
X178110050Y-80240045D01*
X177971963Y-80199500D01*
X177971961Y-80199500D01*
X177828039Y-80199500D01*
X177828036Y-80199500D01*
X177689949Y-80240045D01*
X177568872Y-80317856D01*
X177543712Y-80346893D01*
X177484933Y-80384667D01*
X177415064Y-80384666D01*
X177356288Y-80346893D01*
X177331127Y-80317856D01*
X177284502Y-80287892D01*
X177210053Y-80240047D01*
X177210051Y-80240046D01*
X177210049Y-80240045D01*
X177210050Y-80240045D01*
X177071963Y-80199500D01*
X177071961Y-80199500D01*
X176928039Y-80199500D01*
X176928036Y-80199500D01*
X176789949Y-80240045D01*
X176668873Y-80317856D01*
X176635212Y-80356703D01*
X176576433Y-80394477D01*
X176541499Y-80399500D01*
X172758501Y-80399500D01*
X172691462Y-80379815D01*
X172664787Y-80356702D01*
X172662090Y-80353590D01*
X172631128Y-80317857D01*
X172630786Y-80317462D01*
X172601762Y-80253906D01*
X172600500Y-80236260D01*
X172600500Y-80188738D01*
X172620185Y-80121699D01*
X172630787Y-80107535D01*
X172631124Y-80107144D01*
X172631128Y-80107143D01*
X172725377Y-79998373D01*
X172785165Y-79867457D01*
X172805647Y-79725000D01*
X172798458Y-79675000D01*
X179094355Y-79675000D01*
X179114859Y-79843869D01*
X179114860Y-79843874D01*
X179147950Y-79931125D01*
X179175182Y-80002930D01*
X179237983Y-80093913D01*
X179259866Y-80160266D01*
X179242401Y-80227918D01*
X179204826Y-80267453D01*
X179155447Y-80300447D01*
X179111132Y-80366769D01*
X179111131Y-80366770D01*
X179099500Y-80425247D01*
X179099500Y-81464752D01*
X179111131Y-81523229D01*
X179111132Y-81523230D01*
X179155447Y-81589552D01*
X179221769Y-81633867D01*
X179221770Y-81633868D01*
X179280247Y-81645499D01*
X179280250Y-81645500D01*
X179280252Y-81645500D01*
X179375500Y-81645500D01*
X179442539Y-81665185D01*
X179488294Y-81717989D01*
X179499500Y-81769500D01*
X179499500Y-83436260D01*
X179479815Y-83503299D01*
X179469213Y-83517462D01*
X179374625Y-83626622D01*
X179374622Y-83626628D01*
X179314834Y-83757543D01*
X179294353Y-83900000D01*
X179314834Y-84042456D01*
X179345660Y-84109954D01*
X179374623Y-84173373D01*
X179468872Y-84282143D01*
X179468875Y-84282144D01*
X179469213Y-84282535D01*
X179498238Y-84346091D01*
X179499500Y-84363738D01*
X179499500Y-84386260D01*
X179479815Y-84453299D01*
X179469213Y-84467462D01*
X179374625Y-84576622D01*
X179374622Y-84576628D01*
X179314834Y-84707543D01*
X179294353Y-84850000D01*
X179314834Y-84992456D01*
X179344316Y-85057011D01*
X179374623Y-85123373D01*
X179468872Y-85232143D01*
X179589947Y-85309953D01*
X179589950Y-85309954D01*
X179589949Y-85309954D01*
X179728036Y-85350499D01*
X179728038Y-85350500D01*
X179728039Y-85350500D01*
X179871962Y-85350500D01*
X179871962Y-85350499D01*
X180010053Y-85309953D01*
X180131128Y-85232143D01*
X180225377Y-85123373D01*
X180285165Y-84992457D01*
X180305647Y-84850000D01*
X180285165Y-84707543D01*
X180225377Y-84576627D01*
X180225375Y-84576625D01*
X180225374Y-84576622D01*
X180130787Y-84467462D01*
X180101762Y-84403906D01*
X180100500Y-84386260D01*
X180100500Y-84363738D01*
X180120185Y-84296699D01*
X180130787Y-84282535D01*
X180131124Y-84282144D01*
X180131128Y-84282143D01*
X180225377Y-84173373D01*
X180285165Y-84042457D01*
X180305647Y-83900000D01*
X180285165Y-83757543D01*
X180225377Y-83626627D01*
X180225375Y-83626625D01*
X180225374Y-83626622D01*
X180130787Y-83517462D01*
X180105687Y-83462500D01*
X187431853Y-83462500D01*
X187452334Y-83604956D01*
X187498401Y-83705826D01*
X187512123Y-83735873D01*
X187606372Y-83844643D01*
X187727447Y-83922453D01*
X187727450Y-83922454D01*
X187727449Y-83922454D01*
X187822317Y-83950309D01*
X187862780Y-83962190D01*
X187865536Y-83962999D01*
X187865538Y-83963000D01*
X187961667Y-83963000D01*
X188028706Y-83982685D01*
X188049348Y-83999319D01*
X188385604Y-84335575D01*
X188419089Y-84396898D01*
X188420661Y-84440902D01*
X188419353Y-84449999D01*
X188439834Y-84592456D01*
X188499622Y-84723371D01*
X188499623Y-84723373D01*
X188593872Y-84832143D01*
X188593875Y-84832144D01*
X188594213Y-84832535D01*
X188623238Y-84896091D01*
X188624500Y-84913738D01*
X188624500Y-85364562D01*
X188630742Y-85387856D01*
X188644979Y-85440990D01*
X188644982Y-85440995D01*
X188684535Y-85509504D01*
X188684539Y-85509509D01*
X188684540Y-85509511D01*
X190408540Y-87233511D01*
X190464489Y-87289460D01*
X190464491Y-87289461D01*
X190464495Y-87289464D01*
X190509578Y-87315492D01*
X190533011Y-87329021D01*
X190609438Y-87349500D01*
X193090961Y-87349500D01*
X193158000Y-87369185D01*
X193178642Y-87385819D01*
X193952398Y-88159575D01*
X193985883Y-88220898D01*
X193987455Y-88264902D01*
X193986147Y-88273999D01*
X194006628Y-88416456D01*
X194010068Y-88423987D01*
X194020012Y-88493146D01*
X193990988Y-88556702D01*
X193932210Y-88594477D01*
X193897274Y-88599500D01*
X193828036Y-88599500D01*
X193689949Y-88640045D01*
X193568873Y-88717856D01*
X193474623Y-88826626D01*
X193474622Y-88826628D01*
X193414834Y-88957543D01*
X193394353Y-89100000D01*
X193414834Y-89242456D01*
X193462532Y-89346898D01*
X193474623Y-89373373D01*
X193568872Y-89482143D01*
X193689947Y-89559953D01*
X193689950Y-89559954D01*
X193689949Y-89559954D01*
X193797107Y-89591417D01*
X193824633Y-89599500D01*
X193828036Y-89600499D01*
X193828038Y-89600500D01*
X193828039Y-89600500D01*
X193971962Y-89600500D01*
X193971962Y-89600499D01*
X194110053Y-89559953D01*
X194231128Y-89482143D01*
X194325377Y-89373373D01*
X194385165Y-89242457D01*
X194405647Y-89100000D01*
X194404339Y-89090905D01*
X194414279Y-89021749D01*
X194439392Y-88985577D01*
X194666096Y-88758873D01*
X194694601Y-88739084D01*
X194694386Y-88738749D01*
X194816992Y-88659954D01*
X194822922Y-88656143D01*
X194917171Y-88547373D01*
X194976959Y-88416457D01*
X194997441Y-88274000D01*
X194976959Y-88131543D01*
X194917171Y-88000627D01*
X194822922Y-87891857D01*
X194701847Y-87814047D01*
X194701845Y-87814046D01*
X194701843Y-87814045D01*
X194701844Y-87814045D01*
X194563757Y-87773500D01*
X194563755Y-87773500D01*
X194467627Y-87773500D01*
X194400588Y-87753815D01*
X194379946Y-87737181D01*
X193451306Y-86808541D01*
X193451298Y-86808535D01*
X193382789Y-86768982D01*
X193382784Y-86768979D01*
X193357307Y-86762152D01*
X193306356Y-86748500D01*
X193306354Y-86748500D01*
X190824833Y-86748500D01*
X190757794Y-86728815D01*
X190737152Y-86712181D01*
X189261819Y-85236848D01*
X189228334Y-85175525D01*
X189225500Y-85149167D01*
X189225500Y-84913738D01*
X189245185Y-84846699D01*
X189255787Y-84832535D01*
X189256124Y-84832144D01*
X189256128Y-84832143D01*
X189350377Y-84723373D01*
X189410165Y-84592457D01*
X189430647Y-84450000D01*
X189410165Y-84307543D01*
X189350377Y-84176627D01*
X189256128Y-84067857D01*
X189135053Y-83990047D01*
X189135051Y-83990046D01*
X189135049Y-83990045D01*
X189135050Y-83990045D01*
X188996963Y-83949500D01*
X188996961Y-83949500D01*
X188900833Y-83949500D01*
X188833794Y-83929815D01*
X188813152Y-83913181D01*
X188476895Y-83576924D01*
X188443410Y-83515601D01*
X188441839Y-83471594D01*
X188443147Y-83462500D01*
X188422665Y-83320043D01*
X188362877Y-83189127D01*
X188268628Y-83080357D01*
X188147553Y-83002547D01*
X188147551Y-83002546D01*
X188147549Y-83002545D01*
X188147550Y-83002545D01*
X188009463Y-82962000D01*
X188009461Y-82962000D01*
X187865539Y-82962000D01*
X187865536Y-82962000D01*
X187727449Y-83002545D01*
X187606373Y-83080356D01*
X187512123Y-83189126D01*
X187512122Y-83189128D01*
X187452334Y-83320043D01*
X187431853Y-83462500D01*
X180105687Y-83462500D01*
X180101762Y-83453906D01*
X180100500Y-83436260D01*
X180100500Y-82000000D01*
X186894353Y-82000000D01*
X186914834Y-82142456D01*
X186928953Y-82173371D01*
X186974623Y-82273373D01*
X187068872Y-82382143D01*
X187189947Y-82459953D01*
X187189950Y-82459954D01*
X187189949Y-82459954D01*
X187328036Y-82500499D01*
X187328038Y-82500500D01*
X187328039Y-82500500D01*
X187471962Y-82500500D01*
X187471962Y-82500499D01*
X187610053Y-82459953D01*
X187731128Y-82382143D01*
X187756288Y-82353105D01*
X187815065Y-82315333D01*
X187884935Y-82315333D01*
X187943711Y-82353105D01*
X187968872Y-82382143D01*
X188089947Y-82459953D01*
X188089950Y-82459954D01*
X188089949Y-82459954D01*
X188228036Y-82500499D01*
X188228038Y-82500500D01*
X188228039Y-82500500D01*
X188371962Y-82500500D01*
X188371962Y-82500499D01*
X188510053Y-82459953D01*
X188631128Y-82382143D01*
X188664788Y-82343296D01*
X188723567Y-82305523D01*
X188758501Y-82300500D01*
X190924167Y-82300500D01*
X190991206Y-82320185D01*
X191011848Y-82336819D01*
X196263181Y-87588152D01*
X196296666Y-87649475D01*
X196299500Y-87675833D01*
X196299500Y-88664562D01*
X196319979Y-88740989D01*
X196358404Y-88807543D01*
X196358410Y-88807553D01*
X196359539Y-88809509D01*
X196359542Y-88809513D01*
X196835604Y-89285575D01*
X196869089Y-89346898D01*
X196870661Y-89390902D01*
X196869353Y-89399999D01*
X196869353Y-89400001D01*
X196873803Y-89430955D01*
X196863859Y-89500113D01*
X196838748Y-89536280D01*
X196811846Y-89563181D01*
X196750526Y-89596666D01*
X196724166Y-89599500D01*
X196628036Y-89599500D01*
X196489949Y-89640045D01*
X196368873Y-89717856D01*
X196274623Y-89826626D01*
X196274622Y-89826628D01*
X196214834Y-89957543D01*
X196194353Y-90100000D01*
X196214834Y-90242456D01*
X196269968Y-90363181D01*
X196274623Y-90373373D01*
X196368872Y-90482143D01*
X196489947Y-90559953D01*
X196489950Y-90559954D01*
X196489949Y-90559954D01*
X196597107Y-90591417D01*
X196624633Y-90599500D01*
X196628036Y-90600499D01*
X196628038Y-90600500D01*
X196628039Y-90600500D01*
X196771962Y-90600500D01*
X196771962Y-90600499D01*
X196910053Y-90559953D01*
X197031128Y-90482143D01*
X197125377Y-90373373D01*
X197185165Y-90242457D01*
X197205647Y-90100000D01*
X197204339Y-90090906D01*
X197214279Y-90021750D01*
X197239397Y-89985573D01*
X197288155Y-89936817D01*
X197349478Y-89903333D01*
X197375834Y-89900500D01*
X197446962Y-89900500D01*
X197446962Y-89900499D01*
X197568886Y-89864700D01*
X197585050Y-89859954D01*
X197585050Y-89859953D01*
X197585053Y-89859953D01*
X197706128Y-89782143D01*
X197800377Y-89673373D01*
X197860165Y-89542457D01*
X197880647Y-89400000D01*
X197860165Y-89257543D01*
X197800377Y-89126627D01*
X197706128Y-89017857D01*
X197585053Y-88940047D01*
X197585051Y-88940046D01*
X197585049Y-88940045D01*
X197585050Y-88940045D01*
X197446963Y-88899500D01*
X197446961Y-88899500D01*
X197350833Y-88899500D01*
X197283794Y-88879815D01*
X197263152Y-88863181D01*
X196936819Y-88536848D01*
X196903334Y-88475525D01*
X196900500Y-88449167D01*
X196900500Y-87460439D01*
X196900500Y-87460438D01*
X196894906Y-87439562D01*
X196880022Y-87384012D01*
X196840460Y-87315489D01*
X193174971Y-83650000D01*
X197444353Y-83650000D01*
X197464834Y-83792456D01*
X197509382Y-83890000D01*
X197524623Y-83923373D01*
X197618872Y-84032143D01*
X197739947Y-84109953D01*
X197739950Y-84109954D01*
X197739949Y-84109954D01*
X197878036Y-84150499D01*
X197878038Y-84150500D01*
X197878039Y-84150500D01*
X198021962Y-84150500D01*
X198021962Y-84150499D01*
X198160053Y-84109953D01*
X198281128Y-84032143D01*
X198375377Y-83923373D01*
X198435165Y-83792457D01*
X198441450Y-83748743D01*
X198447473Y-83706853D01*
X198476498Y-83643297D01*
X198535276Y-83605523D01*
X198570211Y-83600500D01*
X198571962Y-83600500D01*
X198571962Y-83600499D01*
X198710053Y-83559953D01*
X198831128Y-83482143D01*
X198925377Y-83373373D01*
X198985165Y-83242457D01*
X199005647Y-83100000D01*
X198985165Y-82957543D01*
X198925377Y-82826627D01*
X198925375Y-82826625D01*
X198925374Y-82826622D01*
X198830787Y-82717462D01*
X198801762Y-82653906D01*
X198800500Y-82636260D01*
X198800500Y-81960439D01*
X198800500Y-81960438D01*
X198785777Y-81905492D01*
X198785777Y-81905491D01*
X198785777Y-81905490D01*
X198780022Y-81884012D01*
X198758312Y-81846410D01*
X198740460Y-81815489D01*
X198539395Y-81614424D01*
X198505910Y-81553101D01*
X198504339Y-81509094D01*
X198505647Y-81500000D01*
X198485165Y-81357543D01*
X198425377Y-81226627D01*
X198425375Y-81226625D01*
X198425374Y-81226622D01*
X198386017Y-81181203D01*
X198356991Y-81117648D01*
X198366934Y-81048489D01*
X198386017Y-81018797D01*
X198425374Y-80973377D01*
X198425374Y-80973375D01*
X198425377Y-80973373D01*
X198485165Y-80842457D01*
X198505647Y-80700000D01*
X198485165Y-80557543D01*
X198425377Y-80426627D01*
X198331128Y-80317857D01*
X198210053Y-80240047D01*
X198210051Y-80240046D01*
X198210049Y-80240045D01*
X198210050Y-80240045D01*
X198071963Y-80199500D01*
X198071961Y-80199500D01*
X197928039Y-80199500D01*
X197928036Y-80199500D01*
X197789949Y-80240045D01*
X197668873Y-80317856D01*
X197574623Y-80426626D01*
X197574622Y-80426628D01*
X197514834Y-80557543D01*
X197494353Y-80700000D01*
X197514834Y-80842456D01*
X197574622Y-80973371D01*
X197574625Y-80973377D01*
X197613983Y-81018798D01*
X197643008Y-81082353D01*
X197633064Y-81151512D01*
X197613983Y-81181202D01*
X197574625Y-81226622D01*
X197574622Y-81226628D01*
X197514834Y-81357543D01*
X197494353Y-81500000D01*
X197514834Y-81642456D01*
X197568306Y-81759541D01*
X197574623Y-81773373D01*
X197668872Y-81882143D01*
X197789947Y-81959953D01*
X197789950Y-81959954D01*
X197789949Y-81959954D01*
X197850327Y-81977682D01*
X197926336Y-82000000D01*
X197928036Y-82000499D01*
X197928038Y-82000500D01*
X198024167Y-82000500D01*
X198091206Y-82020185D01*
X198111848Y-82036819D01*
X198163181Y-82088152D01*
X198196666Y-82149475D01*
X198199500Y-82175833D01*
X198199500Y-82636260D01*
X198179815Y-82703299D01*
X198169213Y-82717462D01*
X198074625Y-82826622D01*
X198074622Y-82826628D01*
X198014834Y-82957543D01*
X198002527Y-83043147D01*
X197973502Y-83106703D01*
X197914724Y-83144477D01*
X197879789Y-83149500D01*
X197878036Y-83149500D01*
X197739949Y-83190045D01*
X197618873Y-83267856D01*
X197524623Y-83376626D01*
X197524622Y-83376628D01*
X197464834Y-83507543D01*
X197444353Y-83650000D01*
X193174971Y-83650000D01*
X191284511Y-81759540D01*
X191284510Y-81759539D01*
X191284507Y-81759537D01*
X191251462Y-81740459D01*
X191251462Y-81740458D01*
X191251460Y-81740458D01*
X191239083Y-81733312D01*
X191215990Y-81719979D01*
X191215991Y-81719979D01*
X191177775Y-81709739D01*
X191139562Y-81699500D01*
X191139560Y-81699500D01*
X188758501Y-81699500D01*
X188691462Y-81679815D01*
X188664788Y-81656703D01*
X188631128Y-81617857D01*
X188510053Y-81540047D01*
X188510051Y-81540046D01*
X188510049Y-81540045D01*
X188510050Y-81540045D01*
X188371963Y-81499500D01*
X188371961Y-81499500D01*
X188228039Y-81499500D01*
X188228036Y-81499500D01*
X188089949Y-81540045D01*
X187968872Y-81617856D01*
X187943712Y-81646893D01*
X187884933Y-81684667D01*
X187815064Y-81684666D01*
X187756288Y-81646893D01*
X187731127Y-81617856D01*
X187684502Y-81587892D01*
X187610053Y-81540047D01*
X187610051Y-81540046D01*
X187610049Y-81540045D01*
X187610050Y-81540045D01*
X187471963Y-81499500D01*
X187471961Y-81499500D01*
X187328039Y-81499500D01*
X187328036Y-81499500D01*
X187189949Y-81540045D01*
X187068873Y-81617856D01*
X186974623Y-81726626D01*
X186974622Y-81726628D01*
X186914834Y-81857543D01*
X186894353Y-82000000D01*
X180100500Y-82000000D01*
X180100500Y-81769500D01*
X180120185Y-81702461D01*
X180172989Y-81656706D01*
X180224500Y-81645500D01*
X180319750Y-81645500D01*
X180319751Y-81645499D01*
X180335051Y-81642456D01*
X180378229Y-81633868D01*
X180378229Y-81633867D01*
X180378231Y-81633867D01*
X180444552Y-81589552D01*
X180488867Y-81523231D01*
X180488867Y-81523229D01*
X180488868Y-81523229D01*
X180500499Y-81464752D01*
X180500500Y-81464750D01*
X180500500Y-80425249D01*
X180500499Y-80425247D01*
X180488868Y-80366770D01*
X180488867Y-80366769D01*
X180444551Y-80300446D01*
X180395174Y-80267453D01*
X180350370Y-80213841D01*
X180341663Y-80144516D01*
X180362015Y-80093914D01*
X180424818Y-80002930D01*
X180485140Y-79843872D01*
X180505645Y-79675000D01*
X180494140Y-79580247D01*
X183624500Y-79580247D01*
X183624500Y-80619752D01*
X183636131Y-80678229D01*
X183636132Y-80678230D01*
X183680447Y-80744552D01*
X183746769Y-80788867D01*
X183746770Y-80788868D01*
X183805247Y-80800499D01*
X183805250Y-80800500D01*
X183805252Y-80800500D01*
X184844750Y-80800500D01*
X184844751Y-80800499D01*
X184859568Y-80797552D01*
X184903229Y-80788868D01*
X184903229Y-80788867D01*
X184903231Y-80788867D01*
X184969552Y-80744552D01*
X185000899Y-80697638D01*
X185054508Y-80652836D01*
X185123833Y-80644127D01*
X185186225Y-80673715D01*
X185194148Y-80680734D01*
X185217799Y-80693147D01*
X185282320Y-80727011D01*
X185344775Y-80759790D01*
X185509944Y-80800500D01*
X185680056Y-80800500D01*
X185845225Y-80759790D01*
X185966678Y-80696046D01*
X185995849Y-80680736D01*
X185995850Y-80680734D01*
X185995852Y-80680734D01*
X186123183Y-80567929D01*
X186219818Y-80427930D01*
X186280140Y-80268872D01*
X186300645Y-80100000D01*
X186280140Y-79931128D01*
X186219818Y-79772070D01*
X186123183Y-79632071D01*
X186018762Y-79539562D01*
X185995849Y-79519263D01*
X185845226Y-79440210D01*
X185680056Y-79399500D01*
X185509944Y-79399500D01*
X185344773Y-79440210D01*
X185194149Y-79519264D01*
X185194147Y-79519266D01*
X185186223Y-79526286D01*
X185122989Y-79556005D01*
X185053726Y-79546820D01*
X185000897Y-79502358D01*
X184969553Y-79455448D01*
X184903230Y-79411132D01*
X184903229Y-79411131D01*
X184844752Y-79399500D01*
X184844748Y-79399500D01*
X183805252Y-79399500D01*
X183805247Y-79399500D01*
X183746770Y-79411131D01*
X183746769Y-79411132D01*
X183680447Y-79455447D01*
X183636132Y-79521769D01*
X183636131Y-79521770D01*
X183624500Y-79580247D01*
X180494140Y-79580247D01*
X180485140Y-79506128D01*
X180424818Y-79347070D01*
X180421909Y-79342856D01*
X180368200Y-79265045D01*
X180328183Y-79207071D01*
X180200852Y-79094266D01*
X180200849Y-79094263D01*
X180050226Y-79015210D01*
X179885056Y-78974500D01*
X179714944Y-78974500D01*
X179549773Y-79015210D01*
X179399150Y-79094263D01*
X179271816Y-79207072D01*
X179175182Y-79347068D01*
X179114860Y-79506125D01*
X179114859Y-79506130D01*
X179094355Y-79675000D01*
X172798458Y-79675000D01*
X172785165Y-79582543D01*
X172725377Y-79451627D01*
X172631128Y-79342857D01*
X172510053Y-79265047D01*
X172510051Y-79265046D01*
X172510049Y-79265045D01*
X172510050Y-79265045D01*
X172371963Y-79224500D01*
X172371961Y-79224500D01*
X172228039Y-79224500D01*
X172228036Y-79224500D01*
X172089949Y-79265045D01*
X171968873Y-79342856D01*
X171968872Y-79342856D01*
X171968872Y-79342857D01*
X171956290Y-79357377D01*
X171874623Y-79451626D01*
X171874622Y-79451628D01*
X171814834Y-79582543D01*
X171794353Y-79725000D01*
X166900500Y-79725000D01*
X166900500Y-78800000D01*
X188844353Y-78800000D01*
X188864834Y-78942456D01*
X188899733Y-79018872D01*
X188924623Y-79073373D01*
X189018872Y-79182143D01*
X189139947Y-79259953D01*
X189139950Y-79259954D01*
X189139949Y-79259954D01*
X189278036Y-79300499D01*
X189278038Y-79300500D01*
X189278039Y-79300500D01*
X189421962Y-79300500D01*
X189421962Y-79300499D01*
X189560053Y-79259953D01*
X189681128Y-79182143D01*
X189714788Y-79143296D01*
X189773567Y-79105523D01*
X189808501Y-79100500D01*
X189941499Y-79100500D01*
X190008538Y-79120185D01*
X190035211Y-79143296D01*
X190068872Y-79182143D01*
X190189947Y-79259953D01*
X190189950Y-79259954D01*
X190189949Y-79259954D01*
X190328036Y-79300499D01*
X190328038Y-79300500D01*
X190328039Y-79300500D01*
X190471962Y-79300500D01*
X190471962Y-79300499D01*
X190610053Y-79259953D01*
X190731128Y-79182143D01*
X190731136Y-79182133D01*
X190732688Y-79180790D01*
X190734572Y-79179929D01*
X190738589Y-79177348D01*
X190738960Y-79177925D01*
X190796243Y-79151763D01*
X190813895Y-79150500D01*
X201610438Y-79150500D01*
X201875500Y-79150500D01*
X201942539Y-79170185D01*
X201988294Y-79222989D01*
X201999500Y-79274500D01*
X201999500Y-79369752D01*
X202011131Y-79428229D01*
X202011132Y-79428230D01*
X202055447Y-79494552D01*
X202121769Y-79538867D01*
X202121770Y-79538868D01*
X202180247Y-79550499D01*
X202180250Y-79550500D01*
X202180252Y-79550500D01*
X203219750Y-79550500D01*
X203219751Y-79550499D01*
X203238249Y-79546820D01*
X203278229Y-79538868D01*
X203278229Y-79538867D01*
X203278231Y-79538867D01*
X203344552Y-79494552D01*
X203375899Y-79447638D01*
X203429508Y-79402836D01*
X203498833Y-79394127D01*
X203561225Y-79423715D01*
X203569148Y-79430734D01*
X203569150Y-79430735D01*
X203712801Y-79506130D01*
X203719775Y-79509790D01*
X203884944Y-79550500D01*
X204055056Y-79550500D01*
X204220225Y-79509790D01*
X204299692Y-79468081D01*
X204370849Y-79430736D01*
X204370850Y-79430734D01*
X204370852Y-79430734D01*
X204498183Y-79317929D01*
X204594818Y-79177930D01*
X204655140Y-79018872D01*
X204675645Y-78850000D01*
X204655140Y-78681128D01*
X204646195Y-78657543D01*
X204597755Y-78529815D01*
X204594818Y-78522070D01*
X204498183Y-78382071D01*
X204378776Y-78276286D01*
X204370849Y-78269263D01*
X204220226Y-78190210D01*
X204055056Y-78149500D01*
X203884944Y-78149500D01*
X203719773Y-78190210D01*
X203569149Y-78269264D01*
X203569147Y-78269266D01*
X203561223Y-78276286D01*
X203497989Y-78306005D01*
X203428726Y-78296820D01*
X203375897Y-78252358D01*
X203344553Y-78205448D01*
X203278230Y-78161132D01*
X203278229Y-78161131D01*
X203219752Y-78149500D01*
X203219748Y-78149500D01*
X202180252Y-78149500D01*
X202180247Y-78149500D01*
X202121770Y-78161131D01*
X202121769Y-78161132D01*
X202055447Y-78205447D01*
X202011132Y-78271769D01*
X202011131Y-78271770D01*
X201999500Y-78330247D01*
X201999500Y-78425500D01*
X201979815Y-78492539D01*
X201927011Y-78538294D01*
X201875500Y-78549500D01*
X190901826Y-78549500D01*
X190834787Y-78529815D01*
X190808113Y-78506703D01*
X190784814Y-78479815D01*
X190731128Y-78417857D01*
X190610053Y-78340047D01*
X190610051Y-78340046D01*
X190610049Y-78340045D01*
X190610050Y-78340045D01*
X190471963Y-78299500D01*
X190471961Y-78299500D01*
X190328039Y-78299500D01*
X190328036Y-78299500D01*
X190189949Y-78340045D01*
X190068873Y-78417856D01*
X190068872Y-78417856D01*
X190068872Y-78417857D01*
X190048015Y-78441928D01*
X190035212Y-78456703D01*
X189976433Y-78494477D01*
X189941499Y-78499500D01*
X189808501Y-78499500D01*
X189741462Y-78479815D01*
X189714788Y-78456703D01*
X189681128Y-78417857D01*
X189560053Y-78340047D01*
X189560051Y-78340046D01*
X189560049Y-78340045D01*
X189560050Y-78340045D01*
X189421963Y-78299500D01*
X189421961Y-78299500D01*
X189278039Y-78299500D01*
X189278036Y-78299500D01*
X189139949Y-78340045D01*
X189018873Y-78417856D01*
X188924623Y-78526626D01*
X188924622Y-78526628D01*
X188864834Y-78657543D01*
X188844353Y-78800000D01*
X166900500Y-78800000D01*
X166900500Y-77794000D01*
X166920185Y-77726961D01*
X166972989Y-77681206D01*
X167024500Y-77670000D01*
X178575000Y-77670000D01*
X178575000Y-77669999D01*
X178570621Y-76763596D01*
X178564130Y-75420000D01*
X190843917Y-75420000D01*
X190864199Y-75625932D01*
X190864200Y-75625934D01*
X190924268Y-75823954D01*
X191021815Y-76006450D01*
X191021817Y-76006452D01*
X191153089Y-76166410D01*
X191249709Y-76245702D01*
X191313050Y-76297685D01*
X191495546Y-76395232D01*
X191693566Y-76455300D01*
X191693565Y-76455300D01*
X191712029Y-76457118D01*
X191899500Y-76475583D01*
X192105434Y-76455300D01*
X192303454Y-76395232D01*
X192485950Y-76297685D01*
X192645910Y-76166410D01*
X192777185Y-76006450D01*
X192856143Y-75858730D01*
X192905105Y-75808888D01*
X192973242Y-75793428D01*
X193038922Y-75817260D01*
X193081291Y-75872818D01*
X193089500Y-75917186D01*
X193089500Y-76317844D01*
X193095901Y-76377372D01*
X193095903Y-76377379D01*
X193146145Y-76512086D01*
X193146149Y-76512093D01*
X193232309Y-76627187D01*
X193232312Y-76627190D01*
X193347406Y-76713350D01*
X193347413Y-76713354D01*
X193482120Y-76763596D01*
X193482127Y-76763598D01*
X193541655Y-76769999D01*
X193541672Y-76770000D01*
X194189500Y-76770000D01*
X194189500Y-75853012D01*
X194246507Y-75885925D01*
X194373674Y-75920000D01*
X194505326Y-75920000D01*
X194632493Y-75885925D01*
X194689500Y-75853012D01*
X194689500Y-76770000D01*
X195337328Y-76770000D01*
X195337344Y-76769999D01*
X195396872Y-76763598D01*
X195396879Y-76763596D01*
X195531586Y-76713354D01*
X195531593Y-76713350D01*
X195646687Y-76627190D01*
X195646690Y-76627187D01*
X195732850Y-76512093D01*
X195732854Y-76512086D01*
X195783096Y-76377379D01*
X195783098Y-76377372D01*
X195789499Y-76317844D01*
X195789500Y-76317827D01*
X195789500Y-75670000D01*
X194872512Y-75670000D01*
X194905425Y-75612993D01*
X194939500Y-75485826D01*
X194939500Y-75354174D01*
X194905425Y-75227007D01*
X194872512Y-75170000D01*
X195789500Y-75170000D01*
X195789500Y-74522172D01*
X195789499Y-74522155D01*
X195783098Y-74462627D01*
X195783096Y-74462620D01*
X195732854Y-74327913D01*
X195732850Y-74327906D01*
X195646690Y-74212812D01*
X195646687Y-74212809D01*
X195531593Y-74126649D01*
X195531586Y-74126645D01*
X195396879Y-74076403D01*
X195396872Y-74076401D01*
X195337344Y-74070000D01*
X194936687Y-74070000D01*
X194869648Y-74050315D01*
X194823893Y-73997511D01*
X194813949Y-73928353D01*
X194842974Y-73864797D01*
X194878233Y-73836642D01*
X195025950Y-73757685D01*
X195185910Y-73626410D01*
X195317185Y-73466450D01*
X195336536Y-73430247D01*
X202409500Y-73430247D01*
X202409500Y-75169752D01*
X202421131Y-75228229D01*
X202421132Y-75228230D01*
X202465447Y-75294552D01*
X202531769Y-75338867D01*
X202531770Y-75338868D01*
X202590247Y-75350499D01*
X202590250Y-75350500D01*
X202590252Y-75350500D01*
X204329750Y-75350500D01*
X204329751Y-75350499D01*
X204344568Y-75347552D01*
X204388229Y-75338868D01*
X204388229Y-75338867D01*
X204388231Y-75338867D01*
X204454552Y-75294552D01*
X204498867Y-75228231D01*
X204498867Y-75228229D01*
X204498868Y-75228229D01*
X204510499Y-75169752D01*
X204510500Y-75169750D01*
X204510500Y-74724500D01*
X204530185Y-74657461D01*
X204582989Y-74611706D01*
X204634500Y-74600500D01*
X205614167Y-74600500D01*
X205681206Y-74620185D01*
X205701848Y-74636819D01*
X209060701Y-77995672D01*
X209094186Y-78056995D01*
X209089202Y-78126687D01*
X209082381Y-78141800D01*
X209074770Y-78156039D01*
X209014699Y-78354067D01*
X208994417Y-78560000D01*
X209014699Y-78765932D01*
X209040201Y-78850000D01*
X209074768Y-78963954D01*
X209172315Y-79146450D01*
X209191794Y-79170185D01*
X209303589Y-79306410D01*
X209380768Y-79369748D01*
X209463550Y-79437685D01*
X209646046Y-79535232D01*
X209844066Y-79595300D01*
X209844065Y-79595300D01*
X209862529Y-79597118D01*
X210050000Y-79615583D01*
X210255934Y-79595300D01*
X210453954Y-79535232D01*
X210636450Y-79437685D01*
X210796410Y-79306410D01*
X210927685Y-79146450D01*
X211025232Y-78963954D01*
X211085300Y-78765934D01*
X211102097Y-78595392D01*
X211115709Y-78561681D01*
X211106523Y-78547387D01*
X211102097Y-78524606D01*
X211085300Y-78354067D01*
X211081047Y-78340047D01*
X211025232Y-78156046D01*
X210927685Y-77973550D01*
X210875702Y-77910209D01*
X210796410Y-77813589D01*
X210636452Y-77682317D01*
X210636453Y-77682317D01*
X210636450Y-77682315D01*
X210453954Y-77584768D01*
X210255934Y-77524700D01*
X210255932Y-77524699D01*
X210255934Y-77524699D01*
X210050000Y-77504417D01*
X209844067Y-77524699D01*
X209646039Y-77584770D01*
X209631800Y-77592381D01*
X209563397Y-77606620D01*
X209498154Y-77581616D01*
X209485672Y-77570701D01*
X205974512Y-74059541D01*
X205974504Y-74059535D01*
X205905995Y-74019982D01*
X205905990Y-74019979D01*
X205880513Y-74013152D01*
X205829562Y-73999500D01*
X205829560Y-73999500D01*
X204634500Y-73999500D01*
X204567461Y-73979815D01*
X204521706Y-73927011D01*
X204510500Y-73875500D01*
X204510500Y-73430249D01*
X204510499Y-73430247D01*
X204498868Y-73371770D01*
X204498867Y-73371769D01*
X204454552Y-73305447D01*
X204388230Y-73261132D01*
X204388229Y-73261131D01*
X204329752Y-73249500D01*
X204329748Y-73249500D01*
X202590252Y-73249500D01*
X202590247Y-73249500D01*
X202531770Y-73261131D01*
X202531769Y-73261132D01*
X202465447Y-73305447D01*
X202421132Y-73371769D01*
X202421131Y-73371770D01*
X202409500Y-73430247D01*
X195336536Y-73430247D01*
X195414732Y-73283954D01*
X195474800Y-73085934D01*
X195495083Y-72880000D01*
X195474800Y-72674066D01*
X195414732Y-72476046D01*
X195317185Y-72293550D01*
X195210831Y-72163956D01*
X195185910Y-72133589D01*
X195025952Y-72002317D01*
X195025953Y-72002317D01*
X195025950Y-72002315D01*
X194843454Y-71904768D01*
X194645434Y-71844700D01*
X194645432Y-71844699D01*
X194645434Y-71844699D01*
X194439500Y-71824417D01*
X194233567Y-71844699D01*
X194035543Y-71904769D01*
X193925398Y-71963643D01*
X193853050Y-72002315D01*
X193853048Y-72002316D01*
X193853047Y-72002317D01*
X193693089Y-72133589D01*
X193561817Y-72293547D01*
X193464269Y-72476043D01*
X193404199Y-72674067D01*
X193383917Y-72880000D01*
X193404199Y-73085932D01*
X193426673Y-73160020D01*
X193464268Y-73283954D01*
X193561815Y-73466450D01*
X193561817Y-73466452D01*
X193693089Y-73626410D01*
X193789709Y-73705702D01*
X193853050Y-73757685D01*
X194000767Y-73836642D01*
X194050611Y-73885605D01*
X194066071Y-73953743D01*
X194042239Y-74019422D01*
X193986681Y-74061791D01*
X193942313Y-74070000D01*
X193541655Y-74070000D01*
X193482127Y-74076401D01*
X193482120Y-74076403D01*
X193347413Y-74126645D01*
X193347406Y-74126649D01*
X193232312Y-74212809D01*
X193232309Y-74212812D01*
X193146149Y-74327906D01*
X193146145Y-74327913D01*
X193095903Y-74462620D01*
X193095901Y-74462627D01*
X193089500Y-74522155D01*
X193089500Y-74922813D01*
X193069815Y-74989852D01*
X193017011Y-75035607D01*
X192947853Y-75045551D01*
X192884297Y-75016526D01*
X192856142Y-74981267D01*
X192777185Y-74833550D01*
X192687691Y-74724500D01*
X192645910Y-74673589D01*
X192485952Y-74542317D01*
X192485953Y-74542317D01*
X192485950Y-74542315D01*
X192303454Y-74444768D01*
X192105434Y-74384700D01*
X192105432Y-74384699D01*
X192105434Y-74384699D01*
X191899500Y-74364417D01*
X191693567Y-74384699D01*
X191495543Y-74444769D01*
X191462134Y-74462627D01*
X191313050Y-74542315D01*
X191313048Y-74542316D01*
X191313047Y-74542317D01*
X191153089Y-74673589D01*
X191021817Y-74833547D01*
X190924269Y-75016043D01*
X190864199Y-75214067D01*
X190843917Y-75420000D01*
X178564130Y-75420000D01*
X178539758Y-70375000D01*
X179849353Y-70375000D01*
X179869834Y-70517456D01*
X179907759Y-70600499D01*
X179929623Y-70648373D01*
X179979814Y-70706298D01*
X180008839Y-70769852D01*
X179998895Y-70839010D01*
X179979815Y-70868701D01*
X179929623Y-70926626D01*
X179929622Y-70926628D01*
X179869834Y-71057543D01*
X179849353Y-71200000D01*
X179869834Y-71342456D01*
X179894097Y-71395583D01*
X179929623Y-71473373D01*
X180023872Y-71582143D01*
X180144947Y-71659953D01*
X180144950Y-71659954D01*
X180144949Y-71659954D01*
X180283036Y-71700499D01*
X180283038Y-71700500D01*
X180283039Y-71700500D01*
X180426962Y-71700500D01*
X180426962Y-71700499D01*
X180565053Y-71659953D01*
X180686128Y-71582143D01*
X180780377Y-71473373D01*
X180840165Y-71342457D01*
X180860647Y-71200000D01*
X180840165Y-71057543D01*
X180780377Y-70926627D01*
X180780375Y-70926625D01*
X180780374Y-70926622D01*
X180730185Y-70868701D01*
X180701160Y-70805146D01*
X180711104Y-70735987D01*
X180730181Y-70706302D01*
X180780377Y-70648373D01*
X180840165Y-70517457D01*
X180860647Y-70375000D01*
X180847707Y-70285000D01*
X186494353Y-70285000D01*
X186514834Y-70427456D01*
X186555937Y-70517457D01*
X186574623Y-70558373D01*
X186668872Y-70667143D01*
X186789947Y-70744953D01*
X186789950Y-70744954D01*
X186789949Y-70744954D01*
X186874746Y-70769852D01*
X186925549Y-70784769D01*
X186928036Y-70785499D01*
X186928038Y-70785500D01*
X186928039Y-70785500D01*
X187071962Y-70785500D01*
X187071962Y-70785499D01*
X187202489Y-70747174D01*
X187210050Y-70744954D01*
X187210050Y-70744953D01*
X187210053Y-70744953D01*
X187331128Y-70667143D01*
X187349789Y-70645606D01*
X187408565Y-70607833D01*
X187478435Y-70607833D01*
X187537213Y-70645607D01*
X187570151Y-70683619D01*
X187596760Y-70741882D01*
X187597397Y-70741712D01*
X187598411Y-70745497D01*
X187599177Y-70747174D01*
X187599378Y-70748634D01*
X187599499Y-70749560D01*
X187619979Y-70825990D01*
X187619980Y-70825991D01*
X187648564Y-70875500D01*
X187659540Y-70894511D01*
X189829540Y-73064511D01*
X189885489Y-73120460D01*
X189885491Y-73120461D01*
X189885495Y-73120464D01*
X189954004Y-73160017D01*
X189954011Y-73160021D01*
X190030438Y-73180500D01*
X190800921Y-73180500D01*
X190867960Y-73200185D01*
X190913715Y-73252989D01*
X190919581Y-73268503D01*
X190924268Y-73283954D01*
X191021815Y-73466450D01*
X191021817Y-73466452D01*
X191153089Y-73626410D01*
X191249709Y-73705702D01*
X191313050Y-73757685D01*
X191495546Y-73855232D01*
X191693566Y-73915300D01*
X191693565Y-73915300D01*
X191712029Y-73917118D01*
X191899500Y-73935583D01*
X192105434Y-73915300D01*
X192303454Y-73855232D01*
X192485950Y-73757685D01*
X192645910Y-73626410D01*
X192777185Y-73466450D01*
X192874732Y-73283954D01*
X192934800Y-73085934D01*
X192955083Y-72880000D01*
X192934800Y-72674066D01*
X192874732Y-72476046D01*
X192777185Y-72293550D01*
X192670831Y-72163956D01*
X192645910Y-72133589D01*
X192485952Y-72002317D01*
X192485953Y-72002317D01*
X192485950Y-72002315D01*
X192303454Y-71904768D01*
X192105434Y-71844700D01*
X192105432Y-71844699D01*
X192105434Y-71844699D01*
X191899500Y-71824417D01*
X191693567Y-71844699D01*
X191495543Y-71904769D01*
X191385398Y-71963643D01*
X191313050Y-72002315D01*
X191313048Y-72002316D01*
X191313047Y-72002317D01*
X191153089Y-72133589D01*
X191021817Y-72293547D01*
X190924269Y-72476043D01*
X190924268Y-72476046D01*
X190919581Y-72491497D01*
X190881283Y-72549935D01*
X190817470Y-72578391D01*
X190800921Y-72579500D01*
X190245833Y-72579500D01*
X190178794Y-72559815D01*
X190158152Y-72543181D01*
X188342423Y-70727452D01*
X188308938Y-70666129D01*
X188313922Y-70596437D01*
X188324430Y-70575444D01*
X188325374Y-70573375D01*
X188325377Y-70573373D01*
X188385165Y-70442457D01*
X188389956Y-70409132D01*
X188418980Y-70345577D01*
X188477758Y-70307802D01*
X188547627Y-70307801D01*
X188606406Y-70345575D01*
X188619579Y-70366073D01*
X188619829Y-70365913D01*
X188624623Y-70373373D01*
X188718872Y-70482143D01*
X188839947Y-70559953D01*
X188839950Y-70559954D01*
X188839949Y-70559954D01*
X188978036Y-70600499D01*
X188978038Y-70600500D01*
X189106974Y-70600500D01*
X189168973Y-70617113D01*
X189174004Y-70620017D01*
X189174011Y-70620021D01*
X189250438Y-70640500D01*
X189441499Y-70640500D01*
X189508538Y-70660185D01*
X189535211Y-70683296D01*
X189568872Y-70722143D01*
X189689947Y-70799953D01*
X189689950Y-70799954D01*
X189689949Y-70799954D01*
X189778622Y-70825990D01*
X189822964Y-70839010D01*
X189828036Y-70840499D01*
X189828038Y-70840500D01*
X189828039Y-70840500D01*
X189971962Y-70840500D01*
X189971962Y-70840499D01*
X190110053Y-70799953D01*
X190231128Y-70722143D01*
X190325377Y-70613373D01*
X190385165Y-70482457D01*
X190405647Y-70340000D01*
X190843917Y-70340000D01*
X190864199Y-70545932D01*
X190886673Y-70620020D01*
X190923639Y-70741882D01*
X190924269Y-70743956D01*
X190927264Y-70749560D01*
X191021815Y-70926450D01*
X191021961Y-70926628D01*
X191153089Y-71086410D01*
X191249709Y-71165702D01*
X191313050Y-71217685D01*
X191495546Y-71315232D01*
X191693566Y-71375300D01*
X191693565Y-71375300D01*
X191712029Y-71377118D01*
X191899500Y-71395583D01*
X192105434Y-71375300D01*
X192303454Y-71315232D01*
X192485950Y-71217685D01*
X192645910Y-71086410D01*
X192777185Y-70926450D01*
X192874732Y-70743954D01*
X192934800Y-70545934D01*
X192955083Y-70340000D01*
X193383917Y-70340000D01*
X193404199Y-70545932D01*
X193426673Y-70620020D01*
X193463639Y-70741882D01*
X193464269Y-70743956D01*
X193467264Y-70749560D01*
X193561815Y-70926450D01*
X193561961Y-70926628D01*
X193693089Y-71086410D01*
X193789709Y-71165702D01*
X193853050Y-71217685D01*
X194035546Y-71315232D01*
X194233566Y-71375300D01*
X194233565Y-71375300D01*
X194252029Y-71377118D01*
X194439500Y-71395583D01*
X194645434Y-71375300D01*
X194843454Y-71315232D01*
X195025950Y-71217685D01*
X195185910Y-71086410D01*
X195317185Y-70926450D01*
X195414732Y-70743954D01*
X195474800Y-70545934D01*
X195495083Y-70340000D01*
X195474800Y-70134066D01*
X195414732Y-69936046D01*
X195317185Y-69753550D01*
X195261687Y-69685925D01*
X195185910Y-69593589D01*
X195025952Y-69462317D01*
X195025953Y-69462317D01*
X195025950Y-69462315D01*
X194843454Y-69364768D01*
X194645434Y-69304700D01*
X194645432Y-69304699D01*
X194645434Y-69304699D01*
X194439500Y-69284417D01*
X194233567Y-69304699D01*
X194035543Y-69364769D01*
X193947466Y-69411848D01*
X193853050Y-69462315D01*
X193853048Y-69462316D01*
X193853047Y-69462317D01*
X193693089Y-69593589D01*
X193561817Y-69753547D01*
X193464269Y-69936043D01*
X193404199Y-70134067D01*
X193383917Y-70340000D01*
X192955083Y-70340000D01*
X192934800Y-70134066D01*
X192874732Y-69936046D01*
X192777185Y-69753550D01*
X192721687Y-69685925D01*
X192645910Y-69593589D01*
X192485952Y-69462317D01*
X192485953Y-69462317D01*
X192485950Y-69462315D01*
X192303454Y-69364768D01*
X192105434Y-69304700D01*
X192105432Y-69304699D01*
X192105434Y-69304699D01*
X191899500Y-69284417D01*
X191693567Y-69304699D01*
X191495543Y-69364769D01*
X191407466Y-69411848D01*
X191313050Y-69462315D01*
X191313048Y-69462316D01*
X191313047Y-69462317D01*
X191153089Y-69593589D01*
X191021817Y-69753547D01*
X190924269Y-69936043D01*
X190864199Y-70134067D01*
X190843917Y-70340000D01*
X190405647Y-70340000D01*
X190385165Y-70197543D01*
X190325377Y-70066627D01*
X190231128Y-69957857D01*
X190110053Y-69880047D01*
X190110051Y-69880046D01*
X190110049Y-69880045D01*
X190110050Y-69880045D01*
X189971963Y-69839500D01*
X189971961Y-69839500D01*
X189828039Y-69839500D01*
X189828036Y-69839500D01*
X189689949Y-69880045D01*
X189689946Y-69880046D01*
X189663308Y-69897166D01*
X189596269Y-69916850D01*
X189529230Y-69897165D01*
X189483475Y-69844360D01*
X189475377Y-69826627D01*
X189381128Y-69717857D01*
X189260053Y-69640047D01*
X189260051Y-69640046D01*
X189260049Y-69640045D01*
X189260050Y-69640045D01*
X189121963Y-69599500D01*
X189121961Y-69599500D01*
X189025833Y-69599500D01*
X188958794Y-69579815D01*
X188938152Y-69563181D01*
X188786819Y-69411848D01*
X188753334Y-69350525D01*
X188750500Y-69324167D01*
X188750500Y-68969999D01*
X202129364Y-68969999D01*
X202129364Y-68970000D01*
X203026988Y-68970000D01*
X202994075Y-69027007D01*
X202960000Y-69154174D01*
X202960000Y-69285826D01*
X202994075Y-69412993D01*
X203026988Y-69470000D01*
X202129364Y-69470000D01*
X202186567Y-69683486D01*
X202186570Y-69683492D01*
X202286399Y-69897578D01*
X202421894Y-70091082D01*
X202588917Y-70258105D01*
X202782421Y-70393600D01*
X202996507Y-70493429D01*
X202996516Y-70493433D01*
X203118649Y-70526158D01*
X203178310Y-70562523D01*
X203208839Y-70625369D01*
X203200545Y-70694745D01*
X203156059Y-70748623D01*
X203122552Y-70764593D01*
X203056046Y-70784767D01*
X202925358Y-70854622D01*
X202873550Y-70882315D01*
X202873548Y-70882316D01*
X202873547Y-70882317D01*
X202713589Y-71013589D01*
X202582317Y-71173547D01*
X202484769Y-71356043D01*
X202424699Y-71554067D01*
X202404417Y-71760000D01*
X202424699Y-71965932D01*
X202453386Y-72060500D01*
X202484768Y-72163954D01*
X202582315Y-72346450D01*
X202582317Y-72346452D01*
X202713589Y-72506410D01*
X202801300Y-72578391D01*
X202873550Y-72637685D01*
X203056046Y-72735232D01*
X203254066Y-72795300D01*
X203254065Y-72795300D01*
X203272529Y-72797118D01*
X203460000Y-72815583D01*
X203665934Y-72795300D01*
X203863954Y-72735232D01*
X204046450Y-72637685D01*
X204206410Y-72506410D01*
X204337685Y-72346450D01*
X204435232Y-72163954D01*
X204439919Y-72148503D01*
X204478217Y-72090065D01*
X204542030Y-72061609D01*
X204558579Y-72060500D01*
X206084167Y-72060500D01*
X206151206Y-72080185D01*
X206171848Y-72096819D01*
X211313181Y-77238152D01*
X211346666Y-77299475D01*
X211349500Y-77325833D01*
X211349500Y-78512452D01*
X211335276Y-78560892D01*
X211347328Y-78584442D01*
X211349500Y-78607547D01*
X211349500Y-79324166D01*
X211329815Y-79391205D01*
X211313181Y-79411847D01*
X210614326Y-80110701D01*
X210553003Y-80144186D01*
X210483311Y-80139202D01*
X210468193Y-80132379D01*
X210453956Y-80124769D01*
X210453955Y-80124768D01*
X210453954Y-80124768D01*
X210255934Y-80064700D01*
X210255932Y-80064699D01*
X210255934Y-80064699D01*
X210050000Y-80044417D01*
X209844067Y-80064699D01*
X209646043Y-80124769D01*
X209535898Y-80183643D01*
X209463550Y-80222315D01*
X209463548Y-80222316D01*
X209463547Y-80222317D01*
X209303589Y-80353589D01*
X209176811Y-80508071D01*
X209172315Y-80513550D01*
X209148800Y-80557543D01*
X209074769Y-80696043D01*
X209074768Y-80696046D01*
X209070081Y-80711497D01*
X209031783Y-80769935D01*
X208967970Y-80798391D01*
X208951421Y-80799500D01*
X205027400Y-80799500D01*
X204960361Y-80779815D01*
X204914606Y-80727011D01*
X204904662Y-80693147D01*
X204885165Y-80557543D01*
X204865072Y-80513547D01*
X204825377Y-80426627D01*
X204731128Y-80317857D01*
X204610053Y-80240047D01*
X204610051Y-80240046D01*
X204610049Y-80240045D01*
X204610050Y-80240045D01*
X204471963Y-80199500D01*
X204471961Y-80199500D01*
X204328039Y-80199500D01*
X204328036Y-80199500D01*
X204189949Y-80240045D01*
X204068873Y-80317856D01*
X203974623Y-80426626D01*
X203974622Y-80426628D01*
X203914834Y-80557543D01*
X203894353Y-80700000D01*
X203914834Y-80842456D01*
X203974622Y-80973371D01*
X203974623Y-80973373D01*
X204068872Y-81082143D01*
X204189947Y-81159953D01*
X204189950Y-81159954D01*
X204189949Y-81159954D01*
X204297107Y-81191417D01*
X204325280Y-81199690D01*
X204328036Y-81200499D01*
X204328038Y-81200500D01*
X204375500Y-81200500D01*
X204442539Y-81220185D01*
X204488294Y-81272989D01*
X204499500Y-81324500D01*
X204499500Y-81436260D01*
X204479815Y-81503299D01*
X204469213Y-81517462D01*
X204374625Y-81626622D01*
X204374622Y-81626628D01*
X204314834Y-81757543D01*
X204294353Y-81900000D01*
X204314834Y-82042456D01*
X204360504Y-82142457D01*
X204374623Y-82173373D01*
X204468872Y-82282143D01*
X204589947Y-82359953D01*
X204589950Y-82359954D01*
X204589949Y-82359954D01*
X204728036Y-82400499D01*
X204728038Y-82400500D01*
X204728039Y-82400500D01*
X204871962Y-82400500D01*
X204871962Y-82400499D01*
X205010053Y-82359953D01*
X205131128Y-82282143D01*
X205225377Y-82173373D01*
X205285165Y-82042457D01*
X205305647Y-81900000D01*
X205285165Y-81757543D01*
X205225377Y-81626627D01*
X205207245Y-81605702D01*
X205178221Y-81542147D01*
X205188165Y-81472989D01*
X205233919Y-81420185D01*
X205300959Y-81400500D01*
X208951421Y-81400500D01*
X209018460Y-81420185D01*
X209064215Y-81472989D01*
X209070081Y-81488503D01*
X209074768Y-81503954D01*
X209172315Y-81686450D01*
X209172317Y-81686452D01*
X209303589Y-81846410D01*
X209375581Y-81905491D01*
X209463550Y-81977685D01*
X209646046Y-82075232D01*
X209712551Y-82095405D01*
X209770989Y-82133702D01*
X209799446Y-82197514D01*
X209788887Y-82266581D01*
X209742663Y-82318975D01*
X209708650Y-82333841D01*
X209586514Y-82366567D01*
X209586507Y-82366570D01*
X209372422Y-82466399D01*
X209372420Y-82466400D01*
X209178926Y-82601886D01*
X209178920Y-82601891D01*
X209011891Y-82768920D01*
X209011886Y-82768926D01*
X208876400Y-82962420D01*
X208876399Y-82962422D01*
X208776570Y-83176507D01*
X208776567Y-83176513D01*
X208719364Y-83389999D01*
X208719364Y-83390000D01*
X209616988Y-83390000D01*
X209584075Y-83447007D01*
X209550000Y-83574174D01*
X209550000Y-83705826D01*
X209584075Y-83832993D01*
X209616988Y-83890000D01*
X208719364Y-83890000D01*
X208776567Y-84103486D01*
X208776570Y-84103492D01*
X208876399Y-84317578D01*
X209011894Y-84511082D01*
X209178917Y-84678105D01*
X209372421Y-84813600D01*
X209542948Y-84893118D01*
X209595387Y-84939290D01*
X209614539Y-85006484D01*
X209594323Y-85073365D01*
X209541158Y-85118700D01*
X209490543Y-85129500D01*
X209180247Y-85129500D01*
X209121770Y-85141131D01*
X209121769Y-85141132D01*
X209055447Y-85185447D01*
X209011132Y-85251769D01*
X209011131Y-85251770D01*
X208999500Y-85310247D01*
X208999500Y-87049752D01*
X209011131Y-87108229D01*
X209011132Y-87108230D01*
X209055447Y-87174552D01*
X209121769Y-87218867D01*
X209121770Y-87218868D01*
X209180247Y-87230499D01*
X209180250Y-87230500D01*
X209180252Y-87230500D01*
X210919750Y-87230500D01*
X210919751Y-87230499D01*
X210934568Y-87227552D01*
X210978229Y-87218868D01*
X210978229Y-87218867D01*
X210978231Y-87218867D01*
X211044552Y-87174552D01*
X211088867Y-87108231D01*
X211088867Y-87108229D01*
X211088868Y-87108229D01*
X211100499Y-87049752D01*
X211100500Y-87049750D01*
X211100500Y-85310249D01*
X211100499Y-85310247D01*
X211088868Y-85251770D01*
X211088867Y-85251769D01*
X211044552Y-85185447D01*
X210978230Y-85141132D01*
X210978229Y-85141131D01*
X210919752Y-85129500D01*
X210919748Y-85129500D01*
X210609457Y-85129500D01*
X210542418Y-85109815D01*
X210496663Y-85057011D01*
X210486719Y-84987853D01*
X210515744Y-84924297D01*
X210557052Y-84893118D01*
X210727578Y-84813600D01*
X210921082Y-84678105D01*
X211088105Y-84511082D01*
X211223600Y-84317578D01*
X211323429Y-84103492D01*
X211323432Y-84103486D01*
X211380636Y-83890000D01*
X210483012Y-83890000D01*
X210515925Y-83832993D01*
X210550000Y-83705826D01*
X210550000Y-83574174D01*
X210515925Y-83447007D01*
X210483012Y-83390000D01*
X211380636Y-83390000D01*
X211380635Y-83389999D01*
X211323432Y-83176513D01*
X211323429Y-83176507D01*
X211223600Y-82962422D01*
X211223599Y-82962420D01*
X211088113Y-82768926D01*
X211088108Y-82768920D01*
X210921082Y-82601894D01*
X210727578Y-82466399D01*
X210513492Y-82366570D01*
X210513486Y-82366567D01*
X210391349Y-82333841D01*
X210331689Y-82297476D01*
X210301160Y-82234629D01*
X210309455Y-82165253D01*
X210353940Y-82111375D01*
X210387444Y-82095407D01*
X210453954Y-82075232D01*
X210636450Y-81977685D01*
X210796410Y-81846410D01*
X210927685Y-81686450D01*
X211025232Y-81503954D01*
X211085300Y-81305934D01*
X211105583Y-81100000D01*
X211085300Y-80894066D01*
X211025232Y-80696046D01*
X211023682Y-80693147D01*
X211017621Y-80681807D01*
X211003379Y-80613404D01*
X211028379Y-80548160D01*
X211039298Y-80535672D01*
X211432041Y-80142929D01*
X211890460Y-79684511D01*
X211930022Y-79615988D01*
X211950500Y-79539562D01*
X211950500Y-79460438D01*
X211950500Y-77110438D01*
X211930021Y-77034011D01*
X211930017Y-77034004D01*
X211890464Y-76965495D01*
X211890458Y-76965487D01*
X206444512Y-71519541D01*
X206444504Y-71519535D01*
X206375995Y-71479982D01*
X206375990Y-71479979D01*
X206350513Y-71473152D01*
X206299562Y-71459500D01*
X206299560Y-71459500D01*
X204558579Y-71459500D01*
X204491540Y-71439815D01*
X204445785Y-71387011D01*
X204439919Y-71371497D01*
X204439677Y-71370701D01*
X204435232Y-71356046D01*
X204337685Y-71173550D01*
X204285702Y-71110209D01*
X204206410Y-71013589D01*
X204046452Y-70882317D01*
X204046453Y-70882317D01*
X204046450Y-70882315D01*
X203876554Y-70791502D01*
X203863956Y-70784769D01*
X203863955Y-70784768D01*
X203863954Y-70784768D01*
X203797447Y-70764593D01*
X203739009Y-70726296D01*
X203710553Y-70662484D01*
X203721113Y-70593417D01*
X203767337Y-70541023D01*
X203801350Y-70526158D01*
X203923483Y-70493433D01*
X203923492Y-70493429D01*
X204137578Y-70393600D01*
X204331082Y-70258105D01*
X204498105Y-70091082D01*
X204633600Y-69897578D01*
X204733429Y-69683492D01*
X204733432Y-69683486D01*
X204790636Y-69470000D01*
X203893012Y-69470000D01*
X203925925Y-69412993D01*
X203960000Y-69285826D01*
X203960000Y-69154174D01*
X203925925Y-69027007D01*
X203893012Y-68970000D01*
X204790636Y-68970000D01*
X204790635Y-68969999D01*
X204733432Y-68756513D01*
X204733429Y-68756507D01*
X204633600Y-68542422D01*
X204633599Y-68542420D01*
X204498113Y-68348926D01*
X204498108Y-68348920D01*
X204331082Y-68181894D01*
X204137578Y-68046399D01*
X203923492Y-67946570D01*
X203923486Y-67946567D01*
X203801349Y-67913841D01*
X203741689Y-67877476D01*
X203711160Y-67814629D01*
X203719455Y-67745253D01*
X203763940Y-67691375D01*
X203797444Y-67675407D01*
X203863954Y-67655232D01*
X204046450Y-67557685D01*
X204206410Y-67426410D01*
X204337685Y-67266450D01*
X204435232Y-67083954D01*
X204495300Y-66885934D01*
X204515583Y-66680000D01*
X204495300Y-66474066D01*
X204435232Y-66276046D01*
X204337685Y-66093550D01*
X204273258Y-66015045D01*
X204206410Y-65933589D01*
X204046452Y-65802317D01*
X204046453Y-65802317D01*
X204046450Y-65802315D01*
X203863954Y-65704768D01*
X203665934Y-65644700D01*
X203665932Y-65644699D01*
X203665934Y-65644699D01*
X203460000Y-65624417D01*
X203254067Y-65644699D01*
X203056043Y-65704769D01*
X202945898Y-65763643D01*
X202873550Y-65802315D01*
X202873548Y-65802316D01*
X202873547Y-65802317D01*
X202713589Y-65933589D01*
X202582317Y-66093547D01*
X202484769Y-66276043D01*
X202424699Y-66474067D01*
X202404417Y-66680000D01*
X202424699Y-66885932D01*
X202439570Y-66934954D01*
X202484768Y-67083954D01*
X202582315Y-67266450D01*
X202610424Y-67300701D01*
X202713589Y-67426410D01*
X202774780Y-67476627D01*
X202873550Y-67557685D01*
X203056046Y-67655232D01*
X203122551Y-67675405D01*
X203180989Y-67713702D01*
X203209446Y-67777514D01*
X203198887Y-67846581D01*
X203152663Y-67898975D01*
X203118650Y-67913841D01*
X202996514Y-67946567D01*
X202996507Y-67946570D01*
X202782422Y-68046399D01*
X202782420Y-68046400D01*
X202588926Y-68181886D01*
X202588920Y-68181891D01*
X202421891Y-68348920D01*
X202421886Y-68348926D01*
X202286400Y-68542420D01*
X202286399Y-68542422D01*
X202186570Y-68756507D01*
X202186567Y-68756513D01*
X202129364Y-68969999D01*
X188750500Y-68969999D01*
X188750500Y-68213738D01*
X188770185Y-68146699D01*
X188780787Y-68132535D01*
X188781124Y-68132144D01*
X188781128Y-68132143D01*
X188875377Y-68023373D01*
X188935165Y-67892457D01*
X188948458Y-67800000D01*
X190843917Y-67800000D01*
X190864199Y-68005932D01*
X190869490Y-68023373D01*
X190924268Y-68203954D01*
X191021815Y-68386450D01*
X191021817Y-68386452D01*
X191153089Y-68546410D01*
X191249709Y-68625702D01*
X191313050Y-68677685D01*
X191495546Y-68775232D01*
X191693566Y-68835300D01*
X191693565Y-68835300D01*
X191712029Y-68837118D01*
X191899500Y-68855583D01*
X192105434Y-68835300D01*
X192303454Y-68775232D01*
X192485950Y-68677685D01*
X192645910Y-68546410D01*
X192777185Y-68386450D01*
X192874732Y-68203954D01*
X192934800Y-68005934D01*
X192955083Y-67800000D01*
X192934800Y-67594066D01*
X192874732Y-67396046D01*
X192777185Y-67213550D01*
X192725202Y-67150209D01*
X192645910Y-67053589D01*
X192528177Y-66956969D01*
X192485950Y-66922315D01*
X192303454Y-66824768D01*
X192105434Y-66764700D01*
X192105432Y-66764699D01*
X192105434Y-66764699D01*
X191899500Y-66744417D01*
X191693567Y-66764699D01*
X191495543Y-66824769D01*
X191385398Y-66883643D01*
X191313050Y-66922315D01*
X191313048Y-66922316D01*
X191313047Y-66922317D01*
X191153089Y-67053589D01*
X191021817Y-67213547D01*
X191021815Y-67213550D01*
X190993539Y-67266450D01*
X190924269Y-67396043D01*
X190864199Y-67594067D01*
X190843917Y-67800000D01*
X188948458Y-67800000D01*
X188955647Y-67750000D01*
X188935165Y-67607543D01*
X188886685Y-67501389D01*
X188876742Y-67432233D01*
X188905767Y-67368677D01*
X188932435Y-67345568D01*
X189031128Y-67282143D01*
X189125377Y-67173373D01*
X189185165Y-67042457D01*
X189205647Y-66900000D01*
X189185165Y-66757543D01*
X189125377Y-66626627D01*
X189031128Y-66517857D01*
X189031125Y-66517855D01*
X189031123Y-66517853D01*
X188931478Y-66453815D01*
X188885723Y-66401012D01*
X188875779Y-66331853D01*
X188904804Y-66268297D01*
X188963582Y-66230523D01*
X188998517Y-66225500D01*
X192388667Y-66225500D01*
X192455706Y-66245185D01*
X192476348Y-66261819D01*
X193450201Y-67235672D01*
X193483686Y-67296995D01*
X193478702Y-67366687D01*
X193471881Y-67381800D01*
X193464270Y-67396039D01*
X193404199Y-67594067D01*
X193383917Y-67800000D01*
X193404199Y-68005932D01*
X193409490Y-68023373D01*
X193464268Y-68203954D01*
X193561815Y-68386450D01*
X193561817Y-68386452D01*
X193693089Y-68546410D01*
X193789709Y-68625702D01*
X193853050Y-68677685D01*
X194035546Y-68775232D01*
X194233566Y-68835300D01*
X194233565Y-68835300D01*
X194252029Y-68837118D01*
X194439500Y-68855583D01*
X194645434Y-68835300D01*
X194843454Y-68775232D01*
X195025950Y-68677685D01*
X195185910Y-68546410D01*
X195317185Y-68386450D01*
X195414732Y-68203954D01*
X195474800Y-68005934D01*
X195495083Y-67800000D01*
X195474800Y-67594066D01*
X195414732Y-67396046D01*
X195317185Y-67213550D01*
X195265202Y-67150209D01*
X195185910Y-67053589D01*
X195068177Y-66956969D01*
X195025950Y-66922315D01*
X194843454Y-66824768D01*
X194645434Y-66764700D01*
X194645432Y-66764699D01*
X194645434Y-66764699D01*
X194439500Y-66744417D01*
X194233567Y-66764699D01*
X194035539Y-66824770D01*
X194021300Y-66832381D01*
X193952897Y-66846620D01*
X193887654Y-66821616D01*
X193875172Y-66810701D01*
X192749012Y-65684541D01*
X192749004Y-65684535D01*
X192680495Y-65644982D01*
X192680490Y-65644979D01*
X192655013Y-65638152D01*
X192604062Y-65624500D01*
X192604060Y-65624500D01*
X188458501Y-65624500D01*
X188391462Y-65604815D01*
X188364788Y-65581703D01*
X188331128Y-65542857D01*
X188210053Y-65465047D01*
X188210051Y-65465046D01*
X188210049Y-65465045D01*
X188210050Y-65465045D01*
X188071963Y-65424500D01*
X188071961Y-65424500D01*
X187928039Y-65424500D01*
X187928036Y-65424500D01*
X187789949Y-65465045D01*
X187668873Y-65542856D01*
X187574623Y-65651626D01*
X187574622Y-65651628D01*
X187514834Y-65782543D01*
X187502527Y-65868147D01*
X187473502Y-65931703D01*
X187414724Y-65969477D01*
X187379789Y-65974500D01*
X187278036Y-65974500D01*
X187139949Y-66015045D01*
X187018873Y-66092856D01*
X186924623Y-66201626D01*
X186924622Y-66201628D01*
X186864834Y-66332543D01*
X186844353Y-66475000D01*
X186864834Y-66617456D01*
X186922816Y-66744417D01*
X186924623Y-66748373D01*
X187018872Y-66857143D01*
X187139947Y-66934953D01*
X187139950Y-66934954D01*
X187139949Y-66934954D01*
X187247107Y-66966417D01*
X187271200Y-66973492D01*
X187278036Y-66975499D01*
X187278038Y-66975500D01*
X187278039Y-66975500D01*
X187421962Y-66975500D01*
X187421962Y-66975499D01*
X187560053Y-66934953D01*
X187681128Y-66857143D01*
X187775377Y-66748373D01*
X187835165Y-66617457D01*
X187846528Y-66538418D01*
X187875552Y-66474864D01*
X187881564Y-66468405D01*
X187888159Y-66461810D01*
X187949483Y-66428332D01*
X187975832Y-66425500D01*
X188071962Y-66425500D01*
X188071962Y-66425499D01*
X188115583Y-66412691D01*
X188172333Y-66396029D01*
X188242202Y-66396029D01*
X188300980Y-66433804D01*
X188330005Y-66497359D01*
X188320061Y-66566518D01*
X188300981Y-66596208D01*
X188274623Y-66626627D01*
X188274622Y-66626628D01*
X188214834Y-66757543D01*
X188194353Y-66900000D01*
X188194353Y-66900003D01*
X188198811Y-66931015D01*
X188188866Y-67000173D01*
X188183462Y-67010656D01*
X188169980Y-67034008D01*
X188169979Y-67034009D01*
X188149500Y-67110439D01*
X188149500Y-67286260D01*
X188129815Y-67353299D01*
X188119213Y-67367462D01*
X188024625Y-67476622D01*
X188024622Y-67476628D01*
X187964834Y-67607543D01*
X187944353Y-67750000D01*
X187964834Y-67892456D01*
X188016658Y-68005932D01*
X188024623Y-68023373D01*
X188118872Y-68132143D01*
X188118875Y-68132144D01*
X188119213Y-68132535D01*
X188148238Y-68196091D01*
X188149500Y-68213738D01*
X188149500Y-69539562D01*
X188155829Y-69563181D01*
X188169979Y-69615991D01*
X188169981Y-69615994D01*
X188183108Y-69638730D01*
X188199582Y-69706630D01*
X188176730Y-69772657D01*
X188121810Y-69815848D01*
X188052256Y-69822490D01*
X188040788Y-69819709D01*
X188013189Y-69811605D01*
X187971961Y-69799500D01*
X187828039Y-69799500D01*
X187828036Y-69799500D01*
X187689949Y-69840045D01*
X187568872Y-69917856D01*
X187550211Y-69939393D01*
X187491433Y-69977166D01*
X187421563Y-69977166D01*
X187362787Y-69939393D01*
X187331127Y-69902856D01*
X187284502Y-69872892D01*
X187210053Y-69825047D01*
X187210051Y-69825046D01*
X187210049Y-69825045D01*
X187210050Y-69825045D01*
X187071963Y-69784500D01*
X187071961Y-69784500D01*
X186928039Y-69784500D01*
X186928036Y-69784500D01*
X186789949Y-69825045D01*
X186668873Y-69902856D01*
X186574623Y-70011626D01*
X186574622Y-70011628D01*
X186514834Y-70142543D01*
X186494353Y-70285000D01*
X180847707Y-70285000D01*
X180840165Y-70232543D01*
X180780377Y-70101627D01*
X180780375Y-70101625D01*
X180780374Y-70101622D01*
X180685787Y-69992462D01*
X180656762Y-69928906D01*
X180655500Y-69911260D01*
X180655500Y-69655832D01*
X180675185Y-69588793D01*
X180691814Y-69568156D01*
X186130651Y-64129318D01*
X186191974Y-64095834D01*
X186218332Y-64093000D01*
X186314462Y-64093000D01*
X186314462Y-64092999D01*
X186452553Y-64052453D01*
X186573628Y-63974643D01*
X186667877Y-63865873D01*
X186727665Y-63734957D01*
X186748147Y-63592500D01*
X186727665Y-63450043D01*
X186667877Y-63319127D01*
X186630786Y-63276321D01*
X186601762Y-63212767D01*
X186600500Y-63195120D01*
X186600500Y-63163738D01*
X186620185Y-63096699D01*
X186630787Y-63082535D01*
X186631124Y-63082144D01*
X186631128Y-63082143D01*
X186725377Y-62973373D01*
X186785165Y-62842457D01*
X186805647Y-62700000D01*
X186785165Y-62557543D01*
X186725377Y-62426627D01*
X186631128Y-62317857D01*
X186510053Y-62240047D01*
X186510051Y-62240046D01*
X186510049Y-62240045D01*
X186510050Y-62240045D01*
X186371963Y-62199500D01*
X186371961Y-62199500D01*
X186228039Y-62199500D01*
X186228036Y-62199500D01*
X186089949Y-62240045D01*
X185968873Y-62317856D01*
X185874623Y-62426626D01*
X185874622Y-62426628D01*
X185814834Y-62557543D01*
X185794353Y-62700000D01*
X185814834Y-62842456D01*
X185874622Y-62973371D01*
X185874625Y-62973376D01*
X185926465Y-63033203D01*
X185955490Y-63096758D01*
X185945546Y-63165917D01*
X185913958Y-63208115D01*
X185911371Y-63210356D01*
X185817125Y-63319122D01*
X185817122Y-63319128D01*
X185757334Y-63450043D01*
X185736853Y-63592500D01*
X185736853Y-63592501D01*
X185738161Y-63601603D01*
X185728213Y-63670761D01*
X185703103Y-63706924D01*
X180170489Y-69239540D01*
X180114541Y-69295487D01*
X180114535Y-69295495D01*
X180074982Y-69364004D01*
X180074979Y-69364009D01*
X180054500Y-69440439D01*
X180054500Y-69911260D01*
X180034815Y-69978299D01*
X180024213Y-69992462D01*
X179929625Y-70101622D01*
X179929622Y-70101628D01*
X179869834Y-70232543D01*
X179849353Y-70375000D01*
X178539758Y-70375000D01*
X178500000Y-62145000D01*
X178499999Y-62145000D01*
X167024500Y-62145000D01*
X166957461Y-62125315D01*
X166911706Y-62072511D01*
X166900500Y-62021000D01*
X166900500Y-59693713D01*
X167449500Y-59693713D01*
X167449500Y-59906287D01*
X167459534Y-59969644D01*
X167480807Y-60103955D01*
X167482754Y-60116243D01*
X167526214Y-60250000D01*
X167548444Y-60318414D01*
X167644951Y-60507820D01*
X167769890Y-60679786D01*
X167920213Y-60830109D01*
X168092179Y-60955048D01*
X168092181Y-60955049D01*
X168092184Y-60955051D01*
X168281588Y-61051557D01*
X168483757Y-61117246D01*
X168693713Y-61150500D01*
X168693714Y-61150500D01*
X168906286Y-61150500D01*
X168906287Y-61150500D01*
X169116243Y-61117246D01*
X169318412Y-61051557D01*
X169507816Y-60955051D01*
X169551105Y-60923600D01*
X169679786Y-60830109D01*
X169679788Y-60830106D01*
X169679792Y-60830104D01*
X169830104Y-60679792D01*
X169830106Y-60679788D01*
X169830109Y-60679786D01*
X169955048Y-60507820D01*
X169955047Y-60507820D01*
X169955051Y-60507816D01*
X170051557Y-60318412D01*
X170117246Y-60116243D01*
X170150500Y-59906287D01*
X170150500Y-59693713D01*
X170117246Y-59483757D01*
X170051557Y-59281588D01*
X169955051Y-59092184D01*
X169955049Y-59092181D01*
X169955048Y-59092179D01*
X169830109Y-58920213D01*
X169740143Y-58830247D01*
X173649500Y-58830247D01*
X173649500Y-60569752D01*
X173661131Y-60628229D01*
X173661132Y-60628230D01*
X173705447Y-60694552D01*
X173771769Y-60738867D01*
X173771770Y-60738868D01*
X173830247Y-60750499D01*
X173830250Y-60750500D01*
X173830252Y-60750500D01*
X175569750Y-60750500D01*
X175569751Y-60750499D01*
X175584568Y-60747552D01*
X175628229Y-60738868D01*
X175628229Y-60738867D01*
X175628231Y-60738867D01*
X175694552Y-60694552D01*
X175738867Y-60628231D01*
X175738867Y-60628229D01*
X175738868Y-60628229D01*
X175748922Y-60577682D01*
X175750500Y-60569748D01*
X175750500Y-59700000D01*
X176184417Y-59700000D01*
X176204699Y-59905932D01*
X176219867Y-59955934D01*
X176264768Y-60103954D01*
X176362315Y-60286450D01*
X176388545Y-60318412D01*
X176493589Y-60446410D01*
X176568414Y-60507816D01*
X176653550Y-60577685D01*
X176836046Y-60675232D01*
X177034066Y-60735300D01*
X177034065Y-60735300D01*
X177052529Y-60737118D01*
X177240000Y-60755583D01*
X177445934Y-60735300D01*
X177643954Y-60675232D01*
X177826450Y-60577685D01*
X177986410Y-60446410D01*
X178117685Y-60286450D01*
X178215232Y-60103954D01*
X178275300Y-59905934D01*
X178295583Y-59700000D01*
X178724417Y-59700000D01*
X178744699Y-59905932D01*
X178759867Y-59955934D01*
X178804768Y-60103954D01*
X178902315Y-60286450D01*
X178928545Y-60318412D01*
X179033589Y-60446410D01*
X179108414Y-60507816D01*
X179193550Y-60577685D01*
X179376046Y-60675232D01*
X179574066Y-60735300D01*
X179574065Y-60735300D01*
X179592529Y-60737118D01*
X179780000Y-60755583D01*
X179985934Y-60735300D01*
X180183954Y-60675232D01*
X180366450Y-60577685D01*
X180526410Y-60446410D01*
X180657685Y-60286450D01*
X180755232Y-60103954D01*
X180815300Y-59905934D01*
X180835583Y-59700000D01*
X181264417Y-59700000D01*
X181284699Y-59905932D01*
X181299867Y-59955934D01*
X181344768Y-60103954D01*
X181442315Y-60286450D01*
X181468545Y-60318412D01*
X181573589Y-60446410D01*
X181648414Y-60507816D01*
X181733550Y-60577685D01*
X181916046Y-60675232D01*
X182114066Y-60735300D01*
X182114065Y-60735300D01*
X182132529Y-60737118D01*
X182320000Y-60755583D01*
X182525934Y-60735300D01*
X182723954Y-60675232D01*
X182906450Y-60577685D01*
X183066410Y-60446410D01*
X183197685Y-60286450D01*
X183295232Y-60103954D01*
X183355300Y-59905934D01*
X183375583Y-59700000D01*
X183804417Y-59700000D01*
X183824699Y-59905932D01*
X183839867Y-59955934D01*
X183884768Y-60103954D01*
X183982315Y-60286450D01*
X184008545Y-60318412D01*
X184113589Y-60446410D01*
X184188414Y-60507816D01*
X184273550Y-60577685D01*
X184456046Y-60675232D01*
X184654066Y-60735300D01*
X184654065Y-60735300D01*
X184672529Y-60737118D01*
X184860000Y-60755583D01*
X185065934Y-60735300D01*
X185263954Y-60675232D01*
X185446450Y-60577685D01*
X185606410Y-60446410D01*
X185737685Y-60286450D01*
X185835232Y-60103954D01*
X185895300Y-59905934D01*
X185915583Y-59700000D01*
X186344417Y-59700000D01*
X186364699Y-59905932D01*
X186379867Y-59955934D01*
X186424768Y-60103954D01*
X186522315Y-60286450D01*
X186548545Y-60318412D01*
X186653589Y-60446410D01*
X186728414Y-60507816D01*
X186813550Y-60577685D01*
X186996046Y-60675232D01*
X187194066Y-60735300D01*
X187194065Y-60735300D01*
X187212529Y-60737118D01*
X187400000Y-60755583D01*
X187605934Y-60735300D01*
X187803954Y-60675232D01*
X187986450Y-60577685D01*
X188146410Y-60446410D01*
X188277685Y-60286450D01*
X188375232Y-60103954D01*
X188435300Y-59905934D01*
X188455583Y-59700000D01*
X188884417Y-59700000D01*
X188904699Y-59905932D01*
X188919867Y-59955934D01*
X188964768Y-60103954D01*
X189062315Y-60286450D01*
X189088545Y-60318412D01*
X189193589Y-60446410D01*
X189268414Y-60507816D01*
X189353550Y-60577685D01*
X189536046Y-60675232D01*
X189734066Y-60735300D01*
X189734065Y-60735300D01*
X189752529Y-60737118D01*
X189940000Y-60755583D01*
X190145934Y-60735300D01*
X190343954Y-60675232D01*
X190526450Y-60577685D01*
X190686410Y-60446410D01*
X190817685Y-60286450D01*
X190915232Y-60103954D01*
X190935406Y-60037446D01*
X190973702Y-59979010D01*
X191037514Y-59950553D01*
X191106581Y-59961112D01*
X191158975Y-60007336D01*
X191173841Y-60041349D01*
X191206567Y-60163486D01*
X191206570Y-60163492D01*
X191306399Y-60377578D01*
X191441894Y-60571082D01*
X191608917Y-60738105D01*
X191802421Y-60873600D01*
X192016507Y-60973429D01*
X192016516Y-60973433D01*
X192230000Y-61030634D01*
X192230000Y-60133012D01*
X192287007Y-60165925D01*
X192414174Y-60200000D01*
X192545826Y-60200000D01*
X192672993Y-60165925D01*
X192730000Y-60133012D01*
X192730000Y-61030633D01*
X192943483Y-60973433D01*
X192943492Y-60973429D01*
X193157578Y-60873600D01*
X193351082Y-60738105D01*
X193518105Y-60571082D01*
X193653600Y-60377578D01*
X193753429Y-60163492D01*
X193753432Y-60163486D01*
X193810636Y-59950000D01*
X192913012Y-59950000D01*
X192945925Y-59892993D01*
X192980000Y-59765826D01*
X192980000Y-59750000D01*
X197354417Y-59750000D01*
X197374699Y-59955932D01*
X197390292Y-60007336D01*
X197434768Y-60153954D01*
X197532315Y-60336450D01*
X197532317Y-60336452D01*
X197663589Y-60496410D01*
X197752953Y-60569748D01*
X197823550Y-60627685D01*
X198006046Y-60725232D01*
X198204066Y-60785300D01*
X198204065Y-60785300D01*
X198222529Y-60787118D01*
X198410000Y-60805583D01*
X198615934Y-60785300D01*
X198813954Y-60725232D01*
X198996450Y-60627685D01*
X199156410Y-60496410D01*
X199287685Y-60336450D01*
X199385232Y-60153954D01*
X199445300Y-59955934D01*
X199465583Y-59750000D01*
X199894417Y-59750000D01*
X199914699Y-59955932D01*
X199930292Y-60007336D01*
X199974768Y-60153954D01*
X200072315Y-60336450D01*
X200072317Y-60336452D01*
X200203589Y-60496410D01*
X200292953Y-60569748D01*
X200363550Y-60627685D01*
X200546046Y-60725232D01*
X200744066Y-60785300D01*
X200744065Y-60785300D01*
X200762529Y-60787118D01*
X200950000Y-60805583D01*
X201155934Y-60785300D01*
X201353954Y-60725232D01*
X201536450Y-60627685D01*
X201696410Y-60496410D01*
X201827685Y-60336450D01*
X201925232Y-60153954D01*
X201945406Y-60087446D01*
X201983702Y-60029010D01*
X202047514Y-60000553D01*
X202116581Y-60011112D01*
X202168975Y-60057336D01*
X202183841Y-60091349D01*
X202216567Y-60213486D01*
X202216570Y-60213492D01*
X202316399Y-60427578D01*
X202451894Y-60621082D01*
X202618917Y-60788105D01*
X202812421Y-60923600D01*
X203026507Y-61023429D01*
X203026516Y-61023433D01*
X203240000Y-61080634D01*
X203240000Y-60183012D01*
X203297007Y-60215925D01*
X203424174Y-60250000D01*
X203555826Y-60250000D01*
X203682993Y-60215925D01*
X203740000Y-60183012D01*
X203740000Y-61080633D01*
X203953483Y-61023433D01*
X203953492Y-61023429D01*
X204167578Y-60923600D01*
X204361082Y-60788105D01*
X204528105Y-60621082D01*
X204663599Y-60427578D01*
X204743118Y-60257051D01*
X204789290Y-60204612D01*
X204856484Y-60185460D01*
X204923365Y-60205676D01*
X204968699Y-60258841D01*
X204979500Y-60309456D01*
X204979500Y-60619752D01*
X204991131Y-60678229D01*
X204991132Y-60678230D01*
X205035447Y-60744552D01*
X205101769Y-60788867D01*
X205101770Y-60788868D01*
X205160247Y-60800499D01*
X205160250Y-60800500D01*
X205160252Y-60800500D01*
X206899750Y-60800500D01*
X206899751Y-60800499D01*
X206914568Y-60797552D01*
X206958229Y-60788868D01*
X206958229Y-60788867D01*
X206958231Y-60788867D01*
X207024552Y-60744552D01*
X207068867Y-60678231D01*
X207068867Y-60678229D01*
X207068868Y-60678229D01*
X207078922Y-60627682D01*
X207080500Y-60619748D01*
X207080500Y-59693713D01*
X210549500Y-59693713D01*
X210549500Y-59906287D01*
X210559534Y-59969644D01*
X210580807Y-60103955D01*
X210582754Y-60116243D01*
X210626214Y-60250000D01*
X210648444Y-60318414D01*
X210744951Y-60507820D01*
X210869890Y-60679786D01*
X211020213Y-60830109D01*
X211192179Y-60955048D01*
X211192181Y-60955049D01*
X211192184Y-60955051D01*
X211381588Y-61051557D01*
X211583757Y-61117246D01*
X211793713Y-61150500D01*
X211793714Y-61150500D01*
X212006286Y-61150500D01*
X212006287Y-61150500D01*
X212216243Y-61117246D01*
X212418412Y-61051557D01*
X212607816Y-60955051D01*
X212651105Y-60923600D01*
X212779786Y-60830109D01*
X212779788Y-60830106D01*
X212779792Y-60830104D01*
X212930104Y-60679792D01*
X212930106Y-60679788D01*
X212930109Y-60679786D01*
X213055048Y-60507820D01*
X213055047Y-60507820D01*
X213055051Y-60507816D01*
X213151557Y-60318412D01*
X213217246Y-60116243D01*
X213250500Y-59906287D01*
X213250500Y-59693713D01*
X213217246Y-59483757D01*
X213151557Y-59281588D01*
X213055051Y-59092184D01*
X213055049Y-59092181D01*
X213055048Y-59092179D01*
X212930109Y-58920213D01*
X212779786Y-58769890D01*
X212607820Y-58644951D01*
X212418414Y-58548444D01*
X212418413Y-58548443D01*
X212418412Y-58548443D01*
X212216243Y-58482754D01*
X212216241Y-58482753D01*
X212216240Y-58482753D01*
X212054957Y-58457208D01*
X212006287Y-58449500D01*
X211793713Y-58449500D01*
X211745042Y-58457208D01*
X211583760Y-58482753D01*
X211381585Y-58548444D01*
X211192179Y-58644951D01*
X211020213Y-58769890D01*
X210869890Y-58920213D01*
X210744951Y-59092179D01*
X210648444Y-59281585D01*
X210582753Y-59483760D01*
X210571152Y-59557007D01*
X210549500Y-59693713D01*
X207080500Y-59693713D01*
X207080500Y-58880252D01*
X207080500Y-58880249D01*
X207080499Y-58880247D01*
X207068868Y-58821770D01*
X207068867Y-58821769D01*
X207024552Y-58755447D01*
X206958230Y-58711132D01*
X206958229Y-58711131D01*
X206899752Y-58699500D01*
X206899748Y-58699500D01*
X205160252Y-58699500D01*
X205160247Y-58699500D01*
X205101770Y-58711131D01*
X205101769Y-58711132D01*
X205035447Y-58755447D01*
X204991132Y-58821769D01*
X204991131Y-58821770D01*
X204979500Y-58880247D01*
X204979500Y-59190543D01*
X204959815Y-59257582D01*
X204907011Y-59303337D01*
X204837853Y-59313281D01*
X204774297Y-59284256D01*
X204743118Y-59242948D01*
X204663600Y-59072422D01*
X204663599Y-59072420D01*
X204528113Y-58878926D01*
X204528108Y-58878920D01*
X204361082Y-58711894D01*
X204167578Y-58576399D01*
X203953492Y-58476570D01*
X203953486Y-58476567D01*
X203740000Y-58419364D01*
X203740000Y-59316988D01*
X203682993Y-59284075D01*
X203555826Y-59250000D01*
X203424174Y-59250000D01*
X203297007Y-59284075D01*
X203240000Y-59316988D01*
X203240000Y-58419364D01*
X203239999Y-58419364D01*
X203026513Y-58476567D01*
X203026507Y-58476570D01*
X202812422Y-58576399D01*
X202812420Y-58576400D01*
X202618926Y-58711886D01*
X202618920Y-58711891D01*
X202451891Y-58878920D01*
X202451886Y-58878926D01*
X202316400Y-59072420D01*
X202316399Y-59072422D01*
X202216570Y-59286507D01*
X202216567Y-59286514D01*
X202183841Y-59408650D01*
X202147476Y-59468310D01*
X202084629Y-59498839D01*
X202015253Y-59490544D01*
X201961375Y-59446059D01*
X201945406Y-59412553D01*
X201925232Y-59346046D01*
X201827685Y-59163550D01*
X201752897Y-59072420D01*
X201696410Y-59003589D01*
X201546121Y-58880252D01*
X201536450Y-58872315D01*
X201353954Y-58774768D01*
X201155934Y-58714700D01*
X201155932Y-58714699D01*
X201155934Y-58714699D01*
X200950000Y-58694417D01*
X200744067Y-58714699D01*
X200609736Y-58755448D01*
X200555933Y-58771769D01*
X200546043Y-58774769D01*
X200457089Y-58822317D01*
X200363550Y-58872315D01*
X200363548Y-58872316D01*
X200363547Y-58872317D01*
X200203589Y-59003589D01*
X200072317Y-59163547D01*
X199974769Y-59346043D01*
X199914699Y-59544067D01*
X199894417Y-59750000D01*
X199465583Y-59750000D01*
X199445300Y-59544066D01*
X199385232Y-59346046D01*
X199287685Y-59163550D01*
X199212897Y-59072420D01*
X199156410Y-59003589D01*
X199006121Y-58880252D01*
X198996450Y-58872315D01*
X198813954Y-58774768D01*
X198615934Y-58714700D01*
X198615932Y-58714699D01*
X198615934Y-58714699D01*
X198410000Y-58694417D01*
X198204067Y-58714699D01*
X198069736Y-58755448D01*
X198015933Y-58771769D01*
X198006043Y-58774769D01*
X197917089Y-58822317D01*
X197823550Y-58872315D01*
X197823548Y-58872316D01*
X197823547Y-58872317D01*
X197663589Y-59003589D01*
X197532317Y-59163547D01*
X197434769Y-59346043D01*
X197374699Y-59544067D01*
X197354417Y-59750000D01*
X192980000Y-59750000D01*
X192980000Y-59634174D01*
X192945925Y-59507007D01*
X192913012Y-59450000D01*
X193810636Y-59450000D01*
X193810635Y-59449999D01*
X193753432Y-59236513D01*
X193753429Y-59236507D01*
X193653600Y-59022422D01*
X193653599Y-59022420D01*
X193518113Y-58828926D01*
X193518108Y-58828920D01*
X193351082Y-58661894D01*
X193157578Y-58526399D01*
X192943492Y-58426570D01*
X192943486Y-58426567D01*
X192730000Y-58369364D01*
X192730000Y-59266988D01*
X192672993Y-59234075D01*
X192545826Y-59200000D01*
X192414174Y-59200000D01*
X192287007Y-59234075D01*
X192230000Y-59266988D01*
X192230000Y-58369364D01*
X192229999Y-58369364D01*
X192016513Y-58426567D01*
X192016507Y-58426570D01*
X191802422Y-58526399D01*
X191802420Y-58526400D01*
X191608926Y-58661886D01*
X191608920Y-58661891D01*
X191441891Y-58828920D01*
X191441886Y-58828926D01*
X191306400Y-59022420D01*
X191306399Y-59022422D01*
X191206570Y-59236507D01*
X191206567Y-59236514D01*
X191173841Y-59358650D01*
X191137476Y-59418310D01*
X191074629Y-59448839D01*
X191005253Y-59440544D01*
X190951375Y-59396059D01*
X190935406Y-59362553D01*
X190915232Y-59296046D01*
X190817685Y-59113550D01*
X190727443Y-59003589D01*
X190686410Y-58953589D01*
X190536121Y-58830252D01*
X190526450Y-58822315D01*
X190343954Y-58724768D01*
X190145934Y-58664700D01*
X190145932Y-58664699D01*
X190145934Y-58664699D01*
X189940000Y-58644417D01*
X189734067Y-58664699D01*
X189536043Y-58724769D01*
X189425898Y-58783643D01*
X189353550Y-58822315D01*
X189353548Y-58822316D01*
X189353547Y-58822317D01*
X189193589Y-58953589D01*
X189062317Y-59113547D01*
X188964769Y-59296043D01*
X188904699Y-59494067D01*
X188884417Y-59700000D01*
X188455583Y-59700000D01*
X188435300Y-59494066D01*
X188375232Y-59296046D01*
X188277685Y-59113550D01*
X188187443Y-59003589D01*
X188146410Y-58953589D01*
X187996121Y-58830252D01*
X187986450Y-58822315D01*
X187803954Y-58724768D01*
X187605934Y-58664700D01*
X187605932Y-58664699D01*
X187605934Y-58664699D01*
X187400000Y-58644417D01*
X187194067Y-58664699D01*
X186996043Y-58724769D01*
X186885898Y-58783643D01*
X186813550Y-58822315D01*
X186813548Y-58822316D01*
X186813547Y-58822317D01*
X186653589Y-58953589D01*
X186522317Y-59113547D01*
X186424769Y-59296043D01*
X186364699Y-59494067D01*
X186344417Y-59700000D01*
X185915583Y-59700000D01*
X185895300Y-59494066D01*
X185835232Y-59296046D01*
X185737685Y-59113550D01*
X185647443Y-59003589D01*
X185606410Y-58953589D01*
X185456121Y-58830252D01*
X185446450Y-58822315D01*
X185263954Y-58724768D01*
X185065934Y-58664700D01*
X185065932Y-58664699D01*
X185065934Y-58664699D01*
X184860000Y-58644417D01*
X184654067Y-58664699D01*
X184456043Y-58724769D01*
X184345898Y-58783643D01*
X184273550Y-58822315D01*
X184273548Y-58822316D01*
X184273547Y-58822317D01*
X184113589Y-58953589D01*
X183982317Y-59113547D01*
X183884769Y-59296043D01*
X183824699Y-59494067D01*
X183804417Y-59700000D01*
X183375583Y-59700000D01*
X183355300Y-59494066D01*
X183295232Y-59296046D01*
X183197685Y-59113550D01*
X183107443Y-59003589D01*
X183066410Y-58953589D01*
X182916121Y-58830252D01*
X182906450Y-58822315D01*
X182723954Y-58724768D01*
X182525934Y-58664700D01*
X182525932Y-58664699D01*
X182525934Y-58664699D01*
X182320000Y-58644417D01*
X182114067Y-58664699D01*
X181916043Y-58724769D01*
X181805898Y-58783643D01*
X181733550Y-58822315D01*
X181733548Y-58822316D01*
X181733547Y-58822317D01*
X181573589Y-58953589D01*
X181442317Y-59113547D01*
X181344769Y-59296043D01*
X181284699Y-59494067D01*
X181264417Y-59700000D01*
X180835583Y-59700000D01*
X180815300Y-59494066D01*
X180755232Y-59296046D01*
X180657685Y-59113550D01*
X180567443Y-59003589D01*
X180526410Y-58953589D01*
X180376121Y-58830252D01*
X180366450Y-58822315D01*
X180183954Y-58724768D01*
X179985934Y-58664700D01*
X179985932Y-58664699D01*
X179985934Y-58664699D01*
X179780000Y-58644417D01*
X179574067Y-58664699D01*
X179376043Y-58724769D01*
X179265898Y-58783643D01*
X179193550Y-58822315D01*
X179193548Y-58822316D01*
X179193547Y-58822317D01*
X179033589Y-58953589D01*
X178902317Y-59113547D01*
X178804769Y-59296043D01*
X178744699Y-59494067D01*
X178724417Y-59700000D01*
X178295583Y-59700000D01*
X178275300Y-59494066D01*
X178215232Y-59296046D01*
X178117685Y-59113550D01*
X178027443Y-59003589D01*
X177986410Y-58953589D01*
X177836121Y-58830252D01*
X177826450Y-58822315D01*
X177643954Y-58724768D01*
X177445934Y-58664700D01*
X177445932Y-58664699D01*
X177445934Y-58664699D01*
X177240000Y-58644417D01*
X177034067Y-58664699D01*
X176836043Y-58724769D01*
X176725898Y-58783643D01*
X176653550Y-58822315D01*
X176653548Y-58822316D01*
X176653547Y-58822317D01*
X176493589Y-58953589D01*
X176362317Y-59113547D01*
X176264769Y-59296043D01*
X176204699Y-59494067D01*
X176184417Y-59700000D01*
X175750500Y-59700000D01*
X175750500Y-58830252D01*
X175750500Y-58830249D01*
X175750499Y-58830247D01*
X175738868Y-58771770D01*
X175738867Y-58771769D01*
X175694552Y-58705447D01*
X175628230Y-58661132D01*
X175628229Y-58661131D01*
X175569752Y-58649500D01*
X175569748Y-58649500D01*
X173830252Y-58649500D01*
X173830247Y-58649500D01*
X173771770Y-58661131D01*
X173771769Y-58661132D01*
X173705447Y-58705447D01*
X173661132Y-58771769D01*
X173661131Y-58771770D01*
X173649500Y-58830247D01*
X169740143Y-58830247D01*
X169679786Y-58769890D01*
X169507820Y-58644951D01*
X169318414Y-58548444D01*
X169318413Y-58548443D01*
X169318412Y-58548443D01*
X169116243Y-58482754D01*
X169116241Y-58482753D01*
X169116240Y-58482753D01*
X168954957Y-58457208D01*
X168906287Y-58449500D01*
X168693713Y-58449500D01*
X168645042Y-58457208D01*
X168483760Y-58482753D01*
X168281585Y-58548444D01*
X168092179Y-58644951D01*
X167920213Y-58769890D01*
X167769890Y-58920213D01*
X167644951Y-59092179D01*
X167548444Y-59281585D01*
X167482753Y-59483760D01*
X167471152Y-59557007D01*
X167449500Y-59693713D01*
X166900500Y-59693713D01*
X166900500Y-58024500D01*
X166920185Y-57957461D01*
X166972989Y-57911706D01*
X167024500Y-57900500D01*
X213675500Y-57900500D01*
X213742539Y-57920185D01*
G37*
G04 #@! TD.AperFunction*
M02*
