G04 #@! TF.GenerationSoftware,KiCad,Pcbnew,8.0.8*
G04 #@! TF.CreationDate,2025-01-30T19:33:48+01:00*
G04 #@! TF.ProjectId,HAMS_node,48414d53-5f6e-46f6-9465-2e6b69636164,rev?*
G04 #@! TF.SameCoordinates,Original*
G04 #@! TF.FileFunction,Soldermask,Bot*
G04 #@! TF.FilePolarity,Negative*
%FSLAX46Y46*%
G04 Gerber Fmt 4.6, Leading zero omitted, Abs format (unit mm)*
G04 Created by KiCad (PCBNEW 8.0.8) date 2025-01-30 19:33:48*
%MOMM*%
%LPD*%
G01*
G04 APERTURE LIST*
G04 Aperture macros list*
%AMRoundRect*
0 Rectangle with rounded corners*
0 $1 Rounding radius*
0 $2 $3 $4 $5 $6 $7 $8 $9 X,Y pos of 4 corners*
0 Add a 4 corners polygon primitive as box body*
4,1,4,$2,$3,$4,$5,$6,$7,$8,$9,$2,$3,0*
0 Add four circle primitives for the rounded corners*
1,1,$1+$1,$2,$3*
1,1,$1+$1,$4,$5*
1,1,$1+$1,$6,$7*
1,1,$1+$1,$8,$9*
0 Add four rect primitives between the rounded corners*
20,1,$1+$1,$2,$3,$4,$5,0*
20,1,$1+$1,$4,$5,$6,$7,0*
20,1,$1+$1,$6,$7,$8,$9,0*
20,1,$1+$1,$8,$9,$2,$3,0*%
G04 Aperture macros list end*
%ADD10C,2.200000*%
%ADD11R,1.000000X1.000000*%
%ADD12O,1.000000X1.000000*%
%ADD13O,2.000000X1.700000*%
%ADD14RoundRect,0.250000X0.750000X-0.600000X0.750000X0.600000X-0.750000X0.600000X-0.750000X-0.600000X0*%
%ADD15C,1.200000*%
%ADD16R,1.700000X1.700000*%
%ADD17O,1.700000X1.700000*%
%ADD18C,1.700000*%
G04 APERTURE END LIST*
D10*
X211900000Y-59800000D03*
D11*
X202700000Y-78850000D03*
D12*
X203970000Y-78850000D03*
X185595000Y-80100000D03*
D11*
X184325000Y-80100000D03*
X179825000Y-89850000D03*
D12*
X179825000Y-88580000D03*
D11*
X179800000Y-80945000D03*
D12*
X179800000Y-79675000D03*
D13*
X170075000Y-93450000D03*
D14*
X170075000Y-95950000D03*
D15*
X172075000Y-97550000D03*
D16*
X203410000Y-98520000D03*
D17*
X203410000Y-95980000D03*
X203410000Y-93440000D03*
X203410000Y-90900000D03*
D10*
X211900000Y-105400000D03*
D16*
X206030000Y-59750000D03*
D17*
X203490000Y-59750000D03*
X200950000Y-59750000D03*
X198410000Y-59750000D03*
D10*
X168800000Y-105400000D03*
X168800000Y-59800000D03*
D16*
X210050000Y-86180000D03*
D17*
X210050000Y-83640000D03*
X210050000Y-81100000D03*
X210050000Y-78560000D03*
D16*
X203460000Y-74300000D03*
D17*
X203460000Y-71760000D03*
X203460000Y-69220000D03*
X203460000Y-66680000D03*
D16*
X174700000Y-59700000D03*
D17*
X177240000Y-59700000D03*
X179780000Y-59700000D03*
X182320000Y-59700000D03*
X184860000Y-59700000D03*
X187400000Y-59700000D03*
X189940000Y-59700000D03*
X192480000Y-59700000D03*
D16*
X194439500Y-75420000D03*
D18*
X191899500Y-75420000D03*
X194439500Y-72880000D03*
X191899500Y-72880000D03*
X194439500Y-70340000D03*
X191899500Y-70340000D03*
X194439500Y-67800000D03*
X191899500Y-67800000D03*
M02*
