M48
; DRILL file {KiCad 8.0.8} date 2025-01-30T19:33:50+0100
; FORMAT={-:-/ absolute / metric / decimal}
; #@! TF.CreationDate,2025-01-30T19:33:50+01:00
; #@! TF.GenerationSoftware,Kicad,Pcbnew,8.0.8
; #@! TF.FileFunction,Plated,1,2,PTH
FMAT,2
METRIC
; #@! TA.AperFunction,Plated,PTH,ViaDrill
T1C0.300
; #@! TA.AperFunction,Plated,PTH,ComponentDrill
T2C0.650
; #@! TA.AperFunction,Plated,PTH,ComponentDrill
T3C1.000
%
G90
G05
T1
X168.0Y-78.4
X168.0Y-81.95
X168.0Y-83.25
X168.0Y-85.8
X168.525Y-99.7
X168.875Y-88.175
X169.05Y-97.75
X171.0Y-103.1
X171.85Y-99.4
X172.0Y-61.225
X172.0Y-92.45
X172.0Y-94.65
X172.025Y-58.675
X172.3Y-79.725
X172.3Y-80.7
X172.75Y-106.525
X173.1Y-91.15
X173.8Y-99.4
X174.15Y-89.475
X174.375Y-91.15
X175.2Y-88.2
X175.95Y-88.95
X176.7Y-95.8
X177.0Y-80.7
X177.1Y-85.77
X177.275Y-84.125
X177.375Y-88.0
X177.4Y-79.2
X177.9Y-80.7
X178.075Y-99.275
X178.15Y-86.325
X179.225Y-64.275
X179.225Y-68.725
X179.225Y-71.825
X179.225Y-75.125
X179.8Y-83.9
X179.8Y-84.85
X180.0Y-106.475
X180.355Y-70.375
X180.355Y-71.2
X180.55Y-99.225
X180.8Y-95.7
X181.55Y-72.8
X181.7Y-103.025
X181.775Y-86.325
X181.775Y-87.4
X182.25Y-71.25
X182.325Y-84.1
X182.65Y-91.275
X182.8Y-76.8
X183.0Y-72.8
X183.15Y-94.975
X183.35Y-106.525
X183.6Y-85.75
X183.8Y-99.65
X185.175Y-84.175
X185.8Y-96.45
X186.2Y-91.35
X186.242Y-63.592
X186.275Y-95.075
X186.3Y-62.7
X186.65Y-96.45
X187.0Y-70.285
X187.35Y-66.475
X187.4Y-82.0
X187.9Y-70.3
X187.938Y-83.462
X188.0Y-65.925
X188.3Y-82.0
X188.45Y-67.75
X188.7Y-66.9
X188.925Y-84.45
X189.0Y-83.0
X189.05Y-70.1
X189.2Y-92.8
X189.25Y-93.55
X189.3Y-87.2
X189.35Y-78.8
X189.6Y-80.15
X189.7Y-97.325
X189.85Y-73.675
X189.875Y-94.875
X189.9Y-70.34
X189.9Y-77.1
X190.4Y-78.8
X190.8Y-74.25
X190.95Y-86.1
X191.15Y-63.7
X191.15Y-106.5
X191.25Y-85.15
X191.25Y-99.575
X191.65Y-80.15
X192.6Y-93.2
X192.9Y-77.2
X193.142Y-88.324
X193.9Y-89.1
X194.4Y-63.7
X194.4Y-92.0
X194.492Y-88.274
X195.3Y-89.5
X195.375Y-79.875
X195.4Y-81.225
X195.6Y-77.9
X196.1Y-59.8
X196.3Y-93.2
X196.55Y-96.35
X196.7Y-90.1
X196.8Y-101.075
X197.375Y-89.4
X197.5Y-91.2
X197.95Y-83.65
X198.0Y-80.7
X198.0Y-81.5
X198.5Y-83.1
X198.85Y-96.0
X199.55Y-98.5
X199.85Y-84.85
X199.9Y-76.85
X199.9Y-77.85
X199.9Y-79.8
X199.9Y-80.75
X200.0Y-61.55
X201.0Y-94.7
X201.15Y-97.2
X201.225Y-100.85
X201.975Y-81.25
X202.2Y-61.6
X202.25Y-63.75
X202.35Y-76.5
X204.4Y-80.7
X204.8Y-81.9
X205.0Y-76.85
X205.35Y-70.1
X205.6Y-92.6
X205.6Y-95.7
X207.225Y-79.55
X207.325Y-82.525
X207.35Y-87.95
X207.6Y-62.4
X207.6Y-63.8
X207.8Y-92.0
X207.8Y-93.4
X209.85Y-90.9
X210.575Y-90.175
X211.5Y-66.55
X211.5Y-69.2
X211.5Y-71.9
X212.4Y-91.0
X212.4Y-93.4
X212.4Y-96.0
T2
X179.8Y-79.675
X179.8Y-80.945
X179.825Y-88.58
X179.825Y-89.85
X184.325Y-80.1
X185.595Y-80.1
X202.7Y-78.85
X203.97Y-78.85
T3
X170.075Y-93.45
X170.075Y-95.95
X174.7Y-59.7
X177.24Y-59.7
X179.78Y-59.7
X182.32Y-59.7
X184.86Y-59.7
X187.4Y-59.7
X189.94Y-59.7
X191.899Y-67.8
X191.899Y-70.34
X191.899Y-72.88
X191.899Y-75.42
X192.48Y-59.7
X194.439Y-67.8
X194.439Y-70.34
X194.439Y-72.88
X194.439Y-75.42
X198.41Y-59.75
X200.95Y-59.75
X203.41Y-90.9
X203.41Y-93.44
X203.41Y-95.98
X203.41Y-98.52
X203.46Y-66.68
X203.46Y-69.22
X203.46Y-71.76
X203.46Y-74.3
X203.49Y-59.75
X206.03Y-59.75
X210.05Y-78.56
X210.05Y-81.1
X210.05Y-83.64
X210.05Y-86.18
M30
